/* XPM */
static char * up_idle_5_xpm[] = {
"35 35 16 1",
" 	c None",
".	c #33302F",
"+	c #2F2D2D",
"@	c #44352C",
"#	c #2C2A2A",
"$	c #ECE2E2",
"%	c #485734",
"&	c #50433A",
"*	c #2A2825",
"=	c #141414",
"-	c #872E20",
";	c #561C14",
">	c #323131",
",	c #C93620",
"'	c #D2AA7B",
")	c #10313F",
"..+.............@#............+...+",
"...+.....+.................#.++....",
"...##...+.................#..+.....",
"..##...++..#....$$$$..............#",
"......+++#..#..$$$$$.+..%%.........",
"..+++++##.&..#$$$$$$$.+%%.%%......+",
".++..##.......$$$$$$$++%&%&&&....++",
"...........+.$$$$$$$$$.&.&.*.@.....",
"...........++.$=====$%&+*.*#&&.....",
"............++=$$$$$=.&#+..&&#.....",
".............+.$$$$$&&..++.........",
"....@....#....$$$$$$#&&..++........",
"..............=$$$$$=.....+....#...",
"..............=$=$=$=--.......#....",
".#.....+....-;;=====;;--.........#.",
"..#...+....-;;==>>>==;;-..........#",
"...#..+....-;==>>>>>=;;,...........",
"......+....,;=>>===>>=;'...........",
"...+++#....''=>=====>=''#....@.....",
"..++##.....''=>=====>=''..........+",
".&+........''=========''..........+",
".......%...''=========''...........",
"......%%...'''======='''...........",
".....&%&..%%''=======''..&.........",
"...%.&&..%%**.)=====)...++.........",
"...%%#%%&%&*..)))))))+++........++.",
"..+&%&#&%&....)))))))##...#......++",
".+..&&**&.....)))))))....#.........",
"+.............))).)))...#..++......",
"+@....#.......))).))).......+.@.+..",
".......#......=)=.=)=........++...@",
".#............===+===........++....",
"..#...........===.===.......+.@...+",
"...#.........##....++...#..++....++",
"......+++................#.......+."};
