/* XPM */
static char * close_exit_xpm[] = {
"35 35 482 2",
"  	c None",
". 	c #62432A",
"+ 	c #9C6F46",
"@ 	c #775437",
"# 	c #805B3A",
"$ 	c #7C5635",
"% 	c #745234",
"& 	c #6C4E34",
"* 	c #4F3627",
"= 	c #5A3F2C",
"- 	c #553B29",
"; 	c #583E2B",
"> 	c #533A28",
", 	c #402D20",
"' 	c #3E281E",
") 	c #422C20",
"! 	c #463022",
"~ 	c #452F22",
"{ 	c #38291D",
"] 	c #39291D",
"^ 	c #2B1E18",
"/ 	c #291D17",
"( 	c #33221B",
"_ 	c #3A251D",
": 	c #5C3F28",
"< 	c #936842",
"[ 	c #825D3C",
"} 	c #7B5535",
"| 	c #785435",
"1 	c #6B4D34",
"2 	c #563C2A",
"3 	c #583D2A",
"4 	c #523928",
"5 	c #593E2B",
"6 	c #543A28",
"7 	c #2B1C15",
"8 	c #312218",
"9 	c #472F21",
"0 	c #38261B",
"a 	c #2C1E14",
"b 	c #312118",
"c 	c #37231B",
"d 	c #311E19",
"e 	c #301D18",
"f 	c #33201A",
"g 	c #5C412C",
"h 	c #543B29",
"i 	c #6B4D33",
"j 	c #6A4C33",
"k 	c #694B33",
"l 	c #4E3526",
"m 	c #2C1C16",
"n 	c #2B1F15",
"o 	c #3F2B1E",
"p 	c #2A1D14",
"q 	c #2F2016",
"r 	c #331F1A",
"s 	c #301D19",
"t 	c #5A402B",
"u 	c #664931",
"v 	c #644730",
"w 	c #62452F",
"x 	c #4E3626",
"y 	c #543B28",
"z 	c #654830",
"A 	c #6E4F35",
"B 	c #6D4F35",
"C 	c #60442E",
"D 	c #674A32",
"E 	c #6C4D34",
"F 	c #61442F",
"G 	c #5E432E",
"H 	c #5F432E",
"I 	c #533928",
"J 	c #5B402C",
"K 	c #62462F",
"L 	c #694B32",
"M 	c #61452F",
"N 	c #553D29",
"O 	c #583E2A",
"P 	c #6B4C33",
"Q 	c #5C402C",
"R 	c #503727",
"S 	c #513827",
"T 	c #593F2B",
"U 	c #513828",
"V 	c #523828",
"W 	c #4A3224",
"X 	c #34201A",
"Y 	c #442E21",
"Z 	c #503726",
"` 	c #503827",
" .	c #543A29",
"..	c #543C2B",
"+.	c #5A402D",
"@.	c #634730",
"#.	c #5B412D",
"$.	c #644831",
"%.	c #684B33",
"&.	c #4E3220",
"*.	c #A26F41",
"=.	c #B48354",
"-.	c #B78556",
";.	c #97663A",
">.	c #966539",
",.	c #6C4E35",
"'.	c #684A32",
").	c #654831",
"!.	c #4D3626",
"~.	c #593F2C",
"{.	c #513A2A",
"].	c #5E432F",
"^.	c #614630",
"/.	c #321F19",
"(.	c #764F2E",
"_.	c #654931",
":.	c #845931",
"<.	c #815833",
"[.	c #6D4E34",
"}.	c #9E6E42",
"|.	c #AF7B4B",
"1.	c #9E6F44",
"2.	c #724E31",
"3.	c #6D492D",
"4.	c #412C21",
"5.	c #231D19",
"6.	c #221515",
"7.	c #231616",
"8.	c #050E13",
"9.	c #00000A",
"0.	c #271415",
"a.	c #2E1B18",
"b.	c #432D21",
"c.	c #402B1F",
"d.	c #3E291F",
"e.	c #744C2B",
"f.	c #6D4D33",
"g.	c #795230",
"h.	c #8A5C32",
"i.	c #624630",
"j.	c #8F6137",
"k.	c #B07D4E",
"l.	c #A37245",
"m.	c #7C5737",
"n.	c #6B482C",
"o.	c #513625",
"p.	c #2D1E16",
"q.	c #2C1B18",
"r.	c #2F1D18",
"s.	c #281A16",
"t.	c #00050D",
"u.	c #261D16",
"v.	c #473022",
"w.	c #40291D",
"x.	c #3F271C",
"y.	c #412B20",
"z.	c #5C412D",
"A.	c #684B32",
"B.	c #261914",
"C.	c #311F18",
"D.	c #2E1C18",
"E.	c #2B1A17",
"F.	c #34211A",
"G.	c #2F1E18",
"H.	c #00070D",
"I.	c #201914",
"J.	c #422D20",
"K.	c #432B1F",
"L.	c #3E271C",
"M.	c #36211A",
"N.	c #3C271D",
"O.	c #5A3F2B",
"P.	c #5D422D",
"Q.	c #5E422D",
"R.	c #2D1B18",
"S.	c #553C29",
"T.	c #4C3425",
"U.	c #402A1F",
"V.	c #5D412C",
"W.	c #563A28",
"X.	c #6E4E34",
"Y.	c #735237",
"Z.	c #6D4E33",
"`.	c #694C33",
" +	c #523927",
".+	c #573D2A",
"++	c #4F3626",
"@+	c #69472C",
"#+	c #4D3425",
"$+	c #64452B",
"%+	c #855C37",
"&+	c #442F1D",
"*+	c #55381F",
"=+	c #63432A",
"-+	c #845F3C",
";+	c #C38C58",
">+	c #AA794B",
",+	c #906136",
"'+	c #744E2E",
")+	c #694629",
"!+	c #4D3426",
"~+	c #573C2A",
"{+	c #553C2A",
"]+	c #6F4C2F",
"^+	c #755236",
"/+	c #86603F",
"(+	c #8F6743",
"_+	c #7F5937",
":+	c #7D5736",
"<+	c #644226",
"[+	c #050410",
"}+	c #452E21",
"|+	c #3B271D",
"1+	c #3C271E",
"2+	c #35261C",
"3+	c #34251B",
"4+	c #00000B",
"5+	c #190B14",
"6+	c #271819",
"7+	c #2B1A19",
"8+	c #724B2B",
"9+	c #704C2F",
"0+	c #745236",
"a+	c #825D3D",
"b+	c #845E3C",
"c+	c #593D2A",
"d+	c #6A472C",
"e+	c #2C1D15",
"f+	c #483022",
"g+	c #3E2B1E",
"h+	c #36271B",
"i+	c #342118",
"j+	c #3D251B",
"k+	c #261916",
"l+	c #291C13",
"m+	c #1E1213",
"n+	c #4D3526",
"o+	c #2B1B16",
"p+	c #261A12",
"q+	c #472F22",
"r+	c #412D1F",
"s+	c #332318",
"t+	c #3C251B",
"u+	c #2C1B17",
"v+	c #141110",
"w+	c #513727",
"x+	c #664831",
"y+	c #5D412D",
"z+	c #674931",
"A+	c #634630",
"B+	c #563D2A",
"C+	c #68472C",
"D+	c #715034",
"E+	c #523827",
"F+	c #533C29",
"G+	c #6F4B2D",
"H+	c #60452F",
"I+	c #664A33",
"J+	c #5F442E",
"K+	c #533521",
"L+	c #AB7A4D",
"M+	c #B68455",
"N+	c #BB8757",
"O+	c #AB794B",
"P+	c #956539",
"Q+	c #765030",
"R+	c #825934",
"S+	c #774F2C",
"T+	c #6F4A29",
"U+	c #634731",
"V+	c #6B482B",
"W+	c #6D4C31",
"X+	c #5E432D",
"Y+	c #694A30",
"Z+	c #7B5635",
"`+	c #AA794C",
" @	c #B38253",
".@	c #B07F51",
"+@	c #8B5C31",
"@@	c #241D19",
"#@	c #2A1C19",
"$@	c #00000D",
"%@	c #151414",
"&@	c #38261F",
"*@	c #3E2A20",
"=@	c #442D21",
"-@	c #292019",
";@	c #2B211A",
">@	c #634125",
",@	c #715033",
"'@	c #5D432D",
")@	c #A17146",
"!@	c #B58354",
"~@	c #8C5D32",
"{@	c #7D5735",
"]@	c #573C28",
"^@	c #231714",
"/@	c #341F18",
"(@	c #311E18",
"_@	c #332017",
":@	c #00040D",
"<@	c #00060D",
"[@	c #04090E",
"}@	c #060B0F",
"|@	c #40281C",
"1@	c #402B20",
"2@	c #170F11",
"3@	c #311E17",
"4@	c #2C1A17",
"5@	c #3D261B",
"6@	c #382319",
"7@	c #030A0E",
"8@	c #3B251A",
"9@	c #35211A",
"0@	c #563A26",
"a@	c #684931",
"b@	c #644830",
"c@	c #5C422D",
"d@	c #60442F",
"e@	c #452E22",
"f@	c #5D3E27",
"g@	c #6F5035",
"h@	c #745437",
"i@	c #745337",
"j@	c #705034",
"k@	c #36221B",
"l@	c #38231C",
"m@	c #38241C",
"n@	c #61452E",
"o@	c #523826",
"p@	c #8E6036",
"q@	c #31251B",
"r@	c #32261C",
"s@	c #926338",
"t@	c #956438",
"u@	c #7C5432",
"v@	c #765336",
"w@	c #765436",
"x@	c #66442A",
"y@	c #825731",
"z@	c #775130",
"A@	c #4F3727",
"B@	c #37231C",
"C@	c #61422A",
"D@	c #9E7047",
"E@	c #745235",
"F@	c #755335",
"G@	c #33251D",
"H@	c #3F291F",
"I@	c #39271F",
"J@	c #37261F",
"K@	c #291E17",
"L@	c #271C17",
"M@	c #271A18",
"N@	c #311F1B",
"O@	c #956942",
"P@	c #815C3C",
"Q@	c #795536",
"R@	c #311F1A",
"S@	c #715135",
"T@	c #8B5F38",
"U@	c #946438",
"V@	c #5B412C",
"W@	c #6D4E35",
"X@	c #4D3627",
"Y@	c #573E2C",
"Z@	c #4F3726",
"`@	c #4E3728",
" #	c #573E2A",
".#	c #624128",
"+#	c #5E442F",
"@#	c #664326",
"##	c #654932",
"$#	c #916844",
"%#	c #6F4E32",
"&#	c #765132",
"*#	c #6F4F34",
"=#	c #97683D",
"-#	c #8D6643",
";#	c #7A5537",
">#	c #3B281F",
",#	c #4B3020",
"'#	c #926944",
")#	c #775537",
"!#	c #725135",
"~#	c #8B5C32",
"{#	c #9B693C",
"]#	c #8C6542",
"^#	c #835D3D",
"/#	c #35251B",
"(#	c #37231A",
"_#	c #291B16",
":#	c #271D16",
"<#	c #442C1F",
"[#	c #9A6738",
"}#	c #825834",
"|#	c #322119",
"1#	c #38251B",
"2#	c #322018",
"3#	c #00070E",
"4#	c #211914",
"5#	c #432E20",
"6#	c #462F21",
"7#	c #3E271B",
"8#	c #483123",
"9#	c #674932",
"0#	c #604028",
"a#	c #5E402A",
"b#	c #66462B",
"c#	c #604530",
"d#	c #765438",
"e#	c #AB7A4C",
"f#	c #32251C",
"g#	c #926337",
"h#	c #835A36",
"i#	c #64442B",
"j#	c #755130",
"k#	c #BC8857",
"l#	c #BA8757",
"m#	c #8F5F34",
"n#	c #754E2E",
"o#	c #674528",
"p#	c #6A4C34",
"q#	c #674629",
"r#	c #6D4A2D",
"s#	c #5C3B23",
"t#	c #87613F",
"u#	c #775435",
"v#	c #4A3325",
"w#	c #8A5C33",
"x#	c #7C5839",
"y#	c #5D402A",
"z#	c #442F21",
"A#	c #000008",
"B#	c #2F1C18",
"C#	c #3C291F",
"D#	c #36271C",
"E#	c #07000F",
"F#	c #271919",
"G#	c #2B1B19",
"H#	c #614025",
"I#	c #724E30",
"J#	c #5B3B22",
"K#	c #805B3B",
"L#	c #7B5636",
"M#	c #7F5531",
"N#	c #775336",
"O#	c #65452D",
"P#	c #191411",
"Q#	c #2B1D14",
"R#	c #3E261B",
"S#	c #3E2C1E",
"T#	c #39231A",
"U#	c #452E20",
"V#	c #37221A",
"W#	c #161111",
"X#	c #2A1D13",
"Y#	c #402C1E",
"Z#	c #422B1F",
"`#	c #3A241B",
" $	c #34231B",
".$	c #6F5036",
"+$	c #583D2B",
"@$	c #32211A",
"#$	c #3F2C20",
"$$	c #473023",
"%$	c #64452A",
"&$	c #6C4D33",
"*$	c #3A281E",
"=$	c #422C21",
"-$	c #543C29",
";$	c #301E17",
">$	c #8B5E35",
",$	c #875A31",
"'$	c #A17247",
")$	c #B38254",
"!$	c #A57548",
"~$	c #916237",
"{$	c #5E4029",
"]$	c #956841",
"^$	c #936841",
"/$	c #4C3625",
". + @ # $ % & * = - ; > , ' ) ! ~ { ] ^ / ( _ : < @ [ } | 1 2 3 4 5 6 ",
"7 8 9 0 a b c d e d f ) 2 g * h i j i k j j l m n 9 o p q c r s s f r ",
"t u v w x y > z A A B g C D E F G H I ; J K g 4 L v M > - > M A A A N ",
"O j P Q l u k R S S J T A u M U V W X X s Y u Z j j 2 ; H L 2 S S V ; ",
"`  ...+.z @.#.$.%.& M &.*.=.-.;.>.,.C 2 U '.).!.S ~.{.D v ].^.%.E 1 /.",
"(._.:.<.z [.}.|.1.2.3.4.5.6.7.8.9.0.a.b.b.c.d.e.f.g.h.i.1 j.k.l.m.n.o.",
"p.f q.r.X s.t.u.v.w.x.y.j z.S I L D A.1 1 1 ).B.C.D.E.F.G.H.I.J.K.L.M.",
"N.4 ; O.j 1 A j H H J v.1 v ).P. .z.z.z.z.g Q.R.S.T.C u D [.A H H H U.",
"5 '.P.i L L H H L j 1 x - V.W.j P X.Y.Z.k `.F. +i .+i k L u J A.j j ++",
"@+1 B H #+#+- u ).E & $+%+&+*+i E =+-+;+>+,+'+)+`.B K * !+~+M v E E {+",
"'+]+^+/+(+_+:+T.T 4 n.<+[+s }+|+1+2+3+4+5+6+7+8+9+0+a+(+b+:+c+2 R d+<+",
"7 e+f+g+h+i+j+r.e k+l+m+@.- z Q.j j i L L `.n+o+p+q+r+h+s+t+/.s u+p+v+",
"t u 5 w+L [.& A A A A g j M 1 x+Q.Q.R y+z+j g 4 L y+U A+B & A A A A B+",
"O.k i Q l u k l S S J C+D+z+M R U z.H j L A.z+E+k i 2 ; H L  .R S V F+",
"G+v ; Q.v @.~.; H+I+J+K+>.L+M+N+O+P+Q+- R R+S+T+U+g .+u v #.; P.I+k r.",
"V+W+X+Y+Z+$ `+ @.@+@:+4.@@#@$@4+%@&@*@b.=@-@;@>@,@'@J+$ Z+)@ @!@~@{@]@",
"^@/@R.(@t+_@:@<@[@}@|@1@j R R  .1 j i 1 1 1 ).2@3@R.4@5@6@H.t.[@7@8@9@",
".+H - C D [.A j M w J 0@a@b@).P. .z. .h z.g c@` M - Q.).[.[.A d@w C e@",
"S - 1 E X+L H C R S v f@D+w R `.i g@h@i@j@[.k@S R i i K L u J 5 S G ++",
"T D [.H n+!+1+l@m@}+n@o@p@q@r@s@t@u@v@w@x@y@z@` A.[.K A@!+y.B@k@Y t B+",
"C@D@E@# :+F@A w+y+2 3 > G@H@=@I@J@q@{ K@L@M@N@: O@E@P@$ Q@A ; =  .5 > ",
"7 8 9 0 a b c d e d R@) 2 g * h i j i k j j l m n 9 o p q c r s s f d ",
"t u v w x y > z S@T@U@V@C D E F G H I ; J K g 4 L v M > - > M W@T@T@G+",
"O j P Q l u k R R X@Y@T A u M U V W X X s Y u Z@j j 2 ; H L 2 S X@`@ #",
".# .5 Q.z @.+#%.i & M &.*.=.-.;.>.,.C 2 U '.).@#A@z..+D v +###i E 1 /.",
"$#%#X+Y+&#*#~@=#-#;#3.4.5.6.7.8.9.0.a.b.4.>#,#'#)#'@J+&#!#~#{#]#^#n.o.",
"/#(#R.(@j+_#t.:#v.<#x.y.j z.S I L D A.1 j.[#}#|#1#D.E.5@2#3#4#5#6#7#M.",
"8#S.M A [.M j j H H J ~ 1 v ).P. .z.z.z.~.Y@#.b.- O.A [.).9#A H H H U.",
"T U 5 R L `.H H L L i 0#a#J R k j X.*#j L `.F.S = 5 R A+k z+J A.k k ++",
"b#1 z+C #+#+- u c#z+j d#e#f#r@g#h#i#j#k#l#m#n#o#p#z+K * !+~+M c#A.A.B+",
"q#r#s#t#(+_+u#v#w#x#y#z#A#B#v.&@C#D#3+4+E#F#G#H#I#J#K#(+b+L#- M#N#O#x ",
"P#Q#R#S#h+i+T#s s U#V#H@A.'.1 P C J i L L `.l W#X#5@Y#h+s+t+s B#Z#`#/.",
" $H 5 w+L [..$- O A k h v +$2 Q.H H R y+M C g @$3 y+U A+W@g@J h A B R ",
"#$j 1 Q l ).4@$$I S J %$D+'.w R U z.J+&$j L u *$A+1 2 ; d@r =$4 S V O ",
"-$A..+).v @.).v j i C ;$>$,$'$)$!$~$z.{$]$^$h /$i .+w u v z b@A.i j F."};
