/* XPM */
static char * ground_xpm[] = {
"35 35 8 1",
" 	c None",
".	c #33302F",
"+	c #2F2D2D",
"@	c #44352C",
"#	c #2C2A2A",
"$	c #485734",
"%	c #50433A",
"&	c #2A2825",
"..+.............@#............+...+",
"...+.....+.................#.++....",
"...##...+.................#..+.....",
"..##...++..#......................#",
"......+++#..#........+..$$.........",
"..+++++##.%..#........+$$.$$......+",
".++..##............$$++$%$%%%....++",
"...........+........$$.%.%.&.@.....",
"...........++........$%+&.&#%%.....",
"............++........%#+..%%#.....",
".............+.....#%%..++.........",
"....@....#..........#%%..++........",
"..................@.......+....#...",
".................+............#....",
".#.....+.........++..............#.",
"..#...+.......@#..++..............#",
"...#..+......##....++..............",
"......+............................",
"...+++#.................#....@.....",
"..++##............................+",
".%+...............................+",
".......$.........++................",
"......$$.....#..++#................",
".....%$%..$$#...+........%.........",
"...$.%%..$$&&...........++.........",
"...$$#$$%$%&........++++........++.",
"..+%$%#%$%.........++##...#......++",
".+..%%&&%..........+#....#.........",
"+..................+....#..++......",
"+@....#.....................+.@.+..",
".......#.....................++...@",
".#...............++..........++....",
"..#...........@#..++........+.@...+",
"...#.........##....++...#..++....++",
"......+++................#.......+."};
