/* XPM */
static char * item_xpm[] = {
"35 35 16 1",
" 	c None",
".	c #33302F",
"+	c #2F2D2D",
"@	c #44352C",
"#	c #2C2A2A",
"$	c #485734",
"%	c #50433A",
"&	c #17271A",
"*	c #2A2825",
"=	c #458042",
"-	c #1C4919",
";	c #479E42",
">	c #1D5E19",
",	c #1A3A20",
"'	c #161412",
")	c #1B211B",
"..+.............@#............+...+",
"...+.....+.................#.++....",
"...##...+.................#..+.....",
"..##...++..#......................#",
"......+++#..#........+..$$.........",
"..+++++##.%..#........+$$.$$......+",
".++..##............$$++$%$%%%....++",
"...........+&&......$$.%.%.*.@.....",
"...........&=-&......$%+*.*#%%.....",
"..........&;=-&.......%#+..%%#.....",
".........&;;=-&....#%%..++.........",
"....@...&=;;=--&....#%%..++........",
".......&==;;>--&..@.......+....#...",
".......&==;;>,-&.+......&.....#....",
".#.....&==;;>,--&++....&=&.......#.",
"..#...+&==;=>,--&.++..&;=&........#",
"...#..+.==;=>>--,&.++.&;=-&........",
"......+.&>==>,,-,-&...&;=-&........",
"...+++#.&>==>,,,,-&...&=>-&..@.....",
"..++##..&-==>-,,,-&..&>>>,-&......+",
".%+.....&->=>-,,,'&..&>>-,-&......+",
".......$'->=>-,,,'&..&>--,-&.......",
"......$$'->>--,,,,')'',-,,,'.......",
".....%$)'->>--,,,,')))',,,'')).....",
"...$.))''-->--,,,&'')))&'')))......",
"...$$#$)'&->--,&&''))++)))).....++.",
"..+%$%#))'----''')))+##...#......++",
".+..%%**%)''')))).))#....#.........",
"+..................+....#..++......",
"+@....#.....................+.@.+..",
".......#.....................++...@",
".#...............++..........++....",
"..#...........@#..++........+.@...+",
"...#.........##....++...#..++....++",
"......+++................#.......+."};
