/* XPM */
static char * open_exit_xpm[] = {
"35 35 543 2",
"  	c None",
". 	c #63452D",
"+ 	c #5D422D",
"@ 	c #5E422D",
"# 	c #583E2B",
"$ 	c #62462F",
"% 	c #5B402C",
"& 	c #634630",
"* 	c #483223",
"= 	c #694B33",
"- 	c #5F432E",
"; 	c #553B29",
"> 	c #654831",
", 	c #6A4C33",
"' 	c #62452F",
") 	c #573A25",
"! 	c #704E31",
"~ 	c #4F3826",
"{ 	c #735031",
"] 	c #7B5534",
"^ 	c #835D3C",
"/ 	c #86603F",
"( 	c #724D2F",
"_ 	c #6C4A2E",
": 	c #5B3C24",
"< 	c #704D30",
"[ 	c #7F5A3B",
"} 	c #85603E",
"| 	c #714D2E",
"1 	c #5C3E28",
"2 	c #4B3324",
"3 	c #563A26",
"4 	c #563922",
"5 	c #6F4B2D",
"6 	c #563D29",
"7 	c #5C402A",
"8 	c #7C5634",
"9 	c #7C5636",
"0 	c #855F3E",
"a 	c #7C5737",
"b 	c #775131",
"c 	c #462E20",
"d 	c #795433",
"e 	c #61452F",
"f 	c #654830",
"g 	c #8E6642",
"h 	c #845C3A",
"i 	c #6A4B31",
"j 	c #3E2A1F",
"k 	c #503727",
"l 	c #5B412C",
"m 	c #5A402B",
"n 	c #533B28",
"o 	c #503827",
"p 	c #4D3526",
"q 	c #533A28",
"r 	c #573D2A",
"s 	c #59402B",
"t 	c #4C3525",
"u 	c #523928",
"v 	c #593F2C",
"w 	c #583F2B",
"x 	c #513927",
"y 	c #513928",
"z 	c #3D281E",
"A 	c #5D4028",
"B 	c #3B281E",
"C 	c #5D4029",
"D 	c #6E4B2E",
"E 	c #4A3423",
"F 	c #3C2A1F",
"G 	c #2A211F",
"H 	c #5A3D26",
"I 	c #3B2A22",
"J 	c #664931",
"K 	c #523D2C",
"L 	c #4A3528",
"M 	c #593F2B",
"N 	c #4D3525",
"O 	c #4C3425",
"P 	c #654329",
"Q 	c #63462F",
"R 	c #5F442E",
"S 	c #6A4B32",
"T 	c #6F4E32",
"U 	c #8D6542",
"V 	c #8C6441",
"W 	c #775334",
"X 	c #503726",
"Y 	c #5E432D",
"Z 	c #644730",
"` 	c #634730",
" .	c #563C2A",
"..	c #3A281E",
"+.	c #443022",
"@.	c #563E2C",
"#.	c #4B3526",
"$.	c #563E2B",
"%.	c #463224",
"&.	c #513A28",
"*.	c #5C412C",
"=.	c #5A3F2B",
"-.	c #573E2B",
";.	c #362C25",
">.	c #433024",
",.	c #745132",
"'.	c #0E1113",
").	c #191A1B",
"!.	c #433023",
"~.	c #4E3626",
"{.	c #523A29",
"].	c #452E20",
"^.	c #533825",
"/.	c #3F2C20",
"(.	c #624228",
"_.	c #60422A",
":.	c #453022",
"<.	c #37251C",
"[.	c #4D3423",
"}.	c #513623",
"|.	c #68462B",
"1.	c #815C3B",
"2.	c #7E5939",
"3.	c #6A472A",
"4.	c #573D29",
"5.	c #31261F",
"6.	c #101111",
"7.	c #292320",
"8.	c #694B32",
"9.	c #191817",
"0.	c #473427",
"a.	c #463023",
"b.	c #1A1818",
"c.	c #1B1B1B",
"d.	c #27211F",
"e.	c #27201D",
"f.	c #161616",
"g.	c #1D1C1C",
"h.	c #1C1B1B",
"i.	c #1F1A1A",
"j.	c #463427",
"k.	c #775132",
"l.	c #61442D",
"m.	c #392920",
"n.	c #2E231D",
"o.	c #5D432D",
"p.	c #5A402C",
"q.	c #543B29",
"r.	c #543C29",
"s.	c #241F1C",
"t.	c #382B23",
"u.	c #171717",
"v.	c #463426",
"w.	c #4E3726",
"x.	c #040C11",
"y.	c #141313",
"z.	c #161617",
"A.	c #1B1818",
"B.	c #3D2B1E",
"C.	c #201E1D",
"D.	c #1E1D1D",
"E.	c #151414",
"F.	c #191818",
"G.	c #4B382A",
"H.	c #6F4E34",
"I.	c #3E2F26",
"J.	c #131314",
"K.	c #6B4D33",
"L.	c #734E2F",
"M.	c #67482E",
"N.	c #513827",
"O.	c #493224",
"P.	c #4E3526",
"Q.	c #7F5939",
"R.	c #62452E",
"S.	c #704E32",
"T.	c #6F4D30",
"U.	c #755334",
"V.	c #815D3D",
"W.	c #714F32",
"X.	c #3D2A20",
"Y.	c #30251D",
"Z.	c #1E1915",
"`.	c #121112",
" +	c #121111",
".+	c #131212",
"++	c #141413",
"@+	c #121212",
"#+	c #141312",
"$+	c #151413",
"%+	c #463324",
"&+	c #211C1A",
"*+	c #443226",
"=+	c #4A3729",
"-+	c #322821",
";+	c #453124",
">+	c #563C29",
",+	c #63462E",
"'+	c #744F30",
")+	c #69472C",
"!+	c #513826",
"~+	c #2B1F1C",
"{+	c #2F231E",
"]+	c #4E3624",
"^+	c #221E1D",
"/+	c #463528",
"(+	c #453023",
"_+	c #251D18",
":+	c #111010",
"<+	c #100F0F",
"[+	c #131213",
"}+	c #36281F",
"|+	c #62442D",
"1+	c #5E432E",
"2+	c #5C422D",
"3+	c #694930",
"4+	c #684B32",
"5+	c #5F442F",
"6+	c #5F432D",
"7+	c #453224",
"8+	c #151415",
"9+	c #111111",
"0+	c #171616",
"a+	c #0D0C0C",
"b+	c #0E0D0D",
"c+	c #0E0E0E",
"d+	c #0F0E0E",
"e+	c #0D0C0D",
"f+	c #2B231D",
"g+	c #2C2622",
"h+	c #231D1A",
"i+	c #26211F",
"j+	c #2F251F",
"k+	c #37281E",
"l+	c #25211F",
"m+	c #714D30",
"n+	c #543723",
"o+	c #5E4026",
"p+	c #634127",
"q+	c #0C0B0B",
"r+	c #0A0909",
"s+	c #1A1919",
"t+	c #3C2B20",
"u+	c #4B3628",
"v+	c #201F1F",
"w+	c #0E0C0C",
"x+	c #161515",
"y+	c #1C1C1C",
"z+	c #553C29",
"A+	c #86603E",
"B+	c #755538",
"C+	c #252221",
"D+	c #241E1D",
"E+	c #2B1D15",
"F+	c #0B0A0A",
"G+	c #3A2C24",
"H+	c #60442E",
"I+	c #563D2B",
"J+	c #5A402D",
"K+	c #302722",
"L+	c #483525",
"M+	c #614329",
"N+	c #352821",
"O+	c #372821",
"P+	c #4B3325",
"Q+	c #4F3726",
"R+	c #6C492D",
"S+	c #593E28",
"T+	c #66452B",
"U+	c #674931",
"V+	c #6D4C30",
"W+	c #926842",
"X+	c #0F1012",
"Y+	c #211E1C",
"Z+	c #3D291F",
"`+	c #483123",
" @	c #5C412D",
".@	c #573E2A",
"+@	c #33261C",
"@@	c #413126",
"#@	c #755030",
"$@	c #6B4B30",
"%@	c #88613D",
"&@	c #7F5A39",
"*@	c #694A31",
"=@	c #4C3424",
"-@	c #66472E",
";@	c #493528",
">@	c #5A3F2C",
",@	c #5E442E",
"'@	c #30241C",
")@	c #181311",
"!@	c #33221C",
"~@	c #402D21",
"{@	c #583F2A",
"]@	c #765438",
"^@	c #66452A",
"/@	c #4F3422",
"(@	c #654428",
"_@	c #795536",
":@	c #815D3C",
"<@	c #795739",
"[@	c #4E3929",
"}@	c #483426",
"|@	c #3F2F25",
"1@	c #191716",
"2@	c #503928",
"3@	c #674A31",
"4@	c #5A412D",
"5@	c #463428",
"6@	c #644830",
"7@	c #563D2A",
"8@	c #61442E",
"9@	c #644831",
"0@	c #583F2C",
"a@	c #4D3829",
"b@	c #29231F",
"c@	c #1A1A1A",
"d@	c #231F1E",
"e@	c #35251D",
"f@	c #332923",
"g@	c #332823",
"h@	c #6F5137",
"i@	c #63442B",
"j@	c #5E412A",
"k@	c #5E3F26",
"l@	c #714C2E",
"m@	c #5C422C",
"n@	c #3C2E25",
"o@	c #423227",
"p@	c #4F3A2B",
"q@	c #352A24",
"r@	c #27201C",
"s@	c #4A3325",
"t@	c #60452F",
"u@	c #513B2A",
"v@	c #533C29",
"w@	c #4F3625",
"x@	c #4B3425",
"y@	c #332A24",
"z@	c #1B1A19",
"A@	c #302723",
"B@	c #332A25",
"C@	c #7C5A3C",
"D@	c #835D3D",
"E@	c #714F33",
"F@	c #634731",
"G@	c #221B18",
"H@	c #241F1D",
"I@	c #412D1F",
"J@	c #3F2C1E",
"K@	c #4C321E",
"L@	c #523622",
"M@	c #755133",
"N@	c #745336",
"O@	c #543A24",
"P@	c #1C1816",
"Q@	c #513C2B",
"R@	c #503826",
"S@	c #583E2A",
"T@	c #543B28",
"U@	c #3A2D25",
"V@	c #453327",
"W@	c #1A191A",
"X@	c #1A1B1C",
"Y@	c #2A2522",
"Z@	c #4C3727",
"`@	c #543A28",
" #	c #553D2B",
".#	c #5C432E",
"+#	c #3C2E24",
"@#	c #1C1A1A",
"##	c #312721",
"$#	c #715136",
"%#	c #412E22",
"&#	c #503725",
"*#	c #4A3324",
"=#	c #634228",
"-#	c #503623",
";#	c #5E3F27",
">#	c #593E2B",
",#	c #5E4028",
"'#	c #865F3B",
")#	c #865F3C",
"!#	c #654328",
"~#	c #151011",
"{#	c #0B0B0B",
"]#	c #4E3928",
"^#	c #684A32",
"/#	c #3F2B20",
"(#	c #110C0C",
"_#	c #523824",
":#	c #604027",
"<#	c #593F2A",
"[#	c #654327",
"}#	c #6A4A30",
"|#	c #986D45",
"1#	c #583A25",
"2#	c #6F4C2F",
"3#	c #684931",
"4#	c #6D4E34",
"5#	c #65462E",
"6#	c #5B402B",
"7#	c #3E2D21",
"8#	c #4E3826",
"9#	c #241912",
"0#	c #0B0909",
"a#	c #151210",
"b#	c #5C4029",
"c#	c #2F2019",
"d#	c #432D21",
"e#	c #5C3F28",
"f#	c #745235",
"g#	c #735135",
"h#	c #775537",
"i#	c #6B492D",
"j#	c #5B3F2A",
"k#	c #493525",
"l#	c #36271D",
"m#	c #714C2C",
"n#	c #7C5839",
"o#	c #131011",
"p#	c #211D1B",
"q#	c #2B211C",
"r#	c #020608",
"s#	c #0A0D0F",
"t#	c #533B29",
"u#	c #3F2E21",
"v#	c #583D27",
"w#	c #674A32",
"x#	c #5B3F2B",
"y#	c #65462D",
"z#	c #60442F",
"A#	c #442F21",
"B#	c #6B4C33",
"C#	c #493325",
"D#	c #29201B",
"E#	c #5A412E",
"F#	c #3B2C22",
"G#	c #211F1E",
"H#	c #221C1B",
"I#	c #4B3524",
"J#	c #805C3C",
"K#	c #6D492B",
"L#	c #6A492D",
"M#	c #563A23",
"N#	c #815C3C",
"O#	c #86613F",
"P#	c #5E4029",
"Q#	c #593D27",
"R#	c #553922",
"S#	c #67452A",
"T#	c #583D28",
"U#	c #775333",
"V#	c #825D3C",
"W#	c #785435",
"X#	c #724D2E",
"Y#	c #7B5433",
"Z#	c #593E29",
"`#	c #6A4A2F",
" $	c #825C3B",
".$	c #8B6441",
"+$	c #735236",
"@$	c #32221B",
"#$	c #1A1513",
"$$	c #1B1715",
"%$	c #37291E",
"&$	c #563B28",
"*$	c #583D2A",
"=$	c #402A20",
"-$	c #573D28",
";$	c #432E21",
">$	c #573C28",
",$	c #64452D",
"'$	c #503927",
")$	c #443123",
"!$	c #413025",
"~$	c #583C27",
"{$	c #493223",
"]$	c #38281C",
"^$	c #4C3626",
"/$	c #422E21",
"($	c #412C21",
"_$	c #65472F",
":$	c #775233",
"<$	c #8A6341",
"[$	c #88613E",
"}$	c #775232",
"|$	c #573B27",
"1$	c #573D2B",
"2$	c #4F3626",
"3$	c #543A29",
"4$	c #382922",
"5$	c #533E2D",
"6$	c #6C4B2F",
"7$	c #5E422C",
"8$	c #432E20",
"9$	c #5F412B",
"0$	c #5B402A",
"a$	c #4E3625",
"b$	c #493022",
"c$	c #644429",
"d$	c #654326",
"e$	c #7E5836",
"f$	c #7D593A",
"g$	c #795535",
"h$	c #473023",
"i$	c #543D2C",
"j$	c #483528",
"k$	c #573F2C",
"l$	c #624630",
"m$	c #745032",
"n$	c #4F3727",
"o$	c #6C4B30",
"p$	c #785232",
"q$	c #543926",
"r$	c #7C5532",
"s$	c #704E33",
"t$	c #725034",
"u$	c #523A28",
"v$	c #714E31",
"w$	c #704F33",
"x$	c #704C2E",
"y$	c #936A44",
"z$	c #845E3C",
"A$	c #533823",
"B$	c #845D3B",
"C$	c #7F5B3B",
"D$	c #6E4B2D",
"E$	c #4A3224",
"F$	c #5E422B",
"G$	c #785333",
"H$	c #6E4C30",
"I$	c #865E3B",
"J$	c #906843",
"K$	c #785233",
"L$	c #422B1E",
"M$	c #785437",
"N$	c #745031",
"O$	c #735134",
"P$	c #3A261D",
"Q$	c #664830",
"R$	c #755031",
". + @ # $ % $ & * = - ; > , ' $ > ) ! ~ { ] ^ / ( _ : < [ } | 1 2 3 4 ",
"5 6 7 8 9 0 a b c d e f f ^ g h i j k k ; l m n o p q > r @ = > $ & s ",
"t u q v l w x y z A B C D E F G H I J K L M N O o $ P Q R S T U V W X ",
"Y Z `  . ...+.@.#.$.J %.&.*.=.-.;.>.,.'.).-.u !.~.{.].^./.(._.:.<.[.}.",
"|.1.2.3.4.O 5.6.7.a 0 8.9.0.a.b.c.d.e.f.g.h.i.j.k.l.m.n.o.p.- r # Y r ",
"- Z - q.- r.s.t.u.v.w.x.y.z.A.y.y.B.C.D.f.E.F.G.H.I.f.J.K.L.M.N.O.P.q.",
"Q.M R.S.T.U.V.W.X.Y.Z.`. +y..+y..+y.++E. +@+#+$+%+&+*+=+-+;+q >+,+'+)+",
"!+~+{+]+^+/+@.(+_+:+.+<+<+y..+<+:+y.:+ +:+<+<+ +[+}+|+e 1+2+3+,.4+5+O.",
"6+7+z.8+.+9+0+F.a+b+.+c+ +#+<+<+ +.+b+:+ +:+d+:+:+e+f+g+h+i+j+k+l+m+n+",
"o+p+).E.:+<+y.E.<+a+<+d+<+.+ +d+<+ +b+:+:+d+q+.+:+r+d+s+.+<+y.E.t+$ q ",
"*.+ u+v+ +d+:+y. +a+<+a+w+:+.+b+<+.+<+.+d+r+r+ +<+r+E.E.<+<+x+y++ $ z+",
"(.A+B+C+D+E+d+ +a+a+a+r+d+<+b+F+b+d+<+:+q+q+r+d+b+a+:+y.b+<+D.G+N q.=.",
"Y H+@ I+$ J+K+b+F+r+r+r+a+d+:+d+F+r+F+a+q+q+F+q+b+r+d+.+L+M+N+O+P+Q+N ",
"R+S+T+U+V+W+/ X+r+r+b+d+.+:+d+r+r+r+r+r+r+r+r+r+q+r+F+Y+-.z+*.*.& & % ",
"Z+`+>+ @2+.@u +@r+r+q+q+b+a+b+r+r+r+r+r+r+r+r+r+r+r+F+@@#@Z $@%@&@*@=@",
"-@e $ ;@>@% Z ,@'@r+r+r+a+F+q+r+r+r+r+r+r+r+r+r+r+r+)@!@~@r r.{@]@^@/@",
"(@_@:@<@[@}@|@A >.F+r+r+r+r+r+r+r+r+r+r+r+r+r+r+r+1@2@3@U+4@5@+ 6@K.7@",
"8@e  .@ 9@0@a@b@c@a+r+r+r+r+r+r+r+r+r+r+r+r+r+r+q+d@e@f@g@h@#@i@q j@k@",
"l@m@n@o@p@q@c@h.x+r+r+r+r+r+r+r+r+r+r+r+r+r+r+r+r+g.r@j.s@r t@u@R Y v@",
"w@O.x@y@s+x+ +E.E.r+r+r+r+r+r+r+r+r+r+r+r+r+r+r+F+F. +x+z@A@B@C@D@E@x@",
"; ` F@G@<+E..+<+.+r+r+r+r+r+r+r+r+r+r+r+r+r+r+r+r+E..+y.<+E.H@I@J@K@L@",
"M@A+N@O@y+0+:+b+a+r+r+r+r+r+r+r+r+r+r+r+r+r+r+r+r+<+<+.+:+ +P@Q@p.# ~.",
"R@S@T@/.U@V@W@E.q+r+r+r+r+r+r+r+r+r+r+r+r+r+r+r+r+b+<+.+X@Y@Z@O.N `@S@",
"m H+e  #' & .#+#r+r+r+r+r+r+r+r+r+r+r+r+r+r+r+r+r+F+@###$#%#&#*#q M x ",
"=#-#;#>#,#'#)#!#~#r+r+r+r+r+r+r+r+r+r+r+r+r+r+r+r+{#]#e - >@$ $ $ $ 7@",
"X q.` ^#= Z ` Z /#(#r+r+r+r+r+r+r+r+r+r+r+r+r+r+r+_#:#<#[#J }#%@|#k.1#",
"2#3#4#*@5#6#- R 7#8#9#0#r+F+r+r+r+r+r+r+r+r+r+r+a#b#c#O. .# o.l o q.d#",
"e#f#g#h#i#j#>+k#l#m#n#o#b+p#q#d+q+y.q+r+r+r+r#s#t#u#v#` e M M % $ w#x#",
"y#- - >#e r z#$ A#B#H+C#D#E#@ F#G#H#E.r+F+<+I#J#K#L#M#,.N#O#( P#N Q#R#",
"S#R@T#b U#V#W#X#c Y#p.Z#`# $.$+$=.@$#$q+$$%+%$# q.u &$' %  @J $ ' & w ",
"x *$% z#6@H+z+r =$-$;$>$,$'$)$!$~${$]$X+^$>#/$($N.e =#_$7@W :$<$[$}$|$",
"Z Y 1+1$r *#2$>#O $ = - *.; u 3$Q 4$U@5$6$;#2 N.u 7$8$&#*#9$0$'$:.a$b$",
"c$A+ $d$Q+O o M [.e$f$g$D *.O.h$q p f i$j$k$e l$b m$2$` w#>@% n$k r M ",
"Y e @ r e $ o$p$q$w#$  .q.=.@ T.r$s$t$u$v$w$x$y$z$T+A$B$C$D$. N.E$P.~.",
")#T@F$G$H$I$J$K$L$M$' 6@- N$O$U++ P$*#q.*.q.7@>+; 2 x > 1+`@m % Q$R$_ "};
