/* XPM */
static char * wall_xpm[] = {
"35 35 115 2",
"  	c None",
". 	c #33302F",
"+ 	c #2F2D2D",
"@ 	c #1F1E1E",
"# 	c #141313",
"$ 	c #141414",
"% 	c #1B1A1A",
"& 	c #222121",
"* 	c #1A1919",
"= 	c #191818",
"- 	c #212020",
"; 	c #232222",
"> 	c #181717",
", 	c #171616",
"' 	c #1E1D1D",
") 	c #151414",
"! 	c #141212",
"~ 	c #1C1B1B",
"{ 	c #2C2A2A",
"] 	c #161616",
"^ 	c #201F1F",
"/ 	c #161515",
"( 	c #121111",
"_ 	c #131212",
": 	c #1D1C1C",
"< 	c #100F0F",
"[ 	c #131313",
"} 	c #161716",
"| 	c #151918",
"1 	c #0E0D0D",
"2 	c #111010",
"3 	c #0F0E0E",
"4 	c #0C0B0B",
"5 	c #0D0C0C",
"6 	c #0B0A0A",
"7 	c #0A0909",
"8 	c #171717",
"9 	c #111F1B",
"0 	c #111E1A",
"a 	c #0A0B0A",
"b 	c #1B3730",
"c 	c #1C3831",
"d 	c #162C26",
"e 	c #0E1815",
"f 	c #0D1210",
"g 	c #101E1A",
"h 	c #13241F",
"i 	c #142722",
"j 	c #1A342E",
"k 	c #1B362F",
"l 	c #0E1714",
"m 	c #12221D",
"n 	c #0D1311",
"o 	c #162A25",
"p 	c #18302A",
"q 	c #1C3730",
"r 	c #1C3932",
"s 	c #1A342D",
"t 	c #202121",
"u 	c #1B2E29",
"v 	c #1C3A33",
"w 	c #1D3B34",
"x 	c #1C362F",
"y 	c #17221F",
"z 	c #1D3A33",
"A 	c #1E3C35",
"B 	c #1F3C35",
"C 	c #19312B",
"D 	c #121614",
"E 	c #224039",
"F 	c #234139",
"G 	c #203E37",
"H 	c #162924",
"I 	c #111111",
"J 	c #44352C",
"K 	c #162420",
"L 	c #24423B",
"M 	c #152521",
"N 	c #121212",
"O 	c #50433A",
"P 	c #111514",
"Q 	c #142520",
"R 	c #131716",
"S 	c #0F1412",
"T 	c #152924",
"U 	c #13221E",
"V 	c #19322C",
"W 	c #1B352F",
"X 	c #131D1A",
"Y 	c #101312",
"Z 	c #1A332D",
"` 	c #131615",
" .	c #14201C",
"..	c #1A352E",
"+.	c #1C2522",
"@.	c #2A2825",
"#.	c #1A2924",
"$.	c #16211E",
"%.	c #1D3932",
"&.	c #181E1C",
"*.	c #1B322C",
"=.	c #1C3832",
"-.	c #1A2A26",
";.	c #1C352F",
">.	c #1B302B",
",.	c #1B2925",
"'.	c #1C3630",
").	c #23413A",
"!.	c #1C3731",
"~.	c #1A2E29",
"{.	c #181B1A",
"].	c #1B2F2A",
"^.	c #1B1B1B",
"/.	c #192522",
"(.	c #192320",
". . + . . . . . . . . . . . . . @ # $ % & . * . . = - . . . + . . . + ",
". . . + . . ; & > + . . , % . . ' ) ! ) > ~ . . . & @ { . + + . . . . ",
". . . { { . . ~ ; . . . ] , ^ . ' / ( _ # ] @ . . ^ : . . + . . . . . ",
". . { { . . . + : . . ] $ # , % # _ < < [ # # * = ~ . . . . . . . . { ",
". . . . . . + + - } | # ( _ # # # ( < 1 ( < 2 # # % . . . . . . . . . ",
". . + + ; + + ; % / # _ < < # # _ < 3 4 3 < < _ 3 3 : & : ^ - : ' ^ - ",
": : > ~ ~ % @ : 2 4 # 2 < < # ( 2 2 _ _ 2 5 2 < 5 6 < % / < 2 ) , , + ",
", / ) _ < _ > / 5 6 ( 3 3 _ # ( < 3 3 < 5 6 _ ( 5 4 # / ( < 2 ) , @ . ",
". @ ) _ < < # ) ( 6 < 3 3 3 _ ( 1 1 1 3 7 7 ( < 5 < _ ) < 3 2 ~ & . . ",
". & & # < 3 _ _ [ 6 < 3 4 1 2 ( 1 6 6 4 4 7 1 1 5 1 < # 3 5 8 ; . . . ",
". - ; ^ < 4 ( ( 1 6 3 6 7 3 < 2 2 < 4 3 5 6 4 5 5 6 3 _ = . . . . . . ",
". . . ; ^ ' > 3 4 7 6 7 7 1 3 5 5 2 5 7 7 7 7 6 5 7 6 % . . . . . . . ",
". . . . . . & 5 7 7 7 6 4 < ( 2 5 4 7 7 7 9 0 a 7 7 4 @ . . . { . . . ",
". . . . . . . [ 7 7 1 < 2 2 1 1 4 4 7 7 9 b c d e 7 5 . . . { . . . . ",
". { . . . . . ) 6 7 7 7 7 1 5 f g d h i j k k k i _ % . . . . . . { . ",
". . { . . . + . : l m n 7 0 o p k k q r r r r r s t . . . . . . . . { ",
". . . { . . + . - u k b c k k c v w w w w w w w x . . . . . . . . . . ",
". . . ; ; ; ^ @ : y c z w w w w A B A w w w w w C = > 2 / . . ; . . . ",
". . . + ; ^ ) # > D z z v r z w E F G w w w w w H ) < I / J . . . . . ",
". ; + + { / ( _ / K v v w w w w w w A L A w w w M # 5 < N ~ . . . . + ",
". O ; ; ; > ( 3 _ P z w w w w z w w w w w w w w Q _ 1 _ 1 / . . . . + ",
". . . ~ % # 2 5 < R z w w w z z w z z r r r w w d 3 2 ) 1 ) ' ; . . . ",
". . = / , 2 _ 2 # f z w w w z w w z z w w w w w c S 5 2 1 2 2 ' ; . . ",
". ; @ % ( < _ 2 < T z w w w w w w w w w w w w w c U 1 5 5 < < > . . . ",
". . @ < < 1 3 5 3 V z B B B A w w L L w w w w w W X 1 < - & - ; . . . ",
". . - * > > 1 1 Y Z A F F F G w w w w w w w w w r s ` @ . . . . + + . ",
". . + O ; ; @ 4  .s w w w w w w w w A E w r r z ..+.{ . . . . . . + + ",
". + . . O O @.@ #.k w w w w w w w w A A w w w w $.{ . . . . . . . . . ",
"+ . . . . . . . . . q w w w z r r r r r w w w %.&., . + + . . . . . . ",
"+ J . . . . { . . , *.w w w w w w r z r w =.-.. . . . . + . J . + . . ",
". . . . . . . { , . . . ;.v >.,.'.).).!.~.{.. . . . . . . + + . . . J ",
". { . . . . . . . . . . &.].^.& {./.;.(., , . . . . . . . + + . . . . ",
". . { . . . . . . . . . . > J { . . ^ + . . , . . . . . + . J . . . + ",
". . . { . . . . . . . . . { { . . . ; + + . . . { . . + + . . . . + + ",
". . . . . . + + + . . . . . . . . . . . . . . . . { . . . . . . . + . "};
