/* XPM */
static char * left_attack_6_xpm[] = {
"35 35 367 2",
"  	c None",
". 	c #2F2D2D",
"+ 	c #33302F",
"@ 	c #2C2A2A",
"# 	c #44352C",
"$ 	c #485734",
"% 	c #1D2C2C",
"& 	c #1F2F2E",
"* 	c #32302F",
"= 	c #43302F",
"- 	c #3E302F",
"; 	c #953636",
"> 	c #993636",
", 	c #3A2F2E",
"' 	c #42302F",
") 	c #50433A",
"! 	c #242121",
"~ 	c #6A3232",
"{ 	c #883434",
"] 	c #9A3636",
"^ 	c #9B3737",
"/ 	c #7F3131",
"( 	c #380000",
"_ 	c #983636",
": 	c #843131",
"< 	c #3F2F2E",
"[ 	c #2A2825",
"} 	c #11110E",
"| 	c #ACACAC",
"1 	c #2F2F2E",
"2 	c #9D3636",
"3 	c #863434",
"4 	c #803333",
"5 	c #7C2F30",
"6 	c #775F5F",
"7 	c #B5B5B5",
"8 	c #6F1918",
"9 	c #7D3030",
"0 	c #843030",
"a 	c #151412",
"b 	c #E4E4E4",
"c 	c #252E2F",
"d 	c #2D2B2F",
"e 	c #7A3D1E",
"f 	c #783C1F",
"g 	c #793D1E",
"h 	c #40302E",
"i 	c #B0B0B0",
"j 	c #5E1515",
"k 	c #7E3030",
"l 	c #352F2E",
"m 	c #252221",
"n 	c #726C6B",
"o 	c #91502F",
"p 	c #9D5B3A",
"q 	c #A36343",
"r 	c #A26242",
"s 	c #A46443",
"t 	c #5D0000",
"u 	c #DCDDDD",
"v 	c #451215",
"w 	c #662F30",
"x 	c #7F3030",
"y 	c #232F2E",
"z 	c #6D4736",
"A 	c #A06040",
"B 	c #824222",
"C 	c #A16141",
"D 	c #944D1F",
"E 	c #F6F4F4",
"F 	c #FFFFFF",
"G 	c #7D3100",
"H 	c #7A3F22",
"I 	c #6F2F30",
"J 	c #813030",
"K 	c #242F2E",
"L 	c #1F2424",
"M 	c #977469",
"N 	c #975635",
"O 	c #814222",
"P 	c #A4603C",
"Q 	c #8E746D",
"R 	c #95837F",
"S 	c #6D0000",
"T 	c #B5A4A0",
"U 	c #6C3C26",
"V 	c #573629",
"W 	c #793030",
"X 	c #43332B",
"Y 	c #232E2F",
"Z 	c #0A0908",
"` 	c #E6E7E8",
" .	c #2F2C2B",
"..	c #86421E",
"+.	c #5D6060",
"@.	c #8D8D8D",
"#.	c #7A3D1D",
"$.	c #804020",
"%.	c #632E30",
"&.	c #803030",
"*.	c #2C2E2F",
"=.	c #874320",
"-.	c #864524",
";.	c #2E2F2F",
">.	c #D2D2D2",
",.	c #45322C",
"'.	c #985839",
").	c #874B29",
"!.	c #9A5A3A",
"~.	c #99593A",
"{.	c #985838",
"].	c #671F00",
"^.	c #743818",
"/.	c #84411F",
"(.	c #46342B",
"_.	c #7A3030",
":.	c #732F30",
"<.	c #6D3924",
"[.	c #9E5E3E",
"}.	c #684232",
"|.	c #4B332A",
"1.	c #8E553A",
"2.	c #8F573C",
"3.	c #975A3C",
"4.	c #7C3B1A",
"5.	c #82411F",
"6.	c #5D3629",
"7.	c #823030",
"8.	c #702F30",
"9.	c #34302E",
"0.	c #00192D",
"a.	c #2F302E",
"b.	c #2C2E2E",
"c.	c #1F282E",
"d.	c #3E332B",
"e.	c #4B332B",
"f.	c #7E3E1D",
"g.	c #9C9C9B",
"h.	c #2A282D",
"i.	c #DFAD35",
"j.	c #00002D",
"k.	c #07202E",
"l.	c #8F722E",
"m.	c #673A26",
"n.	c #663A26",
"o.	c #4F2D30",
"p.	c #45342B",
"q.	c #7F3F1E",
"r.	c #9B5B3C",
"s.	c #644030",
"t.	c #E3E2E2",
"u.	c #0B182E",
"v.	c #E2AF36",
"w.	c #C0942D",
"x.	c #5D212F",
"y.	c #7C3030",
"z.	c #943535",
"A.	c #4C2F2E",
"B.	c #4D342B",
"C.	c #593629",
"D.	c #26242E",
"E.	c #9E3737",
"F.	c #963535",
"G.	c #8F3434",
"H.	c #7B2F2F",
"I.	c #512E30",
"J.	c #562F2F",
"K.	c #81411F",
"L.	c #3F312C",
"M.	c #925233",
"N.	c #2E2F2E",
"O.	c #973636",
"P.	c #8F3334",
"Q.	c #403630",
"R.	c #723B23",
"S.	c #995C3F",
"T.	c #2C2E30",
"U.	c #733C24",
"V.	c #63362B",
"W.	c #5D3032",
"X.	c #6D3132",
"Y.	c #5B332E",
"Z.	c #563130",
"`.	c #6E4236",
" +	c #A26140",
".+	c #905131",
"++	c #4A322A",
"@+	c #9C5D3E",
"#+	c #704838",
"$+	c #694528",
"%+	c #42352C",
"&+	c #919090",
"*+	c #5A3629",
"=+	c #53352A",
"-+	c #844220",
";+	c #81492E",
">+	c #82401E",
",+	c #83401E",
"'+	c #844221",
")+	c #723C24",
"!+	c #37302E",
"~+	c #7C3E20",
"{+	c #965637",
"]+	c #A16040",
"^+	c #242926",
"/+	c #242C2F",
"(+	c #312F2F",
"_+	c #666464",
":+	c #83411F",
"<+	c #4B3830",
"[+	c #8D4D2D",
"}+	c #72402A",
"|+	c #413530",
"1+	c #3C322F",
"2+	c #453223",
"3+	c #523823",
"4+	c #45312C",
"5+	c #9B5B3B",
"6+	c #242B2D",
"7+	c #2D2F2F",
"8+	c #242E30",
"9+	c #202C2F",
"0+	c #352F2D",
"a+	c #804E37",
"b+	c #00272D",
"c+	c #4B3A2C",
"d+	c #533B28",
"e+	c #744A26",
"f+	c #573408",
"g+	c #5E412B",
"h+	c #30322F",
"i+	c #89421C",
"j+	c #945333",
"k+	c #985636",
"l+	c #633624",
"m+	c #4A3422",
"n+	c #704927",
"o+	c #39322D",
"p+	c #99A1AC",
"q+	c #211E18",
"r+	c #363332",
"s+	c #433328",
"t+	c #5E402A",
"u+	c #5D402A",
"v+	c #644124",
"w+	c #4D392A",
"x+	c #453C44",
"y+	c #255BA7",
"z+	c #261A00",
"A+	c #5A5B56",
"B+	c #59637A",
"C+	c #2B4E88",
"D+	c #184584",
"E+	c #364776",
"F+	c #7B3B14",
"G+	c #A66443",
"H+	c #86533A",
"I+	c #3E4D32",
"J+	c #F5F5F5",
"K+	c #322F2E",
"L+	c #323333",
"M+	c #3B3532",
"N+	c #6E4726",
"O+	c #604127",
"P+	c #272D2E",
"Q+	c #292D2E",
"R+	c #83513A",
"S+	c #9D5E3A",
"T+	c #235DAB",
"U+	c #2D6CCA",
"V+	c #2D6CC9",
"W+	c #2B66BD",
"X+	c #285DAA",
"Y+	c #275FAF",
"Z+	c #3C2D13",
"`+	c #7E3D1C",
" @	c #A36241",
".@	c #394130",
"+@	c #2B2C2B",
"@@	c #2C2B28",
"#@	c #2B2926",
"$@	c #41464C",
"%@	c #40454A",
"&@	c #818995",
"*@	c #7F8792",
"=@	c #7B838E",
"-@	c #69707A",
";@	c #302F2E",
">@	c #9C5E40",
",@	c #995C3C",
"'@	c #18559B",
")@	c #2A63B7",
"!@	c #2D6BC6",
"~@	c #285EAD",
"{@	c #2761B2",
"]@	c #2E2B18",
"^@	c #3F3A4F",
"/@	c #834120",
"(@	c #7F4F39",
"_@	c #41352E",
":@	c #3B312A",
"<@	c #544E4E",
"[@	c #52585F",
"}@	c #5F666F",
"|@	c #9FA5AF",
"1@	c #A8ADB5",
"2@	c #DAD9DC",
"3@	c #D8D8DA",
"4@	c #DBDBDD",
"5@	c #818183",
"6@	c #1A1A17",
"7@	c #925030",
"8@	c #995838",
"9@	c #4E2900",
"0@	c #2760B0",
"a@	c #2B67C0",
"b@	c #275DAB",
"c@	c #285EAC",
"d@	c #2D436D",
"e@	c #274D87",
"f@	c #1E354C",
"g@	c #85411D",
"h@	c #7A4B35",
"i@	c #36312E",
"j@	c #312F2D",
"k@	c #717173",
"l@	c #D5D5D9",
"m@	c #D1D1D4",
"n@	c #D4D4D7",
"o@	c #D5D5D8",
"p@	c #C9C9CC",
"q@	c #D0D0D3",
"r@	c #220000",
"s@	c #48332B",
"t@	c #503428",
"u@	c #2E3648",
"v@	c #2E3546",
"w@	c #2E3547",
"x@	c #2F3239",
"y@	c #33302E",
"z@	c #3D312D",
"A@	c #37302D",
"B@	c #312E2D",
"C@	c #040404",
"D@	c #DBDBDE",
"E@	c #D2D2D5",
"F@	c #E4E4E6",
"G@	c #000000",
"H@	c #333231",
"I@	c #30302F",
"J@	c #312F2E",
"K@	c #2C2928",
"L@	c #CACACD",
"M@	c #D3D3D6",
"N@	c #FBFBFB",
"O@	c #C7C7C7",
"P@	c #2B2928",
"Q@	c #A5A5A5",
"R@	c #A8A8A8",
"S@	c #F7F7F8",
"T@	c #FBFBFC",
"U@	c #A8A8A7",
"V@	c #2B2929",
"W@	c #292727",
"X@	c #080707",
"Y@	c #0B0A09",
"Z@	c #030303",
". + + + . + + + + + + + + + + + + @ # + + + + + + + + + + + + + . + + ",
"+ + + + . . + @ + + + + + + + + + + + + + + + + + . + + + + + . + + + ",
"+ + + + + . + + @ + + + + + + + + + + + + + + + + + . + + + @ @ + + + ",
"@ + + + + + + + + + + + + + + + + + + + + + + @ + + . . + + + @ @ + + ",
"+ + + + + + + + + $ $ + + . + + + + + + + + % & & @ . . . + + + + + + ",
". + + + + + + $ $ + $ $ . + + + + + * + = - ; > > , ' @ . . . . . + + ",
". . + + + + ) ) ) $ ) $ . . $ $ ! + ~ { ] ] ^ / ( _ : < @ @ + + . . + ",
"+ + + + + # + [ + ) + ) + $ $ } | 1 2 3 3 4 5 6 7 8 9 0 < + + + + + + ",
"+ + + + + ) ) @ [ + [ . ) $ + a b c d e f g h 7 i j k k k l + + + + + ",
"+ + + + + @ ) ) + + . @ ) + + m n o p q r s t u i v w x k 0 y + + + + ",
"+ + + + + + + + + . . + + ) ) @ z A r B C D E F i G H I k J K + + + + ",
"+ + + + + + + + . . + + ) ) @ L M N O P Q R S T G U V W k 0 X Y + + + ",
"+ + + @ + + + + . + + + + + + Z `  ...+.F @.#.$.$.%.&.k &.*.=.-.;.+ + ",
">.+ + + @ + + + + + + + + + ,.'.).!.~.{.].^.$./.(._.k k :.<.[.C }.+ + ",
"+ @ + + + + + + + + + + + + |.1.2.2.3.4.$.$.5.6.7.k k k 8.f r A z @ + ",
"@ + + + + + + + + + + + + + 9.0.a.b.c.5.$./.d.k k k k J e.f.r A z + + ",
"g.+ + + + + + + + + + + + + h.i.j.k.l.m.n.o.k k k k k 0 p.q.r.C s.+ + ",
"t.+ + + + + + + + + + + + + + u.v.w.x.k y.z.k k k k k A.B.$.$.$.C.+ + ",
"+ + + + + # + + + + @ + + + + + D.k.E.> > F.G.H.J I.J.K.L.M.r C s.+ + ",
". + + + + + + + + + + + + + + + + N.> _ _ O._ P.Q.=.5.$.R.S.A A z * + ",
". + + + + + + + + + + + + + + + T.U.V.W.X.Y.Z.`. +.+$...++@+A A #+$+%+",
"+ &++ + + + + + + + + + + + + + *+$.=+-+;+>+,+N  +'+)+!+~+{+]+A ^+/+(+",
"+ _++ + + + + + + + + + + + + + *+:+:+<+[+:+5.}+|+1+2+3+4+5+A C 6++ + ",
"+ + + + + + + + + ) + + + + + + 7+8+9+0+a+b+c+d+e+f+g+h+i+j+k+l+7++ + ",
"+ + + + + + + + + . . + + + + + + 1 7+m+n+n+o+1 1 p+q+1 1 1 1 $ + + + ",
"+ . . + r++ r++ + + + . . /+s+t+u+v+w+x+y+z+A+B+C+D+E+F+G+H+I+$ + + + ",
". . + + + J++ + @ K+K+L+M+N+O+P+Q+Q+R+S+T+U+V+W+X+Y+Z+`+A  @.@) . + + ",
"+ + + + + + +@@@#@$@%@&@*@=@-@. + ;@>@,@'@)@!@~@X+{@]@^@/@[.(@+ + . + ",
"+ + + + _@:@<@[@}@|@1@2@3@3@4@5@ .6@7@8@9@0@a@b@c@d@e@f@g@{.h@+ + + . ",
"+ + . + i@j@. k@l@m@n@n@n@n@n@o@p@q@r@s@t@u@v@w@w@x@y@* z@z@A@+ + # . ",
"# + + + . . + B@C@D@n@n@n@n@n@E@F@G@H@;@I@+ + + + + + @ J@J@J@+ + + + ",
"+ + + + . . + K@L@n@n@n@n@n@M@N@O@. + + + + + + + + + + + + + + + @ + ",
". + + + # + . P@Q@R@S@S@S@T@U@V@W@+ + @ # + + + + + + + + + + + @ + + ",
". . + + + + . . + + X@Y@Y@Z@. . + + + + @ @ + + + + + + + + + @ + + + ",
"+ . + + + + + + + @ + + + + + + + + + + + + + + + + . . . + + + + + + "};
