/* XPM */
static char * left_attack_5_xpm[] = {
"35 35 382 2",
"  	c None",
". 	c #2F2D2D",
"+ 	c #33302F",
"@ 	c #2C2A2A",
"# 	c #44352C",
"$ 	c #485734",
"% 	c #30302F",
"& 	c #2A2A2A",
"* 	c #41302F",
"= 	c #43302F",
"- 	c #32302F",
"; 	c #50433A",
"> 	c #262F2E",
", 	c #322F2E",
"' 	c #873434",
") 	c #853434",
"! 	c #993636",
"~ 	c #853131",
"{ 	c #8A3232",
"] 	c #873534",
"^ 	c #833434",
"/ 	c #2A2825",
"( 	c #2E2B2A",
"_ 	c #505050",
": 	c #9E3737",
"< 	c #9A3636",
"[ 	c #983636",
"} 	c #933535",
"| 	c #751B1B",
"1 	c #5F6463",
"2 	c #8C3030",
"3 	c #7B2F2F",
"4 	c #5B2F2F",
"5 	c #151412",
"6 	c #DADADA",
"7 	c #2F2F2E",
"8 	c #953434",
"9 	c #362F2F",
"0 	c #3D2F2F",
"a 	c #372E2F",
"b 	c #7E3030",
"c 	c #ACACAC",
"d 	c #B1B1B1",
"e 	c #611615",
"f 	c #7F3030",
"g 	c #6B302F",
"h 	c #A5A4A4",
"i 	c #12120F",
"j 	c #C7C8C8",
"k 	c #583427",
"l 	c #5D4031",
"m 	c #93502F",
"n 	c #91502F",
"o 	c #643D2B",
"p 	c #ADAEAE",
"q 	c #B0B0B0",
"r 	c #803030",
"s 	c #5D2F2F",
"t 	c #2E302F",
"u 	c #563427",
"v 	c #A06040",
"w 	c #A26140",
"x 	c #190000",
"y 	c #FFFFFF",
"z 	c #141412",
"A 	c #3D2F2E",
"B 	c #813030",
"C 	c #242F2E",
"D 	c #2C3030",
"E 	c #844623",
"F 	c #8C4D2E",
"G 	c #985839",
"H 	c #945536",
"I 	c #914B1F",
"J 	c #8C3F00",
"K 	c #C2AEA9",
"L 	c #FAFDFD",
"M 	c #967E78",
"N 	c #843C0D",
"O 	c #7F4020",
"P 	c #6D2F30",
"Q 	c #1F2F2E",
"R 	c #0B0A0A",
"S 	c #AEA5A3",
"T 	c #9A5E40",
"U 	c #7B3A18",
"V 	c #995E42",
"W 	c #B5B0AF",
"X 	c #9C9FA0",
"Y 	c #7A3D20",
"Z 	c #771800",
"` 	c #804020",
" .	c #5A352A",
"..	c #422E2F",
"+.	c #7C3030",
"@.	c #613927",
"#.	c #3C302D",
"$.	c #CACACA",
"%.	c #302F2F",
"&.	c #692E08",
"*.	c #7C8587",
"=.	c #6C3720",
"-.	c #7F3E1C",
";.	c #6F473A",
">.	c #919595",
",.	c #5F5754",
"'.	c #7F3F1F",
").	c #84411F",
"!.	c #612E30",
"~.	c #272D30",
"{.	c #8E4B2A",
"].	c #9A5A3A",
"^.	c #4D3128",
"/.	c #C6C6C6",
"(.	c #4A322A",
"_.	c #A16040",
":.	c #A76441",
"<.	c #A46342",
"[.	c #A46343",
"}.	c #995939",
"|.	c #83401D",
"1.	c #83411F",
"2.	c #7D3F21",
"3.	c #442E2F",
"4.	c #823030",
"5.	c #6E2F30",
"6.	c #7B3D1E",
"7.	c #A36343",
"8.	c #6E4837",
"9.	c #D7D7D7",
"0.	c #4F342B",
"a.	c #4F382F",
"b.	c #463630",
"c.	c #72402A",
"d.	c #85411E",
"e.	c #532F2F",
"f.	c #712F30",
"g.	c #783C1F",
"h.	c #A26242",
"i.	c #6D4736",
"j.	c #E3E2E2",
"k.	c #232A2E",
"l.	c #937331",
"m.	c #18242E",
"n.	c #594E2F",
"o.	c #86421E",
"p.	c #85411F",
"q.	c #633926",
"r.	c #833030",
"s.	c #42342B",
"t.	c #7F3E1D",
"u.	c #A36342",
"v.	c #6E4836",
"w.	c #2C292F",
"x.	c #D5A535",
"y.	c #00092D",
"z.	c #8B6D2E",
"A.	c #212F2E",
"B.	c #46342B",
"C.	c #8E4F30",
"D.	c #BAB9B9",
"E.	c #555353",
"F.	c #29262E",
"G.	c #9C7A31",
"H.	c #842834",
"I.	c #903434",
"J.	c #903334",
"K.	c #7C2F2F",
"L.	c #623828",
"M.	c #49332C",
"N.	c #7D3C1B",
"O.	c #955536",
"P.	c #925334",
"Q.	c #563327",
"R.	c #939393",
"S.	c #686767",
"T.	c #9C3636",
"U.	c #9A3737",
"V.	c #782F30",
"W.	c #30312C",
"X.	c #43332C",
"Y.	c #85421E",
"Z.	c #49322A",
"`.	c #9F5F3F",
" +	c #202D2F",
".+	c #9B3636",
"++	c #8D3535",
"@+	c #973636",
"#+	c #7E2E32",
"$+	c #8D573C",
"%+	c #8D4C2C",
"&+	c #814020",
"*+	c #733C22",
"=+	c #985C3F",
"-+	c #6F4836",
";+	c #313332",
">+	c #312F2F",
",+	c #838282",
"'+	c #9D9C9C",
")+	c #372F2D",
"!+	c #573728",
"~+	c #4D332B",
"{+	c #59322C",
"]+	c #5A3728",
"^+	c #4C3529",
"/+	c #774B35",
"(+	c #8A4B2C",
"_+	c #82401F",
":+	c #793E22",
"<+	c #563428",
"[+	c #9F5E3E",
"}+	c #624133",
"|+	c #684528",
"1+	c #42352D",
"2+	c #593629",
"3+	c #52352A",
"4+	c #884522",
"5+	c #A06141",
"6+	c #7E3D1C",
"7+	c #A36241",
"8+	c #934F2E",
"9+	c #35302E",
"0+	c #2E2F2E",
"a+	c #55352A",
"b+	c #80401F",
"c+	c #1F2B2C",
"d+	c #363332",
"e+	c #F8F8F8",
"f+	c #4D342B",
"g+	c #663927",
"h+	c #6C3B26",
"i+	c #363230",
"j+	c #965331",
"k+	c #643826",
"l+	c #4D2F25",
"m+	c #45362A",
"n+	c #4B3A2B",
"o+	c #603F23",
"p+	c #4E3826",
"q+	c #663826",
"r+	c #965535",
"s+	c #272D2E",
"t+	c #AFAFAF",
"u+	c #332F2B",
"v+	c #6C4626",
"w+	c #6F4827",
"x+	c #282D2E",
"y+	c #6F6E6E",
"z+	c #EBEBEB",
"A+	c #2B2E2E",
"B+	c #282D2F",
"C+	c #272D2F",
"D+	c #372E27",
"E+	c #5E412A",
"F+	c #634020",
"G+	c #543500",
"H+	c #533A29",
"I+	c #666B74",
"J+	c #63696E",
"K+	c #292805",
"L+	c #717270",
"M+	c #214C8A",
"N+	c #5B341E",
"O+	c #81523B",
"P+	c #222D2E",
"Q+	c #3B4B33",
"R+	c #FBFBFB",
"S+	c #5D5B5B",
"T+	c #2D2B2A",
"U+	c #38322E",
"V+	c #563A22",
"W+	c #6D4727",
"X+	c #6C4728",
"Y+	c #333030",
"Z+	c #413D50",
"`+	c #2C6FCF",
" @	c #2F323B",
".@	c #27314A",
"+@	c #23467E",
"@@	c #285FAE",
"#@	c #2761B3",
"$@	c #3F2900",
"%@	c #803E1C",
"&@	c #A76442",
"*@	c #2B3D2F",
"=@	c #E2E1E1",
"-@	c #E3E3E3",
";@	c #0F0E0E",
">@	c #2C2B28",
",@	c #41464B",
"'@	c #43464B",
")@	c #433123",
"!@	c #372513",
"~@	c #2B2D2E",
"{@	c #2F2F2F",
"]@	c #82513A",
"^@	c #564044",
"/@	c #265DAA",
"(@	c #2D6DCA",
"_@	c #2D6BC7",
":@	c #2B66BD",
"<@	c #285DAA",
"[@	c #2761B2",
"}@	c #332700",
"|@	c #793D1B",
"1@	c #905132",
"2@	c #A16141",
"3@	c #724A37",
"4@	c #000000",
"5@	c #D0D0D3",
"6@	c #E6E6E6",
"7@	c #C9CBCE",
"8@	c #626972",
"9@	c #ABB0B8",
"0@	c #A8ADB5",
"a@	c #A9AEB6",
"b@	c #9DA1A8",
"c@	c #2B2929",
"d@	c #A76240",
"e@	c #544045",
"f@	c #265CA7",
"g@	c #2960B0",
"h@	c #2C68C1",
"i@	c #275CA7",
"j@	c #2C426B",
"k@	c #235599",
"l@	c #033857",
"m@	c #823F1C",
"n@	c #9E5E3E",
"o@	c #7F4F39",
"p@	c #593B23",
"q@	c #7F7976",
"r@	c #D2D2D5",
"s@	c #BEC0C4",
"t@	c #C8C9CC",
"u@	c #A7ACB4",
"v@	c #CFCFD3",
"w@	c #D5D5D8",
"x@	c #D4D4D7",
"y@	c #CFCFD2",
"z@	c #0C0B0B",
"A@	c #884523",
"B@	c #814320",
"C@	c #23569B",
"D@	c #2F2E28",
"E@	c #2E3340",
"F@	c #202F34",
"G@	c #87421D",
"H@	c #864423",
"I@	c #6B3C29",
"J@	c #2A2D2E",
"K@	c #262626",
"L@	c #959597",
"M@	c #ABABAD",
"N@	c #A7A6A9",
"O@	c #D9D9DC",
"P@	c #DBDBDF",
"Q@	c #B2B2B4",
"R@	c #001214",
"S@	c #242E2F",
"T@	c #312B17",
"U@	c #312A1C",
"V@	c #323030",
"W@	c #222E2F",
"X@	c #282E2E",
"Y@	c #0B0A09",
"Z@	c #DADADD",
"`@	c #EDEDEF",
" #	c #2B2928",
".#	c #EEEEEF",
"+#	c #F8F8F9",
"@#	c #D1D1D4",
"##	c #CDCDD1",
"$#	c #FBFBFC",
"%#	c #B6B6B6",
"&#	c #898989",
"*#	c #0A0908",
"=#	c #F5F5F5",
"-#	c #FCFCFC",
";#	c #070707",
">#	c #2E2C2C",
",#	c #2C2928",
". + + + . + + + + + + + + + + + + @ # + + + + + + + + + + + + + . + + ",
"+ + + + . . + @ + + + + + + + + + + + + + + + + + . + + + + + . + + + ",
"+ + + + + . + + @ + + + + + + + + + + + + + + + + + . + + + @ @ + + + ",
"@ + + + + + + + + + + + + + + + + + + + + + + @ + + . . + + + @ @ + + ",
"+ + + + + + + + + $ $ + + . + + + + + + + + @ + + @ . . . + + + + + + ",
". + + + + + + $ $ + $ $ . + + + + + + + % & * = = - & @ . . . . . + + ",
". . + + + + ; ; ; $ ; $ . . $ $ + + > , ' ) ! ~ { ] ^ % @ @ + + . . + ",
"+ + + + + # + / + ; + ; + $ $ ( _ - ^ : < [ } | 1 2 3 4 % + + + + + + ",
"+ + + + + ; ; @ / + / . ; $ + 5 6 7 8 9 0 a b c d e b f g - + + + + + ",
"h + + + + @ ; ; + + . @ ; + + i j k l m n m o p q e r b r s t + + + + ",
"+ + + + + + + + + . . + + ; ; @ u v v v v w x y q z A f b B C + + + + ",
"+ + + + + + + + . . + + ; ; @ D E F G H I J K L M N O P b B Q + + + + ",
"+ + + @ + + + + . + + + + + + R S T U V W X Y Z `  ...r b +.@.#.+ + + ",
"$.+ + + @ + + + + + + + + + %.&.*.=.-.;.>.,.'.` ).!.f b B ~.{.].^.+ + ",
"/.@ + + + + + + + + + + + + (._.:.<.[.}.|.1.` 2.3.4.b b 5.6.7.v 8.@ + ",
"9.+ + + + + + + + + + + + + 0.a.b.b.c.'.` ` d.e.b b b b f.g.h.v i.+ + ",
"j.+ + + + + + + + + + + + + k.l.m.7 n.o.p.q.e.r.b b b 4.s.t.u.v v.+ + ",
"j.+ + + + + + + + + + + + + w.x.y.7 z.7 A.4.b b b b b 4.B.` C.v u + + ",
"D.E.+ + + # + + + + @ + + + + F.G.z.H.I.J.} K.b b 4.b L.M.N.O.P.Q.+ + ",
"R.S.+ + + + + + + + + + + + + + + 7 T.[ [ [ U.b V.W.X.Y.Z.`.v v v.+ + ",
"R.S.+ + + + + + + + + + + + + + +  +) T..+++@+#+$+%+&+` *+=+v v -+;+>+",
",+'++ + + + + + + + + + + + + + )+).!+~+{+]+^+/+v (+_+:+<+[+v v }+|+1+",
"+ y + + + + + + + + + + + + + + 2+` 3+4+5+6+t.7+7+8+9+0+a+b+h.v c+- + ",
"d++ e++ d++ + + + ; + + + + + + f+g+h+i+j+k+g+l+m+n+o+p+q+_.h.r+s++ + ",
"+ + t+y + + + + + . . + + + + + + + + 7 7 u+v+w+w+x+7  +).` 1.7 + + + ",
"+ . y+y z++ d++ + + + . . . A+B+C+D+E+F+G+H+I+J+K+L+M+N+O+P+Q+$ + + + ",
". . d++ y R+S++ @ + + , T+U+V+W+W+X+Y+Z+`+ @.@+@@@#@$@%@h.&@*@; . + + ",
"+ + + + =@y y -@+ ;@>@,@'@)@!@~@{@{@]@^@/@(@_@:@<@[@}@|@1@2@3@+ + . + ",
"+ + + + , R+4@5@6@7@8@9@0@a@b@c@+ 7 d@e@f@g@h@i@<@j@k@l@m@n@o@+ + + . ",
"+ + . + p@q@r@s@t@u@v@w@x@x@w@y@z@4@A@B@C@@@@@@@@@D@E@F@G@H@I@+ + # . ",
"# + + + J@K@L@M@N@O@x@x@x@x@x@x@P@Q@R@S@T@U@U@U@U@V@+ @ W@W@X@+ + + + ",
"+ + + + . . + + Y@Z@x@x@x@x@x@x@`@7 + + + + + + + + + + + + + + + @ + ",
". + + + # + .  #.#+#@#@#@###$#%#&#+ + @ # + + + + + + + + + + + @ + + ",
". . + + + + . %.*#R =#=#=#-#;#>#+ + + + @ @ + + + + + + + + + @ + + + ",
"+ . + + + + + + + @ ,#,#,# #+ + + + + + + + + + + + . . . + + + + + + "};
