/* XPM */
static char * left_attack_2_xpm[] = {
"35 35 356 2",
"  	c None",
". 	c #2F2D2D",
"+ 	c #33302F",
"@ 	c #2C2A2A",
"# 	c #44352C",
"$ 	c #393636",
"% 	c #504F4E",
"& 	c #514F4F",
"* 	c #595858",
"= 	c #5B5A59",
"- 	c #767676",
"; 	c #CACACB",
"> 	c #CECECE",
", 	c #DADADB",
"' 	c #FDFDFE",
") 	c #FFFFFF",
"! 	c #CBCACA",
"~ 	c #565554",
"{ 	c #5D5B5B",
"] 	c #3B3A3A",
"^ 	c #A6A6A6",
"/ 	c #D8D8D8",
"( 	c #FAFAFB",
"_ 	c #E3E3E3",
": 	c #C5C4C4",
"< 	c #515050",
"[ 	c #ACABAD",
"} 	c #FBFBFB",
"| 	c #D7D7D7",
"1 	c #8A8A8A",
"2 	c #323030",
"3 	c #353231",
"4 	c #A9A9AA",
"5 	c #FBFBFC",
"6 	c #F9F9F9",
"7 	c #EDEDED",
"8 	c #E4E4E4",
"9 	c #797878",
"0 	c #615F60",
"a 	c #F2F2F3",
"b 	c #ECECEC",
"c 	c #D0D2CE",
"d 	c #989D93",
"e 	c #706F6F",
"f 	c #787777",
"g 	c #939393",
"h 	c #949393",
"i 	c #90908F",
"j 	c #DADADA",
"k 	c #F0F0F0",
"l 	c #F8F8F8",
"m 	c #C4C4C4",
"n 	c #626061",
"o 	c #E8E8E9",
"p 	c #9F9E9E",
"q 	c #50433A",
"r 	c #485734",
"s 	c #4B4A49",
"t 	c #898888",
"u 	c #DBDBDB",
"v 	c #CDCDCD",
"w 	c #B5B4B7",
"x 	c #ABAAAA",
"y 	c #383737",
"z 	c #7E7D7D",
"A 	c #B4B4B4",
"B 	c #777676",
"C 	c #393635",
"D 	c #E8E8EA",
"E 	c #EBEBEB",
"F 	c #555353",
"G 	c #A5A5A5",
"H 	c #9F9F9F",
"I 	c #696869",
"J 	c #ECECEE",
"K 	c #A2A1A3",
"L 	c #EDEDEE",
"M 	c #8C8B8B",
"N 	c #37332C",
"O 	c #282F2E",
"P 	c #653231",
"Q 	c #633231",
"R 	c #292F2E",
"S 	c #30302F",
"T 	c #A1A0A2",
"U 	c #2F302F",
"V 	c #913535",
"W 	c #923535",
"X 	c #943535",
"Y 	c #903434",
"Z 	c #6B3131",
"` 	c #F4F4F4",
" .	c #2F2D2C",
"..	c #5A5B5B",
"+.	c #7C3131",
"@.	c #993636",
"#.	c #9A3636",
"$.	c #953535",
"%.	c #7F2F2F",
"&.	c #6E5A5A",
"*.	c #7F2E2E",
"=.	c #7D3030",
"-.	c #63302F",
";.	c #B9B9BC",
">.	c #8D8C8C",
",.	c #282625",
"'.	c #D0D0D0",
").	c #705757",
"!.	c #64322C",
"~.	c #613728",
"{.	c #613628",
"].	c #583E3E",
"^.	c #D6D6D6",
"/.	c #622423",
"(.	c #7E3030",
"_.	c #64302F",
":.	c #D4D4D7",
"<.	c #BDBDBD",
"[.	c #2E2B2A",
"}.	c #756D6B",
"|.	c #8C4F31",
"1.	c #9E5F3F",
"2.	c #9F5F40",
"3.	c #99918F",
"4.	c #4B2323",
"5.	c #753030",
"6.	c #763030",
"7.	c #2C302F",
"8.	c #E6E5E5",
"9.	c #302F2F",
"0.	c #7D4B34",
"a.	c #995A3A",
"b.	c #925233",
"c.	c #915335",
"d.	c #E8E3E2",
"e.	c #BAB1AF",
"f.	c #7F3D17",
"g.	c #603629",
"h.	c #803030",
"i.	c #4C352A",
"j.	c #D3D3D6",
"k.	c #F5F5F5",
"l.	c #636261",
"m.	c #282525",
"n.	c #BCB7B6",
"o.	c #7D4B36",
"p.	c #7A3F21",
"q.	c #D3CDCC",
"r.	c #848484",
"s.	c #7F3D18",
"t.	c #7F3F1E",
"u.	c #60332D",
"v.	c #7F3030",
"w.	c #5E322C",
"x.	c #904F2F",
"y.	c #6C402C",
"z.	c #9F9EA1",
"A.	c #E0E0E2",
"B.	c #8A8989",
"C.	c #2F2F2F",
"D.	c #77432D",
"E.	c #7C482D",
"F.	c #925334",
"G.	c #945434",
"H.	c #602A03",
"I.	c #733A1E",
"J.	c #804020",
"K.	c #6F3B26",
"L.	c #743030",
"M.	c #773030",
"N.	c #73422B",
"O.	c #A16141",
"P.	c #90583D",
"Q.	c #2D2D2E",
"R.	c #A1A0A3",
"S.	c #D5D5D8",
"T.	c #F6F6F6",
"U.	c #2C2F2F",
"V.	c #71402B",
"W.	c #704836",
"X.	c #6F4736",
"Y.	c #85482A",
"Z.	c #742F30",
"`.	c #6A312E",
" +	c #7F4428",
".+	c #706F70",
"++	c #ECECED",
"@+	c #7B6230",
"#+	c #423A2E",
"$+	c #725B2E",
"%+	c #5D3B29",
"&+	c #7B3F21",
"*+	c #62372A",
"=+	c #752F30",
"-+	c #5C322D",
";+	c #834221",
">+	c #9A5A3A",
",+	c #844D33",
"'+	c #2D2E2F",
")+	c #B7B7B9",
"!+	c #E5E4E4",
"~+	c #302D2D",
"{+	c #917231",
"]+	c #9F7C30",
"^+	c #805430",
"/+	c #7E3334",
"(+	c #7D3334",
"_+	c #8F3434",
":+	c #6A322E",
"<+	c #553629",
"[+	c #884726",
"}+	c #965737",
"|+	c #7C452C",
"1+	c #2D2F2F",
"2+	c #9A9A9C",
"3+	c #DFDFE1",
"4+	c #727171",
"5+	c #302E2F",
"6+	c #2A272E",
"7+	c #643131",
"8+	c #943636",
"9+	c #6C3530",
"0+	c #6F3E27",
"a+	c #7A3F22",
"b+	c #713B23",
"c+	c #8D563B",
"d+	c #A06040",
"e+	c #91583D",
"f+	c #292D2E",
"g+	c #4F433A",
"h+	c #C2C1C1",
"i+	c #31302F",
"j+	c #60332F",
"k+	c #7B3331",
"l+	c #6B382A",
"m+	c #6A352E",
"n+	c #985D3E",
"o+	c #8C4D2E",
"p+	c #814020",
"q+	c #693925",
"r+	c #945739",
"s+	c #8A553B",
"t+	c #4E392A",
"u+	c #3C332E",
"v+	c #333132",
"w+	c #A8A8AB",
"x+	c #DEDEE0",
"y+	c #FDFDFD",
"z+	c #565555",
"A+	c #573529",
"B+	c #8F5538",
"C+	c #824120",
"D+	c #8D4C2B",
"E+	c #7A442C",
"F+	c #513629",
"G+	c #4C332A",
"H+	c #8F4F2F",
"I+	c #A26241",
"J+	c #5C4033",
"K+	c #453C36",
"L+	c #475634",
"M+	c #3E3B3B",
"N+	c #CECED0",
"O+	c #C3C3C3",
"P+	c #7F4A31",
"Q+	c #613826",
"R+	c #5A3A29",
"S+	c #583D26",
"T+	c #51361C",
"U+	c #5B3A1B",
"V+	c #653826",
"W+	c #945333",
"X+	c #965738",
"Y+	c #523B32",
"Z+	c #98989A",
"`+	c #F0F0F1",
" @	c #E1E1E1",
".@	c #3A3B3B",
"+@	c #3D322B",
"@@	c #4D3829",
"#@	c #563D2A",
"$@	c #593B0D",
"%@	c #5E595A",
"&@	c #635F62",
"*@	c #71777C",
"=@	c #6D737A",
"-@	c #403444",
";@	c #69402E",
">@	c #4D352C",
",@	c #2A2825",
"'@	c #B8B8BB",
")@	c #9A908B",
"!@	c #503929",
"~@	c #3F342C",
"{@	c #4B372D",
"]@	c #2B64B9",
"^@	c #465984",
"/@	c #495C88",
"(@	c #20549D",
"_@	c #22559C",
":@	c #504260",
"<@	c #9A5939",
"[@	c #8E563C",
"}@	c #2E2D2E",
"|@	c #716B69",
"1@	c #E3E3E4",
"2@	c #3E3C3C",
"3@	c #40312B",
"4@	c #9D5F3F",
"5@	c #29508D",
"6@	c #2B67BE",
"7@	c #2C68C2",
"8@	c #285DAA",
"9@	c #295497",
"0@	c #413E59",
"a@	c #814524",
"b@	c #5A3E33",
"c@	c #43342B",
"d@	c #B6B5B8",
"e@	c #513429",
"f@	c #6F3F2A",
"g@	c #5F3B3A",
"h@	c #285EAD",
"i@	c #285FAE",
"j@	c #2C4575",
"k@	c #2E3442",
"l@	c #5D3727",
"m@	c #6F3E28",
"n@	c #47342D",
"o@	c #2E2925",
"p@	c #B0AFAF",
"q@	c #D9D9DB",
"r@	c #F5F5F6",
"s@	c #AAAAAA",
"t@	c #302E2D",
"u@	c #2D2E2E",
"v@	c #352F2D",
"w@	c #303443",
"x@	c #313237",
"y@	c #2F2F2E",
"z@	c #EEEEEF",
"A@	c #D8D8DB",
"B@	c #E6E6E8",
"C@	c #EEEEEE",
"D@	c #464544",
"E@	c #A8A8A8",
"F@	c #C1C1C1",
"G@	c #CBCBCC",
"H@	c #EBEBEC",
"I@	c #DFDFE0",
"J@	c #A4A4A4",
"K@	c #3B3938",
"L@	c #343231",
"M@	c #383736",
"N@	c #3A3938",
"O@	c #383635",
". + + + . + + + + + + + + + + + + @ # + + + + + + + + + + + + + . + + ",
"+ + + + . . + @ + + + + + + + + + + + + + + + + + . + + + + + . + + + ",
"+ + + + + . + + @ + + + $ % & & & + + + + + + + + + . + + + @ @ + + + ",
"@ + + + + + + * = - ; > , ' ) ) ) > > ! ~ = { ] + + . . + + + @ @ + + ",
"+ + + + + ^ / ( ) ) ) ) ) ) ) ) ) ) ) ) ) ) ) _ : < . . . + + + + + + ",
". + + + [ ) ) ) ) ) ) ) ) ) ) ) ) ) ) ) ) ) ) ) ) } | 1 2 . . . . + + ",
". . 3 4 5 ) ) ) ) ) ) ) ) ) ) 6 7 7 7 7 7 7 } ) ) ) ) ) 8 9 + + . . + ",
"+ + 0 a ) ) ) ) ) ) ) ) b c d e + + + + + + f g h i j k ) l m + + + + ",
"+ n o ) ) ) ) ) ) ) 7 p q r + + + + + + + + . . + + + s t u ) v + + + ",
"3 w ) ) ) ) ) ) ) x y @ q + + + + + + + + . . + + + + + + + z A j B + ",
"C D ) ) ) ) ) ) E y . + + q q @ + + + + + . + + + + + + + + + + F G H ",
"I J ) ) ) ) ) ) > . + + q q @ + + + + + + + + + + @ + + + + # + + + f ",
"K L ) ) ) ) ) ) M + + + + + + + N O P Q R S + + + + + + + + + + + + + ",
"T L ) ) ) ) ) b + + + + + + U P V W X Y W Z S + + + + + + + + + + + + ",
"T L ) ) ) ) ) ` { + + +  ...+.@.#.$.%.&.*.=.-.S + + + . + + + + + @ + ",
";.L ) ) ) ) ) ) >.+ + + ,.'.).!.~.{.].^./.(.(._.S + + + . + + + @ + + ",
":.L ) ) ) ) ) ) <.+ + + [.}.|.1.2.2.3.| 4.5.(.6.7.+ + + . + + @ + + + ",
":.L ) ) ) ) ) ) 8.+ + + 9.0.a.b.a.c.d.e.f.g.h.6.i.S + + . + + + + + + ",
"j.L ) ) ) ) ) ) k.l.@ + m.n.o.p.q.r.s.t.u.5.v.w.x.y.S + @ . . . + + + ",
"z.A.) ) ) ) ) ) ) B.+ C.D.E.F.G.H.I.J.K.L.(.M.N.O.P.Q.+ + @ @ . . + + ",
"R.S.T.) ) ) ) ) ) 8.+ U.V.W.X.Y.J.J.K.Z.(.(.`. +O.P.Q.+ + + + + . q + ",
".+:.++) ) ) ) ) ) ) B.+ @+#+$+%+&+*+=+(.(.(.-+;+>+,+'+r + + + + + + + ",
"3 )+S.) ) ) ) ) ) ) !+~+{+]+^+/+(+_+v.(.M.:+<+[+}+|+1+r r + + + + + + ",
"+ 2+:.3+) ) ) ) ) ) ) 4+5+6+7+@.@.8+$.9+0+a+b+c+d+e+f+g+r q + + + + + ",
"+ C :.S.T.) ) ) ) ) ) h++ + i+j+k+l+m+n+o+p+q+r+d+s+t+u+q q + r + + + ",
"+ v+w+:.x+y+) ) ) ) ) 6 z+. . A+B+C+D+e+E+F+G+H+I+J+K+L+r @ r r + + + ",
". . M+N+j.++) ) ) ) ) ) O+@ . f+P+Q+R+S+T+U+V+W+X+Y+r q @ q r q . + + ",
"+ + + Z+:.:.`+) ) ) ) )  @.@+@@@#@$@%@&@*@=@-@;@>@+ q ,@,@q q + + . + ",
"+ + + + '@:.:.`+) ) ) ) ) )@!@~@{@]@^@/@(@_@:@<@[@}@+ + + + + + + + . ",
"+ + . + |@S.:.:.`+) ) ) ) 1@2@3@4@5@6@7@8@9@0@a@1.b@+ + @ + + + + # . ",
"# + + + c@d@:.:.:.`+) ) ) ) >.e@f@g@h@i@h@j@k@l@m@n@+ @ + + + + + + + ",
"+ + + + o@p@q@:.:.S.3+r@) ) s@t@u@v@w@w@w@x@+ S y@i++ + + + + + + @ + ",
". + + + # ~ z@A@j.:.:.:.B@C@D@. . + + @ # + + + + + + + + + + + @ + + ",
". . + + + + E@F@G@++H@I@J@K@. . + + + + @ @ + + + + + + + + + @ + + + ",
"+ . + + + + + + L@M@N@O@+ + + + + + + + + + + + + + . . . + + + + + + "};
