/* XPM */
static char * left_attack_3_xpm[] = {
"35 35 328 2",
"  	c None",
". 	c #2F2D2D",
"+ 	c #33302F",
"@ 	c #353231",
"# 	c #8E8D90",
"$ 	c #B2B2B2",
"% 	c #B1B1B1",
"& 	c #94918F",
"* 	c #919091",
"= 	c #989797",
"- 	c #8F8F8E",
"; 	c #E8E8EA",
"> 	c #FFFFFF",
", 	c #616060",
"' 	c #363332",
") 	c #D8D8DB",
"! 	c #676665",
"~ 	c #2C2A2A",
"{ 	c #D7D7D9",
"] 	c #F8F8F8",
"^ 	c #F3F3F3",
"/ 	c #F7F7F7",
"( 	c #FAFAFA",
"_ 	c #565554",
": 	c #F0F0F0",
"< 	c #393635",
"[ 	c #353434",
"} 	c #838282",
"| 	c #5A595A",
"1 	c #434140",
"2 	c #485734",
"3 	c #50433A",
"4 	c #5E5D5D",
"5 	c #FEFEFE",
"6 	c #8A8989",
"7 	c #312F2F",
"8 	c #616062",
"9 	c #5B514A",
"0 	c #777676",
"a 	c #EEEEEE",
"b 	c #9E9E9E",
"c 	c #DEDEE1",
"d 	c #4A4948",
"e 	c #818080",
"f 	c #959597",
"g 	c #D0CFCE",
"h 	c #2A2825",
"i 	c #8A8A8C",
"j 	c #766F6B",
"k 	c #E8E8E8",
"l 	c #32302F",
"m 	c #2B2F2E",
"n 	c #282D2D",
"o 	c #E8E8E9",
"p 	c #605F5E",
"q 	c #31302F",
"r 	c #3E302F",
"s 	c #48302F",
"t 	c #623131",
"u 	c #983636",
"v 	c #983536",
"w 	c #35302F",
"x 	c #44352C",
"y 	c #3C3C3B",
"z 	c #7F3433",
"A 	c #993636",
"B 	c #7D2F2F",
"C 	c #393C3C",
"D 	c #823030",
"E 	c #2E302F",
"F 	c #A1A1A1",
"G 	c #858B8A",
"H 	c #903333",
"I 	c #272F2E",
"J 	c #322F2E",
"K 	c #4D2F2F",
"L 	c #666968",
"M 	c #ACACAC",
"N 	c #7C2F2F",
"O 	c #7E3030",
"P 	c #813030",
"Q 	c #28302F",
"R 	c #AEADAD",
"S 	c #714333",
"T 	c #8D5235",
"U 	c #9E5D3D",
"V 	c #9D5D3D",
"W 	c #985839",
"X 	c #515555",
"Y 	c #7E2F2F",
"Z 	c #7D3030",
"` 	c #27302F",
" .	c #413E3E",
"..	c #0D1E23",
"+.	c #A36241",
"@.	c #A36343",
"#.	c #925233",
"$.	c #A1847C",
"%.	c #B0B1B1",
"&.	c #723C22",
"*.	c #4D312D",
"=.	c #7F3030",
"-.	c #26302F",
";.	c #938683",
">.	c #96512A",
",.	c #804020",
"'.	c #954300",
").	c #9E9492",
"!.	c #672B00",
"~.	c #BAA7A3",
"{.	c #7D3200",
"].	c #543629",
"^.	c #66312E",
"/.	c #843030",
"(.	c #4A342A",
"_.	c #272D30",
":.	c #C2C2C4",
"<.	c #242E2F",
"[.	c #BBBCBC",
"}.	c #5C4B47",
"|.	c #813F1C",
"1.	c #989595",
"2.	c #AFB1B2",
"3.	c #672F0E",
"4.	c #82411F",
"5.	c #4E2D30",
"6.	c #8C4927",
"7.	c #844A2E",
"8.	c #292D2E",
"9.	c #919092",
"0.	c #535151",
"a.	c #81401E",
"b.	c #A86442",
"c.	c #A66442",
"d.	c #A56443",
"e.	c #8D4D2D",
"f.	c #84411F",
"g.	c #512E30",
"h.	c #643722",
"i.	c #0F282C",
"j.	c #909092",
"k.	c #7C7B7A",
"l.	c #743D24",
"m.	c #04272C",
"n.	c #12292C",
"o.	c #583125",
"p.	c #814020",
"q.	c #7F4020",
"r.	c #4A2D30",
"s.	c #773030",
"t.	c #6A3821",
"u.	c #A26242",
"v.	c #A36141",
"w.	c #142A2D",
"x.	c #919194",
"y.	c #20272E",
"z.	c #5D4C2F",
"A.	c #000F2E",
"B.	c #84692E",
"C.	c #7D3F21",
"D.	c #683927",
"E.	c #502E2F",
"F.	c #462E2F",
"G.	c #803E1C",
"H.	c #A06040",
"I.	c #A26140",
"J.	c #162A2D",
"K.	c #E1E1E3",
"L.	c #CEA034",
"M.	c #CB9D2F",
"N.	c #632130",
"O.	c #803030",
"P.	c #8A3333",
"Q.	c #7C3030",
"R.	c #182E2F",
"S.	c #814121",
"T.	c #222E2F",
"U.	c #D3D3D6",
"V.	c #9A9A9A",
"W.	c #322F2F",
"X.	c #152E2D",
"Y.	c #9B3636",
"Z.	c #302E2E",
"`.	c #763D23",
" +	c #44322C",
".+	c #965534",
"++	c #1F352E",
"@+	c #E2E2E4",
"#+	c #713C24",
"$+	c #833335",
"%+	c #9A3636",
"&+	c #9F3737",
"*+	c #593031",
"=+	c #943535",
"-+	c #975C3E",
";+	c #824222",
">+	c #87421D",
",+	c #7E503A",
"'+	c #102A2C",
")+	c #333331",
"!+	c #807F80",
"~+	c #D3D3D7",
"{+	c #E3E3E5",
"]+	c #B4B3B3",
"^+	c #323030",
"/+	c #753D23",
"(+	c #53352A",
"_+	c #62342A",
":+	c #6D3A21",
"<+	c #733E25",
"[+	c #9F5F40",
"}+	c #86421E",
"|+	c #693A26",
"1+	c #975737",
"2+	c #8F583D",
"3+	c #403125",
"4+	c #47372C",
"5+	c #545354",
"6+	c #D4D4D7",
"7+	c #E6E6E8",
"8+	c #9B9B9B",
"9+	c #2B2F2F",
"0+	c #2A2F2F",
"a+	c #875238",
"b+	c #884728",
"c+	c #83411E",
"d+	c #905132",
"e+	c #6B4636",
"f+	c #58362A",
"g+	c #553D2A",
"h+	c #002B2E",
"i+	c #8D4C2C",
"j+	c #A16141",
"k+	c #89553C",
"l+	c #424F33",
"m+	c #E9E9EA",
"n+	c #969695",
"o+	c #462F29",
"p+	c #684638",
"q+	c #373129",
"r+	c #533D2A",
"s+	c #744A26",
"t+	c #553307",
"u+	c #5B3F2A",
"v+	c #773D23",
"w+	c #8E4D2C",
"x+	c #975534",
"y+	c #513228",
"z+	c #595758",
"A+	c #EBEBEC",
"B+	c #282A2C",
"C+	c #262C2E",
"D+	c #4D392C",
"E+	c #5F3D15",
"F+	c #644116",
"G+	c #5F483B",
"H+	c #5B6268",
"I+	c #2B2E25",
"J+	c #84898F",
"K+	c #202F3C",
"L+	c #5F4033",
"M+	c #3D3531",
"N+	c #323533",
"O+	c #C6C6C9",
"P+	c #E2E2E2",
"Q+	c #42352C",
"R+	c #603600",
"S+	c #6C4728",
"T+	c #423531",
"U+	c #42528A",
"V+	c #2E60B1",
"W+	c #2C3E64",
"X+	c #1B386A",
"Y+	c #275FAF",
"Z+	c #2760B1",
"`+	c #7D3E0E",
" @	c #995A3A",
".@	c #20282D",
"+@	c #CCCBCE",
"@@	c #D5D5D8",
"#@	c #CECED1",
"$@	c #C8C9C9",
"%@	c #000000",
"&@	c #3B4044",
"*@	c #EEEEEF",
"=@	c #2D2E2D",
"-@	c #87533A",
";@	c #7C4B24",
">@	c #2861B3",
",@	c #2D69C3",
"'@	c #2C68C0",
")@	c #285DAA",
"!@	c #173751",
"~@	c #7C3B1A",
"{@	c #7B4D38",
"]@	c #2A2A29",
"^@	c #182A38",
"/@	c #DDDCDF",
"(@	c #8A929E",
"_@	c #D7D7DA",
":@	c #DADADD",
"<@	c #00181A",
"[@	c #82401F",
"}@	c #2B2A27",
"|@	c #275FAE",
"1@	c #285DA9",
"2@	c #2E384F",
"3@	c #723C24",
"4@	c #623827",
"5@	c #2F2F2E",
"6@	c #D2D2D6",
"7@	c #D0D0D3",
"8@	c #33302D",
"9@	c #2E2F2E",
"0@	c #DFDFE1",
"a@	c #CDCDD0",
"b@	c #A0A09F",
"c@	c #6C6B6B",
"d@	c #69696B",
"e@	c #F2F2F3",
"f@	c #D0D0D4",
"g@	c #CFCFD3",
"h@	c #949493",
"i@	c #1F1D1D",
"j@	c #5B5A59",
"k@	c #B5B5B5",
"l@	c #B6B6B6",
"m@	c #252222",
". + + + . + + + + @ + + + # $ $ $ % & + + + + + + + + + + + + + . + + ",
"+ + + + . . + * = - ; > > > > > > > > > > > = = = , + ' + + + . + + + ",
"+ + + + + ) > > > > > > > > > > > > > > > > > > > > > ! + + ~ ~ + + + ",
"~ + + + { > > > > > > > > > ] > + + + + + + ^ ] ] / > > > ( _ ~ ~ + + ",
"+ + + { > > > > > > > : < [ + + + + + + + + ~ + + ~ [ [ } > > > + + + ",
". + | > > > > > > 1 2 2 . + + + + + + + + ~ + + 3 + ~ ~ . . 4 5 ] 6 ' ",
"7 8 ( > > > > > 9 2 3 2 . . 2 2 + + + + + + + + + + + + ~ ~ + + 0 a b ",
"+ c > > > > > d ' 3 + 3 + 2 2 + + + + + + + + . + + + + + + + + + + e ",
"f > > > > > g ~ h + h . 3 2 + + + + + + + + . . + + + + + + + + + + + ",
"i > > > > > j 3 + + . ~ 3 + + + + + + + + . . + + + + + + + + + + + + ",
"; > > > > k + + + . . + + 3 3 ~ + + + l m n + + + + + + + + + + + + + ",
"o > > > > p + + . . + + 3 3 ~ + q r s t u v s w + ~ + + + + x + + + + ",
"o > > > > p + + . + + + + + y + z A u u B C u D E + + + + + + + + + + ",
"o > > > > p + + + + + + + + F G H I J K L M N O P Q + + + + + + + + + ",
"o > > > > p + + + + + + + + R S T U V W X M Y O O Z ` . + + + + + ~ + ",
"o > > > >  .+ + + + + + + + ..+.@.#.@.$.> %.&.*.=.D -.+ . + + + ~ + + ",
"o > > > > > + + + + + + + + ;.>.,.'.).!.~.{.].^.=./.(._.. + + ~ + + + ",
":.> > > > > + + + + + + + <.[.}.|.1.2.3.,.4.O O O 5.6.7.8.+ + + + + + ",
"9.> > > > > 0.+ + + ~ + l a.b.c.d.e.f.,.,.g.O O D h.@.+.i.. . . + + + ",
"j.> > > > > k.+ + + + + + l.m.n.o.p.,.q.r.O O O s.t.u.v.w.~ ~ . . + + ",
"x.> > > > > > + + + + + + y.z.A.B.C.D.E.O O O O F.G.H.I.J.+ + + . 3 + ",
"+ K.> > > > > + + + + + + + L.M.N.O.P.Q.O O O O.R.4.S.4.T.+ + + + + + ",
"+ U.> > > > > V.+ + + + + + W.X.Y.u u u N O Z.`. +.+H.I.+++ + + + + + ",
"+ j.@+> > > > > + 3 + + + + + #+$+%+&+*+=+-+;+,.>+,+H.v.'+)++ + + + + ",
"+ !+~+{+> > > > ]+^+. + + + + /+(+_+:+q.<+[+,.}+|+1+H.2+3+4++ 2 + + + ",
"+ 5+6+6+7+> > > > 8+' . . . . 9+0+a+b+c+d+e+f+g+h+i+j+k+l+~ 2 2 + + + ",
". . 6+6+6+m+> > > > n+' ~ ~ . . + o+p+q+r+s+t+u+v+w+x+y+~ 3 2 3 . + + ",
"+ @ z+6+6+6+A+> > > > 6 + + B+C+D+E+F+G+H+I+J+K+L+M+N+h h 3 3 + + . + ",
"+ + + O+6+6+6+A+> > > > P+Q+R+S+T+U+V+W+X+Y+Z+`+ @b..@+ + + + + + + . ",
"+ + . + +@@@@@#@7+$@%@> > &@*@=@-@;@>@,@'@)@)@!@~@H.{@+ ~ + + + + x . ",
"x + + + . ]@%@c ^@/@(@_@6+6+:@<@[@,.}@|@1@1@1@2@3@q.4@~ + + + + + + + ",
"+ + + + . 5@%@) 6@6+6+6+6+6+6+7@_@%@+ 8@8@8@8@+ 5@9@5@+ + + + + + ~ + ",
". + + + x + a 0@6+6+6+6+6+6+6+a@b@+ + ~ x + + + + + + + + + + + ~ + + ",
". . + + + + . c@d@> e@f@f@g@> h@J + + + ~ ~ + + + + + + + + + ~ + + + ",
"+ . + + + + + + + i@j@k@k@l@m@+ + + + + + + + + + + . . . + + + + + + "};
