/* XPM */
static char * left_attack_1_xpm[] = {
"35 35 373 2",
"  	c None",
". 	c #2F2D2D",
"+ 	c #33302F",
"@ 	c #2C2A2A",
"# 	c #44352C",
"$ 	c #31302F",
"% 	c #2A2E2F",
"& 	c #4B332B",
"* 	c #603828",
"= 	c #5D3526",
"- 	c #543428",
"; 	c #211F1E",
"> 	c #232120",
", 	c #222121",
"' 	c #392E26",
") 	c #6B4625",
"! 	c #37312D",
"~ 	c #623828",
"{ 	c #824323",
"] 	c #A26242",
"^ 	c #9C5B3B",
"/ 	c #38302D",
"( 	c #2B2B2A",
"_ 	c #565656",
": 	c #414141",
"< 	c #FFFFFF",
"[ 	c #E3E3E3",
"} 	c #535352",
"| 	c #152E2D",
"1 	c #14322E",
"2 	c #3F372C",
"3 	c #4A382C",
"4 	c #342F2E",
"5 	c #824120",
"6 	c #9A5B3B",
"7 	c #A26141",
"8 	c #3F342F",
"9 	c #131211",
"0 	c #F0F0F3",
"a 	c #E5E5E7",
"b 	c #D1D1D4",
"c 	c #D2D2D6",
"d 	c #D7D7DA",
"e 	c #E4E4E7",
"f 	c #E5E5E5",
"g 	c #1B1918",
"h 	c #2E302F",
"i 	c #3B302F",
"j 	c #583130",
"k 	c #513030",
"l 	c #9E3737",
"m 	c #963535",
"n 	c #8C3434",
"o 	c #5A3130",
"p 	c #68372A",
"q 	c #844323",
"r 	c #A16141",
"s 	c #A26140",
"t 	c #644235",
"u 	c #603F24",
"v 	c #47372D",
"w 	c #39312B",
"x 	c #2E2F2F",
"y 	c #292A2B",
"z 	c #302F2F",
"A 	c #4D4138",
"B 	c #666667",
"C 	c #D4D4D7",
"D 	c #CDCDD0",
"E 	c #F7F7F7",
"F 	c #2B2928",
"G 	c #282625",
"H 	c #32302F",
"I 	c #813434",
"J 	c #953636",
"K 	c #983636",
"L 	c #993636",
"M 	c #973636",
"N 	c #823131",
"O 	c #442120",
"P 	c #7E3030",
"Q 	c #42352F",
"R 	c #A06040",
"S 	c #A36241",
"T 	c #1D2B2C",
"U 	c #36312E",
"V 	c #634228",
"W 	c #6E4727",
"X 	c #5B3D24",
"Y 	c #262B2C",
"Z 	c #B7B7BA",
"` 	c #D2D2D4",
" .	c #D6D6D9",
"..	c #777779",
"+.	c #1B1B19",
"@.	c #C1C1C1",
"#.	c #301A18",
"$.	c #973435",
"%.	c #6C3133",
"&.	c #6F3133",
"*.	c #623031",
"=.	c #7E2E2E",
"-.	c #AAA8A8",
";.	c #9C9E9E",
">.	c #883131",
",.	c #6F2F30",
"'.	c #683C2A",
").	c #A46342",
"!.	c #242A2D",
"~.	c #2C2E2F",
"{.	c #292E2F",
"].	c #46362D",
"^.	c #593F2C",
"/.	c #6E7078",
"(.	c #6D7580",
"_.	c #B6B9BF",
":.	c #B7BAC1",
"<.	c #D8D8DB",
"[.	c #D9D9DC",
"}.	c #6B6B6B",
"|.	c #232020",
"1.	c #312E2D",
"2.	c #1D1D1B",
"3.	c #090000",
"4.	c #2B312F",
"5.	c #884421",
"6.	c #844322",
"7.	c #884422",
"8.	c #282B29",
"9.	c #E6E6E6",
"0.	c #919292",
"a.	c #7A2E2E",
"b.	c #5C2E30",
"c.	c #82401F",
"d.	c #975738",
"e.	c #9F5F3F",
"f.	c #834120",
"g.	c #262F30",
"h.	c #2D2C2B",
"i.	c #2D2B29",
"j.	c #494E54",
"k.	c #43494F",
"l.	c #8D95A0",
"m.	c #8B939E",
"n.	c #8C939E",
"o.	c #8D94A0",
"p.	c #2F2C2B",
"q.	c #614B45",
"r.	c #A05F3F",
"s.	c #A66545",
"t.	c #3B1300",
"u.	c #432C2E",
"v.	c #332D2F",
"w.	c #82411F",
"x.	c #7B3A18",
"y.	c #813F1E",
"z.	c #302D2B",
"A.	c #343638",
"B.	c #393533",
"C.	c #392714",
"D.	c #543C2C",
"E.	c #804C33",
"F.	c #985839",
"G.	c #9C5D3D",
"H.	c #8D4E2F",
"I.	c #985531",
"J.	c #873000",
"K.	c #F4F0EF",
"L.	c #F9FAFA",
"M.	c #96827D",
"N.	c #85411C",
"O.	c #83411F",
"P.	c #A56342",
"Q.	c #232A2D",
"R.	c #2F2F2F",
"S.	c #2B2E2E",
"T.	c #1F1F1D",
"U.	c #9A847F",
"V.	c #7C3C1B",
"W.	c #9A532A",
"X.	c #A6A2A1",
"Y.	c #838281",
"Z.	c #865341",
"`.	c #823F1A",
" +	c #3C312C",
".+	c #63302F",
"++	c #9A5939",
"@+	c #A36141",
"#+	c #312F2F",
"$+	c #552103",
"%+	c #ACB1B3",
"&+	c #572914",
"*+	c #813F1C",
"=+	c #7D7270",
"-+	c #C4C6C6",
";+	c #6A5F5C",
">+	c #814020",
",+	c #804020",
"'+	c #713D24",
")+	c #7D3030",
"!+	c #833030",
"~+	c #29302D",
"{+	c #9C5B3A",
"]+	c #4C322A",
"^+	c #A0603F",
"/+	c #985939",
"(+	c #492D30",
"_+	c #7C3030",
":+	c #6B371F",
"<+	c #7F4021",
"[+	c #242D2E",
"}+	c #52342A",
"|+	c #614032",
"1+	c #5E4033",
"2+	c #84492D",
"3+	c #7E3E1E",
"4+	c #62302F",
"5+	c #803030",
"6+	c #53322D",
"7+	c #793D20",
"8+	c #2C2D2D",
"9+	c #252B2D",
"0+	c #7B6230",
"a+	c #24292E",
"b+	c #36332E",
"c+	c #393C30",
"d+	c #86421E",
"e+	c #4C2F2F",
"f+	c #2B282E",
"g+	c #DBAA35",
"h+	c #00002D",
"i+	c #3C372E",
"j+	c #745D2E",
"k+	c #34302D",
"l+	c #2D302D",
"m+	c #723C24",
"n+	c #212D2E",
"o+	c #25232E",
"p+	c #AD8833",
"q+	c #94712E",
"r+	c #852B33",
"s+	c #8E3333",
"t+	c #8D3333",
"u+	c #7F3030",
"v+	c #813030",
"w+	c #702E30",
"x+	c #613927",
"y+	c #85421E",
"z+	c #222E2F",
"A+	c #683A26",
"B+	c #372F2F",
"C+	c #9A3636",
"D+	c #6D302F",
"E+	c #32302D",
"F+	c #643927",
"G+	c #84411F",
"H+	c #272E2F",
"I+	c #87421D",
"J+	c #6F3B25",
"K+	c #8E3435",
"L+	c #9B3636",
"M+	c #9C3637",
"N+	c #7A3334",
"O+	c #9F3737",
"P+	c #5D282E",
"Q+	c #945A3D",
"R+	c #834222",
"S+	c #5E3728",
"T+	c #55362A",
"U+	c #713C24",
"V+	c #3F322B",
"W+	c #5D332D",
"X+	c #47322A",
"Y+	c #6D3C24",
"Z+	c #3D322A",
"`+	c #93593C",
" @	c #9E5E3F",
".@	c #824222",
"+@	c #7F4020",
"@@	c #47332C",
"#@	c #50433A",
"$@	c #202E2F",
"%@	c #8D4A29",
"&@	c #7E3D1D",
"*@	c #834323",
"=@	c #824223",
"-@	c #7C3F21",
";@	c #2D2F2F",
">@	c #485734",
",@	c #50392F",
"'@	c #965433",
")@	c #592A0B",
"!@	c #5D2D0E",
"~@	c #955737",
"{@	c #A15F3E",
"]@	c #864321",
"^@	c #582500",
"/@	c #603829",
"(@	c #30302F",
"_@	c #343434",
":@	c #283234",
"<@	c #838A96",
"[@	c #828994",
"}@	c #596067",
"|@	c #31393C",
"1@	c #2F3638",
"2@	c #979FAA",
"3@	c #30251E",
"4@	c #3D3D3A",
"5@	c #4E4D41",
"6@	c #848C98",
"7@	c #838B96",
"8@	c #696D6F",
"9@	c #535450",
"0@	c #5C5C55",
"a@	c #003E77",
"b@	c #854322",
"c@	c #8F583D",
"d@	c #22252C",
"e@	c #2A2825",
"f@	c #553C33",
"g@	c #554A68",
"h@	c #2D6ECD",
"i@	c #1F3560",
"j@	c #203A6A",
"k@	c #2457A1",
"l@	c #275FAF",
"m@	c #2761B2",
"n@	c #663200",
"o@	c #8E573C",
"p@	c #322F2F",
"q@	c #8B553B",
"r@	c #8E5532",
"s@	c #275BA6",
"t@	c #2D6BC7",
"u@	c #2D6AC6",
"v@	c #2961B2",
"w@	c #285DAA",
"x@	c #285EAD",
"y@	c #2B2800",
"z@	c #9A5A3B",
"A@	c #A16040",
"B@	c #3E342F",
"C@	c #3B322E",
"D@	c #955938",
"E@	c #31487A",
"F@	c #2960B1",
"G@	c #2D6AC5",
"H@	c #285CA8",
"I@	c #285EAB",
"J@	c #2C4C83",
"K@	c #274E8A",
"L@	c #302D22",
"M@	c #7D3B18",
"N@	c #A66544",
"O@	c #7D3E1F",
"P@	c #7E3F1F",
"Q@	c #392E1D",
"R@	c #285DA9",
"S@	c #285AA4",
"T@	c #295BA5",
"U@	c #285CA7",
"V@	c #2F333F",
"W@	c #2F2D22",
"X@	c #39302E",
"Y@	c #7E4021",
"Z@	c #7D3E1E",
"`@	c #2A2E2E",
" #	c #36302D",
".#	c #322E2E",
"+#	c #322D28",
"@#	c #322F2E",
"##	c #2F2F2E",
". + + + . + + + + + + + + + + + + @ # + + + + + + + + + + + + + . + + ",
"+ + + + . . + @ + + + + + + + + + + + + + + + + + . + + + + + . + + + ",
"+ + + + + . + + @ $ % + & * = - + + + + + + + + + + . ; > > , @ + + + ",
"@ + + + + + + + + ' ) ! ~ { ] ^ / + + + + + + @ ( _ : < < < [ } @ + + ",
"+ + + + + + + + | 1 2 3 4 5 6 7 8 % + + + + @ + 9 0 a b c c d e f g + ",
". + + + h i j k l m n o p q r s t u v w x y z + A B C C C C C C D E F ",
". . G H I J K L M N O K P Q s R S T U V W W X Y Z ` C C C C C C  .d ..",
"+ +.@.#.$.%.&.*.=.-.;.>.,.'.7 R ).!.+ ~.{.% ].^./.(._.:.<.d d [.}.|.1.",
"+ 2.[ 3.4.5.6.7.8.9.0.a.b.c.d.e.f.g.+ + + + . . h.i.j.k.l.m.n.o.> + + ",
"+ p.q.^ r.] r s.t.< 0.u.v.w.x.6 y.g.+ + + . . + + + 1.z.A.A.B.C.D.+ + ",
"+ $ E.F.G.H.I.J.K.L.M.N.* O.6 R P.Q.+ + + . + + + + + + + + + R.S.+ + ",
"+ T.U.r.V.W.X.Y.c.Z.`. +.+ +++R @+Q.+ + + + + + + @ + + + + # + + + + ",
"#+$+%+&+*+=+-+;+>+,+'+)+!+~+{+R ).Q.+ + + + + + + + + + + + + + + + + ",
"]+^+S r r /+c.>+,+>+(+P P _+:+r <+[++ + + + + + + + + + + + + + + + + ",
"}+|+1+1+2+3+,+,+>+4+5+P P )+6+7+8+. + + + + + + + + + . + + + + + @ + ",
"9+0+a+b+c+d+w.'+(+5+P P P P e+[+. + + @ # + + + + + + + . + + + @ + + ",
"f+g+h+i+j+k+l+_+P P P P P )+m+n++ + + + @ @ + + + + + + . + + @ + + + ",
"+ o+p+q+r+s+s+t+_+P u+v+w+x+y+z++ + + + + + + + + + + + . + + + + + + ",
"+ H A+B+C+K K L M P D+E+F+,+G+z++ + + + + + + + + + + + @ . . . + + + ",
". H+I+J+K+L+M+N+O+P+Q+R+>+,+S+R.+ + + + + + + + + + + + + @ @ . . + + ",
". + T+U+V+W+X+Y+Z+`+ @.@,++@@@+ + + + + + + + + + + + + + + + + . #@+ ",
"+ + + H $@%@R &@*@r R =@,+-@;@+ . . + + + + + + + + + >@+ + + + + + + ",
"+ + + + + ,@'@)@!@~@{@]@^@/@(@+ @ . . + + @ + + + + + >@>@+ + + + + + ",
"+ + + + + _@:@<@[@}@|@1@2@3@H + + + . + + + @ >@>@+ + #@>@#@+ + + + + ",
"+ + + + + 4@5@6@7@8@9@0@a@b@c@d@+ + + + + + e@e@>@>@+ + #@#@+ >@+ + + ",
"+ . . + f@g@h@i@j@k@l@m@n@{ r o@p@+ + + + + + e@#@>@#@>@>@@ >@>@+ + + ",
". . + p@q@r@s@t@u@v@w@x@y@G+z@A@B@+ + + + + + + + #@>@#@@ #@>@#@. + + ",
"+ + + C@{@D@E@F@G@H@I@J@K@L@M@N@B@+ + + + + + + + + #@e@e@#@#@+ + . + ",
"+ + + / O@P@Q@R@S@T@U@V@W@X@Y@Z@/ + + + + + + + + + + + + + + + + + . ",
"+ + . + `@ #.#+#+#+#+#@#+ + `@`@##+ + + + + + + + + + + @ + + + + # . ",
"# + + + . . + + + + + + + + + + + + + + + + + + + + + @ + + + + + + + ",
"+ + + + . . + + + + + + + + + + . . + + + + + + + + + + + + + + + @ + ",
". + + + # + . + + + + + + + + . . + + @ # + + + + + + + + + + + @ + + ",
". . + + + + . . + + @ + + + . . + + + + @ @ + + + + + + + + + @ + + + ",
"+ . + + + + + + + @ + + + + + + + + + + + + + + + + . . . + + + + + + "};
