/* XPM */
static char * left_attack_7_xpm[] = {
"35 35 414 2",
"  	c None",
". 	c #2F2D2D",
"+ 	c #33302F",
"@ 	c #2C2A2A",
"# 	c #44352C",
"$ 	c #32302F",
"% 	c #1C2F2E",
"& 	c #1D2F2E",
"* 	c #282F2E",
"= 	c #2F2F2E",
"- 	c #4C302F",
"; 	c #9B3636",
"> 	c #983636",
", 	c #7D3333",
"' 	c #2B2F2E",
") 	c #302F2E",
"! 	c #2F2D2C",
"~ 	c #322F2E",
"{ 	c #553130",
"] 	c #643231",
"^ 	c #A03737",
"/ 	c #9C3637",
"( 	c #9D3737",
"_ 	c #873232",
": 	c #7E3030",
"< 	c #752323",
"[ 	c #8B3333",
"} 	c #372E2E",
"| 	c #485734",
"1 	c #757575",
"2 	c #30302F",
"3 	c #4A3433",
"4 	c #973636",
"5 	c #9C3636",
"6 	c #833131",
"7 	c #863434",
"8 	c #000000",
"9 	c #8D8E8E",
"0 	c #913131",
"a 	c #7C2F2F",
"b 	c #7C3030",
"c 	c #242F2E",
"d 	c #696969",
"e 	c #FFFFFF",
"f 	c #833132",
"g 	c #36312B",
"h 	c #35312B",
"i 	c #49312C",
"j 	c #170000",
"k 	c #838585",
"l 	c #722929",
"m 	c #813030",
"n 	c #332E2E",
"o 	c #50433A",
"p 	c #ADB0B0",
"q 	c #602000",
"r 	c #754833",
"s 	c #975636",
"t 	c #925334",
"u 	c #848786",
"v 	c #772A2A",
"w 	c #783030",
"x 	c #3B2E2D",
"y 	c #2A2825",
"z 	c #3A4A32",
"A 	c #753B20",
"B 	c #A26241",
"C 	c #A06040",
"D 	c #925432",
"E 	c #CED0D0",
"F 	c #878787",
"G 	c #292928",
"H 	c #432F2E",
"I 	c #803030",
"J 	c #422F2E",
"K 	c #3F3B24",
"L 	c #9B5D3E",
"M 	c #955636",
"N 	c #9B5B3C",
"O 	c #8B4B2C",
"P 	c #9E5C39",
"Q 	c #934C22",
"R 	c #9E7263",
"S 	c #FDFBFB",
"T 	c #E7E8E8",
"U 	c #8F7168",
"V 	c #853F17",
"W 	c #7C3F21",
"X 	c #622E30",
"Y 	c #2B2F2F",
"Z 	c #6D6C6C",
"` 	c #87513D",
" .	c #9E5D3D",
"..	c #7D3D1D",
"+.	c #A56341",
"@.	c #866055",
"#.	c #ADA9A8",
"$.	c #4E2507",
"%.	c #94695C",
"&.	c #86594A",
"*.	c #823C0F",
"=.	c #4D352A",
"-.	c #48322D",
";.	c #7D3030",
">.	c #823030",
",.	c #362D30",
"'.	c #733C24",
").	c #2B2E30",
"!.	c #A4A1A0",
"~.	c #BABDBD",
"{.	c #381000",
"].	c #85411E",
"^.	c #342C2A",
"/.	c #FDFEFE",
"(.	c #B6B7B7",
"_.	c #461E05",
":.	c #82411F",
"<.	c #804020",
"[.	c #663A26",
"}.	c #772F30",
"|.	c #642E30",
"1.	c #793E20",
"2.	c #874727",
"3.	c #613A2A",
"4.	c #2A2F2F",
"5.	c #693A26",
"6.	c #8F4D28",
"7.	c #7B4423",
"8.	c #985737",
"9.	c #955536",
"0.	c #995838",
"a.	c #510000",
"b.	c #5F2300",
"c.	c #844220",
"d.	c #84411F",
"e.	c #56332C",
"f.	c #7B3030",
"g.	c #59322B",
"h.	c #8F5133",
"i.	c #A26242",
"j.	c #9F5D3B",
"k.	c #232E2F",
"l.	c #503427",
"m.	c #9C5C3C",
"n.	c #A56241",
"o.	c #292F2F",
"p.	c #6A3A26",
"q.	c #00162D",
"r.	c #11292C",
"s.	c #00262D",
"t.	c #4B2C27",
"u.	c #7F4020",
"v.	c #54322C",
"w.	c #7F3030",
"x.	c #69302F",
"y.	c #663824",
"z.	c #2C2F2E",
"A.	c #AE8832",
"B.	c #262A2E",
"C.	c #59492E",
"D.	c #79622F",
"E.	c #83411F",
"F.	c #86421E",
"G.	c #4C352A",
"H.	c #823F1C",
"I.	c #9D5E3E",
"J.	c #A66442",
"K.	c #B48C33",
"L.	c #67532F",
"M.	c #725B2E",
"N.	c #81622E",
"O.	c #3A2E2F",
"P.	c #332E2F",
"Q.	c #7E3131",
"R.	c #7B3A19",
"S.	c #8D4B2A",
"T.	c #5F4D2F",
"U.	c #957531",
"V.	c #83622E",
"W.	c #872A34",
"X.	c #913434",
"Y.	c #9A3636",
"Z.	c #7A2F2F",
"`.	c #603729",
" +	c #813F1C",
".+	c #925333",
"++	c #945435",
"@+	c #894726",
"#+	c #4A302F",
"$+	c #893232",
"%+	c #43322C",
"&+	c #904F2E",
"*+	c #3A2F2F",
"=+	c #923536",
"-+	c #993636",
";+	c #7E3334",
">+	c #632C2E",
",+	c #7A4C34",
"'+	c #864321",
")+	c #614437",
"!+	c #A16140",
"~+	c #2B2E2F",
"{+	c #192D30",
"]+	c #7B3F21",
"^+	c #5F362B",
"/+	c #452F30",
"(+	c #893435",
"_+	c #3E2E31",
":+	c #733D24",
"<+	c #36292F",
"[+	c #955B3E",
"}+	c #A46342",
"|+	c #864627",
"1+	c #3C312D",
"2+	c #8B4D2F",
"3+	c #A16040",
"4+	c #A86442",
"5+	c #2D2F2F",
"6+	c #6F4827",
"7+	c #3D342D",
"8+	c #282E2F",
"9+	c #7A3E22",
"0+	c #814020",
"a+	c #51352A",
"b+	c #613F2F",
"c+	c #854220",
"d+	c #854321",
"e+	c #975738",
"f+	c #783E23",
"g+	c #49332C",
"h+	c #8B4C2C",
"i+	c #664435",
"j+	c #423123",
"k+	c #2A2F30",
"l+	c #793E22",
"m+	c #593629",
"n+	c #A15F3E",
"o+	c #83411E",
"p+	c #8F4C2A",
"q+	c #6B4636",
"r+	c #6A4637",
"s+	c #5A382C",
"t+	c #373028",
"u+	c #4D3827",
"v+	c #122C2F",
"w+	c #8B4927",
"x+	c #9E5F3F",
"y+	c #A16141",
"z+	c #6C4736",
"A+	c #94512F",
"B+	c #503A32",
"C+	c #443122",
"D+	c #714927",
"E+	c #704827",
"F+	c #48392C",
"G+	c #8D4E2F",
"H+	c #543328",
"I+	c #302F2F",
"J+	c #342E2A",
"K+	c #4A392B",
"L+	c #4F3A2B",
"M+	c #5C3C21",
"N+	c #5C3912",
"O+	c #60412A",
"P+	c #605450",
"Q+	c #676F78",
"R+	c #1D2007",
"S+	c #1C2D30",
"T+	c #653725",
"U+	c #663724",
"V+	c #663723",
"W+	c #603625",
"X+	c #2E2F30",
"Y+	c #312F2F",
"Z+	c #272D2E",
"`+	c #262D2F",
" @	c #473324",
".@	c #6C4728",
"+@	c #6D4626",
"@@	c #3B2B00",
"#@	c #3F3328",
"$@	c #4B4645",
"%@	c #8B939F",
"&@	c #2E290B",
"*@	c #3B392C",
"=@	c #4E4B3A",
"-@	c #21569D",
";@	c #5F3207",
">@	c #955A3E",
",@	c #764B38",
"'@	c #473D37",
")@	c #312F2E",
"!@	c #3E332C",
"~@	c #463426",
"{@	c #6B4628",
"]@	c #634329",
"^@	c #3C3331",
"/@	c #4A3832",
"(@	c #2A6DCC",
"_@	c #2E4777",
":@	c #2D3B5B",
"<@	c #1D2947",
"[@	c #285FAE",
"}@	c #2761B3",
"|@	c #452900",
"1@	c #813E1C",
"2@	c #4B3831",
"3@	c #2D2B28",
"4@	c #2D2B29",
"5@	c #3D4145",
"6@	c #393F44",
"7@	c #59473E",
"8@	c #472800",
"9@	c #272A2C",
"0@	c #292C2E",
"a@	c #232A2D",
"b@	c #82513A",
"c@	c #A36241",
"d@	c #064071",
"e@	c #2D6CC9",
"f@	c #2D6DCC",
"g@	c #285DAA",
"h@	c #372A00",
"i@	c #763B16",
"j@	c #8A553B",
"k@	c #334430",
"l@	c #363738",
"m@	c #51575F",
"n@	c #50565D",
"o@	c #959CA8",
"p@	c #9299A4",
"q@	c #969DA9",
"r@	c #4D3931",
"s@	c #084171",
"t@	c #285DA9",
"u@	c #2D6BC7",
"v@	c #2A62B5",
"w@	c #2E323C",
"x@	c #1B3F67",
"y@	c #222E2E",
"z@	c #38322E",
"A@	c #40332A",
"B@	c #5F4129",
"C@	c #434A51",
"D@	c #666D76",
"E@	c #707882",
"F@	c #A8ADB6",
"G@	c #B1B5BD",
"H@	c #DADADC",
"I@	c #D8D7DA",
"J@	c #DADADD",
"K@	c #666667",
"L@	c #292726",
"M@	c #301200",
"N@	c #914F2F",
"O@	c #6B3500",
"P@	c #294A7F",
"Q@	c #2860B0",
"R@	c #2962B5",
"S@	c #285FAD",
"T@	c #2760B0",
"U@	c #2C487A",
"V@	c #28497D",
"W@	c #1E3752",
"X@	c #8B4A29",
"Y@	c #9B5837",
"Z@	c #1B2B2D",
"`@	c #32302E",
" #	c #38312C",
".#	c #2D2D2D",
"+#	c #232120",
"@#	c #C2C3C6",
"##	c #D1D2D6",
"$#	c #D1D1D5",
"%#	c #D5D5D8",
"&#	c #D4D4D7",
"*#	c #CFCFD2",
"=#	c #C4C4C6",
"-#	c #BFBFC1",
";#	c #300C00",
">#	c #42312C",
",#	c #703C25",
"'#	c #2C2D26",
")#	c #2E3952",
"!#	c #2E3850",
"~#	c #2E3A54",
"{#	c #2F2D26",
"]#	c #43312B",
"^#	c #2E2F2E",
"/#	c #181717",
"(#	c #505050",
"_#	c #D9D9DC",
":#	c #D3D3D6",
"<#	c #E2E2E5",
"[#	c #010101",
"}#	c #313130",
"|#	c #2F2E2D",
"1#	c #212020",
"2#	c #B2B2B5",
"3#	c #D2D2D5",
"4#	c #D0D0D4",
"5#	c #FEFEFF",
"6#	c #B6B6B6",
"7#	c #2B2828",
"8#	c #17110D",
"9#	c #F0F0F1",
"0#	c #353332",
"a#	c #1D1B1B",
"b#	c #1C1B1B",
"c#	c #D0D0D0",
"d#	c #D1D1D1",
"e#	c #828282",
"f#	c #2F2C2B",
"g#	c #282626",
". + + + . + + + + + + + + + + + + @ # + + + + + + + + + + + + + . + + ",
"+ + + + . . + @ + + + + + + + + + + + + $ % & * + . + + + + + . + + + ",
"+ + + + + . + + @ + + + + + + + + + = = - ; > , ' ) . + + + @ @ + + + ",
"@ + + + + + + + + + + + + ! ~ + { ] ^ / ( _ : < ( [ } . + + + @ @ + + ",
"+ + + + + + + + + | | + + 1 2 3 4 ( 5 ( 6 7 8 9 0 a b c . + + + + + + ",
". + + + + + + | | + | | . d e 8 f g g h i j e k l : : m n . . . . + + ",
". . + + + + o o o | o | . 1 p q r s s s t 8 e u v m : : w x + + . . + ",
"+ + + + + # + y + o + o + z A B C C C C D E e F G H I : I J + + + + + ",
"+ + + + + o o @ y + y . o K L M N O P Q R S T U V W X : I H Y + + + + ",
"+ + + + + @ o o + + . @ o Z `  ...+.@.#.$.%.&.*.=.-.;.: >.,.'.).+ + + ",
"+ + + + + + + + + . . + 2 !.~.{.].^./.(._.:.<.[.}.m : : |.1.2.3.$ + + ",
"+ + + + + + + + . . + 4.5.6.7.8.9.0.a.b.c.<.d.e.f.: : : g.h.i.j.= + + ",
"+ + + @ + + + + . + + k.<.i.C C i.<.<.<.<.d.= >.: : : : l.m.C n.= + + ",
"+ + + + @ + + + + + + o.p.q.r.s.t.<.<.:.u.v.>.: : : w.x.y.m.C n.= + + ",
"+ @ + + + + + + + + + + z.A.B.C.D.E.F.G.-.;.: : : : >.z.H.I.C J.= @ + ",
"@ + + + + + + + + + + + ) K.L.M.N.O.P.Q.I : : : : : b = d.R.I.S.= + + ",
"+ + + + + + + + + + + + + T.U.V.W.X.X.Y.Z.;.: w.>.f.`.=  +.+++@+= + + ",
"+ + + + + + + + + + + + + + + #+; > > > > $+: x.z.%+F.= &+C C n.= + + ",
"+ + + + + # + + + + @ + + + + *+=+; -+( ;+^ >+,+'+E.u.F.)+!+C n.= ~++ ",
". + + + + + + + + + + + + + {+]+^+/+(+_+:+<+[+}+|+<.F.1+2+3+C 4+5+6+7+",
". + + + + + + + + + + + + 8+9+0+a+d.b+c+<.d+!+e+0+f+g+]+h+C !+i+j+k+$ ",
"+ + + + + + + + + + + + + 8+9+d.l+m+n+d+o+p+q+r+s+t+u+v+w+x+y+z+2 + + ",
"+ + + + + + + + + + + + + + ) = = = A+B+= 5+C+D+6+E+F+<.G+C m.H++ + + ",
"+ + + + + + + + + o + + + + + I+~+J+K+L+M+N+O+P+Q+R+S+T+U+V+W+X++ + + ",
"+ + + + + + + + + . . Y+Z+Z+`+ @.@+@@@#@$@%@&@*@=@-@;@>@,@'@2 | + + + ",
"+ . . + + + + + ~ )@!@~@{@{@{@]@^@/@(@_@:@<@[@[@}@|@1@C +.2@| | + + + ",
". . + + + ~ 3@4@5@6@7@8@9@9@0@a@b@c@d@e@e@f@g@g@[@h@i@G+}+j@k@o . + + ",
"+ + = = = l@m@n@o@p@p@q@= + @ r@c@C s@t@u@v@g@g@[@w@x@<.G++.y@+ + . + ",
"z@A@B@C@D@E@F@G@H@I@I@I@J@K@L@M@N@s O@P@Q@R@S@T@U@V@W@:.X@Y@Z@+ + + . ",
"`@ #.#+#@###$#%#&#&#&#&#&#*#=#-#;#>#,#'#)#!#!#!#~#{#~ %+%+]#^#+ + # . ",
"# + + + /#(#_#&#&#&#&#&#&#:#<#[#}#) o.+ + + + + + + + |#) ) ) + + + + ",
"+ + + + 1#2#3#&#&#&#&#3#4#5#6#7#. . + + + + + + + + + + + + + + + @ + ",
". + + + 8#e e &#&#&#:#9#e 8 $ . . + + @ # + + + + + + + + + + + @ + + ",
". . + + 0#a#b#c#c#c#d#e#a#+ . . + + + + @ @ + + + + + + + + + @ + + + ",
"+ . + + + + + f#f#g#f#~ + + + + + + + + + + + + + + . . . + + + + + + "};
