/* XPM */
static char * left_attack_4_xpm[] = {
"35 35 286 2",
"  	c None",
". 	c #2F2D2D",
"+ 	c #33302F",
"@ 	c #363332",
"# 	c #474545",
"$ 	c #D5D5D5",
"% 	c #ABABAB",
"& 	c #636261",
"* 	c #D1D1D1",
"= 	c #676665",
"- 	c #2C2A2A",
"; 	c #44352C",
"> 	c #FFFFFF",
", 	c #413E3E",
"' 	c #F1F1F1",
") 	c #A8A8A8",
"! 	c #485734",
"~ 	c #A9A9A9",
"{ 	c #50433A",
"] 	c #353434",
"^ 	c #F7F7F7",
"/ 	c #767575",
"( 	c #2A2825",
"_ 	c #797878",
": 	c #2E2D2D",
"< 	c #1B2E2D",
"[ 	c #1B2F2E",
"} 	c #2A2F2E",
"| 	c #553130",
"1 	c #643231",
"2 	c #6F3232",
"3 	c #943434",
"4 	c #983535",
"5 	c #623231",
"6 	c #583131",
"7 	c #515151",
"8 	c #32302F",
"9 	c #923535",
"0 	c #9B3636",
"a 	c #993636",
"b 	c #953535",
"c 	c #7F3030",
"d 	c #525150",
"e 	c #8F3232",
"f 	c #7E2F2F",
"g 	c #392F2E",
"h 	c #272524",
"i 	c #C6C6C6",
"j 	c #2F2F2E",
"k 	c #873131",
"l 	c #262F2E",
"m 	c #452F2E",
"n 	c #621918",
"o 	c #7E3030",
"p 	c #6E6C6C",
"q 	c #262423",
"r 	c #B2B3B3",
"s 	c #753B1F",
"t 	c #90563A",
"u 	c #9D5C3C",
"v 	c #9C5C3C",
"w 	c #99593A",
"x 	c #000000",
"y 	c #641918",
"z 	c #803030",
"A 	c #402F2E",
"B 	c #38261D",
"C 	c #A36343",
"D 	c #975838",
"E 	c #976F62",
"F 	c #C5C8C8",
"G 	c #632900",
"H 	c #603629",
"I 	c #422F2E",
"J 	c #686767",
"K 	c #232728",
"L 	c #967166",
"M 	c #8F4E2E",
"N 	c #7E3E1E",
"O 	c #984C11",
"P 	c #8F7872",
"Q 	c #80421A",
"R 	c #DBD2D0",
"S 	c #7E3F20",
"T 	c #733E25",
"U 	c #3C2E2F",
"V 	c #42322D",
"W 	c #201F1F",
"X 	c #EFF0F0",
"Y 	c #342C2A",
"Z 	c #83411E",
"` 	c #C6C8C9",
" .	c #DBDBDB",
"..	c #461E05",
"+.	c #804020",
"@.	c #84411F",
"#.	c #662E30",
"$.	c #793E20",
"%.	c #8B4826",
"&.	c #322F2D",
"*.	c #232E2F",
"=.	c #904F2E",
"-.	c #A06040",
";.	c #8D4E2F",
">.	c #3C322C",
",.	c #815039",
"'.	c #222E2F",
").	c #784026",
"!.	c #4F3A31",
"~.	c #824528",
"{.	c #7F3F1F",
"].	c #814020",
"^.	c #4F4E4D",
"/.	c #786130",
"(.	c #051F2E",
"_.	c #45422F",
":.	c #86421E",
"<.	c #743D23",
"[.	c #55352A",
"}.	c #753030",
"|.	c #82411F",
"1.	c #9E5E3E",
"2.	c #83523B",
"3.	c #F0F0F1",
"4.	c #7A6030",
"5.	c #967631",
"6.	c #86692E",
"7.	c #65422E",
"8.	c #4E2D2F",
"9.	c #6C3031",
"0.	c #5C2E30",
"a.	c #7A3A18",
"b.	c #965737",
"c.	c #643623",
"d.	c #D4D4D7",
"e.	c #090A2D",
"f.	c #001C2E",
"g.	c #9B3736",
"h.	c #9A3636",
"i.	c #813131",
"j.	c #61302F",
"k.	c #7D3F21",
"l.	c #A46343",
"m.	c #6A3B27",
"n.	c #983636",
"o.	c #3A2E2F",
"p.	c #A16140",
"q.	c #F8F8F9",
"r.	c #FEFEFE",
"s.	c #30302F",
"t.	c #783E23",
"u.	c #54332E",
"v.	c #893435",
"w.	c #342D30",
"x.	c #733D24",
"y.	c #452F30",
"z.	c #8E4F30",
"A.	c #7B3F22",
"B.	c #A16040",
"C.	c #86533B",
"D.	c #6E4727",
"E.	c #FBFBFB",
"F.	c #3C312D",
"G.	c #834C31",
"H.	c #935130",
"I.	c #80401F",
"J.	c #995838",
"K.	c #A66342",
"L.	c #8E4A28",
"M.	c #54352A",
"N.	c #2C2F2F",
"O.	c #9D5D3E",
"P.	c #A56341",
"Q.	c #05272A",
"R.	c #3C4B33",
"S.	c #BDBDC1",
"T.	c #7B4A34",
"U.	c #82462A",
"V.	c #6A3A27",
"W.	c #653523",
"X.	c #3C332A",
"Y.	c #48392C",
"Z.	c #684323",
"`.	c #3D2F27",
" +	c #A26242",
".+	c #9F5D3B",
"++	c #2B3E30",
"@+	c #B4B4B7",
"#+	c #312F2F",
"$+	c #35322D",
"%+	c #35312C",
"&+	c #543821",
"*+	c #6A4321",
"=+	c #6A4524",
"-+	c #474F56",
";+	c #232826",
">+	c #3F312D",
",+	c #763D22",
"'+	c #753B20",
")+	c #4F332A",
"!+	c #EFEFF0",
"~+	c #2F2E2D",
"{+	c #704827",
"]+	c #4F3A2C",
"^+	c #424448",
"/+	c #9299A4",
"(+	c #2B2B29",
"_+	c #2F2901",
":+	c #205292",
"<+	c #894726",
"[+	c #262826",
"}+	c #3B3939",
"|+	c #4F2A00",
"1+	c #6E492A",
"2+	c #3F342D",
"3+	c #8B553C",
"4+	c #654644",
"5+	c #2D6BC7",
"6+	c #2D63B8",
"7+	c #2962B7",
"8+	c #285DAB",
"9+	c #2760B0",
"0+	c #5C3100",
"a+	c #864627",
"b+	c #443630",
"c+	c #45372E",
"d+	c #4D4B4B",
"e+	c #EAEAEC",
"f+	c #E5E5E7",
"g+	c #B4B5B6",
"h+	c #9E9E9D",
"i+	c #F4F3F5",
"j+	c #B1B2B3",
"k+	c #C4C7CC",
"l+	c #9CA1AA",
"m+	c #6A737E",
"n+	c #B6B6B5",
"o+	c #9C5D3E",
"p+	c #854C29",
"q+	c #225191",
"r+	c #2B64B8",
"s+	c #2A62B5",
"t+	c #285DAA",
"u+	c #2B4F8A",
"v+	c #1F497F",
"w+	c #613618",
"x+	c #AA6644",
"y+	c #272B2D",
"z+	c #312E2D",
"A+	c #B8B1AF",
"B+	c #4B1C00",
"C+	c #B9BBBE",
"D+	c #73787E",
"E+	c #C5C7CC",
"F+	c #B1B5BD",
"G+	c #D8D8DB",
"H+	c #D8D7DA",
"I+	c #D0D0D3",
"J+	c #5C1300",
"K+	c #7E3F21",
"L+	c #1F3C5E",
"M+	c #2B4E89",
"N+	c #2E3D5D",
"O+	c #312B1C",
"P+	c #3E312E",
"Q+	c #6A3A26",
"R+	c #693722",
"S+	c #2D2F2F",
"T+	c #272D2E",
"U+	c #CBCBCE",
"V+	c #D5D5D8",
"W+	c #D7D7D9",
"X+	c #DADADD",
"Y+	c #D2D2D5",
"Z+	c #0A0909",
"`+	c #302F2E",
" @	c #A8A8AA",
".@	c #737373",
"+@	c #525252",
"@@	c #B5B5B6",
"#@	c #D1D1D4",
"$@	c #E4E4E6",
"%@	c #282524",
"&@	c #ACACAB",
"*@	c #898988",
"=@	c #2A2726",
". + + + . @ + + # $ % & * + + + = - ; + + + + + + + + + + + + + . + + ",
"+ + + + . . > - + + + + + + + + + + + + + + + + + . + + + + + . + + + ",
"+ + + + + > + + - + + + + + + + + + + + + + + + + + . + + + - - + + + ",
"- + + + > , + + + + + + + + + + + + + + + + + - + + . . + + + - - + + ",
"+ + + ' ) @ + + + ! ! + + . + + + + + + + + - + + - . . . + + + + + + ",
". + ~ > + + + ! ! + ! ! . + + + + + + + + - + + { + - - . . . . . + + ",
". ] > ^ + + { { { ! { ! . . ! ! + + + + + + + + + + + + - - + + . . + ",
"+ / > / + ; + ( + { + { + ! ! + + + + + + + + . + + + + + + + + + + + ",
"+ ^ > _ + { { - ( + ( . { ! + + + + + + + + . . + + + + + + + + + + + ",
"+ > > + + - { { + + . - { + + + + + + + + : < [ + + + + + + + + + + + ",
"+ > > + + + + + + . . + + { { - + + } | 1 2 3 4 5 6 + + + + + + + + + ",
"+ > > + + + + + . . + + { { - + 7 8 9 0 a b c d e f g + + + ; + + + + ",
"+ > > - + + + + . + + + + + + h i j k l j m j i n o c j + + + + + + + ",
"+ > > p - + + + + + + + + + + q r s t u v w x i y z o c A + + + + + + ",
"+ > > / + + + + + + + + + + + + B C C D C E > F G H z o I + + + + - + ",
"- > > J @ + + + + + + + + + + K L M N O P Q R S T H z o U V + + - + + ",
"@ & > > + + + + + + + + + + . W X Y Z `  ...+.@.#.z o c $.%.&.- + + + ",
"+ / > > + + + + + + + + + + *.=.-.-.-.;.+.+.+.>.z o c j v -.,.+ + + + ",
"+ / > > + ; + + + + - + + + '.).!.!.~.{.+.].>.o o o c *.v -.,.. + + + ",
". ^.> > + + + + + + + + + + + /.(.j _.:.<.[.z o o o }.|.1.-.2.. . + + ",
". + 3.> ) @ + + + + + + + + + 4.5.6.7.8.9.z o o o z 0.+.a.b.c.+ . { + ",
"+ + d.> > + + + + + + + + + + + e.f.g.a h.i.o c }.j.k.].1.l.m.+ + + + ",
"+ + d.> > * + + + + + + + + + + - j a n.n.n.n.o.|.+.].j p.-.,.+ + + + ",
"+ + + q.> r.+ + + { + + + + + + s.t.u.v.w.x.y.-.z.+.A.t.B.-.C.D.j + + ",
"+ + + E.> > > + + . . + + + + + s.@.F.G.H.I.J.K.L.M.N.+.O.P.Q.R.+ + + ",
"+ . . S.> > > > @ @ + . . . . + + *.j T.U.V.W.X.Y.Z.`.+. +.+++! + + + ",
". . + @+r.> > > > @ + + - - . . + 8 #+$+%+&+*+=+-+;+>+,+'+)+! { . + + ",
"+ + + + !+> > > > > + + + + - ~+j j {+]+j ^+/+(+_+:+<+-.[+{ { + + . + ",
"+ + + + }+d.> > > > > + + + |+1+x 2+3+4+5+6+7+8+9+0+a+-.b++ + + + + . ",
"+ + . + c+d+e+f+g+h+i+x j+k+l+m+n+j o+p+q+r+s+t+u+v+w+;.x+y++ + + ; . ",
"; + + + . #+z+A+B+C+D+E+F+G+H+H+I+x J+K+L+M+M+M+N+O+P+Q+R+S++ + + + + ",
"+ + + + . . + T+U+V+U+W+d.d.d.d.d.X+Y+Z++ + + + + + + `+`+8 + + + - + ",
". + + + ; + . + + d. @X+d.d.d.d.d.d..@- ; + + + + + + + + + + + - + + ",
". . + + + + . . + +@@@> #@#@#@$@' .@+ + - - + + + + + + + + + - + + + ",
"+ . + + + + + + + - q %@&@&@&@*@=@+ + + + + + + + + . . . + + + + + + "};
