/* XPM */
static char * up_attack_3_xpm[] = {
"35 35 391 2",
"  	c None",
". 	c #33302F",
"+ 	c #2F2D2D",
"@ 	c #44352C",
"# 	c #2C2A2A",
"$ 	c #485734",
"% 	c #2D2F2E",
"& 	c #2E2F2E",
"* 	c #262B2A",
"= 	c #763333",
"- 	c #723332",
"; 	c #933333",
"> 	c #8E3333",
", 	c #953636",
"' 	c #733332",
") 	c #743332",
"! 	c #2A2F2E",
"~ 	c #50433A",
"{ 	c #32302F",
"] 	c #63302F",
"^ 	c #7E3030",
"/ 	c #8A3131",
"( 	c #3F3C3B",
"_ 	c #7D2E2F",
": 	c #993636",
"< 	c #983636",
"[ 	c #9A3636",
"} 	c #7C3333",
"| 	c #373635",
"1 	c #2A2825",
"2 	c #2D302F",
"3 	c #68302F",
"4 	c #803030",
"5 	c #7F3030",
"6 	c #4C0000",
"7 	c #BCBCBC",
"8 	c #847A7A",
"9 	c #7B2F30",
"0 	c #5C3031",
"a 	c #603032",
"b 	c #5D3032",
"c 	c #9A3535",
"d 	c #2B2322",
"e 	c #CCCCCC",
"f 	c #272726",
"g 	c #5F2F2F",
"h 	c #480000",
"i 	c #C1C1C1",
"j 	c #929292",
"k 	c #51372C",
"l 	c #884624",
"m 	c #874524",
"n 	c #894624",
"o 	c #32332F",
"p 	c #311F17",
"q 	c #E0E0E0",
"r 	c #272F2E",
"s 	c #823030",
"t 	c #833030",
"u 	c #432E2F",
"v 	c #030000",
"w 	c #BFBFBF",
"x 	c #F2F2F2",
"y 	c #300000",
"z 	c #A36242",
"A 	c #A16141",
"B 	c #A36342",
"C 	c #9F5E3E",
"D 	c #9B5A3A",
"E 	c #614B45",
"F 	c #302E2D",
"G 	c #282F2E",
"H 	c #813030",
"I 	c #542E30",
"J 	c #86421E",
"K 	c #813100",
"L 	c #B4B0AF",
"M 	c #FFFFFF",
"N 	c #E4DBD9",
"O 	c #944D23",
"P 	c #9C5B39",
"Q 	c #864728",
"R 	c #9F5F3F",
"S 	c #9A5A3B",
"T 	c #7E4C34",
"U 	c #4E342B",
"V 	c #262F2E",
"W 	c #843030",
"X 	c #7C3030",
"Y 	c #3B322C",
"Z 	c #713D25",
"` 	c #7F3F1E",
" .	c #9C7B72",
"..	c #702300",
"+.	c #9E9997",
"@.	c #95837F",
"#.	c #A35F3B",
"$.	c #7D3D1D",
"%.	c #9F5E3D",
"&.	c #977C74",
"*.	c #292928",
"=.	c #45302A",
"-.	c #914E2C",
";.	c #85411D",
">.	c #512E30",
",.	c #4A2D30",
"'.	c #85411E",
").	c #804020",
"!.	c #773A19",
"~.	c #868686",
"{.	c #E9EBEB",
"].	c #5D5554",
"^.	c #84401D",
"/.	c #41271F",
"(.	c #CACDCE",
"_.	c #482516",
":.	c #312F2F",
"<.	c #31302F",
"[.	c #302F2F",
"}.	c #2C2E2E",
"|.	c #93583C",
"1.	c #A06040",
"2.	c #5F3525",
"3.	c #3E332B",
"4.	c #82411F",
"5.	c #7C3E1E",
"6.	c #783814",
"7.	c #9C5D3D",
"8.	c #9D5E3E",
"9.	c #9E5E3E",
"0.	c #985A3B",
"a.	c #9D5D3D",
"b.	c #543328",
"c.	c #2C2C2A",
"d.	c #2D2C2A",
"e.	c #282C2D",
"f.	c #483322",
"g.	c #4A382C",
"h.	c #965B3E",
"i.	c #5E3624",
"j.	c #7D3030",
"k.	c #5D3629",
"l.	c #84411F",
"m.	c #7C3C1B",
"n.	c #915538",
"o.	c #82513A",
"p.	c #825139",
"q.	c #593528",
"r.	c #302D2C",
"s.	c #2F2D2B",
"t.	c #2F2C2A",
"u.	c #373A3D",
"v.	c #343739",
"w.	c #6E757F",
"x.	c #6B727C",
"y.	c #776F72",
"z.	c #596069",
"A.	c #2C2B2A",
"B.	c #803E1C",
"C.	c #332F2E",
"D.	c #42332B",
"E.	c #1F2C2F",
"F.	c #2F2F2E",
"G.	c #21282E",
"H.	c #32302E",
"I.	c #282D2E",
"J.	c #2E2E2D",
"K.	c #4A5056",
"L.	c #4D535A",
"M.	c #474D54",
"N.	c #939AA5",
"O.	c #8C94A0",
"P.	c #D6D6D9",
"Q.	c #D3D3D6",
"R.	c #CCCCD0",
"S.	c #2A2726",
"T.	c #2C2E2F",
"U.	c #894D30",
"V.	c #A36343",
"W.	c #935434",
"X.	c #823F1D",
"Y.	c #232E2F",
"Z.	c #7B3030",
"`.	c #582D30",
" +	c #5E3927",
".+	c #633927",
"++	c #8E702E",
"@+	c #1D262E",
"#+	c #00002D",
"$+	c #E5B136",
"%+	c #341B29",
"&+	c #995736",
"*+	c #AA6643",
"=+	c #252C2C",
"-+	c #4A1D00",
";+	c #C5C9D0",
">+	c #B8BBC2",
",+	c #D9D9DB",
"'+	c #D7D7DA",
")+	c #D4D4D7",
"!+	c #D5D5D8",
"~+	c #B2B2B4",
"{+	c #9C9C9E",
"]+	c #5E5E5E",
"^+	c #202D2F",
"/+	c #83401E",
"(+	c #814121",
"_+	c #804121",
":+	c #814020",
"<+	c #5D2E30",
"[+	c #943535",
"}+	c #7D2F30",
"|+	c #3D302E",
"1+	c #041E2E",
"2+	c #BD922D",
"3+	c #E1AE36",
"4+	c #071F2E",
"5+	c #6A3A26",
"6+	c #9C5A39",
"7+	c #16292D",
"8+	c #000000",
"9+	c #C9C9CC",
"0+	c #C7C7C9",
"a+	c #2D2A29",
"b+	c #1D2C2D",
"c+	c #9D5B3A",
"d+	c #9E5E3D",
"e+	c #5B3729",
"f+	c #4E352A",
"g+	c #522E30",
"h+	c #532F2F",
"i+	c #532D2F",
"j+	c #55312E",
"k+	c #59412A",
"l+	c #5D4129",
"m+	c #543D22",
"n+	c #3A372C",
"o+	c #0C212E",
"p+	c #00192E",
"q+	c #31302E",
"r+	c #583629",
"s+	c #573428",
"t+	c #2E2F2F",
"u+	c #5F5E5F",
"v+	c #CDCDD0",
"w+	c #D2D2D5",
"x+	c #FEFEFF",
"y+	c #9E9E9D",
"z+	c #2D2B2B",
"A+	c #212D2E",
"B+	c #A56341",
"C+	c #A36241",
"D+	c #3C312D",
"E+	c #7F4020",
"F+	c #7E3F21",
"G+	c #593729",
"H+	c #3C352D",
"I+	c #6F4827",
"J+	c #6E4727",
"K+	c #4A3423",
"L+	c #232D2F",
"M+	c #963636",
"N+	c #9C3636",
"O+	c #352F2E",
"P+	c #878787",
"Q+	c #F8F8F7",
"R+	c #EDEDED",
"S+	c #D9D9DC",
"T+	c #EBEBEC",
"U+	c #F0F0F0",
"V+	c #020202",
"W+	c #2D2E2E",
"X+	c #7A4D38",
"Y+	c #A26242",
"Z+	c #824120",
"`+	c #50332B",
" @	c #644329",
".@	c #714927",
"+@	c #35312A",
"@@	c #172B2E",
"#@	c #192C2F",
"$@	c #1E2D2F",
"%@	c #613132",
"&@	c #623032",
"*@	c #4C302F",
"=@	c #2A2827",
"-@	c #5F5E5D",
";@	c #969695",
">@	c #676767",
",@	c #2B2827",
"'@	c #644334",
")@	c #955636",
"!@	c #40302C",
"~@	c #3B312F",
"{@	c #A86442",
"]@	c #925030",
"^@	c #7A452B",
"/@	c #834120",
"(@	c #222E30",
"_@	c #42352D",
":@	c #6B4628",
"<@	c #54352B",
"[@	c #A16040",
"}@	c #A46343",
"|@	c #985838",
"1@	c #915030",
"2@	c #83411E",
"3@	c #925132",
"4@	c #55392E",
"5@	c #262C2F",
"6@	c #272F2F",
"7@	c #6B3822",
"8@	c #6E3821",
"9@	c #723C24",
"0@	c #543122",
"a@	c #575D63",
"b@	c #6B2C00",
"c@	c #8E5537",
"d@	c #655958",
"e@	c #454F55",
"f@	c #3D4F58",
"g@	c #8A4E2C",
"h@	c #382F2C",
"i@	c #455433",
"j@	c #374731",
"k@	c #172A2D",
"l@	c #282D2D",
"m@	c #4B4B47",
"n@	c #9299A4",
"o@	c #79808B",
"p@	c #8E95A0",
"q@	c #7D848F",
"r@	c #7F8691",
"s@	c #828A95",
"t@	c #3F4143",
"u@	c #453D36",
"v@	c #85523A",
"w@	c #6D3600",
"x@	c #275394",
"y@	c #123365",
"z@	c #1B396A",
"A@	c #6C737E",
"B@	c #696D6F",
"C@	c #6D7070",
"D@	c #0A3E80",
"E@	c #1F2E3A",
"F@	c #292C2E",
"G@	c #12292C",
"H@	c #A56241",
"I@	c #823F1B",
"J@	c #29313A",
"K@	c #285FAD",
"L@	c #285DAA",
"M@	c #2B65BC",
"N@	c #2D68C1",
"O@	c #225DAD",
"P@	c #975B3D",
"Q@	c #35312F",
"R@	c #282C2E",
"S@	c #9C5C3D",
"T@	c #7E3D1D",
"U@	c #453E57",
"V@	c #2F3239",
"W@	c #275FAF",
"X@	c #2A62B4",
"Y@	c #2D6BC6",
"Z@	c #2B66BC",
"`@	c #145194",
" #	c #9B5E3E",
".#	c #A46342",
"+#	c #623929",
"@#	c #2D2F2F",
"##	c #2B2F2F",
"$#	c #7C3F21",
"%#	c #1C4575",
"&#	c #2F2D25",
"*#	c #2B508D",
"=#	c #285CA8",
"-#	c #2C68C2",
";#	c #275FAE",
">#	c #522F00",
",#	c #262E2F",
"'#	c #252E2F",
")#	c #322E26",
"!#	c #2D2C2C",
"~#	c #2D3E62",
"{#	c #2C4675",
"]#	c #2C4573",
"^#	c #2C4778",
"/#	c #413020",
"(#	c #312F2E",
". . + . . . . . . . . . . . . . @ # . . . . . . . . . . . . + . . . + ",
". . . + . . . . . + . . . . . . . . . . . . . . . . . # . + + . . . . ",
". . . # # . . . + . . . . . . . . . . . . . . . . . # . . + . . . . . ",
". . # # . . . + + . . # . . . . . . . . . . . . . . . . . . . . . . # ",
". . . . . . + + + # . . # . . . . . . . . + . . $ $ . . . . . . . . . ",
". . + + + + + # # % % & . # . . . . . . . . + $ $ . $ $ . . . . . . + ",
". + + . . # * = - ; > , ' ) % ! . . . $ $ + + $ ~ $ ~ ~ ~ . . . . + + ",
". . . . . { ] ^ / ( _ : < < [ } . | . . $ $ . ~ . ~ . 1 . @ . . . . . ",
". . . . 2 3 4 5 6 7 8 9 0 a b c d e f . . $ ~ + 1 . 1 # ~ ~ . . . . . ",
". . . { g ^ ^ 5 h i j k l m n o p q f . . . ~ # + . . ~ ~ # . . . . . ",
". . . r s ^ t u v w x y z A B C D E F # ~ ~ . . + + . . . . . . . . . ",
". . . G H ^ I J K L M N O P Q R S T { . # ~ ~ . . + + . . . . . . . . ",
". . U V W ^ X Y Z `  ...+.@.#.$.%.&.*.. . . . . . . + . . . . # . . . ",
"{ =.-.;.>.^ ^ s ,.'.).!.~.{.].^./.(._.:.. . . . . . . . . . # <.[.. . ",
"}.|.1.R 2.^ ^ ^ ^ 3.4.).5.6.7.8.9.0.a.b.. . . . . . . . c.d.e.f.g.# . ",
"}.h.1.A i.4 ^ ^ ^ j.k.l.).).m.n.o.o.p.q.. . . r.s.t.u.v.w.x.y.z.A.. # ",
"}.h.1.A B.C.H ^ ^ ^ H D.4.).4.E.F.F.G.H.I.I.J.K.L.M.N.O.P.Q.Q.R.S.. . ",
"T.U.V.W.X.Y.t ^ ^ ^ ^ Z.`. +.+++@+#+$+%+&+*+=+-+;+>+,+'+)+)+)+!+~+{+]+",
". ^+/+(+_+:+<+^ ^ ^ ^ j.[+}+|+1+2+3+4+5+).6+7+. 8+9+)+)+)+)+)+)+)+0+a+",
". b+c+A d+e+f+g+h+5 i+j+k+l+m+n+o+p+q+e+r+s+t+. u+v+w+)+)+)+w+Q.x+y+z+",
". A+B+1.C+D+E+F+G+H+I+J+K+L+M+N+O+. . . . . . . P+Q+R+S+S+S+T+U+V+. + ",
". W+X+1.Y+Z+`+ @.@+@@@#@$@%@&@*@. + + . . . . . S.=@-@;@;@;@>@,@. . . ",
"{ [.'@1.)@).% !@~@{@]@/+/+^@/@(@+ + # . . . . . . . . . . . . . . . . ",
"_@:@<@[@}@).e+J |@1.1@/+2@3@4@<.+ . . . . . . . . ~ . . . . . . . . . ",
":.5@6@7@8@9@0@a@b@c@d@e@f@g@h@. . . . . . . . . + + . . . . . . . . . ",
". . . i@j@k@l@m@n@o@p@q@r@s@t@. . . . . + + + + . . . . . . . . + + . ",
". . + u@v@B+w@x@y@z@A@B@C@D@E@F@. . . + + # # . . . # . . . . . . + + ",
". + . G@H@A I@J@K@L@M@N@N@O@P@1.Q@. . + # . . . . # . . . . . . . . . ",
"+ . R@A S@T@U@V@W@L@X@Y@Z@`@ #.#+#@#. + . . . . # . . + + . . . . . . ",
"+ @ ##$#E+).%#&#*#L@=#-#;#>#).E+:+,#. . . . . . . . . . + . @ . + . . ",
". . { ,#'#'#)#!#~#{#{#]#^#/#% '#'#(#. . . . . . . . . . . + + . . . @ ",
". # . . . . . . . . . . . . . . . + + . . . . . . . . . . + + . . . . ",
". . # . . . . . . . . . . . @ # . . + + . . . . . . . . + . @ . . . + ",
". . . # . . . . . . . . . # # . . . . + + . . . # . . + + . . . . + + ",
". . . . . . + + + . . . . . . . . . . . . . . . . # . . . . . . . + . "};
