/* XPM */
static char * up_attack_9_xpm[] = {
"35 35 511 2",
"  	c None",
". 	c #33302F",
"+ 	c #2F2D2D",
"@ 	c #32302F",
"# 	c #30302F",
"$ 	c #46302F",
"% 	c #44352C",
"& 	c #2C2A2A",
"* 	c #493130",
"= 	c #6E3232",
"- 	c #6F3332",
"; 	c #953434",
"> 	c #903434",
", 	c #9D3637",
"' 	c #693231",
") 	c #6D3232",
"! 	c #252F2E",
"~ 	c #2D302F",
"{ 	c #272F2E",
"] 	c #7B3030",
"^ 	c #953535",
"/ 	c #883132",
"( 	c #471312",
"_ 	c #7F3131",
": 	c #983636",
"< 	c #9A3636",
"[ 	c #993636",
"} 	c #8C3535",
"| 	c #673231",
"1 	c #31302F",
"2 	c #322F2E",
"3 	c #22201F",
"4 	c #2C2F2E",
"5 	c #813030",
"6 	c #7D3030",
"7 	c #272C2B",
"8 	c #A6A8A8",
"9 	c #683434",
"0 	c #953636",
"a 	c #943636",
"b 	c #9D3636",
"c 	c #482D2C",
"d 	c #636363",
"e 	c #8F8F8F",
"f 	c #2D2A29",
"g 	c #3C2F2E",
"h 	c #793030",
"i 	c #7E3030",
"j 	c #803030",
"k 	c #2E2C2B",
"l 	c #D4D4D4",
"m 	c #ACAFAF",
"n 	c #622C2E",
"o 	c #4F3426",
"p 	c #4D3326",
"q 	c #503227",
"r 	c #712F31",
"s 	c #000000",
"t 	c #FFFFFF",
"u 	c #7D7D7C",
"v 	c #2A2828",
"w 	c #485734",
"x 	c #362F2E",
"y 	c #7F3030",
"z 	c #853030",
"A 	c #D2D2D2",
"B 	c #9EA0A0",
"C 	c #71381A",
"D 	c #9D5C3B",
"E 	c #9B5A3A",
"F 	c #995A3B",
"G 	c #7F4A31",
"H 	c #6E2F00",
"I 	c #8C9091",
"J 	c #8E8E8E",
"K 	c #382F2E",
"L 	c #823030",
"M 	c #6B302F",
"N 	c #2A2F2E",
"O 	c #312D2B",
"P 	c #CDCDCD",
"Q 	c #515556",
"R 	c #A4613F",
"S 	c #A06040",
"T 	c #9F5F3F",
"U 	c #A26242",
"V 	c #7B3D1F",
"W 	c #2F402D",
"X 	c #50433A",
"Y 	c #2D2F2F",
"Z 	c #493629",
"` 	c #88421D",
" .	c #83401C",
"..	c #B9B4B3",
"+.	c #FEFFFF",
"@.	c #EDE7E5",
"#.	c #842C00",
"$.	c #944F27",
"%.	c #A16140",
"&.	c #894A2B",
"*.	c #9D5E3E",
"=.	c #965738",
"-.	c #9E6040",
";.	c #3E341F",
">.	c #465634",
",.	c #2A2825",
"'.	c #2B2E30",
").	c #6B3A26",
"!.	c #292D2F",
"~.	c #843030",
"{.	c #63312E",
"].	c #42342B",
"^.	c #83411F",
"/.	c #7F4429",
"(.	c #A9928C",
"_.	c #7C3000",
":.	c #735E57",
"<.	c #A29B9A",
"[.	c #7B2400",
"}.	c #A36242",
"|.	c #814121",
"1.	c #884624",
"2.	c #7B7574",
"3.	c #404E2E",
"4.	c #5D3728",
"5.	c #81401F",
"6.	c #7C3F21",
"7.	c #532E30",
"8.	c #302F2E",
"9.	c #84411F",
"0.	c #804020",
"a.	c #82401F",
"b.	c #515657",
"c.	c #E5E5E5",
"d.	c #86421E",
"e.	c #311403",
"f.	c #BDBDBD",
"g.	c #CACACA",
"h.	c #2E2B2A",
"i.	c #41322D",
"j.	c #9B5836",
"k.	c #A46443",
"l.	c #85482A",
"m.	c #57302D",
"n.	c #7C3030",
"o.	c #4E2F2F",
"p.	c #773E22",
"q.	c #814020",
"r.	c #7A3C1A",
"s.	c #1E0000",
"t.	c #914F2F",
"u.	c #8F4C2B",
"v.	c #4A2000",
"w.	c #6A2401",
"x.	c #5E3A2C",
"y.	c #483731",
"z.	c #A56342",
"A.	c #A0603F",
"B.	c #633722",
"C.	c #702F30",
"D.	c #5E302E",
"E.	c #743E22",
"F.	c #82411F",
"G.	c #82401E",
"H.	c #925334",
"I.	c #A66443",
"J.	c #A66442",
"K.	c #A86442",
"L.	c #A96543",
"M.	c #8E4A28",
"N.	c #292E2E",
"O.	c #483730",
"P.	c #A46241",
"Q.	c #9E5E3E",
"R.	c #613623",
"S.	c #712F30",
"T.	c #4F2E2F",
"U.	c #7F4020",
"V.	c #673B29",
"W.	c #38322F",
"X.	c #3A322F",
"Y.	c #333130",
"Z.	c #7C3F22",
"`.	c #A56341",
" +	c #823E1B",
".+	c #40342B",
"++	c #422D30",
"@+	c #793E22",
"#+	c #48432F",
"$+	c #3B362E",
"%+	c #2E2F2E",
"&+	c #56472F",
"*+	c #3C3A2F",
"=+	c #42332E",
"-+	c #9C5A39",
";+	c #A36343",
">+	c #8D4E2F",
",+	c #82401D",
"'+	c #3D322C",
")+	c #5F2E30",
"!+	c #5B332C",
"~+	c #573728",
"{+	c #4F3329",
"]+	c #9C7B2E",
"^+	c #52452E",
"/+	c #00002D",
"(+	c #A38032",
"_+	c #745D30",
":+	c #3F312D",
"<+	c #854221",
"[+	c #844424",
"}+	c #7E3D1D",
"|+	c #7E3E1D",
"1+	c #7F401F",
"2+	c #833030",
"3+	c #843131",
"4+	c #873233",
"5+	c #772F30",
"6+	c #782F30",
"7+	c #572C2F",
"8+	c #B0882D",
"9+	c #D8A835",
"0+	c #A98432",
"a+	c #302F2F",
"b+	c #3D312D",
"c+	c #7D3D1C",
"d+	c #A36342",
"e+	c #8F4E2D",
"f+	c #4A3831",
"g+	c #492E2E",
"h+	c #783030",
"i+	c #763030",
"j+	c #823131",
"k+	c #873232",
"l+	c #9F3837",
"m+	c #3C222F",
"n+	c #0D0F2D",
"o+	c #21202D",
"p+	c #5C3729",
"q+	c #7F3E1C",
"r+	c #A16141",
"s+	c #A26141",
"t+	c #302C2A",
"u+	c #5F3927",
"v+	c #5A3525",
"w+	c #642B2F",
"x+	c #883232",
"y+	c #9D3737",
"z+	c #9E3737",
"A+	c #4A302F",
"B+	c #33302E",
"C+	c #753B1F",
"D+	c #9E5F40",
"E+	c #462F28",
"F+	c #813E1B",
"G+	c #9C5C3C",
"H+	c #82513A",
"I+	c #7F2F32",
"J+	c #553031",
"K+	c #9F3737",
"L+	c #7A3333",
"M+	c #2F2F2E",
"N+	c #282E2F",
"O+	c #703A21",
"P+	c #6B3822",
"Q+	c #673723",
"R+	c #9D5D3E",
"S+	c #A36241",
"T+	c #6D4735",
"U+	c #2B302D",
"V+	c #062F2C",
"W+	c #903535",
"X+	c #19302C",
"Y+	c #653926",
"Z+	c #4B332B",
"`+	c #0E2C30",
" @	c #85411E",
".@	c #915233",
"+@	c #7A3D20",
"@@	c #322E2C",
"#@	c #904F2F",
"$@	c #9B5939",
"%@	c #844220",
"&@	c #80401F",
"*@	c #904C2A",
"=@	c #6E4A37",
"-@	c #7F3F1F",
";@	c #5A3629",
">@	c #87421D",
",@	c #252E2F",
"'@	c #52372D",
")@	c #995A3A",
"!@	c #693823",
"~@	c #1C2C2E",
"{@	c #523C33",
"]@	c #4F3B33",
"^@	c #7C462D",
"/@	c #824120",
"(@	c #473029",
"_@	c #87421E",
":@	c #262E2F",
"<@	c #38302D",
"[@	c #8E4E2E",
"}@	c #803E1B",
"|@	c #4E332B",
"1@	c #6E4726",
"2@	c #684425",
"3@	c #362F2A",
"4@	c #2F302E",
"5@	c #222C2E",
"6@	c #80513B",
"7@	c #834323",
"8@	c #323130",
"9@	c #35322F",
"0@	c #36322F",
"a@	c #44302A",
"b@	c #633421",
"c@	c #653623",
"d@	c #6E3A1D",
"e@	c #432A18",
"f@	c #626A72",
"g@	c #5F3D1E",
"h@	c #5F3C1D",
"i@	c #5F3C1A",
"j@	c #583C25",
"k@	c #4B382A",
"l@	c #0A2B2E",
"m@	c #A05C3A",
"n@	c #A76443",
"o@	c #A96542",
"p@	c #0A272C",
"q@	c #5B3F33",
"r@	c #8F583E",
"s@	c #6E3B24",
"t@	c #003F69",
"u@	c #273859",
"v@	c #5B5C59",
"w@	c #1D1500",
"x@	c #71767C",
"y@	c #757D87",
"z@	c #442F1D",
"A@	c #4A3409",
"B@	c #292600",
"C@	c #874221",
"D@	c #88492A",
"E@	c #8A553D",
"F@	c #182A2D",
"G@	c #262C2F",
"H@	c #2F2F2F",
"I@	c #40342F",
"J@	c #6E3907",
"K@	c #235294",
"L@	c #285DAB",
"M@	c #285EAD",
"N@	c #2B4371",
"O@	c #2E2E2F",
"P@	c #2F2E26",
"Q@	c #2E579C",
"R@	c #2D6CCA",
"S@	c #422C00",
"T@	c #7B3E21",
"U@	c #4C3A2C",
"V@	c #724A27",
"W@	c #423022",
"X@	c #2E2F2F",
"Y@	c #553C32",
"Z@	c #A76442",
"`@	c #9E5E3F",
" #	c #864424",
".#	c #703A18",
"+#	c #613400",
"@#	c #255293",
"##	c #285DAA",
"$#	c #285CA9",
"%#	c #2B68C1",
"&#	c #2D6DCB",
"*#	c #2D6DCC",
"=#	c #2C6CCA",
"-#	c #1C2B30",
";#	c #A26142",
">#	c #373330",
",#	c #1E2D2F",
"'#	c #222D2E",
")#	c #2C2E2E",
"!#	c #1A292E",
"~#	c #623D19",
"{#	c #664325",
"]#	c #463D39",
"^#	c #353739",
"/#	c #333435",
"(#	c #302D2B",
"_#	c #302E2C",
":#	c #20292C",
"<#	c #955B3E",
"[#	c #864625",
"}#	c #613516",
"|#	c #1D487C",
"1#	c #263F64",
"2#	c #2B5292",
"3#	c #295EAD",
"4#	c #2D6AC6",
"5#	c #2D69C3",
"6#	c #2962B4",
"7#	c #002C45",
"8#	c #995D3F",
"9#	c #453630",
"0#	c #242221",
"a#	c #747C87",
"b#	c #757D88",
"c#	c #7A828D",
"d#	c #6C737D",
"e#	c #393E42",
"f#	c #3E4247",
"g#	c #2C2925",
"h#	c #2D2B29",
"i#	c #2D2B28",
"j#	c #242B2D",
"k#	c #945A3E",
"l#	c #4C3012",
"m#	c #255292",
"n#	c #294676",
"o#	c #2B5291",
"p#	c #285DA9",
"q#	c #2C66BE",
"r#	c #285EAC",
"s#	c #0B4479",
"t#	c #995C3E",
"u#	c #955333",
"v#	c #40312C",
"w#	c #262423",
"x#	c #BDBDC0",
"y#	c #D3D3D6",
"z#	c #C2C4C9",
"A#	c #8B939F",
"B#	c #9299A4",
"C#	c #454B51",
"D#	c #4F555C",
"E#	c #4E565E",
"F#	c #694322",
"G#	c #262D2F",
"H#	c #36322D",
"I#	c #683823",
"J#	c #713A21",
"K#	c #763D23",
"L#	c #47322D",
"M#	c #2F2A15",
"N#	c #2E3E61",
"O#	c #29569B",
"P#	c #2A5497",
"Q#	c #2A5495",
"R#	c #2A5598",
"S#	c #23426C",
"T#	c #6D381F",
"U#	c #703920",
"V#	c #723410",
"W#	c #787373",
"X#	c #6E6E6F",
"Y#	c #A7A7A9",
"Z#	c #D7D7DA",
"`#	c #D4D4D7",
" $	c #D5D5D8",
".$	c #DBDBDD",
"+$	c #A5AAB2",
"@$	c #ADB1BA",
"#$	c #72757A",
"$$	c #2B2926",
"%$	c #292C2D",
"&$	c #5B3D26",
"*$	c #39322D",
"=$	c #282E2E",
"-$	c #2C2928",
";$	c #322C23",
">$	c #322C24",
",$	c #322E27",
"'$	c #272E2F",
")$	c #091B1B",
"!$	c #878889",
"~$	c #D8D8DB",
"{$	c #D8D7DA",
"]$	c #8D8D8E",
"^$	c #666666",
"/$	c #2D2E2F",
"($	c #3C332D",
"_$	c #080808",
":$	c #CECED2",
"<$	c #D6D6D9",
"[$	c #121111",
"}$	c #383837",
"|$	c #F4F4F3",
"1$	c #E1E1E3",
"2$	c #DEDEE0",
"3$	c #D2D2D5",
"4$	c #DEDEE1",
"5$	c #C9C9CB",
"6$	c #332720",
"7$	c #211F1F",
"8$	c #A9A9A8",
"9$	c #BABAB9",
"0$	c #F8F8F9",
"a$	c #F4F4F5",
"b$	c #F6F6F7",
"c$	c #CCCCCD",
"d$	c #B6B6B6",
"e$	c #A2A2A2",
"f$	c #262323",
"g$	c #312E2D",
"h$	c #2F2C2B",
"i$	c #696969",
"j$	c #696968",
"k$	c #464444",
"l$	c #302D2C",
". . + . . . . @ # # $ $ $ @ # # % & . . . . . . . . . . . . + . . . + ",
". . . + . . . * = - ; > , ' ) = ! ~ . . . . . . . . . & . + + . . . . ",
". . . & & . { ] ^ / ( _ : < [ < } | 1 2 3 . . . . . & . . + . . . . . ",
". . & & . 4 5 6 ^ 7 8 9 6 _ 0 a a b c d e f . . . . . . . . . . . . & ",
". . . . g h i i j k l m n o p p q r s t u v . . w w . . . . . . . . . ",
". . + x h y i y z k A B C D E E F G H I J f + w w . w w . . . . . . + ",
". + + K L i i M N O P t Q R S S T S U V W + + w X w X X X . . . . + + ",
". . Y K L i 6 Z `  ...+.@.#.$.%.&.*.=.-.;.>.. X . X . ,.. % . . . . . ",
". '.).!.~.i i {.].^./.(._.:.<.[.}.|.E 1.2.3.X + ,.. ,.& X X . . . . . ",
"1 4.5.6.7.y i i 5 8.9.0.a.b.c.t s d.e.f.g.h.X & + . . X X & . . . . . ",
"i.j.k.l.m.n.i i 5 o.p.q.0.r.s.s t.&.u.v.w.x.1 . + + . . . . . . . . . ",
"y.z.S A.B.C.i i i j D.E.0.0.F.G.H.I.J.K.L.M.N.. . + + . . . . . . . . ",
"O.P.S Q.R.S.i i i i y T.U.0.0.0.q.V.W.X.Y.Z.N.. . . + . . . . & . . . ",
"O.`.S T  +.+y i i i i ~.++p.6.q.@+#+$+%+&+*+8.. . . . . . . & . . . . ",
"=+-+;+>+,+'+L i i i i i 5 )+!+~+{+]+^+/+(+_+. . . . . . . . . . . & . ",
":+<+[+}+|+1+g 2+i i i i i 3+4+5+6+7+8+9+0+a+. . . . . . . . . . . . & ",
"b+U.c+d+d+e+f+g+h+i+y 6 j+k+< [ [ l+m+n+o+. . . . . . . . . . . . . . ",
"1 p+q+r+S r+s+t+u+v+w+x+[ y+: : : z+A+. . . . . . . . . . . . . . . . ",
". B+C+r+S S D+E+F+G+H+I+z+J+K+: y+L+M+. . . . . & . . . . % . . . . . ",
". N+O+T S S S P+Q+R+S+T+U+6.V+W+X+Y+Z+@ . . . . . . . . . . . . . . + ",
". X `+ @U r+.@+@@@#@z.$@%@&@*@=@-@;@>@,@. . . . . . . . . . . . . . + ",
". . 1 '@z.S )@!@~@{@]@^@9.^./@P.(@q._@:@. . . . . . . . . . . . . . . ",
". . . <@[@S Q.}@|@1@2@3@4@5@6@7@8@9@0@M+. . . . . . . . . . . . . . . ",
". . . . a@b@c@d@e@f@g@h@i@j@k@l@m@n@o@p@. . . . . X . . . . . . . . . ",
". . . w q@r@s@t@u@v@w@x@y@z@A@B@C@D@A.E@F@G@H@. + + . . . . . . . . . ",
". . . I@`.U -@J@K@L@M@N@O@P@Q@R@S@^.U.T@U@V@W@X@@ . . . . . . . + + . ",
". a+Y@Z@`@ #.#+#@###$#%#&#*#=#-#;#>#,#'#)#!#~#{#]#^#/#(#_#. . . . + + ",
". :#<#T [#}#|#1#2#####3#4#5#6#7#`.8#9#+ & 0#a#b#c#c#d#e#f#g#h#i#!.. . ",
"+ j#k#T }@l#m#n#o###p#q#r#r#s#t#r+u#v#+ w#x#y#y#y#y#z#A#B#C#D#E#F#G#@ ",
"+ H#I#J#K#L#M#N#O#P#P#Q#P#R#S#T#U#V#W#X#Y#Z#`#`#`#`# $.$+$@$#$$$%$&$*$",
". @ =$:@:@# . -$;$>$>$>$>$>$,$'$:@)$!$~$Z#`#`#`#`#`#`#`#{$]$^$. . /$($",
". & . . . . . . . . . . . . . . . + _$t :$`#`#`#`#`#`#`#<$[$+ . . . . ",
". . & . . . . . . . . . . . % & . . + }$|$1$2$3$y#y#y#.$4$5$6$. . . + ",
". . . & . . . . . . . . . & & . . . . + 7$8$9$0$a$a$b$c$d$e$f$. . + + ",
". . . . . . + + + . . . . . . . . . . . . g$h$i$j$j$i$k$l$l$. . . + . "};
