/* XPM */
static char * up_attack_7_xpm[] = {
"35 35 379 2",
"  	c None",
". 	c #33302F",
"+ 	c #2F2D2D",
"@ 	c #44352C",
"# 	c #2C2A2A",
"$ 	c #222D2D",
"% 	c #1D2E2D",
"& 	c #773333",
"* 	c #7A3333",
"= 	c #783333",
"- 	c #202F2D",
"; 	c #1A2C2C",
"> 	c #30302F",
", 	c #485734",
"' 	c #2D2D2D",
") 	c #873434",
"! 	c #9C3637",
"~ 	c #7A2D2D",
"{ 	c #7B3030",
"] 	c #983636",
"^ 	c #9C3636",
"/ 	c #613131",
"( 	c #3F302F",
"_ 	c #322F2E",
": 	c #27302E",
"< 	c #733030",
"[ 	c #7C2F2F",
"} 	c #8C2E2D",
"| 	c #999A9A",
"1 	c #4A0000",
"2 	c #853232",
"3 	c #953535",
"4 	c #9E3737",
"5 	c #973636",
"6 	c #423332",
"7 	c #636262",
"8 	c #302F2E",
"9 	c #50433A",
"0 	c #2D302F",
"a 	c #6E302F",
"b 	c #7E3030",
"c 	c #6B2323",
"d 	c #A2A2A2",
"e 	c #D6D8D8",
"f 	c #6F2F30",
"g 	c #3D3229",
"h 	c #3F3229",
"i 	c #3A3229",
"j 	c #772F30",
"k 	c #000000",
"l 	c #F6F6F6",
"m 	c #2F2F2E",
"n 	c #2A2825",
"o 	c #2A302F",
"p 	c #783030",
"q 	c #803030",
"r 	c #6F2424",
"s 	c #A2A3A3",
"t 	c #CDCECE",
"u 	c #7D3F21",
"v 	c #9F5F3F",
"w 	c #9E5D3E",
"x 	c #9E5E3D",
"y 	c #915639",
"z 	c #793915",
"A 	c #8F9293",
"B 	c #29302F",
"C 	c #7C3030",
"D 	c #59352A",
"E 	c #532C18",
"F 	c #A6A6A6",
"G 	c #FFFFFF",
"H 	c #B4B7B8",
"I 	c #9A5329",
"J 	c #A16141",
"K 	c #955536",
"L 	c #A36242",
"M 	c #A46444",
"N 	c #6C3920",
"O 	c #262F2E",
"P 	c #713C24",
"Q 	c #804020",
"R 	c #7D3100",
"S 	c #DDE0E0",
"T 	c #905132",
"U 	c #844425",
"V 	c #A36342",
"W 	c #874829",
"X 	c #824223",
"Y 	c #985737",
"Z 	c #312F2F",
"` 	c #5E3525",
" .	c #7A3D1F",
"..	c #5A2F2F",
"+.	c #6B2F30",
"@.	c #60302E",
"#.	c #7D4022",
"$.	c #782100",
"%.	c #878D8E",
"&.	c #EFEFEF",
"*.	c #917D77",
"=.	c #813F1C",
"-.	c #6C412B",
";.	c #CFCAC9",
">.	c #212E2F",
",.	c #4D342B",
"'.	c #3D312D",
").	c #712F30",
"!.	c #753D23",
"~.	c #814020",
"{.	c #5D301A",
"].	c #763915",
"^.	c #834425",
"/.	c #894624",
"(.	c #030000",
"_.	c #864524",
":.	c #39322D",
"<.	c #5C3F33",
"[.	c #A16040",
"}.	c #A26242",
"|.	c #81401F",
"1.	c #622E30",
"2.	c #7F3030",
"3.	c #732F30",
"4.	c #633A26",
"5.	c #864626",
"6.	c #A56444",
"7.	c #A66342",
"8.	c #A76342",
"9.	c #563427",
"0.	c #60312E",
"a.	c #6C2E30",
"b.	c #82411F",
"c.	c #5F3324",
"d.	c #06282C",
"e.	c #12292C",
"f.	c #001B2C",
"g.	c #55362A",
"h.	c #5D4033",
"i.	c #563729",
"j.	c #813030",
"k.	c #23302D",
"l.	c #85411E",
"m.	c #86421E",
"n.	c #67552F",
"o.	c #4E422E",
"p.	c #001B2E",
"q.	c #D1A234",
"r.	c #211F2D",
"s.	c #4A322A",
"t.	c #925333",
"u.	c #8A4B2C",
"v.	c #7E3E1D",
"w.	c #6B3A24",
"x.	c #6A2F30",
"y.	c #8B3232",
"z.	c #4D2D2F",
"A.	c #512E2F",
"B.	c #6C4A2E",
"C.	c #8C6E2D",
"D.	c #9E7C32",
"E.	c #AB8532",
"F.	c #2D2A2F",
"G.	c #8E4F30",
"H.	c #A06040",
"I.	c #91502F",
"J.	c #232E2F",
"K.	c #713030",
"L.	c #8E3434",
"M.	c #9A3636",
"N.	c #43302F",
"O.	c #2D2F2F",
"P.	c #9C5E3F",
"Q.	c #573527",
"R.	c #643925",
"S.	c #4E2B2C",
"T.	c #893232",
"U.	c #993636",
"V.	c #9B3636",
"W.	c #44302F",
"X.	c #192D2F",
"Y.	c #92502F",
"Z.	c #995D3E",
"`.	c #6C3A24",
" +	c #8A4A2B",
".+	c #A76442",
"++	c #633131",
"@+	c #913535",
"#+	c #723331",
"$+	c #923535",
"%+	c #933536",
"&+	c #823433",
"*+	c #2C2F2E",
"=+	c #4A4038",
"-+	c #683C29",
";+	c #793D20",
">+	c #5A372A",
",+	c #9E5E3E",
"'+	c #8F5336",
")+	c #703C24",
"!+	c #793E22",
"~+	c #6A3722",
"{+	c #6C3926",
"]+	c #45332B",
"^+	c #763D23",
"/+	c #282E2F",
"(+	c #4F3229",
"_+	c #A26141",
":+	c #44322C",
"<+	c #553C32",
"[+	c #8E573D",
"}+	c #965A3D",
"|+	c #803E1D",
"1+	c #9D5D3D",
"2+	c #84492D",
"3+	c #5C3729",
"4+	c #1F2021",
"5+	c #262E2F",
"6+	c #7E3F1F",
"7+	c #3C352D",
"8+	c #6C4728",
"9+	c #362D27",
"0+	c #382F2D",
"a+	c #2C2C2C",
"b+	c #A25F3D",
"c+	c #46312A",
"d+	c #332D2B",
"e+	c #302D2B",
"f+	c #B2B2B2",
"g+	c #C7C7C7",
"h+	c #FBFBFB",
"i+	c #8B8A8A",
"j+	c #BFBFBF",
"k+	c #242E30",
"l+	c #5F3321",
"m+	c #623625",
"n+	c #6B380A",
"o+	c #3E474C",
"p+	c #5D4639",
"q+	c #5C3D21",
"r+	c #5B3919",
"s+	c #583D28",
"t+	c #44362A",
"u+	c #864E34",
"v+	c #A76543",
"w+	c #A86442",
"x+	c #1E1D1D",
"y+	c #C0C0C1",
"z+	c #D6D5D5",
"A+	c #F8F8F8",
"B+	c #ACACAB",
"C+	c #9A9999",
"D+	c #363332",
"E+	c #A56442",
"F+	c #793C1A",
"G+	c #23579D",
"H+	c #2F2900",
"I+	c #686D74",
"J+	c #7E8590",
"K+	c #262420",
"L+	c #2E2F2E",
"M+	c #733C24",
"N+	c #7F3F1F",
"O+	c #9D5D3E",
"P+	c #815039",
"Q+	c #D9D9DB",
"R+	c #523B31",
"S+	c #A36241",
"T+	c #975839",
"U+	c #84401E",
"V+	c #502C00",
"W+	c #2761B3",
"X+	c #285FAE",
"Y+	c #245AA7",
"Z+	c #24539B",
"`+	c #2E569A",
" @	c #2C6CC8",
".@	c #745155",
"+@	c #503026",
"@@	c #573427",
"#@	c #48312A",
"$@	c #523B2B",
"%@	c #5E3F27",
"&@	c #5D4029",
"*@	c #3C2F27",
"=@	c #2B2A28",
"-@	c #353231",
";@	c #79787A",
">@	c #C2C1C2",
",@	c #FCFCFC",
"'@	c #CCCBCB",
")@	c #828181",
"!@	c #1B2A2D",
"~@	c #7E3D19",
"{@	c #163242",
"]@	c #2C2F30",
"^@	c #285DA9",
"/@	c #285DAA",
"(@	c #285CA8",
"_@	c #2D6AC5",
":@	c #25589F",
"<@	c #8F5634",
"[@	c #92593D",
"}@	c #36383B",
"|@	c #3E4449",
"1@	c #596068",
"2@	c #5A6169",
"3@	c #37393A",
"4@	c #323333",
"5@	c #F3F3F3",
"6@	c #A86644",
"7@	c #5A330A",
"8@	c #235599",
"9@	c #23569B",
"0@	c #2E3B57",
"a@	c #285EAB",
"b@	c #2960B1",
"c@	c #2A63B7",
"d@	c #275CA9",
"e@	c #4A4257",
"f@	c #A25F3E",
"g@	c #3E322E",
"h@	c #161414",
"i@	c #C5C6CA",
"j@	c #C8C9CE",
"k@	c #C8C9CD",
"l@	c #C9CACF",
"m@	c #888F99",
"n@	c #858C97",
"o@	c #40454A",
"p@	c #494E53",
"q@	c #313237",
"r@	c #121010",
"s@	c #C8C8CB",
"t@	c #EBEBEB",
"u@	c #72391F",
"v@	c #54352C",
"w@	c #312C16",
"x@	c #302C1A",
"y@	c #295AA4",
"z@	c #285EAC",
"A@	c #285DAB",
"B@	c #285EAD",
"C@	c #21497D",
"D@	c #733606",
"E@	c #7B7778",
"F@	c #6A6A6B",
"G@	c #DADADE",
"H@	c #D4D4D7",
"I@	c #D7D7DA",
"J@	c #C4C6CA",
"K@	c #A6ABB4",
"L@	c #999B9E",
"M@	c #E8E8EA",
"N@	c #2D2F2E",
"O@	c #31302F",
"P@	c #2E3546",
"Q@	c #2E3547",
"R@	c #2E364A",
"S@	c #2C2D2A",
"T@	c #464646",
"U@	c #D9D9DC",
"V@	c #D2D2D5",
"W@	c #E4E4E6",
"X@	c #232120",
"Y@	c #DCDCDC",
"Z@	c #EDEDEF",
"`@	c #E7E7E8",
" #	c #E7E7E9",
".#	c #E6E6E8",
"+#	c #CFCFCF",
"@#	c #463830",
"##	c #CBCBCB",
"$#	c #242222",
"%#	c #ACACAC",
"&#	c #A1A1A1",
"*#	c #A9A9A9",
"=#	c #AFAFAF",
"-#	c #B5B5B4",
". . + . . . . . . . . . . . . . @ # . . . . . . . . . . . . + . . . + ",
". . . + . . . . . + . . . . . . . . . . . . . . . . . # . + + . . . . ",
". . . # # . . . + . . . . . . . . . . . . . . . . . # . . + . . . . . ",
". . # # . . . + + . . # . . . . . . . . . . . . . . . . . . . . . . # ",
". . . . . . $ % & * = - ; > . . . . . . . + . . , , . . . . . . . . . ",
". . + + + ' ) ! ~ { ] ^ ^ / ( . _ . . . . . + , , . , , . . . . . . + ",
". + + . : < [ } | 1 2 3 ! 4 5 6 7 8 . , , + + , 9 , 9 9 9 . . . . + + ",
". . . 0 a b b c d e f g h i j k l m . . , , . 9 . 9 . n . @ . . . . . ",
". . o p b b q r s t u v w x y z A m . . . , 9 + n . n # 9 9 . . . . . ",
". . B b b C D E F G H I J K L M N . . . . . 9 # + . . 9 9 # . . . . . ",
". . O b b p P Q R S Q T U V W X Y m . # 9 9 . . + + . . . . . . . . . ",
"Z `  ...q b +.@.#.$.Q %.&.*.=.-.;.>.. . # 9 9 . . + + . . . . . . . . ",
",.v Y '.b b b ).!.~.Q {.k ].^./.(._.:.. . . . . . . + . . . . # . . . ",
"<.[.}.|.1.b b 2.3.4.Q ~.|.5.6.7.8.7.9.. . . . . . . . . . . # . . . . ",
"<.[.J Q 0.2.b b b a.P b.Q ~.c.d.e.f.g.. . . . . . . . . . . . . . # . ",
"h.[.}.Q i.j.b b b b p k.l.m.n.o.p.q.r.+ . . . . . . . . . . . . . . # ",
"s.t.u.v.w.x.2.b b b b y.z.A.B.C.D.E.F.+ + . . . . . . . . . . . . . . ",
",.Q G.H.I.J.K.b b b b L.] ] M.N.m . . . . . . . . . . . . . . . . . . ",
"O.u G.H.J P.Q.R.S.T.U.V.] ] V.W.. . . . . . . . # . . . . @ . . . . . ",
". X.Y.H.H.Z.`. +.+++@+#+$+%+&+*+. . . . . . . . . . . . . . . . . . + ",
". =+-+H.H.v ;+>+,+'+)+!+~+{+]+^+/+. . . . . . . . . . . . . . . . . + ",
". . (+J _+U :+<+[+}+|.|+1+2+3+l.4++ + . . . . . . . . . . . . . . . . ",
". . 5+_.V v 6+7+8+9+0+a+b+c+d+e+f++ g+h+i+i+h+j+. . . . . . . . . . . ",
". . . k+l+m+n+o+p+q+r+s+t+u+v+w+x+. . . . . . y+z+A+G B+C+. D+. . . . ",
". . . m E+F+G+H+m I+J+K+L+M+N+O+P+m m . . . . . + + Q+G G G . . . . . ",
". . R+S+T+U+V+W+X+Y+Z+`+ @.@+@@@#@$@%@&@*@=@+ + . -@. ;@>@,@G '@)@+ D+",
". !@.+O+~@{@]@^@/@(@_@_@:@<@[@. . . }@|@1@2@3@4@_ _ # . . 5@G G G h++ ",
". !@6@N+7@8@9@0@a@/@b@c@d@e@f@g@. h@i@j@k@l@m@n@o@p@q@r@s@,@G G G G t@",
"+ /+u@M+v@w@w@x@y@z@z@A@B@C@D@E@F@G@H@H@H@H@I@J@K@L@M@G G G G G G G t@",
"+ 8 N@L+O@. # . P@Q@Q@Q@Q@R@S@T@U@H@H@H@H@H@V@W@,@G G G G G G G G h+. ",
". . . . . . . # . . . . . . . X@Y@Z@`@ # #.#G G G G G G G G G G +#. @#",
". # . . . . . . . . . . . . . . O@m G G G G G G G G G G G G ##. . . . ",
". . # . . . . . . . . . . . @ # . . $#%#&#G G G G *#=#-#+ . @ . . . + ",
". . . # . . . . . . . . . # # . . . . + + . . . # D+. + + . . . . + + ",
". . . . . . + + + . . . . . . . . . . . . . . . . # . . . . . . . + . "};
