/* XPM */
static char * up_attack_4_xpm[] = {
"35 35 236 2",
"  	c None",
". 	c #33302F",
"+ 	c #2F2D2D",
"@ 	c #44352C",
"# 	c #2C2A2A",
"$ 	c #485734",
"% 	c #50433A",
"& 	c #32302F",
"* 	c #2A2825",
"= 	c #322F2E",
"- 	c #312F2E",
"; 	c #7A3333",
"> 	c #983636",
", 	c #793333",
"' 	c #282827",
") 	c #863434",
"! 	c #9A3737",
"~ 	c #803030",
"{ 	c #542A2A",
"] 	c #913434",
"^ 	c #6B302F",
"/ 	c #A2A2A1",
"( 	c #727878",
"_ 	c #8D3232",
": 	c #322F2F",
"< 	c #382F2F",
"[ 	c #6B2F30",
"} 	c #BDBEBE",
"| 	c #808383",
"1 	c #833030",
"2 	c #7E3030",
"3 	c #6D302F",
"4 	c #AEADAD",
"5 	c #73422F",
"6 	c #915639",
"7 	c #9D5D3D",
"8 	c #905032",
"9 	c #BDBEBF",
"0 	c #7F8181",
"a 	c #853030",
"b 	c #6F302F",
"c 	c #0D2227",
"d 	c #A36241",
"e 	c #A36343",
"f 	c #975838",
"g 	c #A46443",
"h 	c #CAC0BE",
"i 	c #FFFFFF",
"j 	c #948784",
"k 	c #783E22",
"l 	c #562E30",
"m 	c #743030",
"n 	c #989291",
"o 	c #9B5631",
"p 	c #7D3D1D",
"q 	c #862000",
"r 	c #A8A3A2",
"s 	c #640C00",
"t 	c #9D8078",
"u 	c #823903",
"v 	c #39322C",
"w 	c #783030",
"x 	c #772F30",
"y 	c #703C24",
"z 	c #1C2D30",
"A 	c #959595",
"B 	c #654135",
"C 	c #7F3D1C",
"D 	c #8E8A89",
"E 	c #7B8182",
"F 	c #7A3A18",
"G 	c #804020",
"H 	c #633A26",
"I 	c #843030",
"J 	c #2D302C",
"K 	c #995A3A",
"L 	c #673621",
"M 	c #7D3E1E",
"N 	c #A86442",
"O 	c #A66442",
"P 	c #A56444",
"Q 	c #854424",
"R 	c #82411F",
"S 	c #6D3C24",
"T 	c #742F30",
"U 	c #702F30",
"V 	c #8B4826",
"W 	c #A06040",
"X 	c #9D5F40",
"Y 	c #5D3829",
"Z 	c #0D272D",
"` 	c #1E2C2D",
" .	c #482D28",
"..	c #814020",
"+.	c #732F30",
"@.	c #7F3030",
"#.	c #5A322D",
"$.	c #874727",
"%.	c #9B5E3F",
"&.	c #A78232",
"*.	c #2E2F2E",
"=.	c #8B6C2E",
"-.	c #4D462E",
";.	c #5F3827",
">.	c #5B322D",
",.	c #813030",
"'.	c #3D322C",
").	c #834323",
"!.	c #A36342",
"~.	c #8C4F32",
"{.	c #22202E",
"].	c #B28B33",
"^.	c #33372E",
"/.	c #8F3333",
"(.	c #8D3333",
"_.	c #973636",
":.	c #7A2F2F",
"<.	c #823030",
"[.	c #4F2D2F",
"}.	c #894420",
"|.	c #8F5031",
"1.	c #7C3C1B",
"2.	c #7F4020",
"3.	c #363332",
"4.	c #8B8A8A",
"5.	c #192E2D",
"6.	c #9A3636",
"7.	c #9C3737",
"8.	c #843131",
"9.	c #592F2B",
"0.	c #533629",
"a.	c #634335",
"b.	c #A16141",
"c.	c #A16040",
"d.	c #7F3E1D",
"e.	c #142D2F",
"f.	c #AEAEAE",
"g.	c #9B9B9B",
"h.	c #282E2F",
"i.	c #7A3432",
"j.	c #953636",
"k.	c #843335",
"l.	c #6B342F",
"m.	c #6C3833",
"n.	c #A96644",
"o.	c #793B1D",
"p.	c #6E4432",
"q.	c #783C1F",
"r.	c #999898",
"s.	c #F0F0F0",
"t.	c #323030",
"u.	c #793E22",
"v.	c #40312D",
"w.	c #613E2D",
"x.	c #894522",
"y.	c #81401E",
"z.	c #985737",
"A.	c #9A5837",
"B.	c #44322B",
"C.	c #884829",
"D.	c #9C5B3B",
"E.	c #122C30",
"F.	c #717070",
"G.	c #6F6E6D",
"H.	c #6D3A25",
"I.	c #7C3E20",
"J.	c #86533A",
"K.	c #7B3F22",
"L.	c #773D23",
"M.	c #553225",
"N.	c #31302B",
"O.	c #8E4D2C",
"P.	c #8F5539",
"Q.	c #797878",
"R.	c #FEFEFE",
"S.	c #666464",
"T.	c #5B5A59",
"U.	c #FCFCFC",
"V.	c #756E6A",
"W.	c #965B3E",
"X.	c #A46241",
"Y.	c #5F4134",
"Z.	c #36312D",
"`.	c #603F23",
" +	c #6C4626",
".+	c #5C473B",
"++	c #513023",
"@+	c #763610",
"#+	c #76350B",
"$+	c #263537",
"%+	c #666564",
"&+	c #F9F9F9",
"*+	c #C2C1C1",
"=+	c #6B6B6A",
"-+	c #4B5253",
";+	c #AC765F",
">+	c #8B5C4D",
",+	c #695853",
"'+	c #525455",
")+	c #777B82",
"!+	c #82868C",
"~+	c #535251",
"{+	c #B0B0AF",
"]+	c #F8F8F8",
"^+	c #F9F8F8",
"/+	c #B4B4B4",
"(+	c #FDFDFD",
"_+	c #FDFCFC",
":+	c #F1EBEA",
"<+	c #0A1214",
"[+	c #272423",
"}+	c #002781",
"|+	c #235396",
"1+	c #4C3012",
"2+	c #864727",
"3+	c #985C3E",
"4+	c #4F3A2C",
"5+	c #6E4622",
"6+	c #7C5D48",
"7+	c #7C5C46",
"8+	c #46494A",
"9+	c #474746",
"0+	c #864527",
"a+	c #47473A",
"b+	c #496EB5",
"c+	c #225CAC",
"d+	c #255DAC",
"e+	c #2B508D",
"f+	c #2F3137",
"g+	c #4B332A",
"h+	c #824120",
"i+	c #7D4023",
"j+	c #292827",
"k+	c #38302E",
"l+	c #332F2D",
"m+	c #2F2D2B",
". . + . . . . . . . . . . . . . @ # . . . . . . . . . . . . + . . . + ",
". . . + . . . . . + . . . . . . . . . . . . . . . . . # . + + . . . . ",
". . . # # . . . + . . . . . . . . . . . . . . . . . # . . + . . . . . ",
". . # # . . . + + . . # . . . . . . . . . . . . . . . . . . . . . . # ",
". . . . . . + + + # . . # . . . . . . . . + . . $ $ . . . . . . . . . ",
". . + + + + + # # . % . . # . . . . . . . . + $ $ . $ $ . . . . . . + ",
". + + . . # # . . . . . . . . . . . . $ $ + + $ % $ % % % . . . . + + ",
". . . . . . . . . . . + . . . . . & . . $ $ . % . % . * . @ . . . . . ",
". . . . . . . . . . . + + . = - ; > , - . $ % + * . * # % % . . . . . ",
". . . . . . . . . . . ' + ) > > ! ~ { ] ^ . % # + . . % % # . . . . . ",
". . . . . . . . . . . / ( _ : < [ } | 1 2 3 . . + + . . . . . . . . . ",
". . . . @ . . . . # . 4 5 6 7 7 8 9 0 a 2 2 b . . + + . . . . . . . . ",
". . . . . . . . . . . c d e f g h i j k l 2 m . . . + . . . . # . . . ",
". . . . . . . . . . . n o p q r s t u v w 2 x y . . . . . . # . . . . ",
". # . . . . . + . . z A B C D E F G H I 2 ~ J K L . . . . . . . . # . ",
". . # . . . + . . . M N O P Q R G S T 2 2 U V W X . . . . . . . . . # ",
". . . # . . + . . . Y Z `  ...R S +.2 2 @.#.$.W %.. . . . . . . . . . ",
". . . . . . + . . . &.*.=.-.;.>.+.2 2 2 ,.'.).!.~.. . . . . . . . . . ",
". . . + + + # . . . {.].^./.(._.:.2 @.<.[.}.|.1.2.. . . . @ . . . 3.4.",
". . + + # # . . . . . . 5.6.> > 7.8.9.0.a.b.c.d.e.. . . . . . 3.. f.g.",
". % + . . . . . . . . . h.i.j.k.l.m.n.o.p.W b.q.. . . . . 3.. r.s.. t.",
". . . . . . . $ . . . . u.v.w.x.y.z.A.B.C.c.D.E.. . . . . F.i G.3.. . ",
". . . . . . $ $ . . . . H.I.J.K.L.M.N.= O.W P.. . . . Q.R.i S.3.. . . ",
". T.i i i i U.V.. . $ $ W.X.Y.Z.`. +.+++@+#+$+%+i i i i &+. . . . . . ",
"*+i i i i i i i i i =+-+;+>+,+'+)+!+~+{+i i i i i ]+^+. . . . . . . . ",
"/+(+i i i i i i i i i i i i i i i i i i U._+:+<+. . . . . . . . + + . ",
". [+i i i i i i i i i i i i i i i i i }+|+1+2+3+. . # . . . . . . + + ",
". 4+5+6+7+8+9+i i i i i i i 0+a+b+c+d+e+f+g+h+i+. # . . . . . . . . . ",
"+ & & & & . . . . . . . j+' k+& l+l+l+m+. & *.*.# . . + + . . . . . . ",
"+ @ . . . . # . . . . . . . . . . . . . . . . . . . . . + . @ . + . . ",
". . . . . . . # . . . . . . . . . . . . . . . . . . . . . + + . . . @ ",
". # . . . . . . . . . . . . . . . + + . . . . . . . . . . + + . . . . ",
". . # . . . . . . . . . . . @ # . . + + . . . . . . . . + . @ . . . + ",
". . . # . . . . . . . . . # # . . . . + + . . . # . . + + . . . . + + ",
". . . . . . + + + . . . . . . . . . . . . . . . . # . . . . . . . + . "};
