/* XPM */
static char * up_attack_5_xpm[] = {
"35 35 288 2",
"  	c None",
". 	c #33302F",
"+ 	c #2F2D2D",
"@ 	c #44352C",
"# 	c #2C2A2A",
"$ 	c #312E2D",
"% 	c #2E2B2A",
"& 	c #232F2E",
"* 	c #202F2E",
"= 	c #1E2F2E",
"- 	c #828282",
"; 	c #A6A6A5",
"> 	c #282F2E",
", 	c #142F2E",
"' 	c #7F3030",
") 	c #973636",
"! 	c #983636",
"~ 	c #032E2D",
"{ 	c #2F302F",
"] 	c #838382",
"^ 	c #D5D6D6",
"/ 	c #4C3130",
"( 	c #933334",
"_ 	c #9D3737",
": 	c #993636",
"< 	c #9E3737",
"[ 	c #783333",
"} 	c #4B2F2E",
"| 	c #2D302F",
"1 	c #32302F",
"2 	c #505352",
"3 	c #7D6666",
"4 	c #9A3737",
"5 	c #9A3636",
"6 	c #933434",
"7 	c #7B3332",
"8 	c #3D2F2E",
"9 	c #50433A",
"0 	c #492F2E",
"a 	c #813030",
"b 	c #7E3030",
"c 	c #8A3232",
"d 	c #2E2F2E",
"e 	c #532F2F",
"f 	c #833030",
"g 	c #933535",
"h 	c #893232",
"i 	c #1D2E2D",
"j 	c #262F2E",
"k 	c #7A3030",
"l 	c #813131",
"m 	c #953636",
"n 	c #212F2E",
"o 	c #26302F",
"p 	c #793030",
"q 	c #7C3030",
"r 	c #65302F",
"s 	c #30302F",
"t 	c #252F2E",
"u 	c #7D3030",
"v 	c #8C3333",
"w 	c #312F2E",
"x 	c #773333",
"y 	c #2A2F2E",
"z 	c #773030",
"A 	c #7C2F2F",
"B 	c #903434",
"C 	c #2D2C2B",
"D 	c #392A2D",
"E 	c #823030",
"F 	c #873232",
"G 	c #923434",
"H 	c #1F292C",
"I 	c #9A5D3F",
"J 	c #92593D",
"K 	c #642C2E",
"L 	c #8E3434",
"M 	c #833131",
"N 	c #763332",
"O 	c #31302F",
"P 	c #5F3626",
"Q 	c #945435",
"R 	c #935B3E",
"S 	c #652C2E",
"T 	c #7A2F2F",
"U 	c #963636",
"V 	c #632F2F",
"W 	c #603828",
"X 	c #7F3F1E",
"Y 	c #7A442A",
"Z 	c #682E30",
"` 	c #943535",
" .	c #382F2E",
"..	c #5E3728",
"+.	c #804020",
"@.	c #82411F",
"#.	c #563728",
"$.	c #242F2E",
"%.	c #2E2E30",
"&.	c #5F3828",
"*.	c #653927",
"=.	c #86421E",
"-.	c #5A3525",
";.	c #682B2F",
">.	c #803030",
",.	c #5E2F2F",
"'.	c #262E2F",
").	c #7F4020",
"!.	c #7E3D1D",
"~.	c #9E5E3E",
"{.	c #81513A",
"].	c #722D2F",
"^.	c #0A0F10",
"/.	c #854220",
"(.	c #9A5B3B",
"_.	c #A56342",
":.	c #694836",
"<.	c #712F2F",
"[.	c #6F4948",
"}.	c #7E8382",
"|.	c #6B6A6A",
"1.	c #D4D4D4",
"2.	c #D4D3D3",
"3.	c #D0D0D0",
"4.	c #D7D7D7",
"5.	c #500000",
"6.	c #824120",
"7.	c #7E3E1E",
"8.	c #955536",
"9.	c #A76543",
"0.	c #82523A",
"a.	c #794931",
"b.	c #4E2B2C",
"c.	c #582B2E",
"d.	c #672C2E",
"e.	c #512322",
"f.	c #E7E9E9",
"g.	c #FFFFFF",
"h.	c #D5D4D4",
"i.	c #424141",
"j.	c #485734",
"k.	c #C3C3C3",
"l.	c #FEFEFE",
"m.	c #000000",
"n.	c #834120",
"o.	c #A16141",
"p.	c #905132",
"q.	c #9C5D3D",
"r.	c #93593D",
"s.	c #84523A",
"t.	c #241C17",
"u.	c #A1A0A0",
"v.	c #A3A79F",
"w.	c #A1A59C",
"x.	c #FAFAFA",
"y.	c #D6D5D5",
"z.	c #D8D8D8",
"A.	c #D8D7D7",
"B.	c #EFEFEF",
"C.	c #EFF0F0",
"D.	c #580000",
"E.	c #803F1D",
"F.	c #985939",
"G.	c #A36343",
"H.	c #A46342",
"I.	c #824015",
"J.	c #9B9A9A",
"K.	c #ECECEC",
"L.	c #E9E9E9",
"M.	c #B2AFAE",
"N.	c #898888",
"O.	c #8A8989",
"P.	c #90958A",
"Q.	c #82887B",
"R.	c #646363",
"S.	c #7E7D7D",
"T.	c #341817",
"U.	c #411E00",
"V.	c #381900",
"W.	c #874422",
"X.	c #A66544",
"Y.	c #824223",
"Z.	c #A36342",
"`.	c #DDDCDC",
" +	c #878686",
".+	c #838282",
"++	c #FAFBFA",
"@+	c #8D8D8D",
"#+	c #2A2825",
"$+	c #2C2928",
"%+	c #767C84",
"&+	c #9197A2",
"*+	c #959CA6",
"=+	c #2E3537",
"-+	c #754F40",
";+	c #7F4122",
">+	c #995B3B",
",+	c #543429",
"'+	c #8D9387",
")+	c #4A5937",
"!+	c #27292D",
"~+	c #724835",
"{+	c #3D2200",
"]+	c #163D75",
"^+	c #003574",
"/+	c #797D82",
"(+	c #71787F",
"_+	c #6C757E",
":+	c #6A747E",
"<+	c #4F5359",
"[+	c #FDFCFC",
"}+	c #F2F3F2",
"|+	c #F1F0F0",
"1+	c #26282D",
"2+	c #91583D",
"3+	c #9E5D3D",
"4+	c #552E00",
"5+	c #285DAA",
"6+	c #2A5EAB",
"7+	c #004DA8",
"8+	c #002E73",
"9+	c #00235A",
"0+	c #42413A",
"a+	c #464641",
"b+	c #2F373A",
"c+	c #F4F4F4",
"d+	c #EDEDEC",
"e+	c #F3F3F3",
"f+	c #F8F7F7",
"g+	c #CFCFCF",
"h+	c #7F7E7E",
"i+	c #9B847C",
"j+	c #B99283",
"k+	c #99776E",
"l+	c #4E2F29",
"m+	c #29579D",
"n+	c #004FA7",
"o+	c #DADEE9",
"p+	c #F4F5F9",
"q+	c #FAFAFC",
"r+	c #617DB9",
"s+	c #2258A1",
"t+	c #8D5429",
"u+	c #211E1C",
"v+	c #F5F4F4",
"w+	c #8B8A8A",
"x+	c #B6B5B5",
"y+	c #B5B5B4",
"z+	c #B5B5B5",
"A+	c #ABACAD",
"B+	c #ADAFAF",
"C+	c #9EA09F",
"D+	c #00407D",
"E+	c #2F2B16",
"F+	c #2962B3",
"G+	c #004DA5",
"H+	c #0048A4",
"I+	c #004092",
"J+	c #285493",
"K+	c #265BA7",
"L+	c #58485F",
"M+	c #85543C",
"N+	c #282625",
"O+	c #322F2E",
"P+	c #303032",
"Q+	c #2F2F2E",
"R+	c #2D436F",
"S+	c #285FAD",
"T+	c #285EAB",
"U+	c #285EAC",
"V+	c #2F548A",
"W+	c #275EAD",
"X+	c #1C4474",
"Y+	c #824121",
"Z+	c #292F2E",
"`+	c #302E25",
" @	c #312916",
".@	c #312917",
"+@	c #2E4167",
"@@	c #2A5394",
"#@	c #2A5292",
"$@	c #2E3F64",
"%@	c #212D2F",
"&@	c #302E2E",
"*@	c #332F2C",
"=@	c #322D28",
"-@	c #322F2A",
";@	c #2F2E2D",
". . + . . . . . . . . . . . . . @ # . . . . . . . . . . . . + . . . + ",
". . . + . . . . . + . . . . . . . . . $ % . . . & * = # . + + . . . . ",
". . . # # . . . + . . . . . . . . . . - ; . > , ' ) ! ~ { + . . . . . ",
". . # # . . . + + . . # . . . . . . . ] ^ / ( _ : ! ! < [ } | 1 . . # ",
". . . . . . + + + # . . # . . . . . . 2 3 ' 4 ! ! ! ! ! 5 6 7 8 . . . ",
". . + + + + + # # . 9 . . # . . . . . 0 a b 5 ! ! ! ! ! ! ! : c d . + ",
". + + . . # # . . . . . . . . . . { e f b b g 5 ! ! ! ! ! ! ! 4 h i + ",
". . . . . . . . . . . + . . . . . j k b b b ' l : ! ! ! ! ! ! ! m n . ",
". . . . . . . . . . . + + . . . . o p b b b b q : ! ! ! ! ! ! ! ) r s ",
". . . . . . . . . . . . + + . . . t q b b b b u v 5 ! ! ! ! ! ! ! [ { ",
". . . . . . . . . . . . . + . . . . w a b b b b b v ! ! ! ! ! ! ! x { ",
". . . . @ . . . . # . . . . . . . . y z ' b b b b A B : ! ! ! ! ! x { ",
". . . . . . . . . . . . . . . . . . C D E b b b b b q F G ! ! : ! x { ",
". . . . . . . . . . . . . . . . . H I J K b b b b b b u L ! : M : N { ",
". # . . . . . + . . . . . . . . O P Q R S b b b b b b b T ! U M q V s ",
". . # . . . + . . . . . . . @ # 1 W X Y Z b b b b b b b b M ` u q  .# ",
". . . # . . + . . . . . . # # . 1 ..+.@.#.p ' b b b b b b b u b q $.. ",
". . . . . . + . . . . . . . . . . %.&.*.=.-.;.>.b b b b b b b >.,.| . ",
". . . + + + # . . . . . . . . . . . '.).!.~.{.].b b b b b b ' E > . . ",
". . + + # # . . . . . . . . . . . . ^./.!.(._.:.].<.b ' ' ' [.}.|.. + ",
". 9 + . . . . . . . . . . 1.2.2.2.3.4.5.6.7.8.9.0.a.b.c.d.e.f.g.g.h.i.",
". . . . . . . j.. k.g.l.l.g.g.g.g.g.g.m.n.+.+.!.o.p.q.r.s.t.g.g.g.g.l.",
". . . . . u.v.w.g.g.g.x.y.4.z.z.A.B.g.C.D.@.@.E.F.G.+.H.I.J.g.g.g.g.g.",
". . . K.L.g.g.M.N.O.P.Q.# . . . + R.O.S.T.U.U.V.W.X.Y.Z.5.g.g.g.g.`. +",
".+g.g.++@+9 9 . . j.j.#+#+. . . . . . $+%+&+&+*+=+-+;+>+,+. . . . . . ",
"g.l.g.'+j.# )+j.9 j.9 #+. . . . . . !+~+{+]+]+^+/+(+_+:+<+. . . + + . ",
"@+g.g.[+}+|+# 9 j.9 . . . . . . . 1+2+3+4+5+6+7+8+9+0+a+b+. . . . + + ",
". + . c+d+d+c+e+f+g+S.h+h+h+h+h+h+i+j+k+l+m+n+o+p+q+r+s+t+u+v+w+. . . ",
"+ . . . . . . . . x+y+y+y+y+y+y+z+A+B+C+D+E+F+G+H+I+J+K+L+M+N+. . . . ",
"+ @ . . . . # . . . . . . . . . . O+O+. P+Q+R+S+T+U+V+W+X+Y+Z+. + . . ",
". . . . . . . # . . . . . . . . . . . . . . `+ @.@+@@@#@$@%@&@. . . @ ",
". # . . . . . . . . . . . . . . . + + . . . . . . *@=@=@-@;@+ . . . . ",
". . # . . . . . . . . . . . @ # . . + + . . . . . . . . + . @ . . . + ",
". . . # . . . . . . . . . # # . . . . + + . . . # . . + + . . . . + + ",
". . . . . . + + + . . . . . . . . . . . . . . . . # . . . . . . . + . "};
