/* XPM */
static char * up_attack_6_xpm[] = {
"35 35 301 2",
"  	c None",
". 	c #33302F",
"+ 	c #2F2D2D",
"@ 	c #44352C",
"# 	c #2C2A2A",
"$ 	c #485734",
"% 	c #50433A",
"& 	c #262D2D",
"* 	c #4E3130",
"= 	c #623231",
"- 	c #443030",
"; 	c #292F2E",
"> 	c #31302F",
", 	c #2A2825",
"' 	c #412F2E",
") 	c #8B3434",
"! 	c #7A2B2B",
"~ 	c #853232",
"{ 	c #953636",
"] 	c #903535",
"^ 	c #753333",
"/ 	c #3F302F",
"( 	c #312E2D",
"_ 	c #322F2E",
": 	c #422F2E",
"< 	c #7B3030",
"[ 	c #863232",
"} 	c #858484",
"| 	c #8E7B7B",
"1 	c #753031",
"2 	c #7A3333",
"3 	c #7E3333",
"4 	c #812828",
"5 	c #A0A1A1",
"6 	c #515151",
"7 	c #442F2F",
"8 	c #7E3030",
"9 	c #7F3030",
"0 	c #8C8C8C",
"a 	c #B3B2B2",
"b 	c #81482F",
"c 	c #8E5032",
"d 	c #8A4F33",
"e 	c #602E15",
"f 	c #B4B2B2",
"g 	c #525251",
"h 	c #572F2F",
"i 	c #723030",
"j 	c #623828",
"k 	c #968D8B",
"l 	c #FDFDFD",
"m 	c #A2847B",
"n 	c #A16141",
"o 	c #98593A",
"p 	c #804D35",
"q 	c #2F2F2F",
"r 	c #4A332C",
"s 	c #5C312E",
"t 	c #733030",
"u 	c #804123",
"v 	c #B2A19D",
"w 	c #794730",
"x 	c #9E8984",
"y 	c #965738",
"z 	c #8B4C2D",
"A 	c #986C5D",
"B 	c #4E4948",
"C 	c #43322D",
"D 	c #8F5234",
"E 	c #703F29",
"F 	c #783030",
"G 	c #804020",
"H 	c #734432",
"I 	c #A8A7A7",
"J 	c #88716B",
"K 	c #7D3D1C",
"L 	c #928D8C",
"M 	c #705B54",
"N 	c #604134",
"O 	c #A26140",
"P 	c #985737",
"Q 	c #5E302E",
"R 	c #703B25",
"S 	c #814020",
"T 	c #82401F",
"U 	c #8E4F2F",
"V 	c #9C5E3F",
"W 	c #9B5E3F",
"X 	c #955637",
"Y 	c #3E312C",
"Z 	c #5F4033",
"` 	c #965637",
" .	c #643729",
"..	c #7D3030",
"+.	c #6F3B25",
"@.	c #7E4021",
"#.	c #7A3D21",
"$.	c #4A3E2C",
"%.	c #17272D",
"&.	c #57442D",
"*.	c #352F2E",
"=.	c #52372C",
"-.	c #9A5A3A",
";.	c #884829",
">.	c #6B3A24",
",.	c #752F30",
"'.	c #66332D",
").	c #58322B",
"!.	c #7C5D2E",
"~.	c #725B2E",
"{.	c #A27E32",
"].	c #483D2E",
"^.	c #48332C",
"/.	c #7D3D1E",
"(.	c #975738",
"_.	c #945434",
":.	c #553930",
"<.	c #6F2F30",
"[.	c #873232",
"}.	c #963535",
"|.	c #943535",
"1.	c #823033",
"2.	c #69562E",
"3.	c #6A5530",
"4.	c #282A2B",
"5.	c #6D3A23",
"6.	c #9D5D3D",
"7.	c #A06040",
"8.	c #7D4F39",
"9.	c #753D23",
"0.	c #764431",
"a.	c #863133",
"b.	c #8F3535",
"c.	c #9B3636",
"d.	c #9A3636",
"e.	c #7B3333",
"f.	c #2E302F",
"g.	c #8A8989",
"h.	c #8D8685",
"i.	c #945432",
"j.	c #915335",
"k.	c #683A26",
"l.	c #9C5C3C",
"m.	c #7B4833",
"n.	c #6F3A27",
"o.	c #68342C",
"p.	c #69332F",
"q.	c #663928",
"r.	c #312725",
"s.	c #8E8E8E",
"t.	c #BBBABA",
"u.	c #F2F2F2",
"v.	c #BFBFBF",
"w.	c #CFCFCF",
"x.	c #8C6254",
"y.	c #8B4B2B",
"z.	c #36302E",
"A.	c #815039",
"B.	c #8C5135",
"C.	c #81401E",
"D.	c #8F4F30",
"E.	c #784630",
"F.	c #7C3F21",
"G.	c #7E7472",
"H.	c #D7D7D7",
"I.	c #B9B9B8",
"J.	c #AFAFAF",
"K.	c #ADACAC",
"L.	c #A9A9A9",
"M.	c #A4A3A3",
"N.	c #B4B3B3",
"O.	c #454342",
"P.	c #585756",
"Q.	c #514F4F",
"R.	c #925334",
"S.	c #8C4C2D",
"T.	c #613828",
"U.	c #624024",
"V.	c #583C28",
"W.	c #483529",
"X.	c #684232",
"Y.	c #704533",
"Z.	c #764A36",
"`.	c #42332E",
" +	c #898889",
".+	c #CBCBCB",
"++	c #CDCCCC",
"@+	c #F8F8F8",
"#+	c #F9F9F9",
"$+	c #EFEFEF",
"%+	c #AEAEAE",
"&+	c #B2B1B1",
"*+	c #939292",
"=+	c #FAFAFA",
"-+	c #2F2E2E",
";+	c #744937",
">+	c #513528",
",+	c #303E5F",
"'+	c #56585B",
")+	c #5A5C60",
"!+	c #5A4E4A",
"~+	c #503A27",
"{+	c #754027",
"]+	c #985738",
"^+	c #734A37",
"/+	c #2D2F2F",
"(+	c #32302F",
"_+	c #413F3E",
":+	c #989799",
"<+	c #F9F9FA",
"[+	c #FFFFFF",
"}+	c #FEFEFE",
"|+	c #969695",
"1+	c #919090",
"2+	c #C1C1C1",
"3+	c #DDDCDC",
"4+	c #7E7D7D",
"5+	c #363332",
"6+	c #4C5A3A",
"7+	c #4E463F",
"8+	c #84533A",
"9+	c #9B5B3B",
"0+	c #814121",
"a+	c #2D4A7F",
"b+	c #285DAA",
"c+	c #2C589E",
"d+	c #2E5393",
"e+	c #2A60B1",
"f+	c #664A58",
"g+	c #613827",
"h+	c #56352A",
"i+	c #513B2B",
"j+	c #593D28",
"k+	c #49382D",
"l+	c #363333",
"m+	c #5C524C",
"n+	c #A8A8AA",
"o+	c #F2F2F3",
"p+	c #959595",
"q+	c #A1A59C",
"r+	c #727171",
"s+	c #ABA8A7",
"t+	c #C4BEBC",
"u+	c #A36D57",
"v+	c #763D1F",
"w+	c #2A4470",
"x+	c #2C4A80",
"y+	c #285EAB",
"z+	c #2D6AC6",
"A+	c #245CAA",
"B+	c #8B5435",
"C+	c #7B4D38",
"D+	c #312F2F",
"E+	c #34312F",
"F+	c #72777E",
"G+	c #7D838C",
"H+	c #7E848D",
"I+	c #848587",
"J+	c #C3C3C6",
"K+	c #EDEDEE",
"L+	c #4D3F31",
"M+	c #694232",
"N+	c #4D3428",
"O+	c #2F4064",
"P+	c #2E3C5A",
"Q+	c #2A5291",
"R+	c #295AA4",
"S+	c #2A5EAB",
"T+	c #295DA9",
"U+	c #3C4F84",
"V+	c #604436",
"W+	c #545554",
"X+	c #C0C0C1",
"Y+	c #F1F1F2",
"Z+	c #F0F0F1",
"`+	c #483E37",
" @	c #404B32",
".@	c #4B4038",
"+@	c #322E2A",
"@@	c #322D25",
"#@	c #322E25",
"$@	c #858585",
"%@	c #F5F5F5",
"&@	c #F5F4F4",
"*@	c #AFAEAE",
"=@	c #7F7E7E",
"-@	c #F3F3F3",
";@	c #E3E3E3",
">@	c #999898",
",@	c #9F9F9F",
"'@	c #434140",
")@	c #312F2E",
"!@	c #545454",
"~@	c #B9B9B9",
"{@	c #E5E5E5",
"]@	c #C2C2C2",
"^@	c #929292",
"/@	c #939392",
"(@	c #5B5A59",
"_@	c #2D2A29",
":@	c #302E2D",
". . + . . . . . . . . . . . . . @ # . . . . . . . . . . . . + . . . + ",
". . . + . . . . . + . . . . . . . . . . . . . . . . . # . + + . . . . ",
". . . # # . . . + . . . . . . . . . . . . . . . . . # . . + . . . . . ",
". . # # . . . + + . . # . . . . . . . . . . . . . . . . . . . . . . # ",
". . . . . . + + + # . . # . . . . . . . . + . . $ $ . . . . . . . . . ",
". . + + + + + # # . % . . # . . . . . . . . + $ $ . $ $ . . . . . . + ",
". + + . . # # . . . . . . . . . . . . $ $ + + $ % $ % % % . . . . + + ",
". . . . . . . . . . . & * = - ; > . . . $ $ . % . % . , . @ . . . . . ",
". . . . . . . . . . ' ) ! ~ { ] ^ / ( _ . $ % + , . , # % % . . . . . ",
". . . . . . . . . : < [ } | 1 2 3 4 5 6 . . % # + . . % % # . . . . . ",
". . . . . . . . 7 < 8 9 0 a b c d e f g % % . . + + . . . . . . . . . ",
". . . . @ . . . h 8 i j k l m n o n p q # % % . . + + . . . . . . . . ",
". . . . . . . r s 8 t j u v w x y z A B . . . . . . + . . . . # . . . ",
". . . . . . C D E F 8 9 j G H I J K L M . . . . . . . . . . # . . . . ",
". # . . . . N O P Q 8 8 t R S T U V W X Y . . . . . . . . . . . . # . ",
". . # . . . Z O `  ...8 8 t +.@.#.$.%.&.*.. . . . . . . . . . . . . # ",
". . . # . . =.-.;.>.F 8 8 8 ,.'.).!.~.{.].. . . . . . . . . . . . . . ",
". . . . . . ^./.(._.:.<.F 8 [.}.|.1.2.3.. . . . . . . . . . . . . . . ",
". . . + + + 4.5.6.7.8.9.0.a.b.c.d.e.f.. . . . . # . . . . @ . . . . . ",
". . + + # # g.h.i.7.j.k.l.m.n.o.p.q.r.. . . . . . . . . . . . . . . + ",
". % s.t.u.v.w.w.x.n y.z.A.B.C.D.E.F.G.H.I.J.K.L.L.M.. . . . . . . . + ",
". N.O.P.Q.. . $ ^.R.S.T.U.V.W.X.Y.Z.`.. P.P. +.+++@+#+$+%+&+&+*+. . . ",
"=+. . . . . $ $ -+;+>+,+'+)+!+~+{+]+^+/+(+. . . . _+:+<+[+[+[+}+}+|+. ",
"1+2+3+4+5+% 6+7+8+9+0+a+b+c+d+e+f+g+h+i+j+k+> . l+m+n+o+[+[+[+[+[+[+p+",
". . . q+r+% s+t+u+v+w+x+b+y+z+A+B+C+D+E+F+G+H+I+J+K+#+[+[+[+[+[+[+[+}+",
". . . $ $ # $ L+M+N+O+P+Q+R+S+T+U+V+W+X+Y+Z+Z+#+[+[+[+[+[+[+[+[+[+l } ",
". . + % $ % # `+ @.@. . +@@@@@@@#@$@[+[+[+[+[+[+[+[+[+[+[+[+%@&@*@=@+ ",
". + . . % % , , % . . . . . . . . _ K.-@[+[+[+[+[+[+%@;@>@,@'@. . . . ",
"+ . . . . . . . . . . . . . . . . . )@!@~@{@{@]@^@/@(@+ + . . . . . . ",
"+ @ . . . . # . . . . . . . . . . . . . ( _@_@:@. . . . + . @ . + . . ",
". . . . . . . # . . . . . . . . . . . . . . . . . . . . . + + . . . @ ",
". # . . . . . . . . . . . . . . . + + . . . . . . . . . . + + . . . . ",
". . # . . . . . . . . . . . @ # . . + + . . . . . . . . + . @ . . . + ",
". . . # . . . . . . . . . # # . . . . + + . . . # . . + + . . . . + + ",
". . . . . . + + + . . . . . . . . . . . . . . . . # . . . . . . . + . "};
