/* XPM */
static char * pickup_right_3_xpm[] = {
"35 35 17 1",
" 	c None",
".	c #33302F",
"+	c #2F2D2D",
"@	c #44352C",
"#	c #2C2A2A",
"$	c #485734",
"%	c #50433A",
"&	c #ECE2E2",
"*	c #2A2825",
"=	c #141414",
"-	c #D2AA7B",
";	c #806843",
">	c #561C14",
",	c #7F6843",
"'	c #7C281B",
")	c #C93620",
"!	c #10313F",
"..+.............@#............+...+",
"...+.....+.................#.++....",
"...##...+.................#..+.....",
"..##...++..#......................#",
"......+++#..#........+..$$.........",
"..+++++##.%..#........+$$.$$......+",
".++..##............$$++$%$%%%....++",
"...........+.&.&&...$$.%.%.*.@.....",
"...........++&&&&....$%+*.*#%%.....",
"............+&&&&&=&&&%#+..%%#.....",
"............&&&&&=&&&&&.++.........",
"....@....#....&&=&&&&&&..++........",
"..............==&&&&&&&&..+....#...",
"...............&&&&&&-&.......#....",
".#.....+.......&&&&-&;&..........#.",
"..#...+.......@=&&&--;............#",
"...#..+.....======&---.............",
"......+....====>>>=,,,.............",
"...+++#....===>>>>>==='.#....@.....",
"..++##....====>>'>>>>>>'..........+",
".%+.......====>'''>>>>>'..........+",
".......$..====>'''>>>>>)...........",
"......$$...===>'''>>>>>-...........",
".....%$%..$===>)))>>>>--.%.........",
"...$.%%..$$====-->>>>>--++.........",
"...$$#$$%$%*==!-->>>>=!-........++.",
"..+%$%#%$%..=!!--====!!!..#......++",
".+..%%**%....!!---.+!!!..#.........",
"+............!!----+!!!.#..++......",
"+@....#......!!!---.!==.....+.@.+..",
".......#.....==.....====.....++...@",
".#...........===.++..===.....++....",
"..#..........===..++........+.@...+",
"...#.........##....++...#..++....++",
"......+++................#.......+."};
