/* XPM */
static char * right_attack_5_xpm[] = {
"35 35 382 2",
"  	c None",
". 	c #33302F",
"+ 	c #2F2D2D",
"@ 	c #44352C",
"# 	c #2C2A2A",
"$ 	c #485734",
"% 	c #2A2A2A",
"& 	c #32302F",
"* 	c #43302F",
"= 	c #41302F",
"- 	c #30302F",
"; 	c #833434",
"> 	c #873534",
", 	c #8A3232",
"' 	c #853131",
") 	c #993636",
"! 	c #853434",
"~ 	c #873434",
"{ 	c #322F2E",
"] 	c #262F2E",
"^ 	c #50433A",
"/ 	c #5B2F2F",
"( 	c #7B2F2F",
"_ 	c #8C3030",
": 	c #5F6463",
"< 	c #751B1B",
"[ 	c #933535",
"} 	c #983636",
"| 	c #9A3636",
"1 	c #9E3737",
"2 	c #505050",
"3 	c #2E2B2A",
"4 	c #2A2825",
"5 	c #6B302F",
"6 	c #7F3030",
"7 	c #7E3030",
"8 	c #611615",
"9 	c #B1B1B1",
"0 	c #ACACAC",
"a 	c #372E2F",
"b 	c #3D2F2F",
"c 	c #362F2F",
"d 	c #953434",
"e 	c #2F2F2E",
"f 	c #DADADA",
"g 	c #151412",
"h 	c #2E302F",
"i 	c #5D2F2F",
"j 	c #803030",
"k 	c #B0B0B0",
"l 	c #ADAEAE",
"m 	c #643D2B",
"n 	c #93502F",
"o 	c #91502F",
"p 	c #5D4031",
"q 	c #583427",
"r 	c #C7C8C8",
"s 	c #12120F",
"t 	c #A5A4A4",
"u 	c #242F2E",
"v 	c #813030",
"w 	c #3D2F2E",
"x 	c #141412",
"y 	c #FFFFFF",
"z 	c #190000",
"A 	c #A26140",
"B 	c #A06040",
"C 	c #563427",
"D 	c #1F2F2E",
"E 	c #6D2F30",
"F 	c #7F4020",
"G 	c #843C0D",
"H 	c #967E78",
"I 	c #FAFDFD",
"J 	c #C2AEA9",
"K 	c #8C3F00",
"L 	c #914B1F",
"M 	c #945536",
"N 	c #985839",
"O 	c #8C4D2E",
"P 	c #844623",
"Q 	c #2C3030",
"R 	c #3C302D",
"S 	c #613927",
"T 	c #7C3030",
"U 	c #422E2F",
"V 	c #5A352A",
"W 	c #804020",
"X 	c #771800",
"Y 	c #7A3D20",
"Z 	c #9C9FA0",
"` 	c #B5B0AF",
" .	c #995E42",
"..	c #7B3A18",
"+.	c #9A5E40",
"@.	c #AEA5A3",
"#.	c #0B0A0A",
"$.	c #4D3128",
"%.	c #9A5A3A",
"&.	c #8E4B2A",
"*.	c #272D30",
"=.	c #612E30",
"-.	c #84411F",
";.	c #7F3F1F",
">.	c #5F5754",
",.	c #919595",
"'.	c #6F473A",
").	c #7F3E1C",
"!.	c #6C3720",
"~.	c #7C8587",
"{.	c #692E08",
"].	c #302F2F",
"^.	c #CACACA",
"/.	c #6E4837",
"(.	c #A36343",
"_.	c #7B3D1E",
":.	c #6E2F30",
"<.	c #823030",
"[.	c #442E2F",
"}.	c #7D3F21",
"|.	c #83411F",
"1.	c #83401D",
"2.	c #995939",
"3.	c #A46343",
"4.	c #A46342",
"5.	c #A76441",
"6.	c #A16040",
"7.	c #4A322A",
"8.	c #C6C6C6",
"9.	c #6D4736",
"0.	c #A26242",
"a.	c #783C1F",
"b.	c #712F30",
"c.	c #532F2F",
"d.	c #85411E",
"e.	c #72402A",
"f.	c #463630",
"g.	c #4F382F",
"h.	c #4F342B",
"i.	c #D7D7D7",
"j.	c #6E4836",
"k.	c #A36342",
"l.	c #7F3E1D",
"m.	c #42342B",
"n.	c #833030",
"o.	c #633926",
"p.	c #85411F",
"q.	c #86421E",
"r.	c #594E2F",
"s.	c #18242E",
"t.	c #937331",
"u.	c #232A2E",
"v.	c #E3E2E2",
"w.	c #8E4F30",
"x.	c #46342B",
"y.	c #212F2E",
"z.	c #8B6D2E",
"A.	c #00092D",
"B.	c #D5A535",
"C.	c #2C292F",
"D.	c #563327",
"E.	c #925334",
"F.	c #955536",
"G.	c #7D3C1B",
"H.	c #49332C",
"I.	c #623828",
"J.	c #7C2F2F",
"K.	c #903334",
"L.	c #903434",
"M.	c #842834",
"N.	c #9C7A31",
"O.	c #29262E",
"P.	c #555353",
"Q.	c #BAB9B9",
"R.	c #9F5F3F",
"S.	c #49322A",
"T.	c #85421E",
"U.	c #43332C",
"V.	c #30312C",
"W.	c #782F30",
"X.	c #9A3737",
"Y.	c #9C3636",
"Z.	c #686767",
"`.	c #939393",
" +	c #312F2F",
".+	c #313332",
"++	c #6F4836",
"@+	c #985C3F",
"#+	c #733C22",
"$+	c #814020",
"%+	c #8D4C2C",
"&+	c #8D573C",
"*+	c #7E2E32",
"=+	c #973636",
"-+	c #8D3535",
";+	c #9B3636",
">+	c #202D2F",
",+	c #42352D",
"'+	c #684528",
")+	c #624133",
"!+	c #9F5E3E",
"~+	c #563428",
"{+	c #793E22",
"]+	c #82401F",
"^+	c #8A4B2C",
"/+	c #774B35",
"(+	c #4C3529",
"_+	c #5A3728",
":+	c #59322C",
"<+	c #4D332B",
"[+	c #573728",
"}+	c #372F2D",
"|+	c #9D9C9C",
"1+	c #838282",
"2+	c #1F2B2C",
"3+	c #80401F",
"4+	c #55352A",
"5+	c #2E2F2E",
"6+	c #35302E",
"7+	c #934F2E",
"8+	c #A36241",
"9+	c #7E3D1C",
"0+	c #A06141",
"a+	c #884522",
"b+	c #52352A",
"c+	c #593629",
"d+	c #272D2E",
"e+	c #965535",
"f+	c #663826",
"g+	c #4E3826",
"h+	c #603F23",
"i+	c #4B3A2B",
"j+	c #45362A",
"k+	c #4D2F25",
"l+	c #663927",
"m+	c #643826",
"n+	c #965331",
"o+	c #363230",
"p+	c #6C3B26",
"q+	c #4D342B",
"r+	c #363332",
"s+	c #F8F8F8",
"t+	c #282D2E",
"u+	c #6F4827",
"v+	c #6C4626",
"w+	c #332F2B",
"x+	c #AFAFAF",
"y+	c #3B4B33",
"z+	c #222D2E",
"A+	c #81523B",
"B+	c #5B341E",
"C+	c #214C8A",
"D+	c #717270",
"E+	c #292805",
"F+	c #63696E",
"G+	c #666B74",
"H+	c #533A29",
"I+	c #543500",
"J+	c #634020",
"K+	c #5E412A",
"L+	c #372E27",
"M+	c #272D2F",
"N+	c #282D2F",
"O+	c #2B2E2E",
"P+	c #EBEBEB",
"Q+	c #6F6E6E",
"R+	c #2B3D2F",
"S+	c #A76442",
"T+	c #803E1C",
"U+	c #3F2900",
"V+	c #2761B3",
"W+	c #285FAE",
"X+	c #23467E",
"Y+	c #27314A",
"Z+	c #2F323B",
"`+	c #2C6FCF",
" @	c #413D50",
".@	c #333030",
"+@	c #6C4728",
"@@	c #6D4727",
"#@	c #563A22",
"$@	c #38322E",
"%@	c #2D2B2A",
"&@	c #5D5B5B",
"*@	c #FBFBFB",
"=@	c #724A37",
"-@	c #A16141",
";@	c #905132",
">@	c #793D1B",
",@	c #332700",
"'@	c #2761B2",
")@	c #285DAA",
"!@	c #2B66BD",
"~@	c #2D6BC7",
"{@	c #2D6DCA",
"]@	c #265DAA",
"^@	c #564044",
"/@	c #82513A",
"(@	c #2F2F2F",
"_@	c #2B2D2E",
":@	c #372513",
"<@	c #433123",
"[@	c #43464B",
"}@	c #41464B",
"|@	c #2C2B28",
"1@	c #0F0E0E",
"2@	c #E3E3E3",
"3@	c #E2E1E1",
"4@	c #7F4F39",
"5@	c #9E5E3E",
"6@	c #823F1C",
"7@	c #033857",
"8@	c #235599",
"9@	c #2C426B",
"0@	c #275CA7",
"a@	c #2C68C1",
"b@	c #2960B0",
"c@	c #265CA7",
"d@	c #544045",
"e@	c #A76240",
"f@	c #2B2929",
"g@	c #9DA1A8",
"h@	c #A9AEB6",
"i@	c #A8ADB5",
"j@	c #ABB0B8",
"k@	c #626972",
"l@	c #C9CBCE",
"m@	c #E6E6E6",
"n@	c #D0D0D3",
"o@	c #000000",
"p@	c #6B3C29",
"q@	c #864423",
"r@	c #87421D",
"s@	c #202F34",
"t@	c #2E3340",
"u@	c #2F2E28",
"v@	c #23569B",
"w@	c #814320",
"x@	c #884523",
"y@	c #0C0B0B",
"z@	c #CFCFD2",
"A@	c #D5D5D8",
"B@	c #D4D4D7",
"C@	c #CFCFD3",
"D@	c #A7ACB4",
"E@	c #C8C9CC",
"F@	c #BEC0C4",
"G@	c #D2D2D5",
"H@	c #7F7976",
"I@	c #593B23",
"J@	c #282E2E",
"K@	c #222E2F",
"L@	c #323030",
"M@	c #312A1C",
"N@	c #312B17",
"O@	c #242E2F",
"P@	c #001214",
"Q@	c #B2B2B4",
"R@	c #DBDBDF",
"S@	c #D9D9DC",
"T@	c #A7A6A9",
"U@	c #ABABAD",
"V@	c #959597",
"W@	c #262626",
"X@	c #2A2D2E",
"Y@	c #EDEDEF",
"Z@	c #DADADD",
"`@	c #0B0A09",
" #	c #898989",
".#	c #B6B6B6",
"+#	c #FBFBFC",
"@#	c #CDCDD1",
"##	c #D1D1D4",
"$#	c #F8F8F9",
"%#	c #EEEEEF",
"&#	c #2B2928",
"*#	c #2E2C2C",
"=#	c #070707",
"-#	c #FCFCFC",
";#	c #F5F5F5",
">#	c #0A0908",
",#	c #2C2928",
". . + . . . . . . . . . . . . . @ # . . . . . . . . . . . . + . . . + ",
". . . + . . . . . + . . . . . . . . . . . . . . . . . # . + + . . . . ",
". . . # # . . . + . . . . . . . . . . . . . . . . . # . . + . . . . . ",
". . # # . . . + + . . # . . . . . . . . . . . . . . . . . . . . . . # ",
". . . . . . + + + # . . # . . . . . . . . + . . $ $ . . . . . . . . . ",
". . + + + + + # % & * * = % - . . . . . . . + $ $ . $ $ . . . . . . + ",
". + + . . # # - ; > , ' ) ! ~ { ] . . $ $ + + $ ^ $ ^ ^ ^ . . . . + + ",
". . . . . . - / ( _ : < [ } | 1 ; & 2 3 $ $ . ^ . ^ . 4 . @ . . . . . ",
". . . . . & 5 6 7 8 9 0 7 a b c d e f g . $ ^ + 4 . 4 # ^ ^ . . . . . ",
". . . . h i j 7 j 8 k l m n o n p q r s . . ^ # + . . ^ ^ # . . . . t ",
". . . . u v 7 6 w x k y z A B B B B C # ^ ^ . . + + . . . . . . . . . ",
". . . . D v 7 E F G H I J K L M N O P Q # ^ ^ . . + + . . . . . . . . ",
". . . R S T 7 j U V W X Y Z `  ...+.@.#.. . . . . . + . . . . # . . . ",
". . $.%.&.*.v 7 6 =.-.W ;.>.,.'.).!.~.{.].. . . . . . . . . # . . . ^.",
". # /.B (._.:.7 7 <.[.}.W |.1.2.3.4.5.6.7.. . . . . . . . . . . . # 8.",
". . 9.B 0.a.b.7 7 7 7 c.d.W W ;.e.f.f.g.h.. . . . . . . . . . . . . i.",
". . j.B k.l.m.<.7 7 7 n.c.o.p.q.r.e s.t.u.. . . . . . . . . . . . . v.",
". . C B w.W x.<.7 7 7 7 7 <.y.e z.e A.B.C.. . . . . . . . . . . . . v.",
". . D.E.F.G.H.I.7 <.7 7 J.[ K.L.M.z.N.O.. . . . # . . . . @ . . . P.Q.",
". . j.B B R.S.T.U.V.W.7 X.} } } Y.e . . . . . . . . . . . . . . . Z.`.",
" +.+++B B @+#+W $+%+&+*+=+-+;+Y.! >+. . . . . . . . . . . . . . . Z.`.",
",+'+)+B B !+~+{+]+^+B /+(+_+:+<+[+-.}+. . . . . . . . . . . . . . |+1+",
". & 2+B 0.3+4+5+6+7+8+8+l.9+0+a+b+W c+. . . . . . . . . . . . . . y . ",
". . d+e+0.6.f+g+h+i+j+k+l+m+n+o+p+l+q+. . . . . . ^ . . . . r+. s+. r+",
". . . e |.W -.>+e t+u+u+v+w+e e . . . . . . . . + + . . . . . y x+. . ",
". . . $ y+z+A+B+C+D+E+F+G+H+I+J+K+L+M+N+O++ + + . . . . r+. P+y Q++ . ",
". . + ^ R+S+0.T+U+V+W+X+Y+Z+`+ @.@+@@@@@#@$@%@{ . . # . &@*@y . r++ + ",
". + . . =@-@;@>@,@'@)@!@~@{@]@^@/@(@(@_@:@<@[@}@|@1@. 2@y y 3@. . . . ",
"+ . . . 4@5@6@7@8@9@)@0@a@b@c@d@e@e . f@g@h@i@j@k@l@m@n@o@*@{ . . . . ",
"+ @ . . p@q@r@s@t@u@W+W+W+W+v@w@x@o@y@z@A@B@B@A@C@D@E@F@G@H@I@. + . . ",
". . . . J@K@K@# . L@M@M@M@M@N@O@P@Q@R@B@B@B@B@B@B@S@T@U@V@W@X@. . . @ ",
". # . . . . . . . . . . . . . . . e Y@B@B@B@B@B@B@Z@`@. . + + . . . . ",
". . # . . . . . . . . . . . @ # . .  #.#+#@#######$#%#&#+ . @ . . . + ",
". . . # . . . . . . . . . # # . . . . *#=#-#;#;#;##.>#].+ . . . . + + ",
". . . . . . + + + . . . . . . . . . . . . &#,#,#,## . . . . . . . + . "};
