/* XPM */
static char * right_attack_1_xpm[] = {
"35 35 373 2",
"  	c None",
". 	c #33302F",
"+ 	c #2F2D2D",
"@ 	c #44352C",
"# 	c #2C2A2A",
"$ 	c #222121",
"% 	c #232120",
"& 	c #211F1E",
"* 	c #543428",
"= 	c #5D3526",
"- 	c #603828",
"; 	c #4B332B",
"> 	c #2A2E2F",
", 	c #31302F",
"' 	c #535352",
") 	c #E3E3E3",
"! 	c #FFFFFF",
"~ 	c #414141",
"{ 	c #565656",
"] 	c #2B2B2A",
"^ 	c #38302D",
"/ 	c #9C5B3B",
"( 	c #A26242",
"_ 	c #824323",
": 	c #623828",
"< 	c #37312D",
"[ 	c #6B4625",
"} 	c #392E26",
"| 	c #1B1918",
"1 	c #E5E5E5",
"2 	c #E4E4E7",
"3 	c #D7D7DA",
"4 	c #D2D2D6",
"5 	c #D1D1D4",
"6 	c #E5E5E7",
"7 	c #F0F0F3",
"8 	c #131211",
"9 	c #3F342F",
"0 	c #A26141",
"a 	c #9A5B3B",
"b 	c #824120",
"c 	c #342F2E",
"d 	c #4A382C",
"e 	c #3F372C",
"f 	c #14322E",
"g 	c #152E2D",
"h 	c #2B2928",
"i 	c #F7F7F7",
"j 	c #CDCDD0",
"k 	c #D4D4D7",
"l 	c #666667",
"m 	c #4D4138",
"n 	c #302F2F",
"o 	c #292A2B",
"p 	c #2E2F2F",
"q 	c #39312B",
"r 	c #47372D",
"s 	c #603F24",
"t 	c #644235",
"u 	c #A26140",
"v 	c #A16141",
"w 	c #844323",
"x 	c #68372A",
"y 	c #5A3130",
"z 	c #8C3434",
"A 	c #963535",
"B 	c #9E3737",
"C 	c #513030",
"D 	c #583130",
"E 	c #3B302F",
"F 	c #2E302F",
"G 	c #777779",
"H 	c #D6D6D9",
"I 	c #D2D2D4",
"J 	c #B7B7BA",
"K 	c #262B2C",
"L 	c #5B3D24",
"M 	c #6E4727",
"N 	c #634228",
"O 	c #36312E",
"P 	c #1D2B2C",
"Q 	c #A36241",
"R 	c #A06040",
"S 	c #42352F",
"T 	c #7E3030",
"U 	c #983636",
"V 	c #442120",
"W 	c #823131",
"X 	c #973636",
"Y 	c #993636",
"Z 	c #953636",
"` 	c #813434",
" .	c #32302F",
"..	c #282625",
"+.	c #312E2D",
"@.	c #232020",
"#.	c #6B6B6B",
"$.	c #D9D9DC",
"%.	c #D8D8DB",
"&.	c #B7BAC1",
"*.	c #B6B9BF",
"=.	c #6D7580",
"-.	c #6E7078",
";.	c #593F2C",
">.	c #46362D",
",.	c #292E2F",
"'.	c #2C2E2F",
").	c #242A2D",
"!.	c #A46342",
"~.	c #683C2A",
"{.	c #6F2F30",
"].	c #883131",
"^.	c #9C9E9E",
"/.	c #AAA8A8",
"(.	c #7E2E2E",
"_.	c #623031",
":.	c #6F3133",
"<.	c #6C3133",
"[.	c #973435",
"}.	c #301A18",
"|.	c #C1C1C1",
"1.	c #1B1B19",
"2.	c #8D94A0",
"3.	c #8C939E",
"4.	c #8B939E",
"5.	c #8D95A0",
"6.	c #43494F",
"7.	c #494E54",
"8.	c #2D2B29",
"9.	c #2D2C2B",
"0.	c #262F30",
"a.	c #834120",
"b.	c #9F5F3F",
"c.	c #975738",
"d.	c #82401F",
"e.	c #5C2E30",
"f.	c #7A2E2E",
"g.	c #919292",
"h.	c #E6E6E6",
"i.	c #282B29",
"j.	c #884422",
"k.	c #844322",
"l.	c #884421",
"m.	c #2B312F",
"n.	c #090000",
"o.	c #1D1D1B",
"p.	c #543C2C",
"q.	c #392714",
"r.	c #393533",
"s.	c #343638",
"t.	c #302D2B",
"u.	c #813F1E",
"v.	c #7B3A18",
"w.	c #82411F",
"x.	c #332D2F",
"y.	c #432C2E",
"z.	c #3B1300",
"A.	c #A66545",
"B.	c #A05F3F",
"C.	c #614B45",
"D.	c #2F2C2B",
"E.	c #2B2E2E",
"F.	c #2F2F2F",
"G.	c #232A2D",
"H.	c #A56342",
"I.	c #83411F",
"J.	c #85411C",
"K.	c #96827D",
"L.	c #F9FAFA",
"M.	c #F4F0EF",
"N.	c #873000",
"O.	c #985531",
"P.	c #8D4E2F",
"Q.	c #9C5D3D",
"R.	c #985839",
"S.	c #804C33",
"T.	c #A36141",
"U.	c #9A5939",
"V.	c #3C312C",
"W.	c #63302F",
"X.	c #823F1A",
"Y.	c #865341",
"Z.	c #838281",
"`.	c #A6A2A1",
" +	c #9A532A",
".+	c #7C3C1B",
"++	c #9A847F",
"@+	c #1F1F1D",
"#+	c #9C5B3A",
"$+	c #29302D",
"%+	c #833030",
"&+	c #7D3030",
"*+	c #713D24",
"=+	c #804020",
"-+	c #814020",
";+	c #6A5F5C",
">+	c #C4C6C6",
",+	c #7D7270",
"'+	c #813F1C",
")+	c #572914",
"!+	c #ACB1B3",
"~+	c #552103",
"{+	c #312F2F",
"]+	c #242D2E",
"^+	c #7F4021",
"/+	c #6B371F",
"(+	c #7C3030",
"_+	c #492D30",
":+	c #985939",
"<+	c #A0603F",
"[+	c #4C322A",
"}+	c #2C2D2D",
"|+	c #793D20",
"1+	c #53322D",
"2+	c #803030",
"3+	c #62302F",
"4+	c #7E3E1E",
"5+	c #84492D",
"6+	c #5E4033",
"7+	c #614032",
"8+	c #52342A",
"9+	c #4C2F2F",
"0+	c #86421E",
"a+	c #393C30",
"b+	c #36332E",
"c+	c #24292E",
"d+	c #7B6230",
"e+	c #252B2D",
"f+	c #212D2E",
"g+	c #723C24",
"h+	c #2D302D",
"i+	c #34302D",
"j+	c #745D2E",
"k+	c #3C372E",
"l+	c #00002D",
"m+	c #DBAA35",
"n+	c #2B282E",
"o+	c #222E2F",
"p+	c #85421E",
"q+	c #613927",
"r+	c #702E30",
"s+	c #813030",
"t+	c #7F3030",
"u+	c #8D3333",
"v+	c #8E3333",
"w+	c #852B33",
"x+	c #94712E",
"y+	c #AD8833",
"z+	c #25232E",
"A+	c #84411F",
"B+	c #643927",
"C+	c #32302D",
"D+	c #6D302F",
"E+	c #9A3636",
"F+	c #372F2F",
"G+	c #683A26",
"H+	c #5E3728",
"I+	c #834222",
"J+	c #945A3D",
"K+	c #5D282E",
"L+	c #9F3737",
"M+	c #7A3334",
"N+	c #9C3637",
"O+	c #9B3636",
"P+	c #8E3435",
"Q+	c #6F3B25",
"R+	c #87421D",
"S+	c #272E2F",
"T+	c #50433A",
"U+	c #47332C",
"V+	c #7F4020",
"W+	c #824222",
"X+	c #9E5E3F",
"Y+	c #93593C",
"Z+	c #3D322A",
"`+	c #6D3C24",
" @	c #47322A",
".@	c #5D332D",
"+@	c #3F322B",
"@@	c #713C24",
"#@	c #55362A",
"$@	c #485734",
"%@	c #2D2F2F",
"&@	c #7C3F21",
"*@	c #824223",
"=@	c #834323",
"-@	c #7E3D1D",
";@	c #8D4A29",
">@	c #202E2F",
",@	c #30302F",
"'@	c #603829",
")@	c #582500",
"!@	c #864321",
"~@	c #A15F3E",
"{@	c #955737",
"]@	c #5D2D0E",
"^@	c #592A0B",
"/@	c #965433",
"(@	c #50392F",
"_@	c #30251E",
":@	c #979FAA",
"<@	c #2F3638",
"[@	c #31393C",
"}@	c #596067",
"|@	c #828994",
"1@	c #838A96",
"2@	c #283234",
"3@	c #343434",
"4@	c #2A2825",
"5@	c #22252C",
"6@	c #8F583D",
"7@	c #854322",
"8@	c #003E77",
"9@	c #5C5C55",
"0@	c #535450",
"a@	c #696D6F",
"b@	c #838B96",
"c@	c #848C98",
"d@	c #4E4D41",
"e@	c #3D3D3A",
"f@	c #322F2F",
"g@	c #8E573C",
"h@	c #663200",
"i@	c #2761B2",
"j@	c #275FAF",
"k@	c #2457A1",
"l@	c #203A6A",
"m@	c #1F3560",
"n@	c #2D6ECD",
"o@	c #554A68",
"p@	c #553C33",
"q@	c #3E342F",
"r@	c #A16040",
"s@	c #9A5A3B",
"t@	c #2B2800",
"u@	c #285EAD",
"v@	c #285DAA",
"w@	c #2961B2",
"x@	c #2D6AC6",
"y@	c #2D6BC7",
"z@	c #275BA6",
"A@	c #8E5532",
"B@	c #8B553B",
"C@	c #A66544",
"D@	c #7D3B18",
"E@	c #302D22",
"F@	c #274E8A",
"G@	c #2C4C83",
"H@	c #285EAB",
"I@	c #285CA8",
"J@	c #2D6AC5",
"K@	c #2960B1",
"L@	c #31487A",
"M@	c #955938",
"N@	c #3B322E",
"O@	c #7D3E1E",
"P@	c #7E4021",
"Q@	c #39302E",
"R@	c #2F2D22",
"S@	c #2F333F",
"T@	c #285CA7",
"U@	c #295BA5",
"V@	c #285AA4",
"W@	c #285DA9",
"X@	c #392E1D",
"Y@	c #7E3F1F",
"Z@	c #7D3E1F",
"`@	c #2F2F2E",
" #	c #2A2E2E",
".#	c #322F2E",
"+#	c #322D28",
"@#	c #322E2E",
"##	c #36302D",
". . + . . . . . . . . . . . . . @ # . . . . . . . . . . . . + . . . + ",
". . . + . . . . . + . . . . . . . . . . . . . . . . . # . + + . . . . ",
". . . # $ % % & + . . . . . . . . . . * = - ; . > , # . . + . . . . . ",
". . # ' ) ! ! ! ~ { ] # . . . . . . ^ / ( _ : < [ } . . . . . . . . # ",
". | 1 2 3 4 4 5 6 7 8 . # . . . . > 9 0 a b c d e f g . . . . . . . . ",
"h i j k k k k k k l m . n o p q r s t u v w x y z A B C D E F . . . + ",
"G 3 H k k k k k k I J K L M M N O P Q R u S T U V W X Y U Z `  ...+ + ",
"+.@.#.$.3 3 %.&.*.=.-.;.>.> ,.'.. ).!.R 0 ~.{.].^./.(._.:.<.[.}.|.1.. ",
". . % 2.3.4.5.6.7.8.9.+ + . . . . 0.a.b.c.d.e.f.g.h.i.j.k.l.m.n.) o.. ",
". . p.q.r.s.s.t.+.. . . + + . . . 0.u.a v.w.x.y.g.! z.A.v ( B./ C.D.. ",
". . E.F.. . . . . . . . . + . . . G.H.R a I.- J.K.L.M.N.O.P.Q.R.S., . ",
". . . . @ . . . . # . . . . . . . G.T.R U.V.W.V.X.Y.d.Z.`. +.+B.++@+. ",
". . . . . . . . . . . . . . . . . G.!.R #+$+%+&+*+=+-+;+>+,+'+)+!+~+{+",
". . . . . . . . . . . . . . . . . ]+^+v /+(+T T _+-+=+-+d.:+v v Q <+[+",
". # . . . . . + . . . . . . . . . + }+|+1+&+T T 2+3+-+=+=+4+5+6+6+7+8+",
". . # . . . + . . . . . . . @ # . . + ]+9+T T T T 2+_+*+w.0+a+b+c+d+e+",
". . . # . . + . . . . . . # # . . . . f+g+&+T T T T T (+h+i+j+k+l+m+n+",
". . . . . . + . . . . . . . . . . . . o+p+q+r+s+t+T (+u+v+v+w+x+y+z+. ",
". . . + + + # . . . . . . . . . . . . o+A+=+B+C+D+T X Y U U E+F+G+ .. ",
". . + + # # . . . . . . . . . . . . . F.H+=+-+I+J+K+L+M+N+O+P+Q+R+S++ ",
". T++ . . . . . . . . . . . . . . . . . U+V+=+W+X+Y+Z+`+ @.@+@@@#@. + ",
". . . . . . . $@. . . . . . . . . + + . %@&@=+*@R v =@-@R ;@>@ .. . . ",
". . . . . . $@$@. . . . . # . . + + # . ,@'@)@!@~@{@]@^@/@(@. . . . . ",
". . . . . T+$@T+. . $@$@# . . . + . . .  ._@:@<@[@}@|@1@2@3@. . . . . ",
". . . $@. T+T+. . $@$@4@4@. . . . . . 5@6@7@8@9@0@a@b@c@d@e@. . . . . ",
". . . $@$@# $@$@T+$@T+4@. . . . . . f@g@v _ h@i@j@k@l@m@n@o@p@. + + . ",
". . + T+$@T+# T+$@T+. . . . . . . . q@r@s@A+t@u@v@w@x@y@z@A@B@f@. + + ",
". + . . T+T+4@4@T+. . . . . . . . . q@C@D@E@F@G@H@I@J@K@L@M@~@N@. . . ",
"+ . . . . . . . . . . . . . . . . . ^ O@P@Q@R@S@T@U@V@W@X@Y@Z@^ . . . ",
"+ @ . . . . # . . . . . . . . . . . `@ # #. . .#+#+#+#+#@### #. + . . ",
". . . . . . . # . . . . . . . . . . . . . . . . . . . . . + + . . . @ ",
". # . . . . . . . . . . . . . . . + + . . . . . . . . . . + + . . . . ",
". . # . . . . . . . . . . . @ # . . + + . . . . . . . . + . @ . . . + ",
". . . # . . . . . . . . . # # . . . . + + . . . # . . + + . . . . + + ",
". . . . . . + + + . . . . . . . . . . . . . . . . # . . . . . . . + . "};
