/* XPM */
static char * right_attack_6_xpm[] = {
"35 35 367 2",
"  	c None",
". 	c #33302F",
"+ 	c #2F2D2D",
"@ 	c #44352C",
"# 	c #2C2A2A",
"$ 	c #1F2F2E",
"% 	c #1D2C2C",
"& 	c #485734",
"* 	c #42302F",
"= 	c #3A2F2E",
"- 	c #993636",
"; 	c #953636",
"> 	c #3E302F",
", 	c #43302F",
"' 	c #32302F",
") 	c #3F2F2E",
"! 	c #843131",
"~ 	c #983636",
"{ 	c #380000",
"] 	c #7F3131",
"^ 	c #9B3737",
"/ 	c #9A3636",
"( 	c #883434",
"_ 	c #6A3232",
": 	c #242121",
"< 	c #50433A",
"[ 	c #843030",
"} 	c #7D3030",
"| 	c #6F1918",
"1 	c #B5B5B5",
"2 	c #775F5F",
"3 	c #7C2F30",
"4 	c #803333",
"5 	c #863434",
"6 	c #9D3636",
"7 	c #2F2F2E",
"8 	c #ACACAC",
"9 	c #11110E",
"0 	c #2A2825",
"a 	c #352F2E",
"b 	c #7E3030",
"c 	c #5E1515",
"d 	c #B0B0B0",
"e 	c #40302E",
"f 	c #793D1E",
"g 	c #783C1F",
"h 	c #7A3D1E",
"i 	c #2D2B2F",
"j 	c #252E2F",
"k 	c #E4E4E4",
"l 	c #151412",
"m 	c #232F2E",
"n 	c #7F3030",
"o 	c #662F30",
"p 	c #451215",
"q 	c #DCDDDD",
"r 	c #5D0000",
"s 	c #A46443",
"t 	c #A26242",
"u 	c #A36343",
"v 	c #9D5B3A",
"w 	c #91502F",
"x 	c #726C6B",
"y 	c #252221",
"z 	c #242F2E",
"A 	c #813030",
"B 	c #6F2F30",
"C 	c #7A3F22",
"D 	c #7D3100",
"E 	c #FFFFFF",
"F 	c #F6F4F4",
"G 	c #944D1F",
"H 	c #A16141",
"I 	c #824222",
"J 	c #A06040",
"K 	c #6D4736",
"L 	c #232E2F",
"M 	c #43332B",
"N 	c #793030",
"O 	c #573629",
"P 	c #6C3C26",
"Q 	c #B5A4A0",
"R 	c #6D0000",
"S 	c #95837F",
"T 	c #8E746D",
"U 	c #A4603C",
"V 	c #814222",
"W 	c #975635",
"X 	c #977469",
"Y 	c #1F2424",
"Z 	c #2E2F2F",
"` 	c #864524",
" .	c #874320",
"..	c #2C2E2F",
"+.	c #803030",
"@.	c #632E30",
"#.	c #804020",
"$.	c #7A3D1D",
"%.	c #8D8D8D",
"&.	c #5D6060",
"*.	c #86421E",
"=.	c #2F2C2B",
"-.	c #E6E7E8",
";.	c #0A0908",
">.	c #684232",
",.	c #9E5E3E",
"'.	c #6D3924",
").	c #732F30",
"!.	c #7A3030",
"~.	c #46342B",
"{.	c #84411F",
"].	c #743818",
"^.	c #671F00",
"/.	c #985838",
"(.	c #99593A",
"_.	c #9A5A3A",
":.	c #874B29",
"<.	c #985839",
"[.	c #45322C",
"}.	c #D2D2D2",
"|.	c #702F30",
"1.	c #823030",
"2.	c #5D3629",
"3.	c #82411F",
"4.	c #7C3B1A",
"5.	c #975A3C",
"6.	c #8F573C",
"7.	c #8E553A",
"8.	c #4B332A",
"9.	c #7E3E1D",
"0.	c #4B332B",
"a.	c #3E332B",
"b.	c #1F282E",
"c.	c #2C2E2E",
"d.	c #2F302E",
"e.	c #00192D",
"f.	c #34302E",
"g.	c #644030",
"h.	c #9B5B3C",
"i.	c #7F3F1E",
"j.	c #45342B",
"k.	c #4F2D30",
"l.	c #663A26",
"m.	c #673A26",
"n.	c #8F722E",
"o.	c #07202E",
"p.	c #00002D",
"q.	c #DFAD35",
"r.	c #2A282D",
"s.	c #9C9C9B",
"t.	c #593629",
"u.	c #4D342B",
"v.	c #4C2F2E",
"w.	c #943535",
"x.	c #7C3030",
"y.	c #5D212F",
"z.	c #C0942D",
"A.	c #E2AF36",
"B.	c #0B182E",
"C.	c #E3E2E2",
"D.	c #925233",
"E.	c #3F312C",
"F.	c #81411F",
"G.	c #562F2F",
"H.	c #512E30",
"I.	c #7B2F2F",
"J.	c #8F3434",
"K.	c #963535",
"L.	c #9E3737",
"M.	c #26242E",
"N.	c #995C3F",
"O.	c #723B23",
"P.	c #403630",
"Q.	c #8F3334",
"R.	c #973636",
"S.	c #2E2F2E",
"T.	c #42352C",
"U.	c #694528",
"V.	c #704838",
"W.	c #9C5D3E",
"X.	c #4A322A",
"Y.	c #905131",
"Z.	c #A26140",
"`.	c #6E4236",
" +	c #563130",
".+	c #5B332E",
"++	c #6D3132",
"@+	c #5D3032",
"#+	c #63362B",
"$+	c #733C24",
"%+	c #2C2E30",
"&+	c #312F2F",
"*+	c #242C2F",
"=+	c #242926",
"-+	c #A16040",
";+	c #965637",
">+	c #7C3E20",
",+	c #37302E",
"'+	c #723C24",
")+	c #844221",
"!+	c #83401E",
"~+	c #82401E",
"{+	c #81492E",
"]+	c #844220",
"^+	c #53352A",
"/+	c #5A3629",
"(+	c #919090",
"_+	c #242B2D",
":+	c #9B5B3B",
"<+	c #45312C",
"[+	c #523823",
"}+	c #453223",
"|+	c #3C322F",
"1+	c #413530",
"2+	c #72402A",
"3+	c #83411F",
"4+	c #8D4D2D",
"5+	c #4B3830",
"6+	c #666464",
"7+	c #2D2F2F",
"8+	c #633624",
"9+	c #985636",
"0+	c #945333",
"a+	c #89421C",
"b+	c #30322F",
"c+	c #5E412B",
"d+	c #573408",
"e+	c #744A26",
"f+	c #533B28",
"g+	c #4B3A2C",
"h+	c #00272D",
"i+	c #804E37",
"j+	c #352F2D",
"k+	c #202C2F",
"l+	c #242E30",
"m+	c #211E18",
"n+	c #99A1AC",
"o+	c #39322D",
"p+	c #704927",
"q+	c #4A3422",
"r+	c #3E4D32",
"s+	c #86533A",
"t+	c #A66443",
"u+	c #7B3B14",
"v+	c #364776",
"w+	c #184584",
"x+	c #2B4E88",
"y+	c #59637A",
"z+	c #5A5B56",
"A+	c #261A00",
"B+	c #255BA7",
"C+	c #453C44",
"D+	c #4D392A",
"E+	c #644124",
"F+	c #5D402A",
"G+	c #5E402A",
"H+	c #433328",
"I+	c #363332",
"J+	c #394130",
"K+	c #A36241",
"L+	c #7E3D1C",
"M+	c #3C2D13",
"N+	c #275FAF",
"O+	c #285DAA",
"P+	c #2B66BD",
"Q+	c #2D6CC9",
"R+	c #2D6CCA",
"S+	c #235DAB",
"T+	c #9D5E3A",
"U+	c #83513A",
"V+	c #292D2E",
"W+	c #272D2E",
"X+	c #604127",
"Y+	c #6E4726",
"Z+	c #3B3532",
"`+	c #323333",
" @	c #322F2E",
".@	c #F5F5F5",
"+@	c #7F4F39",
"@@	c #834120",
"#@	c #3F3A4F",
"$@	c #2E2B18",
"%@	c #2761B2",
"&@	c #285EAD",
"*@	c #2D6BC6",
"=@	c #2A63B7",
"-@	c #18559B",
";@	c #995C3C",
">@	c #9C5E40",
",@	c #302F2E",
"'@	c #69707A",
")@	c #7B838E",
"!@	c #7F8792",
"~@	c #818995",
"{@	c #40454A",
"]@	c #41464C",
"^@	c #2B2926",
"/@	c #2C2B28",
"(@	c #2B2C2B",
"_@	c #7A4B35",
":@	c #85411D",
"<@	c #1E354C",
"[@	c #274D87",
"}@	c #2D436D",
"|@	c #285EAC",
"1@	c #275DAB",
"2@	c #2B67C0",
"3@	c #2760B0",
"4@	c #4E2900",
"5@	c #995838",
"6@	c #925030",
"7@	c #1A1A17",
"8@	c #818183",
"9@	c #DBDBDD",
"0@	c #D8D8DA",
"a@	c #DAD9DC",
"b@	c #A8ADB5",
"c@	c #9FA5AF",
"d@	c #5F666F",
"e@	c #52585F",
"f@	c #544E4E",
"g@	c #3B312A",
"h@	c #41352E",
"i@	c #37302D",
"j@	c #3D312D",
"k@	c #33302E",
"l@	c #2F3239",
"m@	c #2E3547",
"n@	c #2E3546",
"o@	c #2E3648",
"p@	c #503428",
"q@	c #48332B",
"r@	c #220000",
"s@	c #D0D0D3",
"t@	c #C9C9CC",
"u@	c #D5D5D8",
"v@	c #D4D4D7",
"w@	c #D1D1D4",
"x@	c #D5D5D9",
"y@	c #717173",
"z@	c #312F2D",
"A@	c #36312E",
"B@	c #312F2E",
"C@	c #30302F",
"D@	c #333231",
"E@	c #000000",
"F@	c #E4E4E6",
"G@	c #D2D2D5",
"H@	c #DBDBDE",
"I@	c #040404",
"J@	c #312E2D",
"K@	c #C7C7C7",
"L@	c #FBFBFB",
"M@	c #D3D3D6",
"N@	c #CACACD",
"O@	c #2C2928",
"P@	c #292727",
"Q@	c #2B2929",
"R@	c #A8A8A7",
"S@	c #FBFBFC",
"T@	c #F7F7F8",
"U@	c #A8A8A8",
"V@	c #A5A5A5",
"W@	c #2B2928",
"X@	c #030303",
"Y@	c #0B0A09",
"Z@	c #080707",
". . + . . . . . . . . . . . . . @ # . . . . . . . . . . . . + . . . + ",
". . . + . . . . . + . . . . . . . . . . . . . . . . . # . + + . . . . ",
". . . # # . . . + . . . . . . . . . . . . . . . . . # . . + . . . . . ",
". . # # . . . + + . . # . . . . . . . . . . . . . . . . . . . . . . # ",
". . . . . . + + + # $ $ % . . . . . . . . + . . & & . . . . . . . . . ",
". . + + + + + # * = - - ; > , . ' . . . . . + & & . & & . . . . . . + ",
". + + . . # # ) ! ~ { ] ^ / / ( _ . : & & + + & < & < < < . . . . + + ",
". . . . . . ) [ } | 1 2 3 4 5 5 6 7 8 9 & & . < . < . 0 . @ . . . . . ",
". . . . . a b b b c d 1 e f g h i j k l . & < + 0 . 0 # < < . . . . . ",
". . . . m [ b n o p d q r s t u v w x y . . < # + . . < < # . . . . . ",
". . . . z A b B C D d E F G H I t J K # < < . . + + . . . . . . . . . ",
". . . L M [ b N O P D Q R S T U V W X Y # < < . . + + . . . . . . . . ",
". . Z `  ...+.b +.@.#.#.$.%.E &.*.=.-.;.. . . . . . + . . . . # . . . ",
". . >.H ,.'.).b b !.~.{.#.].^./.(._.:.<.[.. . . . . . . . . # . . . }.",
". # K J t g |.b b b 1.2.3.#.#.4.5.6.6.7.8.. . . . . . . . . . . . # . ",
". . K J t 9.0.A b b b b a.{.#.3.b.c.d.e.f.. . . . . . . . . . . . . # ",
". . g.H h.i.j.[ b b b b b k.l.m.n.o.p.q.r.. . . . . . . . . . . . . s.",
". . t.#.#.#.u.v.b b b b b w.x.b y.z.A.B.. . . . . . . . . . . . . . C.",
". . g.H t D.E.F.G.H.A I.J.K.- - L.o.M.. . . . . # . . . . @ . . . . . ",
". ' K J J N.O.#.3. .P.Q.~ R.~ ~ - S.. . . . . . . . . . . . . . . . + ",
"T.U.V.J J W.X.*.#.Y.Z.`. +.+++@+#+$+%+. . . . . . . . . . . . . . . + ",
"&+*+=+J -+;+>+,+'+)+Z.W !+~+{+]+^+#./+. . . . . . . . . . . . . . (+. ",
". . _+H J :+<+[+}+|+1+2+3.3+4+5+3+3+/+. . . . . . . . . . . . . . 6+. ",
". . 7+8+9+0+a+b+c+d+e+f+g+h+i+j+k+l+7+. . . . . . < . . . . . . . . . ",
". . . & 7 7 7 7 m+n+7 7 o+p+p+q+7+7 . . . . . . + + . . . . . . . . . ",
". . . & r+s+t+u+v+w+x+y+z+A+B+C+D+E+F+G+H+*++ + . . . . I+. I+. + + . ",
". . + < J+K+J L+M+N+O+P+Q+R+S+T+U+V+V+W+X+Y+Z+`+ @ @# . . .@. . . + + ",
". + . . +@,.@@#@$@%@O+&@*@=@-@;@>@,@. + '@)@!@~@{@]@^@/@(@. . . . . . ",
"+ . . . _@/.:@<@[@}@|@1@2@3@4@5@6@7@=.8@9@0@0@a@b@c@d@e@f@g@h@. . . . ",
"+ @ . . i@j@j@' k@l@m@m@n@o@p@q@r@s@t@u@v@v@v@v@v@w@x@y@+ z@A@. + . . ",
". . . . B@B@B@# . . . . . . C@,@D@E@F@G@v@v@v@v@v@H@I@J@. + + . . . @ ",
". # . . . . . . . . . . . . . . . + K@L@M@v@v@v@v@v@N@O@. + + . . . . ",
". . # . . . . . . . . . . . @ # . . P@Q@R@S@T@T@T@U@V@W@+ . @ . . . + ",
". . . # . . . . . . . . . # # . . . . + + X@Y@Y@Z@. . + + . . . . + + ",
". . . . . . + + + . . . . . . . . . . . . . . . . # . . . . . . . + . "};
