/* XPM */
static char * right_attack_2_xpm[] = {
"35 35 356 2",
"  	c None",
". 	c #33302F",
"+ 	c #2F2D2D",
"@ 	c #44352C",
"# 	c #2C2A2A",
"$ 	c #514F4F",
"% 	c #504F4E",
"& 	c #393636",
"* 	c #3B3A3A",
"= 	c #5D5B5B",
"- 	c #5B5A59",
"; 	c #565554",
"> 	c #CBCACA",
", 	c #CECECE",
"' 	c #FFFFFF",
") 	c #FDFDFE",
"! 	c #DADADB",
"~ 	c #CACACB",
"{ 	c #767676",
"] 	c #595858",
"^ 	c #515050",
"/ 	c #C5C4C4",
"( 	c #E3E3E3",
"_ 	c #FAFAFB",
": 	c #D8D8D8",
"< 	c #A6A6A6",
"[ 	c #323030",
"} 	c #8A8A8A",
"| 	c #D7D7D7",
"1 	c #FBFBFB",
"2 	c #ACABAD",
"3 	c #797878",
"4 	c #E4E4E4",
"5 	c #EDEDED",
"6 	c #F9F9F9",
"7 	c #FBFBFC",
"8 	c #A9A9AA",
"9 	c #353231",
"0 	c #C4C4C4",
"a 	c #F8F8F8",
"b 	c #F0F0F0",
"c 	c #DADADA",
"d 	c #90908F",
"e 	c #949393",
"f 	c #939393",
"g 	c #787777",
"h 	c #706F6F",
"i 	c #989D93",
"j 	c #D0D2CE",
"k 	c #ECECEC",
"l 	c #F2F2F3",
"m 	c #615F60",
"n 	c #CDCDCD",
"o 	c #DBDBDB",
"p 	c #898888",
"q 	c #4B4A49",
"r 	c #485734",
"s 	c #50433A",
"t 	c #9F9E9E",
"u 	c #E8E8E9",
"v 	c #626061",
"w 	c #777676",
"x 	c #B4B4B4",
"y 	c #7E7D7D",
"z 	c #383737",
"A 	c #ABAAAA",
"B 	c #B5B4B7",
"C 	c #9F9F9F",
"D 	c #A5A5A5",
"E 	c #555353",
"F 	c #EBEBEB",
"G 	c #E8E8EA",
"H 	c #393635",
"I 	c #ECECEE",
"J 	c #696869",
"K 	c #30302F",
"L 	c #292F2E",
"M 	c #633231",
"N 	c #653231",
"O 	c #282F2E",
"P 	c #37332C",
"Q 	c #8C8B8B",
"R 	c #EDEDEE",
"S 	c #A2A1A3",
"T 	c #6B3131",
"U 	c #923535",
"V 	c #903434",
"W 	c #943535",
"X 	c #913535",
"Y 	c #2F302F",
"Z 	c #A1A0A2",
"` 	c #63302F",
" .	c #7D3030",
"..	c #7F2E2E",
"+.	c #6E5A5A",
"@.	c #7F2F2F",
"#.	c #953535",
"$.	c #9A3636",
"%.	c #993636",
"&.	c #7C3131",
"*.	c #5A5B5B",
"=.	c #2F2D2C",
"-.	c #F4F4F4",
";.	c #64302F",
">.	c #7E3030",
",.	c #622423",
"'.	c #D6D6D6",
").	c #583E3E",
"!.	c #613628",
"~.	c #613728",
"{.	c #64322C",
"].	c #705757",
"^.	c #D0D0D0",
"/.	c #282625",
"(.	c #8D8C8C",
"_.	c #B9B9BC",
":.	c #2C302F",
"<.	c #763030",
"[.	c #753030",
"}.	c #4B2323",
"|.	c #99918F",
"1.	c #9F5F40",
"2.	c #9E5F3F",
"3.	c #8C4F31",
"4.	c #756D6B",
"5.	c #2E2B2A",
"6.	c #BDBDBD",
"7.	c #D4D4D7",
"8.	c #4C352A",
"9.	c #803030",
"0.	c #603629",
"a.	c #7F3D17",
"b.	c #BAB1AF",
"c.	c #E8E3E2",
"d.	c #915335",
"e.	c #995A3A",
"f.	c #925233",
"g.	c #7D4B34",
"h.	c #302F2F",
"i.	c #E6E5E5",
"j.	c #6C402C",
"k.	c #904F2F",
"l.	c #5E322C",
"m.	c #7F3030",
"n.	c #60332D",
"o.	c #7F3F1E",
"p.	c #7F3D18",
"q.	c #848484",
"r.	c #D3CDCC",
"s.	c #7A3F21",
"t.	c #7D4B36",
"u.	c #BCB7B6",
"v.	c #282525",
"w.	c #636261",
"x.	c #F5F5F5",
"y.	c #D3D3D6",
"z.	c #2D2D2E",
"A.	c #90583D",
"B.	c #A16141",
"C.	c #73422B",
"D.	c #773030",
"E.	c #743030",
"F.	c #6F3B26",
"G.	c #804020",
"H.	c #733A1E",
"I.	c #602A03",
"J.	c #945434",
"K.	c #925334",
"L.	c #7C482D",
"M.	c #77432D",
"N.	c #2F2F2F",
"O.	c #8A8989",
"P.	c #E0E0E2",
"Q.	c #9F9EA1",
"R.	c #7F4428",
"S.	c #6A312E",
"T.	c #742F30",
"U.	c #85482A",
"V.	c #6F4736",
"W.	c #704836",
"X.	c #71402B",
"Y.	c #2C2F2F",
"Z.	c #F6F6F6",
"`.	c #D5D5D8",
" +	c #A1A0A3",
".+	c #2D2E2F",
"++	c #844D33",
"@+	c #9A5A3A",
"#+	c #834221",
"$+	c #5C322D",
"%+	c #752F30",
"&+	c #62372A",
"*+	c #7B3F21",
"=+	c #5D3B29",
"-+	c #725B2E",
";+	c #423A2E",
">+	c #7B6230",
",+	c #ECECED",
"'+	c #706F70",
")+	c #2D2F2F",
"!+	c #7C452C",
"~+	c #965737",
"{+	c #884726",
"]+	c #553629",
"^+	c #6A322E",
"/+	c #8F3434",
"(+	c #7D3334",
"_+	c #7E3334",
":+	c #805430",
"<+	c #9F7C30",
"[+	c #917231",
"}+	c #302D2D",
"|+	c #E5E4E4",
"1+	c #B7B7B9",
"2+	c #4F433A",
"3+	c #292D2E",
"4+	c #91583D",
"5+	c #A06040",
"6+	c #8D563B",
"7+	c #713B23",
"8+	c #7A3F22",
"9+	c #6F3E27",
"0+	c #6C3530",
"a+	c #943636",
"b+	c #643131",
"c+	c #2A272E",
"d+	c #302E2F",
"e+	c #727171",
"f+	c #DFDFE1",
"g+	c #9A9A9C",
"h+	c #3C332E",
"i+	c #4E392A",
"j+	c #8A553B",
"k+	c #945739",
"l+	c #693925",
"m+	c #814020",
"n+	c #8C4D2E",
"o+	c #985D3E",
"p+	c #6A352E",
"q+	c #6B382A",
"r+	c #7B3331",
"s+	c #60332F",
"t+	c #31302F",
"u+	c #C2C1C1",
"v+	c #475634",
"w+	c #453C36",
"x+	c #5C4033",
"y+	c #A26241",
"z+	c #8F4F2F",
"A+	c #4C332A",
"B+	c #513629",
"C+	c #7A442C",
"D+	c #8D4C2B",
"E+	c #824120",
"F+	c #8F5538",
"G+	c #573529",
"H+	c #565555",
"I+	c #FDFDFD",
"J+	c #DEDEE0",
"K+	c #A8A8AB",
"L+	c #333132",
"M+	c #523B32",
"N+	c #965738",
"O+	c #945333",
"P+	c #653826",
"Q+	c #5B3A1B",
"R+	c #51361C",
"S+	c #583D26",
"T+	c #5A3A29",
"U+	c #613826",
"V+	c #7F4A31",
"W+	c #C3C3C3",
"X+	c #CECED0",
"Y+	c #3E3B3B",
"Z+	c #2A2825",
"`+	c #4D352C",
" @	c #69402E",
".@	c #403444",
"+@	c #6D737A",
"@@	c #71777C",
"#@	c #635F62",
"$@	c #5E595A",
"%@	c #593B0D",
"&@	c #563D2A",
"*@	c #4D3829",
"=@	c #3D322B",
"-@	c #3A3B3B",
";@	c #E1E1E1",
">@	c #F0F0F1",
",@	c #98989A",
"'@	c #2E2D2E",
")@	c #8E563C",
"!@	c #9A5939",
"~@	c #504260",
"{@	c #22559C",
"]@	c #20549D",
"^@	c #495C88",
"/@	c #465984",
"(@	c #2B64B9",
"_@	c #4B372D",
":@	c #3F342C",
"<@	c #503929",
"[@	c #9A908B",
"}@	c #B8B8BB",
"|@	c #5A3E33",
"1@	c #814524",
"2@	c #413E59",
"3@	c #295497",
"4@	c #285DAA",
"5@	c #2C68C2",
"6@	c #2B67BE",
"7@	c #29508D",
"8@	c #9D5F3F",
"9@	c #40312B",
"0@	c #3E3C3C",
"a@	c #E3E3E4",
"b@	c #716B69",
"c@	c #47342D",
"d@	c #6F3E28",
"e@	c #5D3727",
"f@	c #2E3442",
"g@	c #2C4575",
"h@	c #285EAD",
"i@	c #285FAE",
"j@	c #5F3B3A",
"k@	c #6F3F2A",
"l@	c #513429",
"m@	c #B6B5B8",
"n@	c #43342B",
"o@	c #2F2F2E",
"p@	c #313237",
"q@	c #303443",
"r@	c #352F2D",
"s@	c #2D2E2E",
"t@	c #302E2D",
"u@	c #AAAAAA",
"v@	c #F5F5F6",
"w@	c #D9D9DB",
"x@	c #B0AFAF",
"y@	c #2E2925",
"z@	c #464544",
"A@	c #EEEEEE",
"B@	c #E6E6E8",
"C@	c #D8D8DB",
"D@	c #EEEEEF",
"E@	c #3B3938",
"F@	c #A4A4A4",
"G@	c #DFDFE0",
"H@	c #EBEBEC",
"I@	c #CBCBCC",
"J@	c #C1C1C1",
"K@	c #A8A8A8",
"L@	c #383635",
"M@	c #3A3938",
"N@	c #383736",
"O@	c #343231",
". . + . . . . . . . . . . . . . @ # . . . . . . . . . . . . + . . . + ",
". . . + . . . . . + . . . . . . . . . . . . . . . . . # . + + . . . . ",
". . . # # . . . + . . . . . . . . . $ $ $ % & . . . # . . + . . . . . ",
". . # # . . . + + . . * = - ; > , , ' ' ' ) ! , ~ { - ] . . . . . . # ",
". . . . . . + + + ^ / ( ' ' ' ' ' ' ' ' ' ' ' ' ' ' ' _ : < . . . . . ",
". . + + + + [ } | 1 ' ' ' ' ' ' ' ' ' ' ' ' ' ' ' ' ' ' ' ' 2 . . . + ",
". + + . . 3 4 ' ' ' ' ' 1 5 5 5 5 5 5 6 ' ' ' ' ' ' ' ' ' ' 7 8 9 + + ",
". . . . 0 a ' b c d e f g . . . . . . h i j k ' ' ' ' ' ' ' ' l m . . ",
". . . n ' o p q . . . + + . . . . . . . . r s t 5 ' ' ' ' ' ' ' u v . ",
". w c x y . . . . . . . + + . . . . . . . . s # z A ' ' ' ' ' ' ' B 9 ",
"C D E . . . . . . . . . . + . . . . . # s s . . + z F ' ' ' ' ' ' G H ",
"g . . . @ . . . . # . . . . . . . . . . # s s . . + , ' ' ' ' ' ' I J ",
". . . . . . . . . . . . . K L M N O P . . . . . . . Q ' ' ' ' ' ' R S ",
". . . . . . . . . . . . K T U V W U X N Y . . . . . . k ' ' ' ' ' R Z ",
". # . . . . . + . . . K `  ...+.@.#.$.%.&.*.=.. . . = -.' ' ' ' ' R Z ",
". . # . . . + . . . K ;.>.>.,.'.).!.~.{.].^./.. . . (.' ' ' ' ' ' R _.",
". . . # . . + . . . :.<.>.[.}.| |.1.1.2.3.4.5.. . . 6.' ' ' ' ' ' R 7.",
". . . . . . + . . K 8.<.9.0.a.b.c.d.e.f.e.g.h.. . . i.' ' ' ' ' ' R 7.",
". . . + + + # . K j.k.l.m.[.n.o.p.q.r.s.t.u.v.. # w.x.' ' ' ' ' ' R y.",
". . + + # # . . z.A.B.C.D.>.E.F.G.H.I.J.K.L.M.N.. O.' ' ' ' ' ' ' P.Q.",
". s + . . . . . z.A.B.R.S.>.>.T.F.G.G.U.V.W.X.Y.. i.' ' ' ' ' ' Z.`. +",
". . . . . . . r .+++@+#+$+>.>.>.%+&+*+=+-+;+>+. O.' ' ' ' ' ' ' ,+7.'+",
". . . . . . r r )+!+~+{+]+^+D.>.m./+(+_+:+<+[+}+|+' ' ' ' ' ' ' `.1+9 ",
". . . . . s r 2+3+4+5+6+7+8+9+0+#.a+%.%.b+c+d+e+' ' ' ' ' ' ' f+7.g+. ",
". . . r . s s h+i+j+5+k+l+m+n+o+p+q+r+s+t+. . u+' ' ' ' ' ' Z.`.7.H . ",
". . . r r # r v+w+x+y+z+A+B+C+4+D+E+F+G++ + H+6 ' ' ' ' ' I+J+7.K+L+. ",
". . + s r s # s r M+N+O+P+Q+R+S+T+U+V+3++ # W+' ' ' ' ' ' ,+y.X+Y++ + ",
". + . . s s Z+Z+s . `+ @.@+@@@#@$@%@&@*@=@-@;@' ' ' ' ' >@7.7.,@. . . ",
"+ . . . . . . . . '@)@!@~@{@]@^@/@(@_@:@<@[@' ' ' ' ' >@7.7.}@. . . . ",
"+ @ . . . . # . . |@2.1@2@3@4@5@6@7@8@9@0@a@' ' ' ' >@7.7.`.b@. + . . ",
". . . . . . . # . c@d@e@f@g@h@i@h@j@k@l@(.' ' ' ' >@7.7.7.m@n@. . . @ ",
". # . . . . . . . t+o@K . p@q@q@q@r@s@t@u@' ' v@f+`.7.7.w@x@y@. . . . ",
". . # . . . . . . . . . . . @ # . . + + z@A@B@7.7.7.y.C@D@; @ . . . + ",
". . . # . . . . . . . . . # # . . . . + + E@F@G@H@,+I@J@K@. . . . + + ",
". . . . . . + + + . . . . . . . . . . . . . . L@M@N@O@. . . . . . + . "};
