/* XPM */
static char * right_attack_3_xpm[] = {
"35 35 328 2",
"  	c None",
". 	c #33302F",
"+ 	c #2F2D2D",
"@ 	c #94918F",
"# 	c #B1B1B1",
"$ 	c #B2B2B2",
"% 	c #8E8D90",
"& 	c #353231",
"* 	c #363332",
"= 	c #616060",
"- 	c #989797",
"; 	c #FFFFFF",
"> 	c #E8E8EA",
", 	c #8F8F8E",
"' 	c #919091",
") 	c #2C2A2A",
"! 	c #676665",
"~ 	c #D8D8DB",
"{ 	c #565554",
"] 	c #FAFAFA",
"^ 	c #F7F7F7",
"/ 	c #F8F8F8",
"( 	c #F3F3F3",
"_ 	c #D7D7D9",
": 	c #838282",
"< 	c #353434",
"[ 	c #393635",
"} 	c #F0F0F0",
"| 	c #8A8989",
"1 	c #FEFEFE",
"2 	c #5E5D5D",
"3 	c #50433A",
"4 	c #485734",
"5 	c #434140",
"6 	c #5A595A",
"7 	c #9E9E9E",
"8 	c #EEEEEE",
"9 	c #777676",
"0 	c #5B514A",
"a 	c #616062",
"b 	c #312F2F",
"c 	c #818080",
"d 	c #4A4948",
"e 	c #DEDEE1",
"f 	c #2A2825",
"g 	c #D0CFCE",
"h 	c #959597",
"i 	c #766F6B",
"j 	c #8A8A8C",
"k 	c #282D2D",
"l 	c #2B2F2E",
"m 	c #32302F",
"n 	c #E8E8E8",
"o 	c #44352C",
"p 	c #35302F",
"q 	c #48302F",
"r 	c #983536",
"s 	c #983636",
"t 	c #623131",
"u 	c #3E302F",
"v 	c #31302F",
"w 	c #605F5E",
"x 	c #E8E8E9",
"y 	c #2E302F",
"z 	c #823030",
"A 	c #393C3C",
"B 	c #7D2F2F",
"C 	c #993636",
"D 	c #7F3433",
"E 	c #3C3C3B",
"F 	c #28302F",
"G 	c #813030",
"H 	c #7E3030",
"I 	c #7C2F2F",
"J 	c #ACACAC",
"K 	c #666968",
"L 	c #4D2F2F",
"M 	c #322F2E",
"N 	c #272F2E",
"O 	c #903333",
"P 	c #858B8A",
"Q 	c #A1A1A1",
"R 	c #27302F",
"S 	c #7D3030",
"T 	c #7E2F2F",
"U 	c #515555",
"V 	c #985839",
"W 	c #9D5D3D",
"X 	c #9E5D3D",
"Y 	c #8D5235",
"Z 	c #714333",
"` 	c #AEADAD",
" .	c #26302F",
"..	c #7F3030",
"+.	c #4D312D",
"@.	c #723C22",
"#.	c #B0B1B1",
"$.	c #A1847C",
"%.	c #A36343",
"&.	c #925233",
"*.	c #A36241",
"=.	c #0D1E23",
"-.	c #413E3E",
";.	c #272D30",
">.	c #4A342A",
",.	c #843030",
"'.	c #66312E",
").	c #543629",
"!.	c #7D3200",
"~.	c #BAA7A3",
"{.	c #672B00",
"].	c #9E9492",
"^.	c #954300",
"/.	c #804020",
"(.	c #96512A",
"_.	c #938683",
":.	c #292D2E",
"<.	c #844A2E",
"[.	c #8C4927",
"}.	c #4E2D30",
"|.	c #82411F",
"1.	c #672F0E",
"2.	c #AFB1B2",
"3.	c #989595",
"4.	c #813F1C",
"5.	c #5C4B47",
"6.	c #BBBCBC",
"7.	c #242E2F",
"8.	c #C2C2C4",
"9.	c #0F282C",
"0.	c #643722",
"a.	c #512E30",
"b.	c #84411F",
"c.	c #8D4D2D",
"d.	c #A56443",
"e.	c #A66442",
"f.	c #A86442",
"g.	c #81401E",
"h.	c #535151",
"i.	c #919092",
"j.	c #142A2D",
"k.	c #A36141",
"l.	c #A26242",
"m.	c #6A3821",
"n.	c #773030",
"o.	c #4A2D30",
"p.	c #7F4020",
"q.	c #814020",
"r.	c #583125",
"s.	c #12292C",
"t.	c #04272C",
"u.	c #743D24",
"v.	c #7C7B7A",
"w.	c #909092",
"x.	c #162A2D",
"y.	c #A26140",
"z.	c #A06040",
"A.	c #803E1C",
"B.	c #462E2F",
"C.	c #502E2F",
"D.	c #683927",
"E.	c #7D3F21",
"F.	c #84692E",
"G.	c #000F2E",
"H.	c #5D4C2F",
"I.	c #20272E",
"J.	c #919194",
"K.	c #222E2F",
"L.	c #814121",
"M.	c #182E2F",
"N.	c #803030",
"O.	c #7C3030",
"P.	c #8A3333",
"Q.	c #632130",
"R.	c #CB9D2F",
"S.	c #CEA034",
"T.	c #E1E1E3",
"U.	c #1F352E",
"V.	c #965534",
"W.	c #44322C",
"X.	c #763D23",
"Y.	c #302E2E",
"Z.	c #9B3636",
"`.	c #152E2D",
" +	c #322F2F",
".+	c #9A9A9A",
"++	c #D3D3D6",
"@+	c #333331",
"#+	c #102A2C",
"$+	c #7E503A",
"%+	c #87421D",
"&+	c #824222",
"*+	c #975C3E",
"=+	c #943535",
"-+	c #593031",
";+	c #9F3737",
">+	c #9A3636",
",+	c #833335",
"'+	c #713C24",
")+	c #E2E2E4",
"!+	c #47372C",
"~+	c #403125",
"{+	c #8F583D",
"]+	c #975737",
"^+	c #693A26",
"/+	c #86421E",
"(+	c #9F5F40",
"_+	c #733E25",
":+	c #6D3A21",
"<+	c #62342A",
"[+	c #53352A",
"}+	c #753D23",
"|+	c #323030",
"1+	c #B4B3B3",
"2+	c #E3E3E5",
"3+	c #D3D3D7",
"4+	c #807F80",
"5+	c #424F33",
"6+	c #89553C",
"7+	c #A16141",
"8+	c #8D4C2C",
"9+	c #002B2E",
"0+	c #553D2A",
"a+	c #58362A",
"b+	c #6B4636",
"c+	c #905132",
"d+	c #83411E",
"e+	c #884728",
"f+	c #875238",
"g+	c #2A2F2F",
"h+	c #2B2F2F",
"i+	c #9B9B9B",
"j+	c #E6E6E8",
"k+	c #D4D4D7",
"l+	c #545354",
"m+	c #513228",
"n+	c #975534",
"o+	c #8E4D2C",
"p+	c #773D23",
"q+	c #5B3F2A",
"r+	c #553307",
"s+	c #744A26",
"t+	c #533D2A",
"u+	c #373129",
"v+	c #684638",
"w+	c #462F29",
"x+	c #969695",
"y+	c #E9E9EA",
"z+	c #323533",
"A+	c #3D3531",
"B+	c #5F4033",
"C+	c #202F3C",
"D+	c #84898F",
"E+	c #2B2E25",
"F+	c #5B6268",
"G+	c #5F483B",
"H+	c #644116",
"I+	c #5F3D15",
"J+	c #4D392C",
"K+	c #262C2E",
"L+	c #282A2C",
"M+	c #EBEBEC",
"N+	c #595758",
"O+	c #20282D",
"P+	c #995A3A",
"Q+	c #7D3E0E",
"R+	c #2760B1",
"S+	c #275FAF",
"T+	c #1B386A",
"U+	c #2C3E64",
"V+	c #2E60B1",
"W+	c #42528A",
"X+	c #423531",
"Y+	c #6C4728",
"Z+	c #603600",
"`+	c #42352C",
" @	c #E2E2E2",
".@	c #C6C6C9",
"+@	c #7B4D38",
"@@	c #7C3B1A",
"#@	c #173751",
"$@	c #285DAA",
"%@	c #2C68C0",
"&@	c #2D69C3",
"*@	c #2861B3",
"=@	c #7C4B24",
"-@	c #87533A",
";@	c #2D2E2D",
">@	c #EEEEEF",
",@	c #3B4044",
"'@	c #000000",
")@	c #C8C9C9",
"!@	c #CECED1",
"~@	c #D5D5D8",
"{@	c #CCCBCE",
"]@	c #623827",
"^@	c #723C24",
"/@	c #2E384F",
"(@	c #285DA9",
"_@	c #275FAE",
":@	c #2B2A27",
"<@	c #82401F",
"[@	c #00181A",
"}@	c #DADADD",
"|@	c #D7D7DA",
"1@	c #8A929E",
"2@	c #DDDCDF",
"3@	c #182A38",
"4@	c #2A2A29",
"5@	c #2F2F2E",
"6@	c #2E2F2E",
"7@	c #33302D",
"8@	c #D0D0D3",
"9@	c #D2D2D6",
"0@	c #A0A09F",
"a@	c #CDCDD0",
"b@	c #DFDFE1",
"c@	c #949493",
"d@	c #CFCFD3",
"e@	c #D0D0D4",
"f@	c #F2F2F3",
"g@	c #69696B",
"h@	c #6C6B6B",
"i@	c #252222",
"j@	c #B6B6B6",
"k@	c #B5B5B5",
"l@	c #5B5A59",
"m@	c #1F1D1D",
". . + . . . . . . . . . . . . . @ # $ $ $ % . . . & . . . . + . . . + ",
". . . + . . . * . = - - - ; ; ; ; ; ; ; ; ; ; ; > , - ' . + + . . . . ",
". . . ) ) . . ! ; ; ; ; ; ; ; ; ; ; ; ; ; ; ; ; ; ; ; ; ; ~ . . . . . ",
". . ) ) { ] ; ; ; ^ / / ( . . . . . . ; / ; ; ; ; ; ; ; ; ; _ . . . ) ",
". . . ; ; ; : < < ) . . ) . . . . . . . . < [ } ; ; ; ; ; ; ; _ . . . ",
"* | / 1 2 + + ) ) . 3 . . ) . . . . . . . . + 4 4 5 ; ; ; ; ; ; 6 . + ",
"7 8 9 . . ) ) . . . . . . . . . . . . 4 4 + + 4 3 4 0 ; ; ; ; ; ] a b ",
"c . . . . . . . . . . + . . . . . . . . 4 4 . 3 . 3 * d ; ; ; ; ; e . ",
". . . . . . . . . . . + + . . . . . . . . 4 3 + f . f ) g ; ; ; ; ; h ",
". . . . . . . . . . . . + + . . . . . . . . 3 ) + . . 3 i ; ; ; ; ; j ",
". . . . . . . . . . . . . k l m . . . ) 3 3 . . + + . . . n ; ; ; ; > ",
". . . . o . . . . ) . p q r s t q u v . ) 3 3 . . + + . . w ; ; ; ; x ",
". . . . . . . . . . y z s A B s s C D . E . . . . . + . . w ; ; ; ; x ",
". . . . . . . . . F G H I J K L M N O P Q . . . . . . . . w ; ; ; ; x ",
". ) . . . . . + R S H H T J U V W X Y Z ` . . . . . . . . w ; ; ; ; x ",
". . ) . . . + .  .z ..+.@.#.; $.%.&.%.*.=.. . . . . . . . -.; ; ; ; x ",
". . . ) . . + ;.>.,...'.).!.~.{.].^./.(._.. . . . . . . . ; ; ; ; ; x ",
". . . . . . :.<.[.}.H H H |./.1.2.3.4.5.6.7.. . . . . . . ; ; ; ; ; 8.",
". . . + + + 9.*.%.0.z H H a././.b.c.d.e.f.g.m . ) . . . h.; ; ; ; ; i.",
". . + + ) ) j.k.l.m.n.H H H o.p./.q.r.s.t.u.. . . . . . v.; ; ; ; ; w.",
". 3 + . . . x.y.z.A.B.H H H H C.D.E.F.G.H.I.. . . . . . ; ; ; ; ; ; J.",
". . . . . . K.|.L.|.M.N.H H H O.P.N.Q.R.S.. . . . . . . ; ; ; ; ; T.. ",
". . . . . . U.y.z.V.W.X.Y.H I s s s Z.`. +. . . . . . .+; ; ; ; ; ++. ",
". . . . . @+#+k.z.$+%+/.&+*+=+-+;+>+,+'+. . . . . 3 . ; ; ; ; ; )+w.. ",
". . . 4 . !+~+{+z.]+^+/+/.(+_+p.:+<+[+}+. . . . + |+1+; ; ; ; 2+3+4+. ",
". . . 4 4 ) 5+6+7+8+9+0+a+b+c+d+e+f+g+h++ + + + * i+; ; ; ; j+k+k+l+. ",
". . + 3 4 3 ) m+n+o+p+q+r+s+t+u+v+w+. + + ) ) * x+; ; ; ; y+k+k+k++ + ",
". + . . 3 3 f f z+A+B+C+D+E+F+G+H+I+J+K+L+. . | ; ; ; ; M+k+k+k+N+& . ",
"+ . . . . . . . O+f.P+Q+R+S+T+U+V+W+X+Y+Z+`+ @; ; ; ; M+k+k+k+.@. . . ",
"+ o . . . . ) . +@z.@@#@$@$@%@&@*@=@-@;@>@,@; ; '@)@j+!@~@~@{@. + . . ",
". . . . . . . ) ]@p.^@/@(@(@(@_@:@/.<@[@}@k+k+|@1@2@3@e '@4@+ . . . o ",
". ) . . . . . . 5@6@5@. 7@7@7@7@. '@|@8@k+k+k+k+k+k+9@~ '@5@+ . . . . ",
". . ) . . . . . . . . . . . o ) . . 0@a@k+k+k+k+k+k+k+b@8 . o . . . + ",
". . . ) . . . . . . . . . ) ) . . . M c@; d@e@e@f@; g@h@+ . . . . + + ",
". . . . . . + + + . . . . . . . . . . . i@j@k@k@l@m@. . . . . . . + . "};
