/* XPM */
static char * right_attack_4_xpm[] = {
"35 35 286 2",
"  	c None",
". 	c #33302F",
"+ 	c #2F2D2D",
"@ 	c #44352C",
"# 	c #2C2A2A",
"$ 	c #676665",
"% 	c #D1D1D1",
"& 	c #636261",
"* 	c #ABABAB",
"= 	c #D5D5D5",
"- 	c #474545",
"; 	c #363332",
"> 	c #FFFFFF",
", 	c #413E3E",
"' 	c #485734",
") 	c #A8A8A8",
"! 	c #F1F1F1",
"~ 	c #50433A",
"{ 	c #A9A9A9",
"] 	c #F7F7F7",
"^ 	c #353434",
"/ 	c #2A2825",
"( 	c #767575",
"_ 	c #797878",
": 	c #1B2F2E",
"< 	c #1B2E2D",
"[ 	c #2E2D2D",
"} 	c #583131",
"| 	c #623231",
"1 	c #983535",
"2 	c #943434",
"3 	c #6F3232",
"4 	c #643231",
"5 	c #553130",
"6 	c #2A2F2E",
"7 	c #392F2E",
"8 	c #7E2F2F",
"9 	c #8F3232",
"0 	c #525150",
"a 	c #7F3030",
"b 	c #953535",
"c 	c #993636",
"d 	c #9B3636",
"e 	c #923535",
"f 	c #32302F",
"g 	c #515151",
"h 	c #2F2F2E",
"i 	c #7E3030",
"j 	c #621918",
"k 	c #C6C6C6",
"l 	c #452F2E",
"m 	c #262F2E",
"n 	c #873131",
"o 	c #272524",
"p 	c #402F2E",
"q 	c #803030",
"r 	c #641918",
"s 	c #000000",
"t 	c #99593A",
"u 	c #9C5C3C",
"v 	c #9D5C3C",
"w 	c #90563A",
"x 	c #753B1F",
"y 	c #B2B3B3",
"z 	c #262423",
"A 	c #6E6C6C",
"B 	c #422F2E",
"C 	c #603629",
"D 	c #632900",
"E 	c #C5C8C8",
"F 	c #976F62",
"G 	c #A36343",
"H 	c #975838",
"I 	c #38261D",
"J 	c #42322D",
"K 	c #3C2E2F",
"L 	c #733E25",
"M 	c #7E3F20",
"N 	c #DBD2D0",
"O 	c #80421A",
"P 	c #8F7872",
"Q 	c #984C11",
"R 	c #7E3E1E",
"S 	c #8F4E2E",
"T 	c #967166",
"U 	c #232728",
"V 	c #686767",
"W 	c #322F2D",
"X 	c #8B4826",
"Y 	c #793E20",
"Z 	c #662E30",
"` 	c #84411F",
" .	c #804020",
"..	c #461E05",
"+.	c #DBDBDB",
"@.	c #C6C8C9",
"#.	c #83411E",
"$.	c #342C2A",
"%.	c #EFF0F0",
"&.	c #201F1F",
"*.	c #815039",
"=.	c #A06040",
"-.	c #3C322C",
";.	c #8D4E2F",
">.	c #904F2E",
",.	c #232E2F",
"'.	c #814020",
").	c #7F3F1F",
"!.	c #824528",
"~.	c #4F3A31",
"{.	c #784026",
"].	c #222E2F",
"^.	c #83523B",
"/.	c #9E5E3E",
"(.	c #82411F",
"_.	c #753030",
":.	c #55352A",
"<.	c #743D23",
"[.	c #86421E",
"}.	c #45422F",
"|.	c #051F2E",
"1.	c #786130",
"2.	c #4F4E4D",
"3.	c #643623",
"4.	c #965737",
"5.	c #7A3A18",
"6.	c #5C2E30",
"7.	c #6C3031",
"8.	c #4E2D2F",
"9.	c #65422E",
"0.	c #86692E",
"a.	c #967631",
"b.	c #7A6030",
"c.	c #F0F0F1",
"d.	c #6A3B27",
"e.	c #A46343",
"f.	c #7D3F21",
"g.	c #61302F",
"h.	c #813131",
"i.	c #9A3636",
"j.	c #9B3736",
"k.	c #001C2E",
"l.	c #090A2D",
"m.	c #D4D4D7",
"n.	c #A16140",
"o.	c #3A2E2F",
"p.	c #983636",
"q.	c #6E4727",
"r.	c #86533B",
"s.	c #A16040",
"t.	c #783E23",
"u.	c #7B3F22",
"v.	c #8E4F30",
"w.	c #452F30",
"x.	c #733D24",
"y.	c #342D30",
"z.	c #893435",
"A.	c #54332E",
"B.	c #30302F",
"C.	c #FEFEFE",
"D.	c #F8F8F9",
"E.	c #3C4B33",
"F.	c #05272A",
"G.	c #A56341",
"H.	c #9D5D3E",
"I.	c #2C2F2F",
"J.	c #54352A",
"K.	c #8E4A28",
"L.	c #A66342",
"M.	c #995838",
"N.	c #80401F",
"O.	c #935130",
"P.	c #834C31",
"Q.	c #3C312D",
"R.	c #FBFBFB",
"S.	c #2B3E30",
"T.	c #9F5D3B",
"U.	c #A26242",
"V.	c #3D2F27",
"W.	c #684323",
"X.	c #48392C",
"Y.	c #3C332A",
"Z.	c #653523",
"`.	c #6A3A27",
" +	c #82462A",
".+	c #7B4A34",
"++	c #BDBDC1",
"@+	c #4F332A",
"#+	c #753B20",
"$+	c #763D22",
"%+	c #3F312D",
"&+	c #232826",
"*+	c #474F56",
"=+	c #6A4524",
"-+	c #6A4321",
";+	c #543821",
">+	c #35312C",
",+	c #35322D",
"'+	c #312F2F",
")+	c #B4B4B7",
"!+	c #262826",
"~+	c #894726",
"{+	c #205292",
"]+	c #2F2901",
"^+	c #2B2B29",
"/+	c #9299A4",
"(+	c #424448",
"_+	c #4F3A2C",
":+	c #704827",
"<+	c #2F2E2D",
"[+	c #EFEFF0",
"}+	c #443630",
"|+	c #864627",
"1+	c #5C3100",
"2+	c #2760B0",
"3+	c #285DAB",
"4+	c #2962B7",
"5+	c #2D63B8",
"6+	c #2D6BC7",
"7+	c #654644",
"8+	c #8B553C",
"9+	c #3F342D",
"0+	c #6E492A",
"a+	c #4F2A00",
"b+	c #3B3939",
"c+	c #272B2D",
"d+	c #AA6644",
"e+	c #613618",
"f+	c #1F497F",
"g+	c #2B4F8A",
"h+	c #285DAA",
"i+	c #2A62B5",
"j+	c #2B64B8",
"k+	c #225191",
"l+	c #854C29",
"m+	c #9C5D3E",
"n+	c #B6B6B5",
"o+	c #6A737E",
"p+	c #9CA1AA",
"q+	c #C4C7CC",
"r+	c #B1B2B3",
"s+	c #F4F3F5",
"t+	c #9E9E9D",
"u+	c #B4B5B6",
"v+	c #E5E5E7",
"w+	c #EAEAEC",
"x+	c #4D4B4B",
"y+	c #45372E",
"z+	c #2D2F2F",
"A+	c #693722",
"B+	c #6A3A26",
"C+	c #3E312E",
"D+	c #312B1C",
"E+	c #2E3D5D",
"F+	c #2B4E89",
"G+	c #1F3C5E",
"H+	c #7E3F21",
"I+	c #5C1300",
"J+	c #D0D0D3",
"K+	c #D8D7DA",
"L+	c #D8D8DB",
"M+	c #B1B5BD",
"N+	c #C5C7CC",
"O+	c #73787E",
"P+	c #B9BBBE",
"Q+	c #4B1C00",
"R+	c #B8B1AF",
"S+	c #312E2D",
"T+	c #302F2E",
"U+	c #0A0909",
"V+	c #D2D2D5",
"W+	c #DADADD",
"X+	c #D7D7D9",
"Y+	c #CBCBCE",
"Z+	c #D5D5D8",
"`+	c #272D2E",
" @	c #737373",
".@	c #A8A8AA",
"+@	c #E4E4E6",
"@@	c #D1D1D4",
"#@	c #B5B5B6",
"$@	c #525252",
"%@	c #2A2726",
"&@	c #898988",
"*@	c #ACACAB",
"=@	c #282524",
". . + . . . . . . . . . . . . . @ # $ . . . % & * = - . . ; + . . . + ",
". . . + . . . . . + . . . . . . . . . . . . . . . . . # > + + . . . . ",
". . . # # . . . + . . . . . . . . . . . . . . . . . # . . > . . . . . ",
". . # # . . . + + . . # . . . . . . . . . . . . . . . . . , > . . . # ",
". . . . . . + + + # . . # . . . . . . . . + . . ' ' . . . ; ) ! . . . ",
". . + + + + + # # . ~ . . # . . . . . . . . + ' ' . ' ' . . . > { . + ",
". + + . . # # . . . . . . . . . . . . ' ' + + ' ~ ' ~ ~ ~ . . ] > ^ + ",
". . . . . . . . . . . + . . . . . . . . ' ' . ~ . ~ . / . @ . ( > ( . ",
". . . . . . . . . . . + + . . . . . . . . ' ~ + / . / # ~ ~ . _ > ] . ",
". . . . . . . . . . . : < [ . . . . . . . . ~ # + . . ~ ~ # . . > > . ",
". . . . . . . . . } | 1 2 3 4 5 6 . . # ~ ~ . . + + . . . . . . > > . ",
". . . . @ . . . 7 8 9 0 a b c d e f g . # ~ ~ . . + + . . . . . > > . ",
". . . . . . . h a i j k h l h m n h k o . . . . . . + . . . . # > > . ",
". . . . . . p a i q r k s t u v w x y z . . . . . . . . . . # A > > . ",
". # . . . . B i q C D E > F G H G G I . . . . . . . . . . . . ( > > . ",
". . # . . J K i q C L M N O P Q R S T U . . . . . . . . . . ; V > > # ",
". . . # W X Y a i q Z `  ...+.@.#.$.%.&.+ . . . . . . . . . . > > & ; ",
". . . . *.=.u h a i q -. . . .;.=.=.=.>.,.. . . . . . . . . . > > ( . ",
". . . + *.=.u ,.a i i i -.'. .).!.~.~.{.].. . . # . . . . @ . > > ( . ",
". . + + ^.=./.(._.i i i q :.<.[.}.h |.1.. . . . . . . . . . . > > 2.+ ",
". ~ + . 3.4.5. .6.q i i i q 7.8.9.0.a.b.. . . . . . . . . ; ) > c.. + ",
". . . . d.e./.'.f.g._.a i h.i.c j.k.l.. . . . . . . . . . . > > m.. . ",
". . . . *.=.n.h '. .(.o.p.p.p.p.c h # . . . . . . . . . . % > > m.. . ",
". . h q.r.=.s.t.u. .v.=.w.x.y.z.A.t.B.. . . . . . ~ . . . C.> D.. . . ",
". . . E.F.G.H. .I.J.K.L.M.N.O.P.Q.` B.. . . . . + + . . > > > R.. . . ",
". . . ' S.T.U. .V.W.X.Y.Z.`. +.+h ,.. . + + + + . ; ; > > > > +++ + . ",
". . + ~ ' @+#+$+%+&+*+=+-+;+>+,+'+f . + + # # . . ; > > > > C.)+. + + ",
". + . . ~ ~ !+=.~+{+]+^+/+(+h _+:+h h <+# . . . . > > > > > [+. . . . ",
"+ . . . . . }+=.|+1+2+3+4+5+6+7+8+9+s 0+a+. . . > > > > > m.b+. . . . ",
"+ @ . . . c+d+;.e+f+g+h+i+j+k+l+m+h n+o+p+q+r+s s+t+u+v+w+x+y+. + . . ",
". . . . . z+A+B+C+D+E+F+F+F+G+H+I+s J+K+K+L+M+N+O+P+Q+R+S+'++ . . . @ ",
". # . . . f T+T+. . . . . . . U+V+W+m.m.m.m.m.X+Y+Z+Y+`+. + + . . . . ",
". . # . . . . . . . . . . . @ #  @m.m.m.m.m.m.W+.@m.. . + . @ . . . + ",
". . . # . . . . . . . . . # # . .  @! +@@@@@@@> #@$@. + + . . . . + + ",
". . . . . . + + + . . . . . . . . . %@&@*@*@*@=@z # . . . . . . . + . "};
