/* XPM */
static char * right_attack_7_xpm[] = {
"35 35 414 2",
"  	c None",
". 	c #33302F",
"+ 	c #2F2D2D",
"@ 	c #44352C",
"# 	c #2C2A2A",
"$ 	c #282F2E",
"% 	c #1D2F2E",
"& 	c #1C2F2E",
"* 	c #32302F",
"= 	c #302F2E",
"- 	c #2B2F2E",
"; 	c #7D3333",
"> 	c #983636",
", 	c #9B3636",
"' 	c #4C302F",
") 	c #2F2F2E",
"! 	c #372E2E",
"~ 	c #8B3333",
"{ 	c #9D3737",
"] 	c #752323",
"^ 	c #7E3030",
"/ 	c #873232",
"( 	c #9C3637",
"_ 	c #A03737",
": 	c #643231",
"< 	c #553130",
"[ 	c #322F2E",
"} 	c #2F2D2C",
"| 	c #242F2E",
"1 	c #7C3030",
"2 	c #7C2F2F",
"3 	c #913131",
"4 	c #8D8E8E",
"5 	c #000000",
"6 	c #863434",
"7 	c #833131",
"8 	c #9C3636",
"9 	c #973636",
"0 	c #4A3433",
"a 	c #30302F",
"b 	c #757575",
"c 	c #485734",
"d 	c #332E2E",
"e 	c #813030",
"f 	c #722929",
"g 	c #838585",
"h 	c #FFFFFF",
"i 	c #170000",
"j 	c #49312C",
"k 	c #35312B",
"l 	c #36312B",
"m 	c #833132",
"n 	c #696969",
"o 	c #3B2E2D",
"p 	c #783030",
"q 	c #772A2A",
"r 	c #848786",
"s 	c #925334",
"t 	c #975636",
"u 	c #754833",
"v 	c #602000",
"w 	c #ADB0B0",
"x 	c #50433A",
"y 	c #422F2E",
"z 	c #803030",
"A 	c #432F2E",
"B 	c #292928",
"C 	c #878787",
"D 	c #CED0D0",
"E 	c #925432",
"F 	c #A06040",
"G 	c #A26241",
"H 	c #753B20",
"I 	c #3A4A32",
"J 	c #2A2825",
"K 	c #2B2F2F",
"L 	c #622E30",
"M 	c #7C3F21",
"N 	c #853F17",
"O 	c #8F7168",
"P 	c #E7E8E8",
"Q 	c #FDFBFB",
"R 	c #9E7263",
"S 	c #934C22",
"T 	c #9E5C39",
"U 	c #8B4B2C",
"V 	c #9B5B3C",
"W 	c #955636",
"X 	c #9B5D3E",
"Y 	c #3F3B24",
"Z 	c #2B2E30",
"` 	c #733C24",
" .	c #362D30",
"..	c #823030",
"+.	c #7D3030",
"@.	c #48322D",
"#.	c #4D352A",
"$.	c #823C0F",
"%.	c #86594A",
"&.	c #94695C",
"*.	c #4E2507",
"=.	c #ADA9A8",
"-.	c #866055",
";.	c #A56341",
">.	c #7D3D1D",
",.	c #9E5D3D",
"'.	c #87513D",
").	c #6D6C6C",
"!.	c #613A2A",
"~.	c #874727",
"{.	c #793E20",
"].	c #642E30",
"^.	c #772F30",
"/.	c #663A26",
"(.	c #804020",
"_.	c #82411F",
":.	c #461E05",
"<.	c #B6B7B7",
"[.	c #FDFEFE",
"}.	c #342C2A",
"|.	c #85411E",
"1.	c #381000",
"2.	c #BABDBD",
"3.	c #A4A1A0",
"4.	c #9F5D3B",
"5.	c #A26242",
"6.	c #8F5133",
"7.	c #59322B",
"8.	c #7B3030",
"9.	c #56332C",
"0.	c #84411F",
"a.	c #844220",
"b.	c #5F2300",
"c.	c #510000",
"d.	c #995838",
"e.	c #955536",
"f.	c #985737",
"g.	c #7B4423",
"h.	c #8F4D28",
"i.	c #693A26",
"j.	c #2A2F2F",
"k.	c #A56241",
"l.	c #9C5C3C",
"m.	c #503427",
"n.	c #232E2F",
"o.	c #663824",
"p.	c #69302F",
"q.	c #7F3030",
"r.	c #54322C",
"s.	c #7F4020",
"t.	c #4B2C27",
"u.	c #00262D",
"v.	c #11292C",
"w.	c #00162D",
"x.	c #6A3A26",
"y.	c #292F2F",
"z.	c #A66442",
"A.	c #9D5E3E",
"B.	c #823F1C",
"C.	c #2C2F2E",
"D.	c #4C352A",
"E.	c #86421E",
"F.	c #83411F",
"G.	c #79622F",
"H.	c #59492E",
"I.	c #262A2E",
"J.	c #AE8832",
"K.	c #8D4B2A",
"L.	c #7B3A19",
"M.	c #7E3131",
"N.	c #332E2F",
"O.	c #3A2E2F",
"P.	c #81622E",
"Q.	c #725B2E",
"R.	c #67532F",
"S.	c #B48C33",
"T.	c #894726",
"U.	c #945435",
"V.	c #925333",
"W.	c #813F1C",
"X.	c #603729",
"Y.	c #7A2F2F",
"Z.	c #9A3636",
"`.	c #913434",
" +	c #872A34",
".+	c #83622E",
"++	c #957531",
"@+	c #5F4D2F",
"#+	c #904F2E",
"$+	c #43322C",
"%+	c #893232",
"&+	c #4A302F",
"*+	c #2B2E2F",
"=+	c #A16140",
"-+	c #614437",
";+	c #864321",
">+	c #7A4C34",
",+	c #632C2E",
"'+	c #7E3334",
")+	c #993636",
"!+	c #923536",
"~+	c #3A2F2F",
"{+	c #3D342D",
"]+	c #6F4827",
"^+	c #2D2F2F",
"/+	c #A86442",
"(+	c #A16040",
"_+	c #8B4D2F",
":+	c #3C312D",
"<+	c #864627",
"[+	c #A46342",
"}+	c #955B3E",
"|+	c #36292F",
"1+	c #733D24",
"2+	c #3E2E31",
"3+	c #893435",
"4+	c #452F30",
"5+	c #5F362B",
"6+	c #7B3F21",
"7+	c #192D30",
"8+	c #2A2F30",
"9+	c #423123",
"0+	c #664435",
"a+	c #8B4C2C",
"b+	c #49332C",
"c+	c #783E23",
"d+	c #814020",
"e+	c #975738",
"f+	c #854321",
"g+	c #854220",
"h+	c #613F2F",
"i+	c #51352A",
"j+	c #7A3E22",
"k+	c #282E2F",
"l+	c #6C4736",
"m+	c #A16141",
"n+	c #9E5F3F",
"o+	c #8B4927",
"p+	c #122C2F",
"q+	c #4D3827",
"r+	c #373028",
"s+	c #5A382C",
"t+	c #6A4637",
"u+	c #6B4636",
"v+	c #8F4C2A",
"w+	c #83411E",
"x+	c #A15F3E",
"y+	c #593629",
"z+	c #793E22",
"A+	c #543328",
"B+	c #8D4E2F",
"C+	c #48392C",
"D+	c #704827",
"E+	c #714927",
"F+	c #443122",
"G+	c #503A32",
"H+	c #94512F",
"I+	c #2E2F30",
"J+	c #603625",
"K+	c #663723",
"L+	c #663724",
"M+	c #653725",
"N+	c #1C2D30",
"O+	c #1D2007",
"P+	c #676F78",
"Q+	c #605450",
"R+	c #60412A",
"S+	c #5C3912",
"T+	c #5C3C21",
"U+	c #4F3A2B",
"V+	c #4A392B",
"W+	c #342E2A",
"X+	c #302F2F",
"Y+	c #473D37",
"Z+	c #764B38",
"`+	c #955A3E",
" @	c #5F3207",
".@	c #21569D",
"+@	c #4E4B3A",
"@@	c #3B392C",
"#@	c #2E290B",
"$@	c #8B939F",
"%@	c #4B4645",
"&@	c #3F3328",
"*@	c #3B2B00",
"=@	c #6D4626",
"-@	c #6C4728",
";@	c #473324",
">@	c #262D2F",
",@	c #272D2E",
"'@	c #312F2F",
")@	c #4B3831",
"!@	c #813E1C",
"~@	c #452900",
"{@	c #2761B3",
"]@	c #285FAE",
"^@	c #1D2947",
"/@	c #2D3B5B",
"(@	c #2E4777",
"_@	c #2A6DCC",
":@	c #4A3832",
"<@	c #3C3331",
"[@	c #634329",
"}@	c #6B4628",
"|@	c #463426",
"1@	c #3E332C",
"2@	c #312F2E",
"3@	c #334430",
"4@	c #8A553B",
"5@	c #763B16",
"6@	c #372A00",
"7@	c #285DAA",
"8@	c #2D6DCC",
"9@	c #2D6CC9",
"0@	c #064071",
"a@	c #A36241",
"b@	c #82513A",
"c@	c #232A2D",
"d@	c #292C2E",
"e@	c #272A2C",
"f@	c #472800",
"g@	c #59473E",
"h@	c #393F44",
"i@	c #3D4145",
"j@	c #2D2B29",
"k@	c #2D2B28",
"l@	c #222E2E",
"m@	c #1B3F67",
"n@	c #2E323C",
"o@	c #2A62B5",
"p@	c #2D6BC7",
"q@	c #285DA9",
"r@	c #084171",
"s@	c #4D3931",
"t@	c #969DA9",
"u@	c #9299A4",
"v@	c #959CA8",
"w@	c #50565D",
"x@	c #51575F",
"y@	c #363738",
"z@	c #1B2B2D",
"A@	c #9B5837",
"B@	c #8B4A29",
"C@	c #1E3752",
"D@	c #28497D",
"E@	c #2C487A",
"F@	c #2760B0",
"G@	c #285FAD",
"H@	c #2962B5",
"I@	c #2860B0",
"J@	c #294A7F",
"K@	c #6B3500",
"L@	c #914F2F",
"M@	c #301200",
"N@	c #292726",
"O@	c #666667",
"P@	c #DADADD",
"Q@	c #D8D7DA",
"R@	c #DADADC",
"S@	c #B1B5BD",
"T@	c #A8ADB6",
"U@	c #707882",
"V@	c #666D76",
"W@	c #434A51",
"X@	c #5F4129",
"Y@	c #40332A",
"Z@	c #38322E",
"`@	c #2E2F2E",
" #	c #43312B",
".#	c #2F2D26",
"+#	c #2E3A54",
"@#	c #2E3850",
"##	c #2E3952",
"$#	c #2C2D26",
"%#	c #703C25",
"&#	c #42312C",
"*#	c #300C00",
"=#	c #BFBFC1",
"-#	c #C4C4C6",
";#	c #CFCFD2",
">#	c #D4D4D7",
",#	c #D5D5D8",
"'#	c #D1D1D5",
")#	c #D1D2D6",
"!#	c #C2C3C6",
"~#	c #232120",
"{#	c #2D2D2D",
"]#	c #38312C",
"^#	c #32302E",
"/#	c #2F2E2D",
"(#	c #313130",
"_#	c #010101",
":#	c #E2E2E5",
"<#	c #D3D3D6",
"[#	c #D9D9DC",
"}#	c #505050",
"|#	c #181717",
"1#	c #2B2828",
"2#	c #B6B6B6",
"3#	c #FEFEFF",
"4#	c #D0D0D4",
"5#	c #D2D2D5",
"6#	c #B2B2B5",
"7#	c #212020",
"8#	c #F0F0F1",
"9#	c #17110D",
"0#	c #1D1B1B",
"a#	c #828282",
"b#	c #D1D1D1",
"c#	c #D0D0D0",
"d#	c #1C1B1B",
"e#	c #353332",
"f#	c #2F2C2B",
"g#	c #282626",
". . + . . . . . . . . . . . . . @ # . . . . . . . . . . . . + . . . + ",
". . . + . . . . . + . $ % & * . . . . . . . . . . . . # . + + . . . . ",
". . . # # . . . + = - ; > , ' ) ) . . . . . . . . . # . . + . . . . . ",
". . # # . . . + ! ~ { ] ^ / { ( _ : < . [ } . . . . . . . . . . . . # ",
". . . . . . + | 1 2 3 4 5 6 7 { 8 { 9 0 a b . . c c . . . . . . . . . ",
". . + + + + d e ^ ^ f g h i j k l l m 5 h n + c c . c c . . . . . . + ",
". + + . . o p ^ ^ e q r h 5 s t t t u v w b + c x c x x x . . . . + + ",
". . . . . y z ^ z A B C h D E F F F F G H I . x . x . J . @ . . . . . ",
". . . . K A z ^ L M N O P Q R S T U V W X Y x + J . J # x x . . . . . ",
". . . Z `  ...^ +.@.#.$.%.&.*.=.-.;.>.,.'.).x # + . . x x # . . . . . ",
". . * !.~.{.].^ ^ e ^./.(._.:.<.[.}.|.1.2.3.a . + + . . . . . . . . . ",
". . ) 4.5.6.7.^ ^ ^ 8.9.0.(.a.b.c.d.e.f.g.h.i.j.. + + . . . . . . . . ",
". . ) k.F l.m.^ ^ ^ ^ ..) 0.(.(.(.(.5.F F 5.(.n.. . + . . . . # . . . ",
". . ) k.F l.o.p.q.^ ^ ^ ..r.s._.(.(.t.u.v.w.x.y.. . . . . . # . . . . ",
". # ) z.F A.B.C...^ ^ ^ ^ +.@.D.E.F.G.H.I.J.C.. . . . . . . . . . # . ",
". . ) K.A.L.0.) 1 ^ ^ ^ ^ ^ z M.N.O.P.Q.R.S.= . . . . . . . . . . . # ",
". . ) T.U.V.W.) X.8...q.^ +.Y.Z.`.`. +.+++@+. . . . . . . . . . . . . ",
". . ) k.F F #+) E.$+C.p.^ %+> > > > , &+. . . . . . . . . . . . . . . ",
". *+) k.F =+-+E.s.F.;+>+,+_ '+{ )+, !+~+. . . . # . . . . @ . . . . . ",
"{+]+^+/+F (+_+:+E.(.<+[+}+|+1+2+3+4+5+6+7+. . . . . . . . . . . . . + ",
"* 8+9+0+=+F a+6+b+c+d+e+=+f+(.g+h+0.i+d+j+k+. . . . . . . . . . . . + ",
". . a l+m+n+o+p+q+r+s+t+u+v+w+f+x+y+z+0.j+k+. . . . . . . . . . . . . ",
". . . A+l.F B+(.C+D+]+E+F+^+) G+H+) ) ) = . . . . . . . . . . . . . . ",
". . . I+J+K+L+M+N+O+P+Q+R+S+T+U+V+W+*+X+. . . . . x . . . . . . . . . ",
". . . c a Y+Z+`+ @.@+@@@#@$@%@&@*@=@-@;@>@,@,@'@+ + . . . . . . . . . ",
". . . c c )@;.F !@~@{@]@]@^@/@(@_@:@<@[@}@}@}@|@1@2@[ . . . . . + + . ",
". . + x 3@4@[+B+5@6@]@7@7@8@9@9@0@a@b@c@d@e@e@f@g@h@i@j@k@[ . . . + + ",
". + . . l@;.B+(.m@n@]@7@7@o@p@q@r@F a@s@# . ) t@u@u@v@w@x@y@) ) ) . . ",
"+ . . . z@A@B@_.C@D@E@F@G@H@I@J@K@t L@M@N@O@P@Q@Q@Q@R@S@T@U@V@W@X@Y@Z@",
"+ @ . . `@ #$+$+[ .#+#@#@#@###$#%#&#*#=#-#;#>#>#>#>#>#,#'#)#!#~#{#]#^#",
". . . . = = = /#. . . . . . . . y.= (#_#:#<#>#>#>#>#>#>#[#}#|#. . . @ ",
". # . . . . . . . . . . . . . . . + + 1#2#3#4#5#>#>#>#>#5#6#7#. . . . ",
". . # . . . . . . . . . . . @ # . . + + * 5 h 8#<#>#>#>#h h 9#. . . + ",
". . . # . . . . . . . . . # # . . . . + + . 0#a#b#c#c#c#d#0#e#. . + + ",
". . . . . . + + + . . . . . . . . . . . . . . [ f#g#f#f#. . . . . + . "};
