/* XPM */
static char * down_attack_1_xpm[] = {
"35 35 391 2",
"  	c None",
". 	c #2F2D2D",
"+ 	c #33302F",
"@ 	c #2C2A2A",
"# 	c #44352C",
"$ 	c #485734",
"% 	c #2E2F2E",
"& 	c #2D2F2E",
"* 	c #50433A",
"= 	c #2A2F2E",
"- 	c #743332",
"; 	c #733332",
"> 	c #953636",
", 	c #8E3333",
"' 	c #933333",
") 	c #723332",
"! 	c #763333",
"~ 	c #262B2A",
"{ 	c #2A2825",
"] 	c #373635",
"^ 	c #7C3333",
"/ 	c #9A3636",
"( 	c #983636",
"_ 	c #993636",
": 	c #7D2E2F",
"< 	c #3F3C3B",
"[ 	c #8A3131",
"} 	c #7E3030",
"| 	c #63302F",
"1 	c #32302F",
"2 	c #272726",
"3 	c #CCCCCC",
"4 	c #2B2322",
"5 	c #9A3535",
"6 	c #5D3032",
"7 	c #603032",
"8 	c #5C3031",
"9 	c #7B2F30",
"0 	c #847A7A",
"a 	c #BCBCBC",
"b 	c #4C0000",
"c 	c #7F3030",
"d 	c #803030",
"e 	c #68302F",
"f 	c #2D302F",
"g 	c #E0E0E0",
"h 	c #311F17",
"i 	c #32332F",
"j 	c #894624",
"k 	c #874524",
"l 	c #884624",
"m 	c #51372C",
"n 	c #929292",
"o 	c #C1C1C1",
"p 	c #480000",
"q 	c #5F2F2F",
"r 	c #302E2D",
"s 	c #614B45",
"t 	c #9B5A3A",
"u 	c #9F5E3E",
"v 	c #A36342",
"w 	c #A16141",
"x 	c #A36242",
"y 	c #300000",
"z 	c #F2F2F2",
"A 	c #BFBFBF",
"B 	c #030000",
"C 	c #432E2F",
"D 	c #833030",
"E 	c #823030",
"F 	c #272F2E",
"G 	c #7E4C34",
"H 	c #9A5A3B",
"I 	c #9F5F3F",
"J 	c #864728",
"K 	c #9C5B39",
"L 	c #944D23",
"M 	c #E4DBD9",
"N 	c #FFFFFF",
"O 	c #B4B0AF",
"P 	c #813100",
"Q 	c #86421E",
"R 	c #542E30",
"S 	c #813030",
"T 	c #282F2E",
"U 	c #292928",
"V 	c #977C74",
"W 	c #9F5E3D",
"X 	c #7D3D1D",
"Y 	c #A35F3B",
"Z 	c #95837F",
"` 	c #9E9997",
" .	c #702300",
"..	c #9C7B72",
"+.	c #7F3F1E",
"@.	c #713D25",
"#.	c #3B322C",
"$.	c #7C3030",
"%.	c #843030",
"&.	c #262F2E",
"*.	c #4E342B",
"=.	c #302F2F",
"-.	c #31302F",
";.	c #312F2F",
">.	c #482516",
",.	c #CACDCE",
"'.	c #41271F",
").	c #84401D",
"!.	c #5D5554",
"~.	c #E9EBEB",
"{.	c #868686",
"].	c #773A19",
"^.	c #804020",
"/.	c #85411E",
"(.	c #4A2D30",
"_.	c #512E30",
":.	c #85411D",
"<.	c #914E2C",
"[.	c #45302A",
"}.	c #4A382C",
"|.	c #483322",
"1.	c #282C2D",
"2.	c #2D2C2A",
"3.	c #2C2C2A",
"4.	c #543328",
"5.	c #9D5D3D",
"6.	c #985A3B",
"7.	c #9E5E3E",
"8.	c #9D5E3E",
"9.	c #9C5D3D",
"0.	c #783814",
"a.	c #7C3E1E",
"b.	c #82411F",
"c.	c #3E332B",
"d.	c #5F3525",
"e.	c #A06040",
"f.	c #93583C",
"g.	c #2C2E2E",
"h.	c #2C2B2A",
"i.	c #596069",
"j.	c #776F72",
"k.	c #6B727C",
"l.	c #6E757F",
"m.	c #343739",
"n.	c #373A3D",
"o.	c #2F2C2A",
"p.	c #2F2D2B",
"q.	c #302D2C",
"r.	c #593528",
"s.	c #825139",
"t.	c #82513A",
"u.	c #915538",
"v.	c #7C3C1B",
"w.	c #84411F",
"x.	c #5D3629",
"y.	c #7D3030",
"z.	c #5E3624",
"A.	c #965B3E",
"B.	c #2A2726",
"C.	c #CCCCD0",
"D.	c #D3D3D6",
"E.	c #D6D6D9",
"F.	c #8C94A0",
"G.	c #939AA5",
"H.	c #474D54",
"I.	c #4D535A",
"J.	c #4A5056",
"K.	c #2E2E2D",
"L.	c #282D2E",
"M.	c #32302E",
"N.	c #21282E",
"O.	c #2F2F2E",
"P.	c #1F2C2F",
"Q.	c #42332B",
"R.	c #332F2E",
"S.	c #803E1C",
"T.	c #5E5E5E",
"U.	c #9C9C9E",
"V.	c #B2B2B4",
"W.	c #D5D5D8",
"X.	c #D4D4D7",
"Y.	c #D7D7DA",
"Z.	c #D9D9DB",
"`.	c #B8BBC2",
" +	c #C5C9D0",
".+	c #4A1D00",
"++	c #252C2C",
"@+	c #AA6643",
"#+	c #995736",
"$+	c #341B29",
"%+	c #E5B136",
"&+	c #00002D",
"*+	c #1D262E",
"=+	c #8E702E",
"-+	c #633927",
";+	c #5E3927",
">+	c #582D30",
",+	c #7B3030",
"'+	c #232E2F",
")+	c #823F1D",
"!+	c #935434",
"~+	c #A36343",
"{+	c #894D30",
"]+	c #2C2E2F",
"^+	c #2D2A29",
"/+	c #C7C7C9",
"(+	c #C9C9CC",
"_+	c #000000",
":+	c #16292D",
"<+	c #9C5A39",
"[+	c #6A3A26",
"}+	c #071F2E",
"|+	c #E1AE36",
"1+	c #BD922D",
"2+	c #041E2E",
"3+	c #3D302E",
"4+	c #7D2F30",
"5+	c #943535",
"6+	c #5D2E30",
"7+	c #814020",
"8+	c #804121",
"9+	c #814121",
"0+	c #83401E",
"a+	c #202D2F",
"b+	c #2D2B2B",
"c+	c #9E9E9D",
"d+	c #FEFEFF",
"e+	c #D2D2D5",
"f+	c #CDCDD0",
"g+	c #5F5E5F",
"h+	c #2E2F2F",
"i+	c #573428",
"j+	c #583629",
"k+	c #5B3729",
"l+	c #31302E",
"m+	c #00192E",
"n+	c #0C212E",
"o+	c #3A372C",
"p+	c #543D22",
"q+	c #5D4129",
"r+	c #59412A",
"s+	c #55312E",
"t+	c #532D2F",
"u+	c #532F2F",
"v+	c #522E30",
"w+	c #4E352A",
"x+	c #9E5E3D",
"y+	c #9D5B3A",
"z+	c #1D2C2D",
"A+	c #020202",
"B+	c #F0F0F0",
"C+	c #EBEBEC",
"D+	c #D9D9DC",
"E+	c #EDEDED",
"F+	c #F8F8F7",
"G+	c #878787",
"H+	c #352F2E",
"I+	c #9C3636",
"J+	c #963636",
"K+	c #232D2F",
"L+	c #4A3423",
"M+	c #6E4727",
"N+	c #6F4827",
"O+	c #3C352D",
"P+	c #593729",
"Q+	c #7E3F21",
"R+	c #7F4020",
"S+	c #3C312D",
"T+	c #A36241",
"U+	c #A56341",
"V+	c #212D2E",
"W+	c #2B2827",
"X+	c #676767",
"Y+	c #969695",
"Z+	c #5F5E5D",
"`+	c #2A2827",
" @	c #4C302F",
".@	c #623032",
"+@	c #613132",
"@@	c #1E2D2F",
"#@	c #192C2F",
"$@	c #172B2E",
"%@	c #35312A",
"&@	c #714927",
"*@	c #644329",
"=@	c #50332B",
"-@	c #824120",
";@	c #A26242",
">@	c #7A4D38",
",@	c #2D2E2E",
"'@	c #222E30",
")@	c #834120",
"!@	c #7A452B",
"~@	c #925030",
"{@	c #A86442",
"]@	c #3B312F",
"^@	c #40302C",
"/@	c #955636",
"(@	c #644334",
"_@	c #55392E",
":@	c #925132",
"<@	c #83411E",
"[@	c #915030",
"}@	c #985838",
"|@	c #A46343",
"1@	c #A16040",
"2@	c #54352B",
"3@	c #6B4628",
"4@	c #42352D",
"5@	c #382F2C",
"6@	c #8A4E2C",
"7@	c #3D4F58",
"8@	c #454F55",
"9@	c #655958",
"0@	c #8E5537",
"a@	c #6B2C00",
"b@	c #575D63",
"c@	c #543122",
"d@	c #723C24",
"e@	c #6E3821",
"f@	c #6B3822",
"g@	c #272F2F",
"h@	c #262C2F",
"i@	c #3F4143",
"j@	c #828A95",
"k@	c #7F8691",
"l@	c #7D848F",
"m@	c #8E95A0",
"n@	c #79808B",
"o@	c #9299A4",
"p@	c #4B4B47",
"q@	c #282D2D",
"r@	c #172A2D",
"s@	c #374731",
"t@	c #455433",
"u@	c #292C2E",
"v@	c #1F2E3A",
"w@	c #0A3E80",
"x@	c #6D7070",
"y@	c #696D6F",
"z@	c #6C737E",
"A@	c #1B396A",
"B@	c #123365",
"C@	c #275394",
"D@	c #6D3600",
"E@	c #85523A",
"F@	c #453D36",
"G@	c #35312F",
"H@	c #975B3D",
"I@	c #225DAD",
"J@	c #2D68C1",
"K@	c #2B65BC",
"L@	c #285DAA",
"M@	c #285FAD",
"N@	c #29313A",
"O@	c #823F1B",
"P@	c #A56241",
"Q@	c #12292C",
"R@	c #2D2F2F",
"S@	c #623929",
"T@	c #A46342",
"U@	c #9B5E3E",
"V@	c #145194",
"W@	c #2B66BC",
"X@	c #2D6BC6",
"Y@	c #2A62B4",
"Z@	c #275FAF",
"`@	c #2F3239",
" #	c #453E57",
".#	c #7E3D1D",
"+#	c #9C5C3D",
"@#	c #282C2E",
"##	c #262E2F",
"$#	c #522F00",
"%#	c #275FAE",
"&#	c #2C68C2",
"*#	c #285CA8",
"=#	c #2B508D",
"-#	c #2F2D25",
";#	c #1C4575",
">#	c #7C3F21",
",#	c #2B2F2F",
"'#	c #312F2E",
")#	c #252E2F",
"!#	c #413020",
"~#	c #2C4778",
"{#	c #2C4573",
"]#	c #2C4675",
"^#	c #2D3E62",
"/#	c #2D2C2C",
"(#	c #322E26",
". + + + . + + + + + + + + + + + + @ # + + + + + + + + + + + + + . + + ",
"+ + + + . . + @ + + + + + + + + + + + + + + + + + . + + + + + . + + + ",
"+ + + + + . + + @ + + + + + + + + + + + + + + + + + . + + + @ @ + + + ",
"@ + + + + + + + + + + + + + + + + + + + + + + @ + + . . + + + @ @ + + ",
"+ + + + + + + + + $ $ + + . + + + + + + + + @ + + @ . . . + + + + + + ",
". + + + + + + $ $ + $ $ . + + + + + + + + @ + % & & @ @ . . . . . + + ",
". . + + + + * * * $ * $ . . $ $ + + + = & - ; > , ' ) ! ~ @ + + . . + ",
"+ + + + + # + { + * + * + $ $ + + ] + ^ / ( ( _ : < [ } | 1 + + + + + ",
"+ + + + + * * @ { + { . * $ + + 2 3 4 5 6 7 8 9 0 a b c d e f + + + + ",
"+ + + + + @ * * + + . @ * + + + 2 g h i j k l m n o p c } } q 1 + + + ",
"+ + + + + + + + + . . + + * * @ r s t u v w x y z A B C D } E F + + + ",
"+ + + + + + + + . . + + * * @ + 1 G H I J K L M N O P Q R } S T + + + ",
"+ + + @ + + + + . + + + + + + + U V W X Y Z `  ...+.@.#.$.} %.&.*.+ + ",
"+ + =.-.@ + + + + + + + + + + ;.>.,.'.).!.~.{.].^./.(.E } } _.:.<.[.1 ",
"+ @ }.|.1.2.3.+ + + + + + + + 4.5.6.7.8.9.0.a.^.b.c.} } } } d.I e.f.g.",
"@ + h.i.j.k.l.m.n.o.p.q.+ + + r.s.t.t.u.v.^.^.w.x.y.} } } d z.w e.A.g.",
"+ + B.C.D.D.E.F.G.H.I.J.K.L.L.M.N.O.O.P.b.^.b.Q.S } } } S R.S.w e.A.g.",
"T.U.V.W.X.X.X.Y.Z.`. +.+++@+#+$+%+&+*+=+-+;+>+,+} } } } D '+)+!+~+{+]+",
"^+/+X.X.X.X.X.X.X.(+_++ :+<+^.[+}+|+1+2+3+4+5+y.} } } } 6+7+8+9+0+a++ ",
"b+c+d+D.e+X.X.X.e+f+g++ h+i+j+k+l+m+n+o+p+q+r+s+t+c u+v+w+k+x+w y+z++ ",
". + A+B+C+D+D+D+E+F+G++ + + + + + + H+I+J+K+L+M+N+O+P+Q+R+S+T+e.U+V++ ",
"+ + + W+X+Y+Y+Y+Z+`+B.+ + + + + . . +  @.@+@@@#@$@%@&@*@=@-@;@e.>@,@+ ",
"+ + + + + + + + + + + + + + + + @ . . '@)@!@0+0+~@{@]@^@& ^./@e.(@=.1 ",
"+ + + + + + + + + * + + + + + + + + . -._@:@<@0+[@e.}@Q k+^.|@1@2@3@4@",
"+ + + + + + + + + . . + + + + + + + + + 5@6@7@8@9@0@a@b@c@d@e@f@g@h@;.",
"+ . . + + + + + + + + . . . . + + + + + i@j@k@l@m@n@o@p@q@r@s@t@+ + + ",
". . + + + + + + @ + + + @ @ . . + + + u@v@w@x@y@z@A@B@C@D@U+E@F@. + + ",
"+ + + + + + + + + @ + + + + @ . + + G@e.H@I@J@J@K@L@M@N@O@w P@Q@+ . + ",
"+ + + + + + . . + + @ + + + + . + R@S@T@U@V@W@X@Y@L@Z@`@ #.#+#w @#+ . ",
"+ + . + # + . + + + + + + + + + + ##7+R+^.$#%#&#*#L@=#-#;#^.R+>#,## . ",
"# + + + . . + + + + + + + + + + + '#)#)#& !#~#{#]#]#^#/#(#)#)###1 + + ",
"+ + + + . . + + + + + + + + + + . . + + + + + + + + + + + + + + + @ + ",
". + + + # + . + + + + + + + + . . + + @ # + + + + + + + + + + + @ + + ",
". . + + + + . . + + @ + + + . . + + + + @ @ + + + + + + + + + @ + + + ",
"+ . + + + + + + + @ + + + + + + + + + + + + + + + + . . . + + + + + + "};
