/* XPM */
static char * down_attack_4_xpm[] = {
"35 35 301 2",
"  	c None",
". 	c #2F2D2D",
"+ 	c #33302F",
"@ 	c #2C2A2A",
"# 	c #44352C",
"$ 	c #485734",
"% 	c #50433A",
"& 	c #2A2825",
"* 	c #31302F",
"= 	c #292F2E",
"- 	c #443030",
"; 	c #623231",
"> 	c #4E3130",
", 	c #262D2D",
"' 	c #322F2E",
") 	c #312E2D",
"! 	c #3F302F",
"~ 	c #753333",
"{ 	c #903535",
"] 	c #953636",
"^ 	c #853232",
"/ 	c #7A2B2B",
"( 	c #8B3434",
"_ 	c #412F2E",
": 	c #515151",
"< 	c #A0A1A1",
"[ 	c #812828",
"} 	c #7E3333",
"| 	c #7A3333",
"1 	c #753031",
"2 	c #8E7B7B",
"3 	c #858484",
"4 	c #863232",
"5 	c #7B3030",
"6 	c #422F2E",
"7 	c #525251",
"8 	c #B4B2B2",
"9 	c #602E15",
"0 	c #8A4F33",
"a 	c #8E5032",
"b 	c #81482F",
"c 	c #B3B2B2",
"d 	c #8C8C8C",
"e 	c #7F3030",
"f 	c #7E3030",
"g 	c #442F2F",
"h 	c #2F2F2F",
"i 	c #804D35",
"j 	c #A16141",
"k 	c #98593A",
"l 	c #A2847B",
"m 	c #FDFDFD",
"n 	c #968D8B",
"o 	c #623828",
"p 	c #723030",
"q 	c #572F2F",
"r 	c #4E4948",
"s 	c #986C5D",
"t 	c #8B4C2D",
"u 	c #965738",
"v 	c #9E8984",
"w 	c #794730",
"x 	c #B2A19D",
"y 	c #804123",
"z 	c #733030",
"A 	c #5C312E",
"B 	c #4A332C",
"C 	c #705B54",
"D 	c #928D8C",
"E 	c #7D3D1C",
"F 	c #88716B",
"G 	c #A8A7A7",
"H 	c #734432",
"I 	c #804020",
"J 	c #783030",
"K 	c #703F29",
"L 	c #8F5234",
"M 	c #43322D",
"N 	c #3E312C",
"O 	c #955637",
"P 	c #9B5E3F",
"Q 	c #9C5E3F",
"R 	c #8E4F2F",
"S 	c #82401F",
"T 	c #814020",
"U 	c #703B25",
"V 	c #5E302E",
"W 	c #985737",
"X 	c #A26140",
"Y 	c #604134",
"Z 	c #352F2E",
"` 	c #57442D",
" .	c #17272D",
"..	c #4A3E2C",
"+.	c #7A3D21",
"@.	c #7E4021",
"#.	c #6F3B25",
"$.	c #7D3030",
"%.	c #643729",
"&.	c #965637",
"*.	c #5F4033",
"=.	c #483D2E",
"-.	c #A27E32",
";.	c #725B2E",
">.	c #7C5D2E",
",.	c #58322B",
"'.	c #66332D",
").	c #752F30",
"!.	c #6B3A24",
"~.	c #884829",
"{.	c #9A5A3A",
"].	c #52372C",
"^.	c #6A5530",
"/.	c #69562E",
"(.	c #823033",
"_.	c #943535",
":.	c #963535",
"<.	c #873232",
"[.	c #6F2F30",
"}.	c #553930",
"|.	c #945434",
"1.	c #975738",
"2.	c #7D3D1E",
"3.	c #48332C",
"4.	c #2E302F",
"5.	c #7B3333",
"6.	c #9A3636",
"7.	c #9B3636",
"8.	c #8F3535",
"9.	c #863133",
"0.	c #764431",
"a.	c #753D23",
"b.	c #7D4F39",
"c.	c #A06040",
"d.	c #9D5D3D",
"e.	c #6D3A23",
"f.	c #282A2B",
"g.	c #312725",
"h.	c #663928",
"i.	c #69332F",
"j.	c #68342C",
"k.	c #6F3A27",
"l.	c #7B4833",
"m.	c #9C5C3C",
"n.	c #683A26",
"o.	c #915335",
"p.	c #945432",
"q.	c #8D8685",
"r.	c #8A8989",
"s.	c #A4A3A3",
"t.	c #A9A9A9",
"u.	c #ADACAC",
"v.	c #AFAFAF",
"w.	c #B9B9B8",
"x.	c #D7D7D7",
"y.	c #7E7472",
"z.	c #7C3F21",
"A.	c #784630",
"B.	c #8F4F30",
"C.	c #81401E",
"D.	c #8C5135",
"E.	c #815039",
"F.	c #36302E",
"G.	c #8B4B2B",
"H.	c #8C6254",
"I.	c #CFCFCF",
"J.	c #BFBFBF",
"K.	c #F2F2F2",
"L.	c #BBBABA",
"M.	c #8E8E8E",
"N.	c #939292",
"O.	c #B2B1B1",
"P.	c #AEAEAE",
"Q.	c #EFEFEF",
"R.	c #F9F9F9",
"S.	c #F8F8F8",
"T.	c #CDCCCC",
"U.	c #CBCBCB",
"V.	c #898889",
"W.	c #585756",
"X.	c #42332E",
"Y.	c #764A36",
"Z.	c #704533",
"`.	c #684232",
" +	c #483529",
".+	c #583C28",
"++	c #624024",
"@+	c #613828",
"#+	c #8C4C2D",
"$+	c #925334",
"%+	c #514F4F",
"&+	c #454342",
"*+	c #B4B3B3",
"=+	c #969695",
"-+	c #FEFEFE",
";+	c #FFFFFF",
">+	c #F9F9FA",
",+	c #989799",
"'+	c #413F3E",
")+	c #32302F",
"!+	c #2D2F2F",
"~+	c #734A37",
"{+	c #985738",
"]+	c #754027",
"^+	c #503A27",
"/+	c #5A4E4A",
"(+	c #5A5C60",
"_+	c #56585B",
":+	c #303E5F",
"<+	c #513528",
"[+	c #744937",
"}+	c #2F2E2E",
"|+	c #FAFAFA",
"1+	c #959595",
"2+	c #F2F2F3",
"3+	c #A8A8AA",
"4+	c #5C524C",
"5+	c #363333",
"6+	c #49382D",
"7+	c #593D28",
"8+	c #513B2B",
"9+	c #56352A",
"0+	c #613827",
"a+	c #664A58",
"b+	c #2A60B1",
"c+	c #2E5393",
"d+	c #2C589E",
"e+	c #285DAA",
"f+	c #2D4A7F",
"g+	c #814121",
"h+	c #9B5B3B",
"i+	c #84533A",
"j+	c #4E463F",
"k+	c #4C5A3A",
"l+	c #363332",
"m+	c #7E7D7D",
"n+	c #DDDCDC",
"o+	c #C1C1C1",
"p+	c #919090",
"q+	c #EDEDEE",
"r+	c #C3C3C6",
"s+	c #848587",
"t+	c #7E848D",
"u+	c #7D838C",
"v+	c #72777E",
"w+	c #34312F",
"x+	c #312F2F",
"y+	c #7B4D38",
"z+	c #8B5435",
"A+	c #245CAA",
"B+	c #2D6AC6",
"C+	c #285EAB",
"D+	c #2C4A80",
"E+	c #2A4470",
"F+	c #763D1F",
"G+	c #A36D57",
"H+	c #C4BEBC",
"I+	c #ABA8A7",
"J+	c #727171",
"K+	c #A1A59C",
"L+	c #F0F0F1",
"M+	c #F1F1F2",
"N+	c #C0C0C1",
"O+	c #545554",
"P+	c #604436",
"Q+	c #3C4F84",
"R+	c #295DA9",
"S+	c #2A5EAB",
"T+	c #295AA4",
"U+	c #2A5291",
"V+	c #2E3C5A",
"W+	c #2F4064",
"X+	c #4D3428",
"Y+	c #694232",
"Z+	c #4D3F31",
"`+	c #7F7E7E",
" @	c #AFAEAE",
".@	c #F5F4F4",
"+@	c #F5F5F5",
"@@	c #858585",
"#@	c #322E25",
"$@	c #322D25",
"%@	c #322E2A",
"&@	c #4B4038",
"*@	c #404B32",
"=@	c #483E37",
"-@	c #434140",
";@	c #9F9F9F",
">@	c #999898",
",@	c #E3E3E3",
"'@	c #F3F3F3",
")@	c #5B5A59",
"!@	c #939392",
"~@	c #929292",
"{@	c #C2C2C2",
"]@	c #E5E5E5",
"^@	c #B9B9B9",
"/@	c #545454",
"(@	c #312F2E",
"_@	c #302E2D",
":@	c #2D2A29",
". + + + . + + + + + + + + + + + + @ # + + + + + + + + + + + + + . + + ",
"+ + + + . . + @ + + + + + + + + + + + + + + + + + . + + + + + . + + + ",
"+ + + + + . + + @ + + + + + + + + + + + + + + + + + . + + + @ @ + + + ",
"@ + + + + + + + + + + + + + + + + + + + + + + @ + + . . + + + @ @ + + ",
"+ + + + + + + + + $ $ + + . + + + + + + + + @ + + @ . . . + + + + + + ",
". + + + + + + $ $ + $ $ . + + + + + + + + @ + + % + @ @ . . . . . + + ",
". . + + + + % % % $ % $ . . $ $ + + + + + + + + + + + + @ @ + + . . + ",
"+ + + + + # + & + % + % + $ $ + + + * = - ; > , + + + + + + + + + + + ",
"+ + + + + % % @ & + & . % $ + ' ) ! ~ { ] ^ / ( _ + + + + + + + + + + ",
"+ + + + + @ % % + + . @ % + + : < [ } | 1 2 3 4 5 6 + + + + + + + + + ",
"+ + + + + + + + + . . + + % % 7 8 9 0 a b c d e f 5 g + + + + + + + + ",
"+ + + + + + + + . . + + % % @ h i j k j l m n o p f q + + + # + + + + ",
"+ + + @ + + + + . + + + + + + r s t u v w x y o z f A B + + + + + + + ",
"+ + + + @ + + + + + + + + + + C D E F G H I o e f J K L M + + + + + + ",
"+ @ + + + + + + + + + + + + N O P Q R S T U z f f V W X Y + + + + @ + ",
"@ + + + + + + + + + + + + + Z `  ...+.@.#.z f f $.%.&.X *.+ + + @ + + ",
"+ + + + + + + + + + + + + + =.-.;.>.,.'.).f f f J !.~.{.].+ + @ + + + ",
"+ + + + + + + + + + + + + + + ^./.(._.:.<.f J [.}.|.1.2.3.+ + + + + + ",
"+ + + + + # + + + + @ + + + + + 4.5.6.7.8.9.0.a.b.c.d.e.f.. . . + + + ",
". + + + + + + + + + + + + + + + g.h.i.j.k.l.m.n.o.c.p.q.r.@ @ . . + + ",
". + + + + + + + + s.t.t.u.v.w.x.y.z.A.B.C.D.E.F.G.j H.I.I.J.K.L.M.% + ",
"+ + + N.O.O.P.Q.R.S.T.U.V.W.W.+ X.Y.Z.`. +.+++@+#+$+3.$ + + %+W.&+*++ ",
"+ =+-+-+;+;+;+>+,+'++ + + + )+!+~+{+]+^+/+(+_+:+<+[+}+$ $ + + + + + |+",
"1+;+;+;+;+;+;+2+3+4+5++ * 6+7+8+9+0+a+b+c+d+e+f+g+h+i+j+k+% l+m+n+o+p+",
"-+;+;+;+;+;+;+;+R.q+r+s+t+u+v+w+x+y+z+A+B+C+e+D+E+F+G+H+I+% J+K++ + + ",
"3 m ;+;+;+;+;+;+;+;+;+R.L+L+M+N+O+P+Q+R+S+T+U+V+W+X+Y+Z+$ @ $ $ + + + ",
". `+ @.@+@;+;+;+;+;+;+;+;+;+;+;+;+@@#@$@$@$@%@+ + &@*@=@@ % $ % . + + ",
"+ + + + -@;@>@,@+@;+;+;+;+;+;+'@u.' + + + + + + + + % & & % % + + . + ",
"+ + + + + + . . )@!@~@{@]@]@^@/@(@+ + + + + + + + + + + + + + + + + . ",
"+ + . + # + . + + + + _@:@:@) + + + + + + + + + + + + + @ + + + + # . ",
"# + + + . . + + + + + + + + + + + + + + + + + + + + + @ + + + + + + + ",
"+ + + + . . + + + + + + + + + + . . + + + + + + + + + + + + + + + @ + ",
". + + + # + . + + + + + + + + . . + + @ # + + + + + + + + + + + @ + + ",
". . + + + + . . + + @ + + + . . + + + + @ @ + + + + + + + + + @ + + + ",
"+ . + + + + + + + @ + + + + + + + + + + + + + + + + . . . + + + + + + "};
