/* XPM */
static char * down_attack_3_xpm[] = {
"35 35 288 2",
"  	c None",
". 	c #2F2D2D",
"+ 	c #33302F",
"@ 	c #2C2A2A",
"# 	c #44352C",
"$ 	c #1E2F2E",
"% 	c #202F2E",
"& 	c #232F2E",
"* 	c #2E2B2A",
"= 	c #312E2D",
"- 	c #2F302F",
"; 	c #032E2D",
"> 	c #983636",
", 	c #973636",
"' 	c #7F3030",
") 	c #142F2E",
"! 	c #282F2E",
"~ 	c #A6A6A5",
"{ 	c #828282",
"] 	c #32302F",
"^ 	c #2D302F",
"/ 	c #4B2F2E",
"( 	c #783333",
"_ 	c #9E3737",
": 	c #993636",
"< 	c #9D3737",
"[ 	c #933334",
"} 	c #4C3130",
"| 	c #D5D6D6",
"1 	c #838382",
"2 	c #3D2F2E",
"3 	c #7B3332",
"4 	c #933434",
"5 	c #9A3636",
"6 	c #9A3737",
"7 	c #7D6666",
"8 	c #505352",
"9 	c #2E2F2E",
"0 	c #8A3232",
"a 	c #7E3030",
"b 	c #813030",
"c 	c #492F2E",
"d 	c #50433A",
"e 	c #1D2E2D",
"f 	c #893232",
"g 	c #933535",
"h 	c #833030",
"i 	c #532F2F",
"j 	c #212F2E",
"k 	c #953636",
"l 	c #813131",
"m 	c #7A3030",
"n 	c #262F2E",
"o 	c #30302F",
"p 	c #65302F",
"q 	c #7C3030",
"r 	c #793030",
"s 	c #26302F",
"t 	c #8C3333",
"u 	c #7D3030",
"v 	c #252F2E",
"w 	c #773333",
"x 	c #312F2E",
"y 	c #903434",
"z 	c #7C2F2F",
"A 	c #773030",
"B 	c #2A2F2E",
"C 	c #923434",
"D 	c #873232",
"E 	c #823030",
"F 	c #392A2D",
"G 	c #2D2C2B",
"H 	c #763332",
"I 	c #833131",
"J 	c #8E3434",
"K 	c #642C2E",
"L 	c #92593D",
"M 	c #9A5D3F",
"N 	c #1F292C",
"O 	c #632F2F",
"P 	c #963636",
"Q 	c #7A2F2F",
"R 	c #652C2E",
"S 	c #935B3E",
"T 	c #945435",
"U 	c #5F3626",
"V 	c #31302F",
"W 	c #382F2E",
"X 	c #943535",
"Y 	c #682E30",
"Z 	c #7A442A",
"` 	c #7F3F1E",
" .	c #603828",
"..	c #242F2E",
"+.	c #563728",
"@.	c #82411F",
"#.	c #804020",
"$.	c #5E3728",
"%.	c #5E2F2F",
"&.	c #803030",
"*.	c #682B2F",
"=.	c #5A3525",
"-.	c #86421E",
";.	c #653927",
">.	c #5F3828",
",.	c #2E2E30",
"'.	c #722D2F",
").	c #81513A",
"!.	c #9E5E3E",
"~.	c #7E3D1D",
"{.	c #7F4020",
"].	c #262E2F",
"^.	c #6B6A6A",
"/.	c #7E8382",
"(.	c #6F4948",
"_.	c #712F2F",
":.	c #694836",
"<.	c #A56342",
"[.	c #9A5B3B",
"}.	c #854220",
"|.	c #0A0F10",
"1.	c #424141",
"2.	c #D5D4D4",
"3.	c #FFFFFF",
"4.	c #E7E9E9",
"5.	c #512322",
"6.	c #672C2E",
"7.	c #582B2E",
"8.	c #4E2B2C",
"9.	c #794931",
"0.	c #82523A",
"a.	c #A76543",
"b.	c #955536",
"c.	c #7E3E1E",
"d.	c #824120",
"e.	c #500000",
"f.	c #D7D7D7",
"g.	c #D0D0D0",
"h.	c #D4D3D3",
"i.	c #D4D4D4",
"j.	c #FEFEFE",
"k.	c #241C17",
"l.	c #84523A",
"m.	c #93593D",
"n.	c #9C5D3D",
"o.	c #905132",
"p.	c #A16141",
"q.	c #834120",
"r.	c #000000",
"s.	c #C3C3C3",
"t.	c #485734",
"u.	c #9B9A9A",
"v.	c #824015",
"w.	c #A46342",
"x.	c #A36343",
"y.	c #985939",
"z.	c #803F1D",
"A.	c #580000",
"B.	c #EFF0F0",
"C.	c #EFEFEF",
"D.	c #D8D7D7",
"E.	c #D8D8D8",
"F.	c #D6D5D5",
"G.	c #FAFAFA",
"H.	c #A1A59C",
"I.	c #A3A79F",
"J.	c #A1A0A0",
"K.	c #878686",
"L.	c #DDDCDC",
"M.	c #A36342",
"N.	c #824223",
"O.	c #A66544",
"P.	c #874422",
"Q.	c #381900",
"R.	c #411E00",
"S.	c #341817",
"T.	c #7E7D7D",
"U.	c #8A8989",
"V.	c #646363",
"W.	c #82887B",
"X.	c #90958A",
"Y.	c #898888",
"Z.	c #B2AFAE",
"`.	c #E9E9E9",
" +	c #ECECEC",
".+	c #543429",
"++	c #995B3B",
"@+	c #7F4122",
"#+	c #754F40",
"$+	c #2E3537",
"%+	c #959CA6",
"&+	c #9197A2",
"*+	c #767C84",
"=+	c #2C2928",
"-+	c #2A2825",
";+	c #8D8D8D",
">+	c #FAFBFA",
",+	c #838282",
"'+	c #4F5359",
")+	c #6A747E",
"!+	c #6C757E",
"~+	c #71787F",
"{+	c #797D82",
"]+	c #003574",
"^+	c #163D75",
"/+	c #3D2200",
"(+	c #724835",
"_+	c #27292D",
":+	c #4A5937",
"<+	c #8D9387",
"[+	c #2F373A",
"}+	c #464641",
"|+	c #42413A",
"1+	c #00235A",
"2+	c #002E73",
"3+	c #004DA8",
"4+	c #2A5EAB",
"5+	c #285DAA",
"6+	c #552E00",
"7+	c #9E5D3D",
"8+	c #91583D",
"9+	c #26282D",
"0+	c #F1F0F0",
"a+	c #F2F3F2",
"b+	c #FDFCFC",
"c+	c #8B8A8A",
"d+	c #F5F4F4",
"e+	c #211E1C",
"f+	c #8D5429",
"g+	c #2258A1",
"h+	c #617DB9",
"i+	c #FAFAFC",
"j+	c #F4F5F9",
"k+	c #DADEE9",
"l+	c #004FA7",
"m+	c #29579D",
"n+	c #4E2F29",
"o+	c #99776E",
"p+	c #B99283",
"q+	c #9B847C",
"r+	c #7F7E7E",
"s+	c #CFCFCF",
"t+	c #F8F7F7",
"u+	c #F3F3F3",
"v+	c #F4F4F4",
"w+	c #EDEDEC",
"x+	c #282625",
"y+	c #85543C",
"z+	c #58485F",
"A+	c #265BA7",
"B+	c #285493",
"C+	c #004092",
"D+	c #0048A4",
"E+	c #004DA5",
"F+	c #2962B3",
"G+	c #2F2B16",
"H+	c #00407D",
"I+	c #9EA09F",
"J+	c #ADAFAF",
"K+	c #ABACAD",
"L+	c #B5B5B5",
"M+	c #B5B5B4",
"N+	c #B6B5B5",
"O+	c #292F2E",
"P+	c #824121",
"Q+	c #1C4474",
"R+	c #275EAD",
"S+	c #2F548A",
"T+	c #285EAC",
"U+	c #285EAB",
"V+	c #285FAD",
"W+	c #2D436F",
"X+	c #2F2F2E",
"Y+	c #303032",
"Z+	c #322F2E",
"`+	c #302E2E",
" @	c #212D2F",
".@	c #2E3F64",
"+@	c #2A5292",
"@@	c #2A5394",
"#@	c #2E4167",
"$@	c #312917",
"%@	c #312916",
"&@	c #302E25",
"*@	c #2F2E2D",
"=@	c #322F2A",
"-@	c #322D28",
";@	c #332F2C",
". + + + . + + + + + + + + + + + + @ # + + + + + + + + + + + + + . + + ",
"+ + + + . . + @ $ % & + + + * = + + + + + + + + + . + + + + + . + + + ",
"+ + + + + . - ; > , ' ) ! + ~ { + + + + + + + + + + . + + + @ @ + + + ",
"@ + + ] ^ / ( _ > > : < [ } | 1 + + + + + + + @ + + . . + + + @ @ + + ",
"+ + + 2 3 4 5 > > > > > 6 ' 7 8 + + + + + + @ + + @ . . . + + + + + + ",
". + 9 0 : > > > > > > > 5 a b c + + + + + @ + + d + @ @ . . . . . + + ",
". e f 6 > > > > > > > 5 g a a h i - + + + + + + + + + + @ @ + + . . + ",
"+ j k > > > > > > > : l ' a a a m n + + + + + . + + + + + + + + + + + ",
"o p , > > > > > > > : q a a a a r s + + + + . . + + + + + + + + + + + ",
"- ( > > > > > > > 5 t u a a a a q v + + + . . + + + + + + + + + + + + ",
"- w > > > > > > > t a a a a a b x + + + + . + + + + + + + + + + + + + ",
"- w > > > > > : y z a a a a ' A B + + + + + + + + @ + + + + # + + + + ",
"- w > : > > C D q a a a a a E F G + + + + + + + + + + + + + + + + + + ",
"- H : I : > J u a a a a a a K L M N + + + + + + + + + + + + + + + + + ",
"o O q I P > Q a a a a a a a R S T U V + + + + + + + + . + + + + + @ + ",
"@ W q u X I a a a a a a a a Y Z `  .] @ # + + + + + + + . + + + @ + + ",
"+ ..q a u a a a a a a a ' r +.@.#.$.] + @ @ + + + + + + . + + @ + + + ",
"+ ^ %.&.a a a a a a a &.*.=.-.;.>.,.+ + + + + + + + + + . + + + + + + ",
"+ + ! E ' a a a a a a '.).!.~.{.].+ + + + + + + + + + + @ . . . + + + ",
". + ^./.(.' ' ' a _.'.:.<.[.~.}.|.+ + + + + + + + + + + + @ @ . . + + ",
"1.2.3.3.4.5.6.7.8.9.0.a.b.c.d.e.f.g.h.h.h.i.+ + + + + + + + + + . d + ",
"j.3.3.3.3.k.l.m.n.o.p.~.#.#.q.r.3.3.3.3.3.3.j.j.3.s.+ t.+ + + + + + + ",
"3.3.3.3.3.u.v.w.#.x.y.z.@.@.A.B.3.C.D.E.E.f.F.G.3.3.3.H.I.J.+ + + + + ",
"K.L.3.3.3.3.e.M.N.O.P.Q.R.R.S.T.U.V.. + + + @ W.X.U.Y.Z.3.3.`. ++ + + ",
"+ + + + + + .+++@+#+$+%+&+&+*+=++ + + + + + -+-+t.t.+ + d d ;+>+3.3.,+",
"+ . . + + + '+)+!+~+{+]+^+^+/+(+_++ + + + + + -+d t.d t.:+@ t.<+3.j.3.",
". . + + + + [+}+|+1+2+3+4+5+6+7+8+9++ + + + + + + d t.d @ 0+a+b+3.3.;+",
"+ + + c+d+e+f+g+h+i+j+k+l+m+n+o+p+q+r+r+r+r+r+r+T.s+t+u+v+w+w+v++ . + ",
"+ + + + x+y+z+A+B+C+D+E+F+G+H+I+J+K+L+M+M+M+M+M+M+N++ + + + + + + + . ",
"+ + . + O+P+Q+R+S+T+U+V+W+X+Y++ Z+Z++ + + + + + + + + + @ + + + + # . ",
"# + + + `+ @.@+@@@#@$@%@&@+ + + + + + + + + + + + + + @ + + + + + + + ",
"+ + + + . *@=@-@-@;@+ + + + + + . . + + + + + + + + + + + + + + + @ + ",
". + + + # + . + + + + + + + + . . + + @ # + + + + + + + + + + + @ + + ",
". . + + + + . . + + @ + + + . . + + + + @ @ + + + + + + + + + @ + + + ",
"+ . + + + + + + + @ + + + + + + + + + + + + + + + + . . . + + + + + + "};
