/* XPM */
static char * down_attack_2_xpm[] = {
"35 35 236 2",
"  	c None",
". 	c #2F2D2D",
"+ 	c #33302F",
"@ 	c #2C2A2A",
"# 	c #44352C",
"$ 	c #485734",
"% 	c #50433A",
"& 	c #2A2825",
"* 	c #32302F",
"= 	c #312F2E",
"- 	c #793333",
"; 	c #983636",
"> 	c #7A3333",
", 	c #322F2E",
"' 	c #6B302F",
") 	c #913434",
"! 	c #542A2A",
"~ 	c #803030",
"{ 	c #9A3737",
"] 	c #863434",
"^ 	c #282827",
"/ 	c #6D302F",
"( 	c #7E3030",
"_ 	c #833030",
": 	c #808383",
"< 	c #BDBEBE",
"[ 	c #6B2F30",
"} 	c #382F2F",
"| 	c #322F2F",
"1 	c #8D3232",
"2 	c #727878",
"3 	c #A2A2A1",
"4 	c #6F302F",
"5 	c #853030",
"6 	c #7F8181",
"7 	c #BDBEBF",
"8 	c #905032",
"9 	c #9D5D3D",
"0 	c #915639",
"a 	c #73422F",
"b 	c #AEADAD",
"c 	c #743030",
"d 	c #562E30",
"e 	c #783E22",
"f 	c #948784",
"g 	c #FFFFFF",
"h 	c #CAC0BE",
"i 	c #A46443",
"j 	c #975838",
"k 	c #A36343",
"l 	c #A36241",
"m 	c #0D2227",
"n 	c #703C24",
"o 	c #772F30",
"p 	c #783030",
"q 	c #39322C",
"r 	c #823903",
"s 	c #9D8078",
"t 	c #640C00",
"u 	c #A8A3A2",
"v 	c #862000",
"w 	c #7D3D1D",
"x 	c #9B5631",
"y 	c #989291",
"z 	c #673621",
"A 	c #995A3A",
"B 	c #2D302C",
"C 	c #843030",
"D 	c #633A26",
"E 	c #804020",
"F 	c #7A3A18",
"G 	c #7B8182",
"H 	c #8E8A89",
"I 	c #7F3D1C",
"J 	c #654135",
"K 	c #959595",
"L 	c #1C2D30",
"M 	c #9D5F40",
"N 	c #A06040",
"O 	c #8B4826",
"P 	c #702F30",
"Q 	c #742F30",
"R 	c #6D3C24",
"S 	c #82411F",
"T 	c #854424",
"U 	c #A56444",
"V 	c #A66442",
"W 	c #A86442",
"X 	c #7D3E1E",
"Y 	c #9B5E3F",
"Z 	c #874727",
"` 	c #5A322D",
" .	c #7F3030",
"..	c #732F30",
"+.	c #814020",
"@.	c #482D28",
"#.	c #1E2C2D",
"$.	c #0D272D",
"%.	c #5D3829",
"&.	c #8C4F32",
"*.	c #A36342",
"=.	c #834323",
"-.	c #3D322C",
";.	c #813030",
">.	c #5B322D",
",.	c #5F3827",
"'.	c #4D462E",
").	c #8B6C2E",
"!.	c #2E2F2E",
"~.	c #A78232",
"{.	c #8B8A8A",
"].	c #363332",
"^.	c #7F4020",
"/.	c #7C3C1B",
"(.	c #8F5031",
"_.	c #894420",
":.	c #4F2D2F",
"<.	c #823030",
"[.	c #7A2F2F",
"}.	c #973636",
"|.	c #8D3333",
"1.	c #8F3333",
"2.	c #33372E",
"3.	c #B28B33",
"4.	c #22202E",
"5.	c #9B9B9B",
"6.	c #AEAEAE",
"7.	c #142D2F",
"8.	c #7F3E1D",
"9.	c #A16040",
"0.	c #A16141",
"a.	c #634335",
"b.	c #533629",
"c.	c #592F2B",
"d.	c #843131",
"e.	c #9C3737",
"f.	c #9A3636",
"g.	c #192E2D",
"h.	c #323030",
"i.	c #F0F0F0",
"j.	c #999898",
"k.	c #783C1F",
"l.	c #6E4432",
"m.	c #793B1D",
"n.	c #A96644",
"o.	c #6C3833",
"p.	c #6B342F",
"q.	c #843335",
"r.	c #953636",
"s.	c #7A3432",
"t.	c #282E2F",
"u.	c #6F6E6D",
"v.	c #717070",
"w.	c #122C30",
"x.	c #9C5B3B",
"y.	c #884829",
"z.	c #44322B",
"A.	c #9A5837",
"B.	c #985737",
"C.	c #81401E",
"D.	c #894522",
"E.	c #613E2D",
"F.	c #40312D",
"G.	c #793E22",
"H.	c #666464",
"I.	c #FEFEFE",
"J.	c #797878",
"K.	c #8F5539",
"L.	c #8E4D2C",
"M.	c #31302B",
"N.	c #553225",
"O.	c #773D23",
"P.	c #7B3F22",
"Q.	c #86533A",
"R.	c #7C3E20",
"S.	c #6D3A25",
"T.	c #F9F9F9",
"U.	c #666564",
"V.	c #263537",
"W.	c #76350B",
"X.	c #763610",
"Y.	c #513023",
"Z.	c #5C473B",
"`.	c #6C4626",
" +	c #603F23",
".+	c #36312D",
"++	c #5F4134",
"@+	c #A46241",
"#+	c #965B3E",
"$+	c #756E6A",
"%+	c #FCFCFC",
"&+	c #5B5A59",
"*+	c #F9F8F8",
"=+	c #F8F8F8",
"-+	c #B0B0AF",
";+	c #535251",
">+	c #82868C",
",+	c #777B82",
"'+	c #525455",
")+	c #695853",
"!+	c #8B5C4D",
"~+	c #AC765F",
"{+	c #4B5253",
"]+	c #6B6B6A",
"^+	c #C2C1C1",
"/+	c #0A1214",
"(+	c #F1EBEA",
"_+	c #FDFCFC",
":+	c #FDFDFD",
"<+	c #B4B4B4",
"[+	c #985C3E",
"}+	c #864727",
"|+	c #4C3012",
"1+	c #235396",
"2+	c #002781",
"3+	c #272423",
"4+	c #7D4023",
"5+	c #824120",
"6+	c #4B332A",
"7+	c #2F3137",
"8+	c #2B508D",
"9+	c #255DAC",
"0+	c #225CAC",
"a+	c #496EB5",
"b+	c #47473A",
"c+	c #864527",
"d+	c #474746",
"e+	c #46494A",
"f+	c #7C5C46",
"g+	c #7C5D48",
"h+	c #6E4622",
"i+	c #4F3A2C",
"j+	c #2F2D2B",
"k+	c #332F2D",
"l+	c #38302E",
"m+	c #292827",
". + + + . + + + + + + + + + + + + @ # + + + + + + + + + + + + + . + + ",
"+ + + + . . + @ + + + + + + + + + + + + + + + + + . + + + + + . + + + ",
"+ + + + + . + + @ + + + + + + + + + + + + + + + + + . + + + @ @ + + + ",
"@ + + + + + + + + + + + + + + + + + + + + + + @ + + . . + + + @ @ + + ",
"+ + + + + + + + + $ $ + + . + + + + + + + + @ + + @ . . . + + + + + + ",
". + + + + + + $ $ + $ $ . + + + + + + + + @ + + % + @ @ . . . . . + + ",
". . + + + + % % % $ % $ . . $ $ + + + + + + + + + + + + @ @ + + . . + ",
"+ + + + + # + & + % + % + $ $ + + * + + + + + . + + + + + + + + + + + ",
"+ + + + + % % @ & + & . % $ + = - ; > = , + . . + + + + + + + + + + + ",
"+ + + + + @ % % + + . @ % + ' ) ! ~ { ; ; ] . ^ + + + + + + + + + + + ",
"+ + + + + + + + + . . + + / ( _ : < [ } | 1 2 3 + + + + + + + + + + + ",
"+ + + + + + + + . . + + 4 ( ( 5 6 7 8 9 9 0 a b + @ + + + + # + + + + ",
"+ + + @ + + + + . + + + c ( d e f g h i j k l m + + + + + + + + + + + ",
"+ + + + @ + + + + + + n o ( p q r s t u v w x y + + + + + + + + + + + ",
"+ @ + + + + + + + + z A B ~ ( C D E F G H I J K L + + . + + + + + @ + ",
"@ + + + + + + + + + M N O P ( ( Q R E S T U V W X + + + . + + + @ + + ",
"+ + + + + + + + + + Y N Z `  .( ( ..R S +.@.#.$.%.+ + + . + + @ + + + ",
"+ + + + + + + + + + &.*.=.-.;.( ( ( ..>.,.'.).!.~.+ + + . + + + + + + ",
"{.].+ + + # + + + + ^./.(._.:.<. .( [.}.|.1.2.3.4.+ + + @ . . . + + + ",
"5.6.+ ].+ + + + + + 7.8.9.0.a.b.c.d.e.; ; f.g.+ + + + + + @ @ . . + + ",
"h.+ i.j.+ ].+ + + + + k.0.N l.m.n.o.p.q.r.s.t.+ + + + + + + + + . % + ",
"+ + ].u.g v.+ + + + + w.x.9.y.z.A.B.C.D.E.F.G.+ + + + $ + + + + + + + ",
"+ + + ].H.g I.J.+ + + + K.N L., M.N.O.P.Q.R.S.+ + + + $ $ + + + + + + ",
"+ + + + + + T.g g g g U.V.W.X.Y.Z.`. +.+++@+#+$ $ + + $+%+g g g g &++ ",
"+ + + + + + + + *+=+g g g g g -+;+>+,+'+)+!+~+{+]+g g g g g g g g g ^+",
"+ . . + + + + + + + + /+(+_+%+g g g g g g g g g g g g g g g g g g :+<+",
". . + + + + + + @ + + [+}+|+1+2+g g g g g g g g g g g g g g g g g 3++ ",
"+ + + + + + + + + @ + 4+5+6+7+8+9+0+a+b+c+g g g g g g g d+e+f+g+h+i++ ",
"+ + + + + + . . + + @ !.!.* + j+k+k+k+* l+^ m++ + + + + + + * * * * . ",
"+ + . + # + . + + + + + + + + + + + + + + + + + + + + + @ + + + + # . ",
"# + + + . . + + + + + + + + + + + + + + + + + + + + + @ + + + + + + + ",
"+ + + + . . + + + + + + + + + + . . + + + + + + + + + + + + + + + @ + ",
". + + + # + . + + + + + + + + . . + + @ # + + + + + + + + + + + @ + + ",
". . + + + + . . + + @ + + + . . + + + + @ @ + + + + + + + + + @ + + + ",
"+ . + + + + + + + @ + + + + + + + + + + + + + + + + . . . + + + + + + "};
