/* XPM */
static char * down_attack_6_xpm[] = {
"35 35 517 2",
"  	c None",
". 	c #2F2D2D",
"+ 	c #33302F",
"@ 	c #2C2A2A",
"# 	c #44352C",
"$ 	c #30302F",
"% 	c #32302F",
"& 	c #46302F",
"* 	c #2D302F",
"= 	c #252F2E",
"- 	c #6E3232",
"; 	c #6D3232",
"> 	c #693231",
", 	c #9D3637",
"' 	c #903434",
") 	c #953434",
"! 	c #6F3332",
"~ 	c #493130",
"{ 	c #22201F",
"] 	c #322F2E",
"^ 	c #31302F",
"/ 	c #673231",
"( 	c #8C3535",
"_ 	c #9A3636",
": 	c #993636",
"< 	c #983636",
"[ 	c #7F3131",
"} 	c #471312",
"| 	c #883132",
"1 	c #953535",
"2 	c #7B3030",
"3 	c #272F2E",
"4 	c #2D2A29",
"5 	c #8F8F8F",
"6 	c #636363",
"7 	c #482D2C",
"8 	c #9D3636",
"9 	c #943636",
"0 	c #953636",
"a 	c #7D3030",
"b 	c #683434",
"c 	c #A6A8A8",
"d 	c #272C2B",
"e 	c #813030",
"f 	c #2C2F2E",
"g 	c #485734",
"h 	c #2A2828",
"i 	c #7D7D7C",
"j 	c #FFFFFF",
"k 	c #000000",
"l 	c #712F31",
"m 	c #503227",
"n 	c #4D3326",
"o 	c #4F3426",
"p 	c #622C2E",
"q 	c #ACAFAF",
"r 	c #D4D4D4",
"s 	c #2E2C2B",
"t 	c #803030",
"u 	c #7E3030",
"v 	c #793030",
"w 	c #3C2F2E",
"x 	c #8E8E8E",
"y 	c #8C9091",
"z 	c #6E2F00",
"A 	c #7F4A31",
"B 	c #995A3B",
"C 	c #9B5A3A",
"D 	c #9D5C3B",
"E 	c #71381A",
"F 	c #9EA0A0",
"G 	c #D2D2D2",
"H 	c #853030",
"I 	c #7F3030",
"J 	c #362F2E",
"K 	c #50433A",
"L 	c #2F402D",
"M 	c #7B3D1F",
"N 	c #A26242",
"O 	c #A06040",
"P 	c #9F5F3F",
"Q 	c #A4613F",
"R 	c #515556",
"S 	c #CDCDCD",
"T 	c #312D2B",
"U 	c #2A2F2E",
"V 	c #6B302F",
"W 	c #823030",
"X 	c #382F2E",
"Y 	c #2A2825",
"Z 	c #465634",
"` 	c #3E341F",
" .	c #9E6040",
"..	c #965738",
"+.	c #9D5E3E",
"@.	c #894A2B",
"#.	c #A16140",
"$.	c #944F27",
"%.	c #842C00",
"&.	c #EDE7E5",
"*.	c #FEFFFF",
"=.	c #B9B4B3",
"-.	c #83401C",
";.	c #88421D",
">.	c #493629",
",.	c #2D2F2F",
"'.	c #404E2E",
").	c #7B7574",
"!.	c #884624",
"~.	c #814121",
"{.	c #A36242",
"].	c #7B2400",
"^.	c #A29B9A",
"/.	c #735E57",
"(.	c #7C3000",
"_.	c #A9928C",
":.	c #7F4429",
"<.	c #83411F",
"[.	c #42342B",
"}.	c #63312E",
"|.	c #843030",
"1.	c #292D2F",
"2.	c #6B3A26",
"3.	c #2B2E30",
"4.	c #2E2B2A",
"5.	c #CACACA",
"6.	c #BDBDBD",
"7.	c #311403",
"8.	c #86421E",
"9.	c #E5E5E5",
"0.	c #515657",
"a.	c #82401F",
"b.	c #804020",
"c.	c #84411F",
"d.	c #302F2E",
"e.	c #532E30",
"f.	c #7C3F21",
"g.	c #81401F",
"h.	c #5D3728",
"i.	c #5E3A2C",
"j.	c #6A2401",
"k.	c #4A2000",
"l.	c #8F4C2B",
"m.	c #914F2F",
"n.	c #1E0000",
"o.	c #7A3C1A",
"p.	c #814020",
"q.	c #773E22",
"r.	c #4E2F2F",
"s.	c #7C3030",
"t.	c #57302D",
"u.	c #85482A",
"v.	c #A46443",
"w.	c #9B5836",
"x.	c #41322D",
"y.	c #292E2E",
"z.	c #8E4A28",
"A.	c #A96543",
"B.	c #A86442",
"C.	c #A66442",
"D.	c #A66443",
"E.	c #925334",
"F.	c #82401E",
"G.	c #82411F",
"H.	c #743E22",
"I.	c #5E302E",
"J.	c #702F30",
"K.	c #633722",
"L.	c #A0603F",
"M.	c #A56342",
"N.	c #483731",
"O.	c #7C3F22",
"P.	c #333130",
"Q.	c #3A322F",
"R.	c #38322F",
"S.	c #673B29",
"T.	c #7F4020",
"U.	c #4F2E2F",
"V.	c #712F30",
"W.	c #613623",
"X.	c #9E5E3E",
"Y.	c #A46241",
"Z.	c #483730",
"`.	c #3C3A2F",
" +	c #56472F",
".+	c #2E2F2E",
"++	c #3B362E",
"@+	c #48432F",
"#+	c #793E22",
"$+	c #422D30",
"%+	c #40342B",
"&+	c #823E1B",
"*+	c #A56341",
"=+	c #745D30",
"-+	c #A38032",
";+	c #00002D",
">+	c #52452E",
",+	c #9C7B2E",
"'+	c #4F3329",
")+	c #573728",
"!+	c #5B332C",
"~+	c #5F2E30",
"{+	c #3D322C",
"]+	c #82401D",
"^+	c #8D4E2F",
"/+	c #A36343",
"(+	c #9C5A39",
"_+	c #42332E",
":+	c #302F2F",
"<+	c #A98432",
"[+	c #D8A835",
"}+	c #B0882D",
"|+	c #572C2F",
"1+	c #782F30",
"2+	c #772F30",
"3+	c #873233",
"4+	c #843131",
"5+	c #833030",
"6+	c #7F401F",
"7+	c #7E3E1D",
"8+	c #7E3D1D",
"9+	c #844424",
"0+	c #854221",
"a+	c #3F312D",
"b+	c #21202D",
"c+	c #0D0F2D",
"d+	c #3C222F",
"e+	c #9F3837",
"f+	c #873232",
"g+	c #823131",
"h+	c #763030",
"i+	c #783030",
"j+	c #492E2E",
"k+	c #4A3831",
"l+	c #8F4E2D",
"m+	c #A36342",
"n+	c #7D3D1C",
"o+	c #3D312D",
"p+	c #4A302F",
"q+	c #9E3737",
"r+	c #9D3737",
"s+	c #883232",
"t+	c #642B2F",
"u+	c #5A3525",
"v+	c #5F3927",
"w+	c #302C2A",
"x+	c #A26141",
"y+	c #A16141",
"z+	c #7F3E1C",
"A+	c #5C3729",
"B+	c #2F2F2E",
"C+	c #7A3333",
"D+	c #9F3737",
"E+	c #553031",
"F+	c #7F2F32",
"G+	c #82513A",
"H+	c #9C5C3C",
"I+	c #813E1B",
"J+	c #462F28",
"K+	c #9E5F40",
"L+	c #753B1F",
"M+	c #33302E",
"N+	c #4B332B",
"O+	c #653926",
"P+	c #19302C",
"Q+	c #903535",
"R+	c #062F2C",
"S+	c #2B302D",
"T+	c #6D4735",
"U+	c #A36241",
"V+	c #9D5D3E",
"W+	c #673723",
"X+	c #6B3822",
"Y+	c #703A21",
"Z+	c #282E2F",
"`+	c #252E2F",
" @	c #87421D",
".@	c #5A3629",
"+@	c #7F3F1F",
"@@	c #6E4A37",
"#@	c #904C2A",
"$@	c #80401F",
"%@	c #844220",
"&@	c #9B5939",
"*@	c #904F2F",
"=@	c #322E2C",
"-@	c #7A3D20",
";@	c #915233",
">@	c #85411E",
",@	c #0E2C30",
"'@	c #262E2F",
")@	c #87421E",
"!@	c #473029",
"~@	c #824120",
"{@	c #7C462D",
"]@	c #4F3B33",
"^@	c #523C33",
"/@	c #1C2C2E",
"(@	c #693823",
"_@	c #995A3A",
":@	c #52372D",
"<@	c #36322F",
"[@	c #35322F",
"}@	c #323130",
"|@	c #834323",
"1@	c #80513B",
"2@	c #222C2E",
"3@	c #2F302E",
"4@	c #362F2A",
"5@	c #684425",
"6@	c #6E4726",
"7@	c #4E332B",
"8@	c #803E1B",
"9@	c #8E4E2E",
"0@	c #38302D",
"a@	c #0A272C",
"b@	c #A96542",
"c@	c #A76443",
"d@	c #A05C3A",
"e@	c #0A2B2E",
"f@	c #4B382A",
"g@	c #583C25",
"h@	c #5F3C1A",
"i@	c #5F3C1D",
"j@	c #5F3D1E",
"k@	c #626A72",
"l@	c #432A18",
"m@	c #6E3A1D",
"n@	c #653623",
"o@	c #633421",
"p@	c #44302A",
"q@	c #2F2F2F",
"r@	c #262C2F",
"s@	c #182A2D",
"t@	c #8A553D",
"u@	c #88492A",
"v@	c #874221",
"w@	c #292600",
"x@	c #4A3409",
"y@	c #442F1D",
"z@	c #757D87",
"A@	c #71767C",
"B@	c #1D1500",
"C@	c #5B5C59",
"D@	c #273859",
"E@	c #003F69",
"F@	c #6E3B24",
"G@	c #8F583E",
"H@	c #5B3F33",
"I@	c #2E2F2F",
"J@	c #423022",
"K@	c #724A27",
"L@	c #4C3A2C",
"M@	c #7B3E21",
"N@	c #422C00",
"O@	c #2D6CCA",
"P@	c #2E579C",
"Q@	c #2F2E26",
"R@	c #2E2E2F",
"S@	c #2B4371",
"T@	c #285EAD",
"U@	c #285DAB",
"V@	c #235294",
"W@	c #6E3907",
"X@	c #40342F",
"Y@	c #302E2C",
"Z@	c #302D2B",
"`@	c #333435",
" #	c #353739",
".#	c #463D39",
"+#	c #664325",
"@#	c #623D19",
"##	c #1A292E",
"$#	c #2C2E2E",
"%#	c #222D2E",
"&#	c #1E2D2F",
"*#	c #373330",
"=#	c #A26142",
"-#	c #1C2B30",
";#	c #2C6CCA",
">#	c #2D6DCC",
",#	c #2D6DCB",
"'#	c #2B68C1",
")#	c #285CA9",
"!#	c #285DAA",
"~#	c #255395",
"{#	c #613400",
"]#	c #703A18",
"^#	c #864424",
"/#	c #9E5E3F",
"(#	c #A76442",
"_#	c #553C32",
":#	c #2D2B28",
"<#	c #2D2B29",
"[#	c #2C2925",
"}#	c #3E4247",
"|#	c #393E42",
"1#	c #6C737D",
"2#	c #7A828D",
"3#	c #757D88",
"4#	c #747C87",
"5#	c #242221",
"6#	c #453630",
"7#	c #995D3F",
"8#	c #A56241",
"9#	c #1D3144",
"0#	c #2860B1",
"a#	c #2D69C4",
"b#	c #2D6AC4",
"c#	c #295FAF",
"d#	c #2C416A",
"e#	c #22487B",
"f#	c #1D487C",
"g#	c #613516",
"h#	c #864625",
"i#	c #955B3E",
"j#	c #20292C",
"k#	c #262D2F",
"l#	c #694322",
"m#	c #4E565E",
"n#	c #4F555C",
"o#	c #454B51",
"p#	c #9299A4",
"q#	c #8B939F",
"r#	c #C2C4C9",
"s#	c #D3D3D6",
"t#	c #BDBDC0",
"u#	c #262423",
"v#	c #40312C",
"w#	c #955333",
"x#	c #A46341",
"y#	c #1D3145",
"z#	c #275FAF",
"A#	c #285CA8",
"B#	c #2D6AC5",
"C#	c #285DA9",
"D#	c #2D374D",
"E#	c #245394",
"F#	c #255292",
"G#	c #4C3012",
"H#	c #945A3E",
"I#	c #242B2D",
"J#	c #39322D",
"K#	c #5B3D26",
"L#	c #292C2D",
"M#	c #2B2926",
"N#	c #72757A",
"O#	c #ADB1BA",
"P#	c #A5AAB2",
"Q#	c #DBDBDD",
"R#	c #D5D5D8",
"S#	c #D4D4D7",
"T#	c #D7D7DA",
"U#	c #A7A7A9",
"V#	c #6E6E6F",
"W#	c #787373",
"X#	c #70320A",
"Y#	c #905636",
"Z#	c #1F406C",
"`#	c #2760B0",
" $	c #285EAC",
".$	c #275DAA",
"+$	c #285EAB",
"@$	c #302804",
"#$	c #312B17",
"$$	c #2F2A16",
"%$	c #47322D",
"&$	c #763D23",
"*$	c #713A21",
"=$	c #683823",
"-$	c #36322D",
";$	c #372C25",
">$	c #282625",
",$	c #555556",
"'$	c #8D8D8E",
")$	c #D8D7DA",
"!$	c #D8D8DB",
"~$	c #878889",
"{$	c #0B1B1B",
"]$	c #1F2923",
"^$	c #2D4778",
"/$	c #2D4471",
"($	c #322E29",
"_$	c #282E2E",
":$	c #676665",
"<$	c #F9F8F8",
"[$	c #C2C2C2",
"}$	c #141313",
"|$	c #CECED2",
"1$	c #080808",
"2$	c #33302D",
"3$	c #D9D9D9",
"4$	c #EEEEEE",
"5$	c #F8F8F8",
"6$	c #DADADD",
"7$	c #DCDCDE",
"8$	c #DCDCDF",
"9$	c #D6D6D8",
"0$	c #DEDEE0",
"a$	c #E1E1E3",
"b$	c #F4F4F3",
"c$	c #383837",
"d$	c #323030",
"e$	c #BEBEBE",
"f$	c #B2B2B2",
"g$	c #B3B3B3",
"h$	c #D3D3D2",
"i$	c #B9B9B9",
"j$	c #A9A9A8",
"k$	c #211F1F",
"l$	c #302D2C",
"m$	c #454443",
"n$	c #686867",
"o$	c #676767",
"p$	c #696968",
"q$	c #2F2C2B",
"r$	c #312E2D",
". + + + . + + + + + + + + + + + + @ # $ $ % & & & $ $ % + + + + . + + ",
"+ + + + . . + @ + + + + + + + + + * = - ; > , ' ) ! - ~ + + + . + + + ",
"+ + + + + . + + @ + + + + + { ] ^ / ( _ : _ < [ } | 1 2 3 + @ @ + + + ",
"@ + + + + + + + + + + + + 4 5 6 7 8 9 9 0 [ a b c d 1 a e f + @ @ + + ",
"+ + + + + + + + + g g + + h i j k l m n n o p q r s t u u v w + + + + ",
". + + + + + + g g + g g . 4 x y z A B C C D E F G s H I u I v J . + + ",
". . + + + + K K K g K g . . L M N O P O O Q R j S T U V u u W X . . + ",
"+ + + + + # + Y + K + K + Z `  ...+.@.#.$.%.&.*.=.-.;.>.a u W X ,.+ + ",
"+ + + + + K K @ Y + Y . K '.).!.C ~.{.].^./.(._.:.<.[.}.u u |.1.2.3.+ ",
"+ + + + + @ K K + + . @ K 4.5.6.7.8.k j 9.0.a.b.c.d.e u u I e.f.g.h.^ ",
"+ + + + + + + + + . . + ^ i.j.k.l.@.m.k n.o.b.p.q.r.e u u s.t.u.v.w.x.",
"+ + + + + + + + . . + + y.z.A.B.C.D.E.F.G.b.b.H.I.t u u u J.K.L.O M.N.",
"+ + + @ + + + + . + + + y.O.P.Q.R.S.p.b.b.b.T.U.I u u u u V.W.X.O Y.Z.",
"+ + + + @ + + + + + + + d.`. +.+++@+#+p.f.q.$+|.u u u u I %+&+P O *+Z.",
"+ @ + + + + + + + + + + + =+-+;+>+,+'+)+!+~+e u u u u u W {+]+^+/+(+_+",
"@ + + + + + + + + + + + + :+<+[+}+|+1+2+3+4+u u u u u 5+w 6+7+8+9+0+a+",
"+ + + + + + + + + + + + + + b+c+d+e+: : _ f+g+a I h+i+j+k+l+m+m+n+T.o+",
"+ + + + + + + + + + + + + + + + p+q+< < < r+: s+t+u+v+w+x+y+O y+z+A+^ ",
"+ + + + + # + + + + @ + + + + + B+C+r+< D+E+q+F+G+H+I+J+K+O O y+L+M++ ",
". + + + + + + + + + + + + + + % N+O+P+Q+R+f.S+T+U+V+W+X+O O O P Y+Z++ ",
". + + + + + + + + + + + + + + `+ @.@+@@@#@$@%@&@M.*@=@-@;@y+N >@,@K + ",
"+ + + + + + + + + + + + + + + '@)@p.!@Y.~@<.c.{@]@^@/@(@_@O M.:@^ + + ",
"+ + + + + + + + + + + + + + + B+<@[@}@|@1@2@3@4@5@6@7@8@X.O 9@0@+ + + ",
"+ + + + + + + + + K + + + + + a@b@c@d@e@f@g@h@i@j@k@l@m@n@o@p@+ + + + ",
"+ + + + + + + + + . . + q@r@s@t@L.u@v@w@x@y@z@A@B@C@D@E@F@G@H@g + + + ",
"+ . . + + + + + + + % I@J@K@L@M@T.<.N@O@P@Q@R@S@T@U@V@W@+@N *+X@+ + + ",
". . + + + + Y@Z@`@ #.#+#@###$#%#&#*#=#-#;#>#,#'#)#!#~#{#]#^#/#(#_#:++ ",
"+ + 1.:#<#[#}#|#1#2#2#3#4#5#@ . 6#7#8#9#0#a#b#c#!#!#d#e#f#g#h#P i#j#+ ",
"% k#l#m#n#o#p#q#r#s#s#s#s#t#u#. v#w#x#y#z#A#B#A#!#C#D#E#F#G#8@P H#I#. ",
"J#K#L#M#N#O#P#Q#R#S#S#S#S#T#U#V#W#X#Y#Z#`# $.$ $ $+$@$#$$$%$&$*$=$-$. ",
";$>$+ + ,$'$)$S#S#S#S#S#S#S#T#!$~${$]$^$/$/$/$/$/$/$($@ + $ '@'@_$% + ",
":$j <$<$[$}$S#s#S#S#S#S#S#S#|$j 1$. + 2$2$2$2$2$2$2$+ + + + + + + @ + ",
". + 3$4$j j j 5$6$7$8$9$0$a$b$c$. + + @ # + + + + + + + + + + + @ + + ",
". d$+ + e$f$g$h$j j j j i$j$k$. + + + + @ @ + + + + + + + + + @ + + + ",
"+ . + + ] l$l$m$n$o$o$p$q$r$+ + + + + + + + + + + + . . . + + + + + + "};
