/* XPM */
static char * down_attack_5_xpm[] = {
"35 35 379 2",
"  	c None",
". 	c #2F2D2D",
"+ 	c #33302F",
"@ 	c #2C2A2A",
"# 	c #44352C",
"$ 	c #485734",
"% 	c #30302F",
"& 	c #1A2C2C",
"* 	c #202F2D",
"= 	c #783333",
"- 	c #7A3333",
"; 	c #773333",
"> 	c #1D2E2D",
", 	c #222D2D",
"' 	c #322F2E",
") 	c #3F302F",
"! 	c #613131",
"~ 	c #9C3636",
"{ 	c #983636",
"] 	c #7B3030",
"^ 	c #7A2D2D",
"/ 	c #9C3637",
"( 	c #873434",
"_ 	c #2D2D2D",
": 	c #50433A",
"< 	c #302F2E",
"[ 	c #636262",
"} 	c #423332",
"| 	c #973636",
"1 	c #9E3737",
"2 	c #953535",
"3 	c #853232",
"4 	c #4A0000",
"5 	c #999A9A",
"6 	c #8C2E2D",
"7 	c #7C2F2F",
"8 	c #733030",
"9 	c #27302E",
"0 	c #2A2825",
"a 	c #2F2F2E",
"b 	c #F6F6F6",
"c 	c #000000",
"d 	c #772F30",
"e 	c #3A3229",
"f 	c #3F3229",
"g 	c #3D3229",
"h 	c #6F2F30",
"i 	c #D6D8D8",
"j 	c #A2A2A2",
"k 	c #6B2323",
"l 	c #7E3030",
"m 	c #6E302F",
"n 	c #2D302F",
"o 	c #8F9293",
"p 	c #793915",
"q 	c #915639",
"r 	c #9E5E3D",
"s 	c #9E5D3E",
"t 	c #9F5F3F",
"u 	c #7D3F21",
"v 	c #CDCECE",
"w 	c #A2A3A3",
"x 	c #6F2424",
"y 	c #803030",
"z 	c #783030",
"A 	c #2A302F",
"B 	c #6C3920",
"C 	c #A46444",
"D 	c #A36242",
"E 	c #955536",
"F 	c #A16141",
"G 	c #9A5329",
"H 	c #B4B7B8",
"I 	c #FFFFFF",
"J 	c #A6A6A6",
"K 	c #532C18",
"L 	c #59352A",
"M 	c #7C3030",
"N 	c #29302F",
"O 	c #985737",
"P 	c #824223",
"Q 	c #874829",
"R 	c #A36342",
"S 	c #844425",
"T 	c #905132",
"U 	c #804020",
"V 	c #DDE0E0",
"W 	c #7D3100",
"X 	c #713C24",
"Y 	c #262F2E",
"Z 	c #212E2F",
"` 	c #CFCAC9",
" .	c #6C412B",
"..	c #813F1C",
"+.	c #917D77",
"@.	c #EFEFEF",
"#.	c #878D8E",
"$.	c #782100",
"%.	c #7D4022",
"&.	c #60302E",
"*.	c #6B2F30",
"=.	c #5A2F2F",
"-.	c #7A3D1F",
";.	c #5E3525",
">.	c #312F2F",
",.	c #39322D",
"'.	c #864524",
").	c #030000",
"!.	c #894624",
"~.	c #834425",
"{.	c #763915",
"].	c #5D301A",
"^.	c #814020",
"/.	c #753D23",
"(.	c #712F30",
"_.	c #3D312D",
":.	c #4D342B",
"<.	c #563427",
"[.	c #A66342",
"}.	c #A76342",
"|.	c #A56444",
"1.	c #864626",
"2.	c #81401F",
"3.	c #633A26",
"4.	c #732F30",
"5.	c #7F3030",
"6.	c #622E30",
"7.	c #A26242",
"8.	c #A16040",
"9.	c #5C3F33",
"0.	c #55362A",
"a.	c #001B2C",
"b.	c #12292C",
"c.	c #06282C",
"d.	c #5F3324",
"e.	c #82411F",
"f.	c #6C2E30",
"g.	c #60312E",
"h.	c #211F2D",
"i.	c #D1A234",
"j.	c #001B2E",
"k.	c #4E422E",
"l.	c #67552F",
"m.	c #86421E",
"n.	c #85411E",
"o.	c #23302D",
"p.	c #813030",
"q.	c #563729",
"r.	c #5D4033",
"s.	c #2D2A2F",
"t.	c #AB8532",
"u.	c #9E7C32",
"v.	c #8C6E2D",
"w.	c #6C4A2E",
"x.	c #512E2F",
"y.	c #4D2D2F",
"z.	c #8B3232",
"A.	c #6A2F30",
"B.	c #6B3A24",
"C.	c #7E3E1D",
"D.	c #8A4B2C",
"E.	c #925333",
"F.	c #4A322A",
"G.	c #43302F",
"H.	c #9A3636",
"I.	c #8E3434",
"J.	c #713030",
"K.	c #232E2F",
"L.	c #91502F",
"M.	c #A06040",
"N.	c #8E4F30",
"O.	c #44302F",
"P.	c #9B3636",
"Q.	c #993636",
"R.	c #893232",
"S.	c #4E2B2C",
"T.	c #643925",
"U.	c #573527",
"V.	c #9C5E3F",
"W.	c #2D2F2F",
"X.	c #2C2F2E",
"Y.	c #823433",
"Z.	c #933536",
"`.	c #923535",
" +	c #723331",
".+	c #913535",
"++	c #633131",
"@+	c #A76442",
"#+	c #8A4A2B",
"$+	c #6C3A24",
"%+	c #995D3E",
"&+	c #92502F",
"*+	c #192D2F",
"=+	c #282E2F",
"-+	c #763D23",
";+	c #45332B",
">+	c #6C3926",
",+	c #6A3722",
"'+	c #793E22",
")+	c #703C24",
"!+	c #8F5336",
"~+	c #9E5E3E",
"{+	c #5A372A",
"]+	c #793D20",
"^+	c #683C29",
"/+	c #4A4038",
"(+	c #1F2021",
"_+	c #5C3729",
":+	c #84492D",
"<+	c #9D5D3D",
"[+	c #803E1D",
"}+	c #965A3D",
"|+	c #8E573D",
"1+	c #553C32",
"2+	c #44322C",
"3+	c #A26141",
"4+	c #4F3229",
"5+	c #BFBFBF",
"6+	c #FBFBFB",
"7+	c #8B8A8A",
"8+	c #C7C7C7",
"9+	c #B2B2B2",
"0+	c #302D2B",
"a+	c #332D2B",
"b+	c #46312A",
"c+	c #A25F3D",
"d+	c #2C2C2C",
"e+	c #382F2D",
"f+	c #362D27",
"g+	c #6C4728",
"h+	c #3C352D",
"i+	c #7E3F1F",
"j+	c #262E2F",
"k+	c #363332",
"l+	c #9A9999",
"m+	c #ACACAB",
"n+	c #F8F8F8",
"o+	c #D6D5D5",
"p+	c #C0C0C1",
"q+	c #1E1D1D",
"r+	c #A86442",
"s+	c #A76543",
"t+	c #864E34",
"u+	c #44362A",
"v+	c #583D28",
"w+	c #5B3919",
"x+	c #5C3D21",
"y+	c #5D4639",
"z+	c #3E474C",
"A+	c #6B380A",
"B+	c #623625",
"C+	c #5F3321",
"D+	c #242E30",
"E+	c #D9D9DB",
"F+	c #815039",
"G+	c #9D5D3E",
"H+	c #7F3F1F",
"I+	c #733C24",
"J+	c #2E2F2E",
"K+	c #262420",
"L+	c #7E8590",
"M+	c #686D74",
"N+	c #2F2900",
"O+	c #23579D",
"P+	c #793C1A",
"Q+	c #A56442",
"R+	c #828181",
"S+	c #CCCBCB",
"T+	c #FCFCFC",
"U+	c #C2C1C2",
"V+	c #79787A",
"W+	c #353231",
"X+	c #2B2A28",
"Y+	c #3C2F27",
"Z+	c #5D4029",
"`+	c #5E3F27",
" @	c #523B2B",
".@	c #48312A",
"+@	c #573427",
"@@	c #503026",
"#@	c #745155",
"$@	c #2C6CC8",
"%@	c #2E569A",
"&@	c #24539B",
"*@	c #245AA7",
"=@	c #285FAE",
"-@	c #2761B3",
";@	c #502C00",
">@	c #84401E",
",@	c #975839",
"'@	c #A36241",
")@	c #523B31",
"!@	c #F3F3F3",
"~@	c #323333",
"{@	c #37393A",
"]@	c #5A6169",
"^@	c #596068",
"/@	c #3E4449",
"(@	c #36383B",
"_@	c #92593D",
":@	c #8F5634",
"<@	c #25589F",
"[@	c #2D6AC5",
"}@	c #285CA8",
"|@	c #285DAA",
"1@	c #285DA9",
"2@	c #2C2F30",
"3@	c #163242",
"4@	c #7E3D19",
"5@	c #1B2A2D",
"6@	c #EBEBEB",
"7@	c #C8C8CB",
"8@	c #121010",
"9@	c #313237",
"0@	c #494E53",
"a@	c #40454A",
"b@	c #858C97",
"c@	c #888F99",
"d@	c #C9CACF",
"e@	c #C8C9CD",
"f@	c #C8C9CE",
"g@	c #C5C6CA",
"h@	c #161414",
"i@	c #3E322E",
"j@	c #A25F3E",
"k@	c #4A4257",
"l@	c #275CA9",
"m@	c #2A63B7",
"n@	c #2960B1",
"o@	c #285EAB",
"p@	c #2E3B57",
"q@	c #23569B",
"r@	c #235599",
"s@	c #5A330A",
"t@	c #A86644",
"u@	c #E8E8EA",
"v@	c #999B9E",
"w@	c #A6ABB4",
"x@	c #C4C6CA",
"y@	c #D7D7DA",
"z@	c #D4D4D7",
"A@	c #DADADE",
"B@	c #6A6A6B",
"C@	c #7B7778",
"D@	c #733606",
"E@	c #21497D",
"F@	c #285EAD",
"G@	c #285DAB",
"H@	c #285EAC",
"I@	c #295AA4",
"J@	c #302C1A",
"K@	c #312C16",
"L@	c #54352C",
"M@	c #72391F",
"N@	c #E4E4E6",
"O@	c #D2D2D5",
"P@	c #D9D9DC",
"Q@	c #464646",
"R@	c #2C2D2A",
"S@	c #2E364A",
"T@	c #2E3547",
"U@	c #2E3546",
"V@	c #31302F",
"W@	c #2D2F2E",
"X@	c #463830",
"Y@	c #CFCFCF",
"Z@	c #E6E6E8",
"`@	c #E7E7E9",
" #	c #E7E7E8",
".#	c #EDEDEF",
"+#	c #DCDCDC",
"@#	c #232120",
"##	c #CBCBCB",
"$#	c #B5B5B4",
"%#	c #AFAFAF",
"&#	c #A9A9A9",
"*#	c #A1A1A1",
"=#	c #ACACAC",
"-#	c #242222",
". + + + . + + + + + + + + + + + + @ # + + + + + + + + + + + + + . + + ",
"+ + + + . . + @ + + + + + + + + + + + + + + + + + . + + + + + . + + + ",
"+ + + + + . + + @ + + + + + + + + + + + + + + + + + . + + + @ @ + + + ",
"@ + + + + + + + + + + + + + + + + + + + + + + @ + + . . + + + @ @ + + ",
"+ + + + + + + + + $ $ + + . + + + + + + + % & * = - ; > , + + + + + + ",
". + + + + + + $ $ + $ $ . + + + + + ' + ) ! ~ ~ { ] ^ / ( _ . . . + + ",
". . + + + + : : : $ : $ . . $ $ + < [ } | 1 / 2 3 4 5 6 7 8 9 + . . + ",
"+ + + + + # + 0 + : + : + $ $ + + a b c d e f g h i j k l l m n + + + ",
"+ + + + + : : @ 0 + 0 . : $ + + + a o p q r s t u v w x y l l z A + + ",
"+ + + + + @ : : + + . @ : + + + + + B C D E F G H I J K L M l l N + + ",
"+ + + + + + + + + . . + + : : @ + a O P Q R S T U V W U X z l l Y + + ",
"+ + + + + + + + . . + + : : @ + + Z `  ...+.@.#.U $.%.&.*.l y =.-.;.>.",
"+ + + @ + + + + . + + + + + + + ,.'.).!.~.{.c ].U ^./.(.l l l _.O t :.",
"+ + + + @ + + + + + + + + + + + <.[.}.[.|.1.2.^.U 3.4.5.l l 6.2.7.8.9.",
"+ @ + + + + + + + + + + + + + + 0.a.b.c.d.^.U e.X f.l l l 5.g.U F 8.9.",
"@ + + + + + + + + + + + + + + . h.i.j.k.l.m.n.o.z l l l l p.q.U 7.8.r.",
"+ + + + + + + + + + + + + + . . s.t.u.v.w.x.y.z.l l l l 5.A.B.C.D.E.F.",
"+ + + + + + + + + + + + + + + + + + a G.H.{ { I.l l l l J.K.L.M.N.U :.",
"+ + + + + # + + + + @ + + + + + + + + O.P.{ { P.Q.R.S.T.U.V.F M.N.u W.",
". + + + + + + + + + + + + + + + + + + X.Y.Z.`. +.+++@+#+$+%+M.M.&+*++ ",
". + + + + + + + + + + + + + + + + + =+-+;+>+,+'+)+!+~+{+]+t M.M.^+/++ ",
"+ + + + + + + + + + + + + + + + . . (+n._+:+<+[+2.}+|+1+2+S 3+F 4++ + ",
"+ + + + + + + + + + + 5+6+7+7+6+8+. 9+0+a+b+c+d+e+f+g+h+i+t R '.j++ + ",
"+ + + + k++ l+m+I n+o+p++ + + + + + q+r+s+t+u+v+w+x+y+z+A+B+C+D++ + + ",
"+ + + + + I I I E+. . + + + + + a a F+G+H+I+J+K+L+M+a N+O+P+Q+a + + + ",
"k+. R+S+I T+U+V++ W++ . . X+Y+Z+`+ @.@+@@@#@$@%@&@*@=@-@;@>@,@'@)@+ + ",
". 6+I I I !@+ + @ ' ' ~@{@]@^@/@(@+ + + _@:@<@[@[@}@|@1@2@3@4@G+@+5@+ ",
"6@I I I I T+7@8@9@0@a@b@c@d@e@f@g@h@+ i@j@k@l@m@n@|@o@p@q@r@s@H+t@5@+ ",
"6@I I I I I I I u@v@w@x@y@z@z@z@z@A@B@C@D@E@F@G@H@H@I@J@K@K@L@I+M@=+. ",
"+ 6+I I I I I I I I T+N@O@z@z@z@z@z@P@Q@R@S@T@T@T@T@U@+ @ + V@J+W@< . ",
"X@+ Y@I I I I I I I I I I Z@`@`@ #.#+#@#+ + + + + + + @ + + + + + + + ",
"+ + + + ##I I I I I I I I I I I I a V@+ + + + + + + + + + + + + + @ + ",
". + + + # + . $#%#&#I I I I *#=#-#+ + @ # + + + + + + + + + + + @ + + ",
". . + + + + . . + k+@ + + + . . + + + + @ @ + + + + + + + + + @ + + + ",
"+ . + + + + + + + @ + + + + + + + + + + + + + + + + . . . + + + + + + "};
