/* XPM */
static char * idle_4_xpm[] = {
"35 35 341 2",
"  	c None",
". 	c #33302F",
"+ 	c #2F2D2D",
"@ 	c #44352C",
"# 	c #2C2A2A",
"$ 	c #485734",
"% 	c #50433A",
"& 	c #242F2E",
"* 	c #3C302F",
"= 	c #6D3232",
"- 	c #272F2E",
"; 	c #252F2E",
"> 	c #31302F",
", 	c #332F2E",
"' 	c #9E3637",
") 	c #933535",
"! 	c #7C3030",
"~ 	c #8F3434",
"{ 	c #9C3636",
"] 	c #9B3636",
"^ 	c #643231",
"/ 	c #3E302F",
"( 	c #2A2825",
"_ 	c #3A2F2E",
": 	c #7E3030",
"< 	c #903434",
"[ 	c #712A2A",
"} 	c #7F2F2F",
"| 	c #803131",
"1 	c #893232",
"2 	c #983636",
"3 	c #993636",
"4 	c #122E2D",
"5 	c #252D19",
"6 	c #482F2E",
"7 	c #823030",
"8 	c #843030",
"9 	c #576060",
"0 	c #C0C2C2",
"a 	c #741615",
"b 	c #552E2F",
"c 	c #6D3133",
"d 	c #6A3133",
"e 	c #963534",
"f 	c #793F3F",
"g 	c #BDBEBE",
"h 	c #302822",
"i 	c #232F2E",
"j 	c #833030",
"k 	c #783030",
"l 	c #38322C",
"m 	c #595959",
"n 	c #FFFFFF",
"o 	c #25393A",
"p 	c #8D4825",
"q 	c #894726",
"r 	c #8C4825",
"s 	c #3A3630",
"t 	c #514541",
"u 	c #C8C8C8",
"v 	c #1E1C1C",
"w 	c #813030",
"x 	c #7F3030",
"y 	c #2B2E2F",
"z 	c #89431D",
"A 	c #515A5B",
"B 	c #969A9B",
"C 	c #A86544",
"D 	c #A06040",
"E 	c #A05F3F",
"F 	c #9D5D3D",
"G 	c #4D413E",
"H 	c #302F2E",
"I 	c #612E30",
"J 	c #5E321D",
"K 	c #8C726A",
"L 	c #CDBEBB",
"M 	c #7C3900",
"N 	c #A26242",
"O 	c #A26241",
"P 	c #955636",
"Q 	c #8C4D2E",
"R 	c #8B3E00",
"S 	c #242F31",
"T 	c #352F2D",
"U 	c #8D4A28",
"V 	c #87421E",
"W 	c #5A2E30",
"X 	c #41332B",
"Y 	c #804020",
"Z 	c #84411F",
"` 	c #5E6C6F",
" .	c #A98E87",
"..	c #986C5A",
"+.	c #7D3B19",
"@.	c #925B40",
"#.	c #C6C3C3",
"$.	c #1F1D1D",
"%.	c #704836",
"&.	c #A16141",
"*.	c #593526",
"=.	c #702F30",
"-.	c #7E4021",
";.	c #703D28",
">.	c #444646",
",.	c #70402D",
"'.	c #7F3F1F",
").	c #7B3E20",
"!.	c #344345",
"~.	c #693923",
"{.	c #714836",
"].	c #553426",
"^.	c #853030",
"/.	c #7B3030",
"(.	c #55352A",
"_.	c #814020",
":.	c #82411F",
"<.	c #9E5E3E",
"[.	c #A66442",
"}.	c #AA6643",
"|.	c #623524",
"1.	c #292D2F",
"2.	c #714937",
"3.	c #A36242",
"4.	c #833F1B",
"5.	c #312E2F",
"6.	c #502F2F",
"7.	c #7D3F21",
"8.	c #773C20",
"9.	c #001F2D",
"0.	c #0F292C",
"a.	c #00192D",
"b.	c #603828",
"c.	c #302E2C",
"d.	c #333333",
"e.	c #353738",
"f.	c #343739",
"g.	c #3B2815",
"h.	c #5E412B",
"i.	c #593427",
"j.	c #854526",
"k.	c #83411F",
"l.	c #3B2E2F",
"m.	c #4E2E30",
"n.	c #3A212B",
"o.	c #A8822D",
"p.	c #2E2E2E",
"q.	c #CC9F34",
"r.	c #000D2D",
"s.	c #2F2F2E",
"t.	c #343637",
"u.	c #50565D",
"v.	c #7A818A",
"w.	c #9299A4",
"x.	c #969DA9",
"y.	c #1B1514",
"z.	c #583326",
"A.	c #985939",
"B.	c #995A3A",
"C.	c #803D1A",
"D.	c #37302D",
"E.	c #482F2F",
"F.	c #723031",
"G.	c #45342A",
"H.	c #2D2B2D",
"I.	c #8B6D2D",
"J.	c #C79A34",
"K.	c #937431",
"L.	c #0F242F",
"M.	c #654429",
"N.	c #69482F",
"O.	c #7E8794",
"P.	c #898F99",
"Q.	c #C6C8CC",
"R.	c #CFCFD3",
"S.	c #D6D6D8",
"T.	c #D8D8DA",
"U.	c #9F9FA2",
"V.	c #181616",
"W.	c #2E2B2A",
"X.	c #724A37",
"Y.	c #8B5135",
"Z.	c #5F3828",
"`.	c #85411E",
" +	c #4C352A",
".+	c #533229",
"++	c #7E3234",
"@+	c #843334",
"#+	c #61382E",
"$+	c #4A362C",
"%+	c #000529",
"&+	c #503929",
"*+	c #5F422A",
"=+	c #180303",
"-+	c #1D1B1A",
";+	c #B6B5B7",
">+	c #D9D9DC",
",+	c #D4D4D7",
"'+	c #D6D6D9",
")+	c #717171",
"!+	c #784C37",
"~+	c #44322C",
"{+	c #7F4020",
"]+	c #7C3C1D",
"^+	c #925A3E",
"/+	c #2F302E",
"(+	c #222E2E",
"_+	c #724926",
":+	c #6E4726",
"<+	c #523822",
"[+	c #292E2F",
"}+	c #39302D",
"|+	c #9C5B3A",
"1+	c #9D5423",
"2+	c #D2D3D7",
"3+	c #232120",
"4+	c #D5D5D8",
"5+	c #FDFDFD",
"6+	c #272525",
"7+	c #3D3330",
"8+	c #A36141",
"9+	c #955333",
"0+	c #4C352B",
"a+	c #644329",
"b+	c #674529",
"c+	c #6A4627",
"d+	c #543822",
"e+	c #3A342D",
"f+	c #3D2011",
"g+	c #BFC0C2",
"h+	c #927974",
"i+	c #242E2F",
"j+	c #4D342B",
"k+	c #84411D",
"l+	c #843C0E",
"m+	c #6C6E70",
"n+	c #B6B6B7",
"o+	c #D0D0D4",
"p+	c #CFCFD2",
"q+	c #757575",
"r+	c #2C2A29",
"s+	c #263A2F",
"t+	c #A56342",
"u+	c #884625",
"v+	c #26302F",
"w+	c #5D402A",
"x+	c #482F27",
"y+	c #704939",
"z+	c #6E4737",
"A+	c #8F4B28",
"B+	c #833A00",
"C+	c #B6ABAA",
"D+	c #793A0C",
"E+	c #2A2F2F",
"F+	c #232E2F",
"G+	c #1F1D1C",
"H+	c #C5C5C4",
"I+	c #CBCBCA",
"J+	c #CDCDCC",
"K+	c #1E1C1B",
"L+	c #36312E",
"M+	c #352F28",
"N+	c #814223",
"O+	c #905031",
"P+	c #7A3E21",
"Q+	c #3D3F41",
"R+	c #683F31",
"S+	c #824426",
"T+	c #9C5E3E",
"U+	c #2A3A3F",
"V+	c #2A393D",
"W+	c #9C5E3F",
"X+	c #4A3129",
"Y+	c #3F342D",
"Z+	c #4D4139",
"`+	c #32302F",
" @	c #41312C",
".@	c #43322C",
"+@	c #38302C",
"@@	c #434C51",
"#@	c #757D85",
"$@	c #888F9A",
"%@	c #777F8A",
"&@	c #878E99",
"*@	c #7F8691",
"=@	c #78808B",
"-@	c #575B60",
";@	c #445133",
">@	c #3E4831",
",@	c #4C3F2D",
"'@	c #86421F",
")@	c #935232",
"!@	c #64370B",
"~@	c #18417C",
"{@	c #194079",
"]@	c #696B69",
"^@	c #636561",
"/@	c #224B8D",
"(@	c #193658",
"_@	c #2B2C2E",
":@	c #473D36",
"<@	c #34382F",
"[@	c #4A3F38",
"}@	c #823E1B",
"|@	c #A36343",
"1@	c #70451B",
"2@	c #275FAF",
"3@	c #285DA9",
"4@	c #2D6DCB",
"5@	c #2D6CCA",
"6@	c #2D65BA",
"7@	c #915527",
"8@	c #86533A",
"9@	c #2E2F2E",
"0@	c #7A3E22",
"a@	c #7D3D1D",
"b@	c #A36241",
"c@	c #724400",
"d@	c #2E6CC9",
"e@	c #285FAE",
"f@	c #252D2A",
"g@	c #9A5939",
"h@	c #A16140",
"i@	c #272D2D",
"j@	c #86421E",
"k@	c #5A372A",
"l@	c #2C2E2E",
"m@	c #234F8C",
"n@	c #275FAE",
"o@	c #2861B2",
"p@	c #225498",
"q@	c #8D4D2D",
"r@	c #8F4C2A",
"s@	c #2B2F2E",
"t@	c #252E2F",
"u@	c #212D2F",
"v@	c #322D22",
"w@	c #312A10",
"x@	c #312B18",
"y@	c #49332C",
"z@	c #222E2F",
". . + . . . . . . . . . . . . . @ # . . . . . . . . . . . . + . . . + ",
". . . + . . . . . + . . . . . . . . . . . . . . . . . # . + + . . . . ",
". . . # # . . . + . . . . . . . . . . . . . . . . . # . . + . . . . . ",
". . # # . . . + + . . # . . . . . . . . . . . . . . . . . . . . . . # ",
". . . . . . + + + # . . # . . . . . . . . + . . $ $ . . . . . . . . . ",
". . + + + + + # # . % . . # . . . . . . . . + $ $ . $ $ . . . . . . + ",
". + + . . # # . . . . . & * = = - ; > $ $ + + $ % $ % % % . . . . + + ",
". . . . . . . . . . . , ' ) ! ~ { ] ^ / $ $ . % . % . ( . @ . . . . . ",
". . . . . . . . . . _ : < [ } | 1 2 3 2 4 5 % + ( . ( # % % . . . . . ",
". . . . . . . . . 6 7 : 8 9 0 a b c d e f g h # + . . % % # . . . . . ",
". . . . . . . . i j : k l m n o p q r s t u v . + + . . . . . . . . . ",
". . . . @ . . . ; w x y z A n B C D D E F G % . . + + . . . . . . . . ",
". . . . . . . H - j : 7 I J K L M N O P Q R S . . . + . . . . # . . . ",
". . . . . . T U V W : : 7 X Y Z `  ...+.@.#.$.. . . . . . . # . . . . ",
". # . . . . %.D &.*.w : : =.-.Y ;.>.,.'.).!.~.. . . . . . . . . . # . ",
". . # . . . {.D O ].^.: : /.(._._.:.<.[.[.}.|.. . . . . . . . > 1.. # ",
". . . # . . 2.D 3.4.5.: : x 6.7.Y Y 8.9.0.a.b.. . . . c.d.e.f.g.h.. . ",
". . . . . . i.O j.k.l.: : : : m.Z Y n.o.p.q.r.. H s.t.u.v.w.w.x.y.. . ",
". . . + + + z.A.B.C.D.E.8 w : x F.G.H.I.J.K.L.M.N.O.P.Q.R.S.S.T.U.V.W.",
". . + + # # X.D D Y.Z.`. +.+x 3 ++@+#+$+%+&+*+=+-+;+>+,+,+,+,+,+'+>+)+",
". % + . . . {.D D !+~+{+]+^+/+(+_+:+<+[+}+|+1+2+. 3+>+,+,+,+,+,+4+5+6+",
". . . . . . 7+8+D 9+0+a+b+c+d+e+f+g+h+i+j+k+l+m+. n+n '+o+o+p+n q+r+. ",
". . . . . . s+t+&.u+v+w+x+y+z+A+B+C+D+E+. F+F+. . -+G+H+I+I+J+K+. . . ",
". . . . . L+M+N+<.O+P+Q+R+S+T+U+V+W+X+. . . . . . % . . . . . . . . . ",
". . . $ . Y+Z+`+ @.@+@@@#@$@%@&@*@=@-@. . . . . + + . . . . . . . . . ",
". . . ;@>@# $ $ % ,@'@)@!@~@{@]@^@/@(@_@+ + + + . . . . . . . . + + . ",
". . + :@<@% # [@D.}@|@D 1@2@3@4@5@6@7@8@+ # # . . . # . . . . . . + + ",
". + . . % % ( 9@0@a@|@b@c@2@3@d@e@f@g@h@i@. . . . # . . . . . . . . . ",
"+ . `+. . . . 9@7.j@k@l@m@e@n@o@p@j@q@r@s@. . . # . . + + . . . . . . ",
"+ @ . . . . # . t@u@. . v@w@w@w@x@F+y@z@. . . . . . . . + . @ . + . . ",
". . . . . . . # . . . . . . . . . . . . . . . . . . . . . + + . . . @ ",
". # . . . . . . . . . . . . . . . + + . . . . . . . . . . + + . . . . ",
". . # . . . . . . . . . . . @ # . . + + . . . . . . . . + . @ . . . + ",
". . . # . . . . . . . . . # # . . . . + + . . . # . . + + . . . . + + ",
". . . . . . + + + . . . . . . . . . . . . . . . . # . . . . . . . + . "};
