/* XPM */
static char * idle_5_xpm[] = {
"35 35 335 2",
"  	c None",
". 	c #33302F",
"+ 	c #2F2D2D",
"@ 	c #44352C",
"# 	c #2C2A2A",
"$ 	c #485734",
"% 	c #50433A",
"& 	c #292A2A",
"* 	c #192E2D",
"= 	c #162E2D",
"- 	c #272F2E",
"; 	c #6D3232",
"> 	c #763332",
", 	c #923434",
"' 	c #9C3636",
") 	c #673231",
"! 	c #6B3232",
"~ 	c #42302F",
"{ 	c #3D4E32",
"] 	c #31302F",
"^ 	c #7D3030",
"/ 	c #8F3434",
"( 	c #792E2E",
"_ 	c #7E3030",
": 	c #8E3434",
"< 	c #963636",
"[ 	c #983636",
"} 	c #9A3636",
"| 	c #833434",
"1 	c #455534",
"2 	c #455332",
"3 	c #2A2825",
"4 	c #26302F",
"5 	c #7B3030",
"6 	c #833131",
"7 	c #605F5E",
"8 	c #050000",
"9 	c #813232",
"0 	c #813030",
"a 	c #993636",
"b 	c #913333",
"c 	c #989999",
"d 	c #382E28",
"e 	c #2C302F",
"f 	c #733030",
"g 	c #823030",
"h 	c #5A2E30",
"i 	c #565858",
"j 	c #FFFFFF",
"k 	c #1F0000",
"l 	c #5B3624",
"m 	c #593524",
"n 	c #593623",
"o 	c #602C30",
"p 	c #334748",
"q 	c #D1D1D1",
"r 	c #332A24",
"s 	c #252F2E",
"t 	c #7F3030",
"u 	c #252E2F",
"v 	c #8B431C",
"w 	c #52595A",
"x 	c #FEFEFE",
"y 	c #9FA3A4",
"z 	c #A86544",
"A 	c #A26241",
"B 	c #A26242",
"C 	c #9C5A39",
"D 	c #864523",
"E 	c #969696",
"F 	c #242121",
"G 	c #32302F",
"H 	c #232F2E",
"I 	c #7C3030",
"J 	c #1F2F2E",
"K 	c #753A1D",
"L 	c #B4B6B6",
"M 	c #440000",
"N 	c #A06040",
"O 	c #A16141",
"P 	c #864626",
"Q 	c #393835",
"R 	c #2D2F30",
"S 	c #673723",
"T 	c #6D3B25",
"U 	c #6E2F30",
"V 	c #843030",
"W 	c #3E332C",
"X 	c #7D3300",
"Y 	c #740000",
"Z 	c #83685F",
"` 	c #801C00",
" .	c #9E5831",
"..	c #804121",
"+.	c #975534",
"@.	c #987F78",
"#.	c #1F2020",
"$.	c #5F392A",
"%.	c #A36343",
"&.	c #8E4D2D",
"*.	c #5C302E",
"=.	c #4F322C",
"-.	c #804020",
";.	c #83411F",
">.	c #605958",
",.	c #EDEFEF",
"'.	c #898A8A",
").	c #84411D",
"!.	c #3D3533",
"~.	c #E6E7E8",
"{.	c #1A1818",
"].	c #714836",
"^.	c #593525",
"/.	c #712F30",
"(.	c #7F4020",
"_.	c #7E3F1F",
":.	c #9F5F3F",
"<.	c #9F6040",
"[.	c #633624",
"}.	c #753B1F",
"|.	c #5B2F2F",
"1.	c #803030",
"2.	c #172D2F",
"3.	c #84411F",
"4.	c #8D4A29",
"5.	c #644435",
"6.	c #684535",
"7.	c #664536",
"8.	c #6B3A25",
"9.	c #302D2C",
"0.	c #2D2B29",
"a.	c #2D2B28",
"b.	c #332D2A",
"c.	c #593E2B",
"d.	c #6B4333",
"e.	c #9A5B3B",
"f.	c #823F1D",
"g.	c #3C2E2F",
"h.	c #833030",
"i.	c #5F3729",
"j.	c #442F2B",
"k.	c #65512E",
"l.	c #2F2F2E",
"m.	c #785F30",
"n.	c #16282E",
"o.	c #312E2D",
"p.	c #302E2C",
"q.	c #312F2E",
"r.	c #353738",
"s.	c #52585F",
"t.	c #646B75",
"u.	c #636C75",
"v.	c #665E5E",
"w.	c #242829",
"x.	c #5C3729",
"y.	c #1F2E2F",
"z.	c #7A3030",
"A.	c #172E2E",
"B.	c #3A212B",
"C.	c #A8822D",
"D.	c #2E2E2E",
"E.	c #CC9F34",
"F.	c #211F2E",
"G.	c #4C5158",
"H.	c #50565D",
"I.	c #5C6269",
"J.	c #9299A4",
"K.	c #BABDC2",
"L.	c #D4D4D7",
"M.	c #DADADD",
"N.	c #161414",
"O.	c #914E2C",
"P.	c #33302E",
"Q.	c #723D23",
"R.	c #452D30",
"S.	c #582E30",
"T.	c #8A3333",
"U.	c #9B3636",
"V.	c #893435",
"W.	c #522F30",
"X.	c #433C2E",
"Y.	c #856A31",
"Z.	c #67482A",
"`.	c #674529",
" +	c #543923",
".+	c #320800",
"++	c #D3D5DA",
"@+	c #C7C9CD",
"#+	c #D6D6D9",
"$+	c #D5D5D8",
"%+	c #D0D0D3",
"&+	c #B6B6B9",
"*+	c #777778",
"=+	c #704A39",
"-+	c #753D23",
";+	c #82411F",
">+	c #85411C",
",+	c #844B2F",
"'+	c #672E2F",
")+	c #833235",
"!+	c #3C3A2A",
"~+	c #443A2B",
"{+	c #5F4126",
"]+	c #644329",
"^+	c #392F26",
"/+	c #644234",
"(+	c #694637",
"_+	c #292D2E",
":+	c #100F0E",
"<+	c #D1D1D4",
"[+	c #EAEAEC",
"}+	c #272626",
"|+	c #704836",
"1+	c #915232",
"2+	c #773E23",
"3+	c #2E2F2E",
"4+	c #2F302E",
"5+	c #41352C",
"6+	c #6F4827",
"7+	c #714927",
"8+	c #382D26",
"9+	c #35302E",
"0+	c #272E2F",
"a+	c #814020",
"b+	c #7F3F1F",
"c+	c #82401E",
"d+	c #9A9A9C",
"e+	c #D3D3D6",
"f+	c #252523",
"g+	c #272A2D",
"h+	c #A46241",
"i+	c #844220",
"j+	c #34332E",
"k+	c #744B26",
"l+	c #443529",
"m+	c #35312B",
"n+	c #092729",
"o+	c #824A30",
"p+	c #773D21",
"q+	c #9D5D3C",
"r+	c #924D2A",
"s+	c #212E2F",
"t+	c #2F302F",
"u+	c #48332C",
"v+	c #616160",
"w+	c #818180",
"x+	c #F5F5F6",
"y+	c #7B7B7B",
"z+	c #2F2C2B",
"A+	c #2A2E2F",
"B+	c #292D2B",
"C+	c #9A5837",
"D+	c #945434",
"E+	c #53352B",
"F+	c #121C1B",
"G+	c #69341A",
"H+	c #9F5C3A",
"I+	c #A96543",
"J+	c #5E2A05",
"K+	c #633011",
"L+	c #904F2F",
"M+	c #543B31",
"N+	c #221F1F",
"O+	c #1F1D1C",
"P+	c #1E1C1B",
"Q+	c #35312E",
"R+	c #29322F",
"S+	c #39322E",
"T+	c #7B3D1F",
"U+	c #7B3E20",
"V+	c #733A1D",
"W+	c #8B929D",
"X+	c #686E76",
"Y+	c #373E42",
"Z+	c #283437",
"`+	c #828995",
" @	c #2F393D",
".@	c #353535",
"+@	c #4A4038",
"@@	c #30302F",
"#@	c #435233",
"$@	c #3F5033",
"%@	c #5A4441",
"&@	c #3E4A50",
"*@	c #404346",
"=@	c #8B939E",
"-@	c #838A96",
";@	c #454335",
">@	c #383834",
",@	c #3F4A32",
"'@	c #344632",
")@	c #663927",
"!@	c #8F4F30",
"~@	c #A46342",
"{@	c #9E5F3D",
"]@	c #324A7C",
"^@	c #1F4A8D",
"/@	c #214A8A",
"(@	c #2D6DCC",
"_@	c #694E5E",
":@	c #664334",
"<@	c #31332E",
"[@	c #9E5E3E",
"}@	c #925835",
"|@	c #285CA7",
"1@	c #2D6AC5",
"2@	c #285DA9",
"3@	c #8C5532",
"4@	c #89543B",
"5@	c #2E2D2D",
"6@	c #343230",
"7@	c #633927",
"8@	c #844322",
"9@	c #7A4C30",
"0@	c #413D52",
"a@	c #285DAA",
"b@	c #2C67BF",
"c@	c #285FAD",
"d@	c #243548",
"e@	c #995A39",
"f@	c #9A5939",
"g@	c #2A2E2E",
"h@	c #4A332B",
"i@	c #2E302F",
"j@	c #263F67",
"k@	c #2C497B",
"l@	c #2C4777",
"m@	c #2C4675",
"n@	c #2A4067",
"o@	c #603828",
"p@	c #693924",
"q@	c #5D3627",
"r@	c #2F2F2F",
"s@	c #2C2E2E",
"t@	c #302F2E",
". . + . . . . . . . . . . . . . @ # . . . . . . . . . . . . + . . . + ",
". . . + . . . . . + . . . . . . . . . . . . . . . . . # . + + . . . . ",
". . . # # . . . + . . . . . . . . . . . . . . . . . # . . + . . . . . ",
". . # # . . . + + . . # . . . . . . . . . . . . . . . . . . . . . . # ",
". . . . . . + + + # . . # . . . . . . . . + . . $ $ . . . . . . . . . ",
". . + + + + + # # . % . . & * = . . . . . . + $ $ . $ $ . . . . . . + ",
". + + . . # # . . . . - ; > , ' ) ! ~ { $ + + $ % $ % % % . . . . + + ",
". . . . . . . . . . ] ^ / ( _ : < [ } | 1 2 . % . % . 3 . @ . . . . . ",
". . . . . . . . . 4 5 _ 6 7 8 9 0 ' ' a b c d + 3 . 3 # % % . . . . . ",
". . . . . . . . e f _ g h i j k l m n o p q r # + . . % % # . . . . . ",
". . . . . . . . s 0 t u v w x y z A B C D E F . + + . . . . . . . . . ",
". . . . @ . . G H 0 _ I J K L j M N N O O P Q . . + + . . . . . . . . ",
". . . . . . R S T U _ _ V W X Y Z `  ...+.@.#.. . . + . . . . # . . . ",
". . . . . . $.%.&.*.t _ 0 =.-.;.>.,.'.).!.~.{.. . . . . . . # . . . . ",
". # . . . . ].N A ^.0 _ _ /.(.-.-._.N :.:.<.[.. . . . . . . . . . # . ",
". . # . . . ].N A }.|._ _ 1.2.3.-.-.4.5.6.7.8.. . . . . 9.0.a.b.c.. # ",
". . . # . . d.O e.f.g._ _ _ h.i.;.-.j.k.l.m.n.. o.p.q.r.s.t.u.v.w.. . ",
". . . . . . x.-.-.;.y.z._ _ _ g A.-.B.C.D.E.F.l.G.H.I.J.K.L.L.M.N.. . ",
". . . + + + d.O O O.P.Q.R.S._ T.U.V.W.X.Y.Z.`. +.+++@+#+$+L.L.L.%+&+*+",
". . + + # # ].N N =+-+;+>+,+'+)+!+~+{+]+^+/+(+_+. :+M.L.L.L.L.L.<+[+}+",
". % + . . . |+N N 1+2+3+4+5+6+7+8+q.9+0+a+b+c+0+. d+#+L.L.L.L.e+j f++ ",
". . . . . . g+h+O i+j+k+l+m+n+o+p+q+r+s+t+u+u+] . v+w+x+j j j y+z+. . ",
". . . . . A+B+C+O D+E+F+G+H+I+J+K+L+M+. . . . . . . . N+O+O+P+. . . . ",
". . . . Q+7+R+S+T+U+V+W+X+Y+Z+W+`+ @.@. . . . . . % . . . . . . . . . ",
". . . $ . +@% . @@#@$@V+%@&@*@=@-@;@>@. . . . . + + . . . . . . . . . ",
". . . ,@$ # $ $ % '@)@!@~@{@]@^@/@(@_@:@+ + + + . . . . . . . . + + . ",
". . + % $ % # % <@)@b+[@N }@|@1@1@2@3@4@5@# # . . . # . . . . . . + + ",
"G + . . % % 3 3 6@7@-.8@9@0@a@b@c@d@e@f@g@. . . . # . . . . . . . . . ",
"+ . . . . . . . G h@x.i@j@k@l@m@n@o@p@q@r@. . . # . . + + . . . . . . ",
"+ @ . . . . # . . . . . . . . . . . s@t@. . . . . . . . + . @ . + . . ",
". . . . . . . # . . . . . . . . . . . . . . . . . . . . . + + . . . @ ",
". # . . . . . . . . . . . . . . . + + . . . . . . . . . . + + . . . . ",
". . # . . . . . . . . . . . @ # . . + + . . . . . . . . + . @ . . . + ",
". . . # . . . . . . . . . # # . . . . + + . . . # . . + + . . . . + + ",
". . . . . . + + + . . . . . . . . . . . . . . . . # . . . . . . . + . "};
