/* XPM */
static char * idle_1_xpm[] = {
"35 35 328 2",
"  	c None",
". 	c #33302F",
"+ 	c #2F2D2D",
"@ 	c #44352C",
"# 	c #2C2A2A",
"$ 	c #485734",
"% 	c #50433A",
"& 	c #232F2E",
"* 	c #252F2E",
"= 	c #30302F",
"- 	c #43302F",
"; 	c #372F2E",
"> 	c #9D3636",
", 	c #993636",
"' 	c #6B3231",
") 	c #31302F",
"! 	c #2A2825",
"~ 	c #3A2F2E",
"{ 	c #813131",
"] 	c #8E3333",
"^ 	c #803030",
"/ 	c #7D3030",
"( 	c #9B3737",
"_ 	c #933535",
": 	c #212E2D",
"< 	c #482F2E",
"[ 	c #823030",
"} 	c #722222",
"| 	c #7A7A7A",
"1 	c #802E2E",
"2 	c #7D2F2F",
"3 	c #933434",
"4 	c #9C3636",
"5 	c #9A3636",
"6 	c #913737",
"7 	c #22201F",
"8 	c #504F4F",
"9 	c #3B2F2E",
"0 	c #7E3030",
"a 	c #763030",
"b 	c #460100",
"c 	c #CFCFCF",
"d 	c #333E3D",
"e 	c #58312E",
"f 	c #39312B",
"g 	c #36312B",
"h 	c #632E2D",
"i 	c #680000",
"j 	c #FFFFFF",
"k 	c #565656",
"l 	c #773030",
"m 	c #783E22",
"n 	c #4B1700",
"o 	c #C9C9C9",
"p 	c #FAFAFA",
"q 	c #7A3C07",
"r 	c #9E5E3E",
"s 	c #9E5F40",
"t 	c #783815",
"u 	c #5A5F5F",
"v 	c #606060",
"w 	c #32302F",
"x 	c #7B3030",
"y 	c #573629",
"z 	c #633115",
"A 	c #909596",
"B 	c #918885",
"C 	c #A56342",
"D 	c #A06040",
"E 	c #A16141",
"F 	c #A36242",
"G 	c #945433",
"H 	c #3B2C27",
"I 	c #322F2F",
"J 	c #48332C",
"K 	c #6E302F",
"L 	c #7F3030",
"M 	c #813030",
"N 	c #522D30",
"O 	c #863F15",
"P 	c #700000",
"Q 	c #8C4617",
"R 	c #8C6051",
"S 	c #965026",
"T 	c #874728",
"U 	c #955636",
"V 	c #995735",
"W 	c #4B3D39",
"X 	c #593629",
"Y 	c #803F1F",
"Z 	c #36312D",
"` 	c #532E30",
" .	c #85411E",
"..	c #804020",
"+.	c #441000",
"@.	c #D0CFCF",
"#.	c #FFFEFE",
"$.	c #661E00",
"%.	c #672E06",
"&.	c #B6B5B5",
"*.	c #848585",
"=.	c #192B2D",
"-.	c #A05E3C",
";.	c #884422",
">.	c #5B2E30",
",.	c #833030",
"'.	c #38332B",
").	c #834221",
"!.	c #602100",
"~.	c #7E3F0C",
"{.	c #975738",
"].	c #985738",
"^.	c #814A2B",
"/.	c #854019",
"(.	c #232E2F",
"_.	c #142A2D",
":.	c #A46241",
"<.	c #874625",
"[.	c #5D2E30",
"}.	c #732F30",
"|.	c #7D3D1C",
"1.	c #91573C",
"2.	c #8C563C",
"3.	c #884726",
"4.	c #2F2F2F",
"5.	c #854526",
"6.	c #5C3828",
"7.	c #302F2E",
"8.	c #82411F",
"9.	c #292E2E",
"0.	c #2F2F2E",
"a.	c #312F2E",
"b.	c #2E2F2E",
"c.	c #664224",
"d.	c #272D2F",
"e.	c #1E2C2E",
"f.	c #995736",
"g.	c #814121",
"h.	c #603828",
"i.	c #552E30",
"j.	c #56332C",
"k.	c #5B3827",
"l.	c #84411F",
"m.	c #5F4F2E",
"n.	c #94732D",
"o.	c #000E2D",
"p.	c #BC9233",
"q.	c #312E2E",
"r.	c #2B2927",
"s.	c #2C2925",
"t.	c #40454A",
"u.	c #3A3E43",
"v.	c #808793",
"w.	c #7D8590",
"x.	c #84838A",
"y.	c #50565C",
"z.	c #222C2E",
"A.	c #874523",
"B.	c #8A4B2C",
"C.	c #5C3729",
"D.	c #81411F",
"E.	c #662F2F",
"F.	c #662F30",
"G.	c #7C3030",
"H.	c #893232",
"I.	c #903536",
"J.	c #5E3032",
"K.	c #693331",
"L.	c #7A5030",
"M.	c #C09533",
"N.	c #47370F",
"O.	c #403630",
"P.	c #4F3C2F",
"Q.	c #676C75",
"R.	c #626973",
"S.	c #B2B6BE",
"T.	c #ADB1B9",
"U.	c #DAD9DC",
"V.	c #D8D8DA",
"W.	c #ABABAD",
"X.	c #2A2827",
"Y.	c #282625",
"Z.	c #A56341",
"`.	c #A26242",
" +	c #583426",
".+	c #83411F",
"++	c #814020",
"@+	c #86421F",
"#+	c #423030",
"$+	c #963636",
"%+	c #22302D",
"&+	c #343635",
"*+	c #312F2C",
"=+	c #CCCACC",
"-+	c #501400",
";+	c #272B2B",
">+	c #C4C4C7",
",+	c #D4D4D7",
"'+	c #D7D7DA",
")+	c #D5D5D8",
"!+	c #262525",
"~+	c #0D292D",
"{+	c #86421E",
"]+	c #9D5937",
"^+	c #443631",
"/+	c #1D2C2E",
"(+	c #553E2B",
"_+	c #664528",
":+	c #4A382D",
"<+	c #8B8989",
"[+	c #723200",
"}+	c #CAC4C5",
"|+	c #949496",
"1+	c #312E2D",
"2+	c #919193",
"3+	c #D2D2D5",
"4+	c #E1E1E3",
"5+	c #2F2F2D",
"6+	c #242C2E",
"7+	c #91583D",
"8+	c #A36342",
"9+	c #783B1F",
"0+	c #473A2D",
"a+	c #4D3B2C",
"b+	c #47382A",
"c+	c #744A25",
"d+	c #5B402A",
"e+	c #3F3429",
"f+	c #613B2E",
"g+	c #6D4737",
"h+	c #000000",
"i+	c #D2D3D7",
"j+	c #813A0A",
"k+	c #AC9895",
"l+	c #AAABAE",
"m+	c #090808",
"n+	c #F7F7F9",
"o+	c #EAEAEC",
"p+	c #D1D1D4",
"q+	c #D1D1D5",
"r+	c #ECECEE",
"s+	c #D8D8D9",
"t+	c #B5B5B5",
"u+	c #714936",
"v+	c #864627",
"w+	c #5D3628",
"x+	c #6F4827",
"y+	c #443020",
"z+	c #362F2E",
"A+	c #3D3431",
"B+	c #7D3E1F",
"C+	c #7E3F1F",
"D+	c #7C3E1F",
"E+	c #2C2F30",
"F+	c #272E2F",
"G+	c #293031",
"H+	c #221F1F",
"I+	c #323231",
"J+	c #120D0A",
"K+	c #5B5B5B",
"L+	c #F9F9F9",
"M+	c #F8F8F8",
"N+	c #363635",
"O+	c #292726",
"P+	c #403025",
"Q+	c #613929",
"R+	c #A36343",
"S+	c #A46443",
"T+	c #7C3D1D",
"U+	c #40494E",
"V+	c #8F96A1",
"W+	c #300000",
"X+	c #4A2C17",
"Y+	c #878D97",
"Z+	c #747B86",
"`+	c #6C6E75",
" @	c #371D09",
".@	c #2F2C2B",
"+@	c #425033",
"@@	c #5A3E2A",
"#@	c #38302D",
"$@	c #354632",
"%@	c #5F3525",
"&@	c #5E3525",
"*@	c #633828",
"=@	c #633927",
"-@	c #723D15",
";@	c #707C87",
">@	c #64686F",
",@	c #959CA7",
"'@	c #7A8089",
")@	c #75797A",
"!@	c #2E2B29",
"~@	c #3A3935",
"{@	c #894726",
"]@	c #A96542",
"^@	c #093A60",
"/@	c #1E2F53",
"(@	c #24314F",
"_@	c #274882",
":@	c #2D67BF",
"<@	c #4A3521",
"[@	c #242E2F",
"}@	c #9F6040",
"|@	c #A66442",
"1@	c #0B3759",
"2@	c #2D6BC6",
"3@	c #2D6BC7",
"4@	c #2C69C3",
"5@	c #252D2A",
"6@	c #643623",
"7@	c #3D312D",
"8@	c #7E3E1D",
"9@	c #85401A",
"0@	c #1E3C5E",
"a@	c #275EAD",
"b@	c #2861B3",
"c@	c #225396",
"d@	c #915233",
"e@	c #693924",
"f@	c #41322C",
"g@	c #783E23",
"h@	c #142D2F",
"i@	c #312E29",
"j@	c #312A10",
"k@	c #2B2B19",
"l@	c #753D23",
"m@	c #653927",
". . + . . . . . . . . . . . . . @ # . . . . . . . . . . . . + . . . + ",
". . . + . . . . . + . . . . . . . . . . . . . . . . . # . + + . . . . ",
". . . # # . . . + . . . . . . . . . . . . . . . . . # . . + . . . . . ",
". . # # . . . + + . . # . . . . . . . . . . . . . . . . . . . . . . # ",
". . . . . . + + + # . . # . . . . . . . . + . . $ $ . . . . . . . . . ",
". . + + + + + # # . % . . # . . . . . . . . + $ $ . $ $ . . . . . . + ",
". + + . . # # . . . . . . & * = . . . $ $ + + $ % $ % % % . . . . + + ",
". . . . . . . . . . . - ; > , ' - - ) . $ $ . % . % . ! . @ . . . . . ",
". . . . . . . . . . ~ { ] ^ / ( , , _ : . $ % + ! . ! # % % . . . . . ",
". . . . . . . . . < [ / } | 1 2 3 4 5 6 7 8 % # + . . % % # . . . . . ",
". . . . . . . . 9 [ 0 a b c d e f g h i j k . . + + . . . . . . . . . ",
". . . . @ . . ) l 0 a m n o p q r r s t u v % . . + + . . . . . . . . ",
". . . . . . . w l 0 x y z A j B C D E F G H . . . . + . . . . # . . . ",
". . . . . . I J K L 0 M N O P Q R S T U V W . . . . . . . . # . . . . ",
". # . . . . X Y Z [ 0 0 `  ...+.@.#.$.%.&.*.. . . . . . . . . . . # . ",
". . # . . =.-.D ;.>.0 0 ,.'...).!.~.{.].^./.(.. . . . . . . . . . . # ",
". . . # . _.:.D <.[.0 0 0 }.......|.1.2.2.3.(.. . . . . . . . 4.w . . ",
". . . . . _.:.D 5.6.M 0 0 L 7.8.....9.0.0.0.a.. . . . . 0.0.b.c.d.. . ",
". . . + + e.f.D g.h.i.L 0 0 ^ j.k.l.m.n.o.p.q.. r.s.t.u.v.w.x.y.. . . ",
". . + + # z.A.B...C.D.E.F.M G.H.I.J.K.L.M.N.O.P.Q.R.S.T.U.V.V.W.X.Y.+ ",
". % + . . _.Z.D `. +.+++@+#+$+$+$+$+%+&+*+=+-+;+>+,+,+,+,+,+,+,+'+)+!+",
". . . . . _.:.D :.~+{+l.]+^+/+(+_+_+:+<+[+}+|+. 1+2+,+,+,+,+,+3+4+5+. ",
". . . . . 6+7+D 8+9+0+a+b+c+d+e+f+g+h+i+j+k+l+. m+n+o+p+q+p+r+s+t+. . ",
". . . . . % u+D v+w+x+y+z+A+B+C+D+r E+. F+G+H+. I+J+K+L+M+p N+O+. . . ",
". . . $ d.P+Q+R+S+T+U+V+W+X+Y+Z+`+ @. . . . . . + + . .@.@.@. . . . . ",
". . . +@@@#@$@%@&@*@=@-@;@>@,@v.'@)@!@. + + + + . . . . . . . . + + . ",
". . + % $ % # % $ ~@{@D ]@^@/@(@_@:@<@+ + # # . . . # . . . . . . + + ",
". + . . % % ! ! % [@{+}@|@1@2@3@4@5@C 6@# . . . . # . . . . . . . . . ",
"+ . . . . . . . . . 7@8@9@0@a@b@c@.+d@e@. . . . # . . + + . . . . . . ",
"+ @ . . . . # . . . f@g@h@i@j@j@k@l@l@m@. . . . . . . . + . @ . + . . ",
". . . . . . . # . . . w . . . . . w w . . . . . . . . . . + + . . . @ ",
". # . . . . . . . . . . . . . . . + + . . . . . . . . . . + + . . . . ",
". . # . . . . . . . . . . . @ # . . + + . . . . . . . . + . @ . . . + ",
". . . # . . . . . . . . . # # . . . . + + . . . # . . + + . . . . + + ",
". . . . . . + + + . . . . . . . . . . . . . . . . # . . . . . . . + . "};
