/* XPM */
static char * idle_3_xpm[] = {
"35 35 340 2",
"  	c None",
". 	c #33302F",
"+ 	c #2F2D2D",
"@ 	c #44352C",
"# 	c #2C2A2A",
"$ 	c #485734",
"% 	c #50433A",
"& 	c #2C302F",
"* 	c #252F2E",
"= 	c #242F2E",
"- 	c #35302F",
"; 	c #43302F",
"> 	c #7E3333",
", 	c #993636",
"' 	c #9D3637",
") 	c #3B2F2E",
"! 	c #31302F",
"~ 	c #32302F",
"{ 	c #2A2825",
"] 	c #26302F",
"^ 	c #7B3030",
"/ 	c #983636",
"( 	c #803030",
"_ 	c #7D3030",
": 	c #8F3535",
"< 	c #523030",
"[ 	c #733030",
"} 	c #7E3030",
"| 	c #8C3333",
"1 	c #777373",
"2 	c #4E0000",
"3 	c #7C3030",
"4 	c #883232",
"5 	c #9D3737",
"6 	c #9C3636",
"7 	c #570E0D",
"8 	c #838383",
"9 	c #302D2D",
"0 	c #773030",
"a 	c #808282",
"b 	c #F1F2F2",
"c 	c #752E2E",
"d 	c #37312B",
"e 	c #35312B",
"f 	c #36312B",
"g 	c #8D3334",
"h 	c #A6ACAC",
"i 	c #AAAAAA",
"j 	c #473B33",
"k 	c #3C2F2E",
"l 	c #7F3030",
"m 	c #813030",
"n 	c #43322C",
"o 	c #7E4020",
"p 	c #818383",
"q 	c #FFFFFF",
"r 	c #3F4343",
"s 	c #A1603F",
"t 	c #9E5E3E",
"u 	c #84482A",
"v 	c #6A3F2F",
"w 	c #B2B2B2",
"x 	c #2D2F2F",
"y 	c #3D2F2E",
"z 	c #63312E",
"A 	c #553629",
"B 	c #685854",
"C 	c #E8E9EA",
"D 	c #D7D9DA",
"E 	c #8C4D27",
"F 	c #A06040",
"G 	c #A26141",
"H 	c #A16040",
"I 	c #5E2501",
"J 	c #313030",
"K 	c #302F2F",
"L 	c #683925",
"M 	c #4B322C",
"N 	c #843030",
"O 	c #663B28",
"P 	c #791F00",
"Q 	c #6E0000",
"R 	c #8F6456",
"S 	c #964D1D",
"T 	c #A26140",
"U 	c #935435",
"V 	c #8D4A27",
"W 	c #865F54",
"X 	c #2D2E2D",
"Y 	c #703920",
"Z 	c #A36242",
"` 	c #773B1E",
" .	c #783030",
"..	c #653A26",
"+.	c #804020",
"@.	c #814020",
"#.	c #898C8C",
"$.	c #34312F",
"%.	c #85411E",
"&.	c #666969",
"*.	c #FDFEFE",
"=.	c #2E2B2A",
"-.	c #935A3E",
";.	c #9F5F3F",
">.	c #33312C",
",.	c #4F2D30",
"'.	c #87421E",
").	c #723615",
"!.	c #661B00",
"~.	c #985737",
"{.	c #965737",
"].	c #915434",
"^.	c #7B3B02",
"/.	c #49332C",
"(.	c #92593D",
"_.	c #9D5D3E",
":.	c #793030",
"<.	c #37322C",
"[.	c #7E3E1E",
"}.	c #995939",
"|.	c #8C563C",
"1.	c #8C553B",
"2.	c #48322B",
"3.	c #312E2C",
"4.	c #302E2C",
"5.	c #302E2D",
"6.	c #352F2B",
"7.	c #3A322D",
"8.	c #83401E",
"9.	c #5D2E30",
"0.	c #712F30",
"a.	c #7E4021",
"b.	c #82401F",
"c.	c #2F2F2E",
"d.	c #2E2E2D",
"e.	c #4D535A",
"f.	c #50565D",
"g.	c #585456",
"h.	c #35312D",
"i.	c #2E2D2D",
"j.	c #743B21",
"k.	c #88492A",
"l.	c #7C3B1A",
"m.	c #83411F",
"n.	c #2C2D2F",
"o.	c #6E2F30",
"p.	c #3C332B",
"q.	c #89421D",
"r.	c #735C2E",
"s.	c #00002D",
"t.	c #E3B036",
"u.	c #29262E",
"v.	c #232A2B",
"w.	c #454E55",
"x.	c #3F4449",
"y.	c #626972",
"z.	c #7C848F",
"A.	c #C0C2C7",
"B.	c #C6C7CC",
"C.	c #C9CBD0",
"D.	c #292626",
"E.	c #2B2A2A",
"F.	c #7E462C",
"G.	c #A36343",
"H.	c #864320",
"I.	c #633827",
"J.	c #4F342B",
"K.	c #682F30",
"L.	c #873232",
"M.	c #9D3636",
"N.	c #5E3032",
"O.	c #2A2E2E",
"P.	c #8D6F2D",
"Q.	c #C49834",
"R.	c #25182B",
"S.	c #4C392C",
"T.	c #664326",
"U.	c #695041",
"V.	c #B5B9C1",
"W.	c #C4C5CA",
"X.	c #D8D8DA",
"Y.	c #D4D4D7",
"Z.	c #AAAAAC",
"`.	c #868687",
" +	c #353332",
".+	c #413732",
"++	c #81401F",
"@+	c #573829",
"#+	c #863131",
"$+	c #973636",
"%+	c #1F302D",
"&+	c #282F2E",
"*+	c #6F4827",
"=+	c #714927",
"-+	c #3A2E26",
";+	c #35312F",
">+	c #36312F",
",+	c #322F2E",
"'+	c #000000",
")+	c #DADADD",
"!+	c #BBBBBE",
"~+	c #965B3E",
"{+	c #7B4228",
"]+	c #613728",
"^+	c #45312C",
"/+	c #44302C",
"(+	c #60412E",
"_+	c #674529",
":+	c #674528",
"<+	c #43352A",
"[+	c #3B342D",
"}+	c #252D2D",
"|+	c #202D2F",
"1+	c #7F3F20",
"2+	c #8A4A2A",
"3+	c #7D0000",
"4+	c #9FA1A4",
"5+	c #312F2E",
"6+	c #ADADB0",
"7+	c #D2D2D5",
"8+	c #D3D3D6",
"9+	c #CFCFD2",
"0+	c #676766",
"a+	c #13232B",
"b+	c #A56241",
"c+	c #854322",
"d+	c #533D2B",
"e+	c #724926",
"f+	c #5C402A",
"g+	c #573E29",
"h+	c #3E312A",
"i+	c #58362A",
"j+	c #743000",
"k+	c #B49E9A",
"l+	c #86421E",
"m+	c #272A2B",
"n+	c #43322D",
"o+	c #663824",
"p+	c #C7C5C7",
"q+	c #AEADAF",
"r+	c #312E2D",
"s+	c #BCBCBB",
"t+	c #C8C8C8",
"u+	c #EFEFF1",
"v+	c #EDEDEF",
"w+	c #E7E7E9",
"x+	c #CDCDCC",
"y+	c #1E1C1B",
"z+	c #162A2D",
"A+	c #A36140",
"B+	c #874625",
"C+	c #292E2E",
"D+	c #252C2D",
"E+	c #7D3E1E",
"F+	c #A46241",
"G+	c #9C5B3B",
"H+	c #7C3E1F",
"I+	c #720B00",
"J+	c #DCDEE1",
"K+	c #4B4F50",
"L+	c #D5D5D8",
"M+	c #020202",
"N+	c #080707",
"O+	c #171514",
"P+	c #684528",
"Q+	c #2C2E2E",
"R+	c #683C29",
"S+	c #894726",
"T+	c #844220",
"U+	c #5E2A02",
"V+	c #9198A3",
"W+	c #44342F",
"X+	c #422919",
"Y+	c #5B5150",
"Z+	c #767D87",
"`+	c #777E89",
" @	c #5A5957",
".@	c #605F5E",
"+@	c #435233",
"@@	c #384632",
"#@	c #415133",
"$@	c #344532",
"%@	c #222E2F",
"&@	c #4B342D",
"*@	c #5E2900",
"=@	c #6F767E",
"-@	c #6D7176",
";@	c #73787D",
">@	c #828994",
",@	c #838A96",
"'@	c #6A6D6C",
")@	c #475634",
"!@	c #653927",
"~@	c #894A2B",
"{@	c #A76442",
"]@	c #124D8B",
"^@	c #2657A0",
"/@	c #24314F",
"(@	c #232939",
"_@	c #2C6FD0",
":@	c #4A3831",
"<@	c #3A322F",
"[@	c #3A3531",
"}@	c #2C2B29",
"|@	c #2E2F2E",
"1@	c #743D24",
"2@	c #7E3D1C",
"3@	c #A26242",
"4@	c #A36241",
"5@	c #144C88",
"6@	c #2960B1",
"7@	c #2D6AC6",
"8@	c #2D6CC8",
"9@	c #1D5294",
"0@	c #583E33",
"a@	c #793E22",
"b@	c #7F3F1F",
"c@	c #945535",
"d@	c #7A4C31",
"e@	c #20579E",
"f@	c #285CA9",
"g@	c #2D6BC6",
"h@	c #285FAF",
"i@	c #3D4165",
"j@	c #9C5937",
"k@	c #182A2E",
"l@	c #6F3B25",
"m@	c #753D23",
"n@	c #6E3B24",
"o@	c #2D2C1F",
"p@	c #29579E",
"q@	c #29569B",
"r@	c #295599",
"s@	c #2958A0",
"t@	c #513105",
"u@	c #733A20",
"v@	c #783D21",
"w@	c #262E2F",
"x@	c #33302E",
"y@	c #34302F",
". . + . . . . . . . . . . . . . @ # . . . . . . . . . . . . + . . . + ",
". . . + . . . . . + . . . . . . . . . . . . . . . . . # . + + . . . . ",
". . . # # . . . + . . . . . . . . . . . . . . . . . # . . + . . . . . ",
". . # # . . . + + . . # . . . . . . . . . . . . . . . . . . . . . . # ",
". . . . . . + + + # . . # . . . . . . . . + . . $ $ . . . . . . . . . ",
". . + + + + + # # . % . . # . . . . . . . . + $ $ . $ $ . . . . . . + ",
". + + . . # # . . . . . & * = . . . . $ $ + + $ % $ % % % . . . . + + ",
". . . . . . . . . . - ; > , ' ) ; ! ~ . $ $ . % . % . { . @ . . . . . ",
". . . . . . . . . ] ^ / ( _ , , , : < . . $ % + { . { # % % . . . . . ",
". . . . . . . . ] [ } | 1 2 3 4 5 6 5 7 8 9 % # + . . % % # . . . . . ",
". . . . . . . . ^ } _ 0 a b c d e f g h i j . . + + . . . . . . . . . ",
". . . . @ . . k l m n o p q r s t t u v w j % . . + + . . . . . . . . ",
". . . . . . x y l l z A B C D E F F G H I J . . . . + . . . . # . . . ",
". . . . . K L M _ } l N O P Q R S T U V W X . . . . . . . . # . . . . ",
". # . . ~ Y Z `  .} } ( ..+.@.#.q $.%.&.*.=.. . . . . . . . . . . # . ",
". . # . ~ -.F ;.>.m } } ,.'.+.).!.~.{.].^./.. . . . . . . . . . . . # ",
". . . # ~ (.F _.A :.} } N <.+.+.[.}.|.|.1.2.. . . . . 3.4.5.6.7.. . . ",
". . . . ~ (.F _.8.9.} } } 0.a.+.b.c.c.c.c.c.. . . ! d.e.f.g.h.~ . . . ",
". . . + i.j.k.l.m.n.N } } l o.p.q.c.r.s.t.u.v.w.x.y.z.A.B.B.C.D.. . . ",
". . + + E.F.G.F H.I.J.K.0 _ L.M.N.O.P.Q.R.S.T.U.V.W.X.Y.Y.Y.Y.Z.`. ++ ",
". % + . ~ (.F H .+m.+.++@+#+$+%+&+*+=+-+;+>+c.,+'+)+Y.Y.Y.Y.Y.Y.!+. + ",
". . . . ~ ~+F F {+]+^+/+(+_+:+<+[+}+|+1+2+3+4+5+6+7+Y.Y.Y.8+9+q 0+. . ",
". . . . . a+b+;.c+d+e+f+g+h+i+j+k+l+m+n+o+p+q+r+s+t+u+v+v+w+x+y+. . . ",
". . . . ~ z+A+H B+C+D+E+F+G+H+I+J+K+. . . L+. . . % M+N+N+O+. . . . . ",
". . . S.P+Q+R+S+T+U+V+W+X+Y+Z+`+ @.@. . . . . . + + . . . . . . . . . ",
". . . +@@@# #@$@%@&@*@=@-@;@>@,@'@c.. . + + + + . . . . . . . . + + . ",
". . + % $ % # % )@!@~@{@]@^@/@(@_@:@<@+ + # # . . . # . . . . . . + + ",
". + . . % [@}@|@1@2@3@4@5@6@7@8@9@H 0@+ # . . . . # . . . . . . . . . ",
"+ . . . 5+~ ~ |@a@b@c@d@e@f@g@h@i@3@j@k@. . . . # . . + + . . . . . . ",
"+ @ . . . . # c.l@m@n@o@p@q@r@s@t@u@v@w@. . . . . . . . + . @ . + . . ",
". . . . . . . # ~ ~ ~ . x@x@x@x@y@|@|@. . . . . . . . . . + + . . . @ ",
". # . . . . . . . . . . . . . . . + + . . . . . . . . . . + + . . . . ",
". . # . . . . . . . . . . . @ # . . + + . . . . . . . . + . @ . . . + ",
". . . # . . . . . . . . . # # . . . . + + . . . # . . + + . . . . + + ",
". . . . . . + + + . . . . . . . . . . . . . . . . # . . . . . . . + . "};
