/* XPM */
static char * idle_2_xpm[] = {
"35 35 347 2",
"  	c None",
". 	c #33302F",
"+ 	c #2F2D2D",
"@ 	c #44352C",
"# 	c #2C2A2A",
"$ 	c #485734",
"% 	c #50433A",
"& 	c #262F2E",
"* 	c #6F3332",
"= 	c #6D3232",
"- 	c #47302F",
"; 	c #252F2E",
"> 	c #2F302F",
", 	c #943535",
"' 	c #9C3636",
") 	c #7A2F2F",
"! 	c #7C2F2F",
"~ 	c #9B3737",
"{ 	c #9B3636",
"] 	c #3E302F",
"^ 	c #2A2825",
"/ 	c #26302F",
"( 	c #7B3030",
"_ 	c #7C3030",
": 	c #903435",
"< 	c #421615",
"[ 	c #7E3030",
"} 	c #803030",
"| 	c #983636",
"1 	c #993636",
"2 	c #763332",
"3 	c #42502F",
"4 	c #733030",
"5 	c #813030",
"6 	c #490000",
"7 	c #BEBEBE",
"8 	c #643C3C",
"9 	c #6B2F30",
"0 	c #5E2F30",
"a 	c #6D3133",
"b 	c #853233",
"c 	c #8E2020",
"d 	c #BDBEBE",
"e 	c #5C5C5C",
"f 	c #31302F",
"g 	c #7A3030",
"h 	c #7D3030",
"i 	c #43322C",
"j 	c #140500",
"k 	c #CCCCCC",
"l 	c #7E7E7E",
"m 	c #703C21",
"n 	c #894726",
"o 	c #603E2F",
"p 	c #120000",
"q 	c #EEEFEF",
"r 	c #595958",
"s 	c #32302F",
"t 	c #773030",
"u 	c #753030",
"v 	c #7E4020",
"w 	c #4D1600",
"x 	c #FFFFFF",
"y 	c #7A3100",
"z 	c #A06040",
"A 	c #9F5F3F",
"B 	c #763818",
"C 	c #4A433D",
"D 	c #2D2E30",
"E 	c #633927",
"F 	c #7F3030",
"G 	c #662F30",
"H 	c #61352D",
"I 	c #6A3D2B",
"J 	c #C0B0AB",
"K 	c #9F837A",
"L 	c #924A1C",
"M 	c #A26242",
"N 	c #925333",
"O 	c #9B5C3C",
"P 	c #A36242",
"Q 	c #452D24",
"R 	c #6A3C2A",
"S 	c #874728",
"T 	c #2D312C",
"U 	c #823030",
"V 	c #532E30",
"W 	c #85411E",
"X 	c #804020",
"Y 	c #390000",
"Z 	c #B7B3B2",
"` 	c #A98E87",
" .	c #844423",
"..	c #854729",
"+.	c #8F6E65",
"@.	c #6A6D6D",
"#.	c #152A2D",
"$.	c #A46241",
"%.	c #864525",
"&.	c #5F2E30",
"*.	c #46342B",
"=.	c #82401E",
"-.	c #303D3E",
";.	c #424546",
">.	c #803F1D",
",.	c #30393A",
"'.	c #79422B",
").	c #242E2F",
"!.	c #142A2D",
"~.	c #884625",
"{.	c #5D2D30",
"].	c #64312E",
"^.	c #7F4020",
"/.	c #82401F",
"(.	c #8F4F2F",
"_.	c #A66443",
":.	c #A66442",
"<.	c #A86442",
"[.	c #8D4A29",
"}.	c #232E2F",
"|.	c #292D2F",
"1.	c #A56341",
"2.	c #844526",
"3.	c #5C3927",
"4.	c #752F30",
"5.	c #6D3B25",
"6.	c #814020",
"7.	c #30262A",
"8.	c #11292C",
"9.	c #0C282C",
"0.	c #673725",
"a.	c #282E2F",
"b.	c #302E2C",
"c.	c #302D2B",
"d.	c #353739",
"e.	c #343739",
"f.	c #443122",
"g.	c #5B3C21",
"h.	c #2A2D2F",
"i.	c #925130",
"j.	c #9D5D3E",
"k.	c #803F1F",
"l.	c #5C3828",
"m.	c #6A3B25",
"n.	c #AE872E",
"o.	c #00172E",
"p.	c #40392E",
"q.	c #785F30",
"r.	c #312F2E",
"s.	c #2F2F2E",
"t.	c #2C2B29",
"u.	c #51585F",
"v.	c #4A5057",
"w.	c #959CA7",
"x.	c #9299A4",
"y.	c #61656B",
"z.	c #222E2F",
"A.	c #8C4B2A",
"B.	c #975839",
"C.	c #814121",
"D.	c #5E3729",
"E.	c #6C3B26",
"F.	c #6F2E2F",
"G.	c #783432",
"H.	c #45342A",
"I.	c #5C4B2E",
"J.	c #BA902F",
"K.	c #C49934",
"L.	c #3E3A2F",
"M.	c #48372D",
"N.	c #654429",
"O.	c #7B7F88",
"P.	c #777F8B",
"Q.	c #C9CACF",
"R.	c #C5C6CB",
"S.	c #D7D6D9",
"T.	c #D6D6D8",
"U.	c #C8C8CB",
"V.	c #191717",
"W.	c #171615",
"X.	c #10282C",
"Y.	c #A66342",
"Z.	c #A46343",
"`.	c #5B3426",
" +	c #83411F",
".+	c #553629",
"++	c #4B3428",
"@+	c #712F30",
"#+	c #8A3232",
"$+	c #8C3435",
"%+	c #803334",
"&+	c #843334",
"*+	c #4E3B2B",
"=+	c #29202B",
"-+	c #00072E",
";+	c #5F4128",
">+	c #513927",
",+	c #232A2C",
"'+	c #AAAAAC",
")+	c #C8C8CA",
"!+	c #D4D4D7",
"~+	c #DBDBDE",
"{+	c #BBBBBE",
"]+	c #292727",
"^+	c #05292D",
"/+	c #7E3F21",
"(+	c #975737",
"_+	c #192A2C",
":+	c #2D302E",
"<+	c #5F4129",
"[+	c #6F4827",
"}+	c #6E4827",
"|+	c #302E2B",
"1+	c #272E2F",
"2+	c #844221",
"3+	c #A16140",
"4+	c #7F4F39",
"5+	c #9A9A9C",
"6+	c #D5D5D8",
"7+	c #E3E3E5",
"8+	c #3B3B3A",
"9+	c #302F2F",
"0+	c #7D4E39",
"a+	c #A36343",
"b+	c #663623",
"c+	c #664529",
"d+	c #664428",
"e+	c #6E4725",
"f+	c #36312A",
"g+	c #232F2D",
"h+	c #753B21",
"i+	c #90583D",
"j+	c #49342E",
"k+	c #282524",
"l+	c #854220",
"m+	c #781E00",
"n+	c #683B29",
"o+	c #0E0C0C",
"p+	c #FAFAFA",
"q+	c #D0D0D3",
"r+	c #D0D0D4",
"s+	c #CFCFD3",
"t+	c #FCFCFD",
"u+	c #BCBCBC",
"v+	c #777676",
"w+	c #734A37",
"x+	c #8F5031",
"y+	c #5B3528",
"z+	c #5E402A",
"A+	c #392F27",
"B+	c #674233",
"C+	c #6C4637",
"D+	c #9A5837",
"E+	c #85411C",
"F+	c #9D5425",
"G+	c #D8D8DB",
"H+	c #1F2223",
"I+	c #CBCDD0",
"J+	c #2C2A29",
"K+	c #353433",
"L+	c #1F1D1C",
"M+	c #3C3B3A",
"N+	c #CBCBCB",
"O+	c #CBCBCA",
"P+	c #CCCCCB",
"Q+	c #1E1C1B",
"R+	c #2E2B2A",
"S+	c #37312E",
"T+	c #423124",
"U+	c #563327",
"V+	c #A05F3F",
"W+	c #A0603F",
"X+	c #833F1B",
"Y+	c #263132",
"Z+	c #3A4144",
"`+	c #7A3915",
" @	c #9E5F3F",
".@	c #3F4042",
"+@	c #333A3D",
"@@	c #5B3A2C",
"#@	c #D6D8DB",
"$@	c #B2B2B4",
"%@	c #B9B9BB",
"&@	c #D2D2D4",
"*@	c #475634",
"=@	c #3F342D",
"-@	c #493E37",
";@	c #4C4139",
">@	c #41312C",
",@	c #45322C",
"'@	c #263336",
")@	c #3A464C",
"!@	c #9097A2",
"~@	c #767D88",
"{@	c #939AA5",
"]@	c #7E8590",
"^@	c #7B838E",
"/@	c #A2A7B1",
"(@	c #D7D7DA",
"_@	c #413F3E",
":@	c #676667",
"<@	c #626161",
"[@	c #253931",
"}@	c #8A4623",
"|@	c #482700",
"1@	c #19427D",
"2@	c #6F7274",
"3@	c #616462",
"4@	c #565E71",
"5@	c #1B488C",
"6@	c #5F3625",
"7@	c #70451B",
"8@	c #275FAE",
"9@	c #2D6CC9",
"0@	c #2D6CCA",
"a@	c #2D6CC8",
"b@	c #2D65BA",
"c@	c #985B33",
"d@	c #17272C",
"e@	c #613828",
"f@	c #864627",
"g@	c #A26141",
"h@	c #724400",
"i@	c #275FAF",
"j@	c #285EAC",
"k@	c #2E6CC8",
"l@	c #2F2E2A",
"m@	c #A36141",
"n@	c #82513A",
"o@	c #80401F",
"p@	c #843F1B",
"q@	c #104E8C",
"r@	c #285DAA",
"s@	c #295FAE",
"t@	c #2558A0",
"u@	c #663927",
"v@	c #955332",
"w@	c #693822",
"x@	c #5C3729",
"y@	c #202D2F",
"z@	c #2D497E",
"A@	c #29569B",
"B@	c #264E89",
"C@	c #753D23",
"D@	c #1A2D2F",
"E@	c #282F2F",
"F@	c #33302E",
". . + . . . . . . . . . . . . . @ # . . . . . . . . . . . . + . . . + ",
". . . + . . . . . + . . . . . . . . . . . . . . . . . # . + + . . . . ",
". . . # # . . . + . . . . . . . . . . . . . . . . . # . . + . . . . . ",
". . # # . . . + + . . # . . . . . . . . . . . . . . . . . . . . . . # ",
". . . . . . + + + # . . # . . . . . . . . + . . $ $ . . . . . . . . . ",
". . + + + + + # # . % . . # . . . . . . . . + $ $ . $ $ . . . . . . + ",
". + + . . # # . . . . & & * = - ; ; . $ $ + + $ % $ % % % . . . . + + ",
". . . . . . . . . . > , ' ) ! ~ { { ] . $ $ . % . % . ^ . @ . . . . . ",
". . . . . . . . . / ( _ : < [ } ~ | 1 2 . 3 % + ^ . ^ # % % . . . . . ",
". . . . . . . . / 4 [ 5 6 7 8 9 0 a b c d e % # + . . % % # . . . . . ",
". . . . . . . f g [ h i j k l m n n o p q r . . + + . . . . . . . . . ",
". . . . @ . . s t [ u v w k x y z z z A B C % . . + + . . . . . . . . ",
". . . . . . D E g [ F G H I J K L M N O P Q . . . . + . . . . # . . . ",
". . . . . f R S T U [ [ V W X Y Z `  ...+.@.. . . . . . . . # . . . . ",
". # . . . #.$.z %.&.[ [ } *.X =.-.;.>.>.,.'.).. . . . . . . . . . # . ",
". . # . . !.$.z ~.{.[ [ F ].^.X /.(._.:.<.[.}.. . . . . . . . |.s . # ",
". . . # . !.1.z 2.3.5 [ [ 4.5.6.X X 7.8.9.0.a.. . . b.c.d.e.f.g.h.. . ",
". . . . . }.i.j.k.l.5 [ [ [ F m.X X n.o.p.q.r.. s.t.u.v.w.x.x.y.. . . ",
". . . + + z.A.B.C.D.E.[ U [ [ F.G.H.I.J.K.L.M.N.O.P.Q.R.S.T.T.U.V.W.. ",
". . + + # X.Y.z Z.`. +.+++@+#+$+%+&+*+=+-+;+>+,+'+)+!+!+!+!+!+!+~+{+]+",
". % + . . !.$.z $.^+6./+(+_+:+<+[+}+|+1+2+3+4+. . 5+!+!+!+!+!+6+7+8++ ",
". . . . . 9+0+z a+b+N.c+d+e+f+g+h+i+j+k+l+m+n+. o+x p+q+r+s+t+u+v+. . ",
". . . . . f w+z x+y+z+A+B+C+D+E+S F+V.G+H+I+J+. K+L+M+N+O+P+Q+R+. . . ",
". . . . S+T+U+V+W+X+Y+Z+`+ @.@+@@@#@6+$@. %@!+&@. % . . . . . . . . . ",
". . . *@=@-@;@>@>@,@'@)@!@~@{@]@^@/@(@_@. . :@<@+ + . . . . . . . . . ",
". . . $ $ # $ $ % [@}@:.|@1@2@3@4@5@Q+. + + + + . . . . . . . . + + . ",
". . + % $ % # % $ 6@z z 7@8@9@0@a@b@c@d@+ # # . . . # . . . . . . + + ",
". + . . % % ^ ^ % e@f@g@h@i@j@k@j@l@m@n@# . . . . # . . . . . . . . . ",
"+ . . . . . . . . e@o@p@q@r@r@s@t@u@v@w@. . . . # . . + + . . . . . . ",
"+ @ . . . . # . . x@5.y@z@A@A@A@B@C@D@E@. . . . . . . . + . @ . + . . ",
". . . . . . . # . . s . F@F@F@F@F@s . . . . . . . . . . . + + . . . @ ",
". # . . . . . . . . . . . . . . . + + . . . . . . . . . . + + . . . . ",
". . # . . . . . . . . . . . @ # . . + + . . . . . . . . + . @ . . . + ",
". . . # . . . . . . . . . # # . . . . + + . . . # . . + + . . . . + + ",
". . . . . . + + + . . . . . . . . . . . . . . . . # . . . . . . . + . "};
